<svg id="Calque_1" xmlns="http://www.w3.org/2000/svg" viewBox="0 0 278.59 33.82"><style>.st0{fill:#fffbea}</style><path class="st0" d="M55.6 33.81h-6.08V5.2h2.8c4.26 0 7.73 3.47 7.73 7.73v.06c0 2.19-.92 4.18-2.39 5.58 3.27.9 5.67 3.9 5.67 7.45v.06c0 4.26-3.47 7.73-7.73 7.73zm-3.66-2.42h3.66c2.93 0 5.31-2.38 5.31-5.31v-.06c0-2.93-2.38-5.31-5.31-5.31h-3.66v10.68zm0-13.09h.37c2.93 0 5.31-2.38 5.31-5.31v-.06c0-2.93-2.38-5.31-5.31-5.31h-.37V18.3zm39.29 15.51h-8.86V5.2h2.43v26.19h6.43zm13.94 0h-8.85V5.2h2.42v26.19h6.43zM77.28 7.62V5.2h-8.86v28.62h8.86v-2.43h-6.43V15.96h6.43v-2.42h-6.43V7.62zm41.84 0V5.2h-8.85v28.62h8.85v-2.43h-6.43V15.96h6.43v-2.42h-6.43V7.62zM18.98 5.22c-2.78 0-5.03 2.26-5.03 5.03V33.8h2.42v-8.34h5.22v8.34h2.42V10.25c0-2.77-2.25-5.03-5.03-5.03zm-2.61 17.81V10.25c0-1.44 1.17-2.61 2.61-2.61s2.61 1.17 2.61 2.61v12.78h-5.22zM8.85 33.81H0V5.2h2.42v26.19h6.43zm250.76-.01c-2.78 0-5.03-2.26-5.03-5.03v-3.31H257v3.31c0 1.44 1.17 2.61 2.61 2.61s2.61-1.17 2.61-2.61v-2.41c0-.94-.31-1.86-.89-2.61l-5.37-7a6.748 6.748 0 0 1-1.39-4.08v-2.41c0-2.78 2.26-5.03 5.03-5.03s5.03 2.26 5.03 5.03v3.31h-2.42v-3.31c0-1.44-1.17-2.61-2.61-2.61s-2.61 1.17-2.61 2.61v2.41c0 .94.31 1.86.89 2.61l5.37 7a6.748 6.748 0 0 1 1.39 4.08v2.41a5.04 5.04 0 0 1-5.03 5.03zm-31.95.01c-7.89 0-14.3-6.42-14.3-14.3s6.42-14.3 14.3-14.3 14.3 6.42 14.3 14.3-6.41 14.3-14.3 14.3zm0-26.18c-6.55 0-11.88 5.33-11.88 11.88s5.33 11.88 11.88 11.88c6.55 0 11.88-5.33 11.88-11.88s-5.33-11.88-11.88-11.88zm-19.38-.01V5.2h-8.86v28.62h8.86v-2.43h-6.43V15.96h6.43v-2.42h-6.43V7.62zm70.31 0V5.2h-8.85v28.62h8.85v-2.43h-6.43V15.96h6.43v-2.42h-6.43V7.62zm-103.66 0V5.2h-8.85v28.62h8.85v-2.43h-6.43V15.96h6.43v-2.42h-6.43V7.62zm-.98-5.85l-6.89.65V.65l6.89-.65zm-20.48 32.04h-8.85V5.2h2.42v26.19h6.43zm5.1-28.61h2.42v28.6h-2.42zm88.49 0h2.42v28.6h-2.42zm-52.73 2.42V5.2c-7.89 0-14.31 6.42-14.31 14.31 0 7.89 6.42 14.31 14.31 14.31v-8.38h-2.42v5.7c-5.39-1.12-9.46-5.91-9.46-11.63-.01-6.56 5.33-11.89 11.88-11.89z"/></svg>