<svg width="393" height="226" viewBox="0 0 393 226" fill="none" xmlns="http://www.w3.org/2000/svg">
<path d="M300.869 186.852C295.27 186.852 289.19 186.37 283.821 188.246C281.665 189 275.044 192.518 275.708 195.725C276.301 198.591 283.585 199.161 285.785 199.528C287.817 199.866 289.991 200.318 292.06 199.845C294.273 199.339 295.605 197.125 297.764 196.549C300.336 195.863 301.57 195.084 303.658 193.443C305.129 192.288 295.764 192.176 294.468 191.954C286.812 190.642 279.404 189.134 271.62 189.134C266.249 189.134 261.56 189.383 256.631 187.232C255.244 186.627 253.751 186.954 252.385 186.218C250.63 185.274 249.25 184.721 247.251 184.444C244.156 184.014 240.357 182.921 237.237 183.556C233.926 184.231 225.872 192.488 223.04 186.567C221.234 182.789 219.345 177.325 216.386 174.366C213.703 171.684 209.528 172.67 206.372 173.733C202.277 175.111 199.156 178.224 194.647 178.296C192.786 178.326 191.112 178.326 189.386 177.535C184.02 175.076 178.276 172.243 173.383 168.948C165.817 163.851 161.52 155.403 151.708 154.371C148.727 154.057 146.82 151.864 144.071 150.948C142.324 150.366 140.091 149.186 138.557 148.191C137.365 147.418 134.686 146.475 133.296 146.036C131.428 145.446 129.639 143.501 127.719 143.501C123.787 143.501 127.257 139.603 128.48 138.114C132.967 132.647 140.563 134.375 146.986 134.375C155.907 134.375 164.675 136.676 173.605 136.276C174.396 136.241 188.454 133.337 187.802 132.093C185.786 128.244 177.42 127.604 173.795 127.086C168.3 126.301 162.751 125.097 157.158 125.597C150.171 126.221 143.559 128.671 136.465 128.671C135.588 128.671 131.653 129.689 131.015 129.114C129.449 127.705 139.481 124.127 140.3 123.854C143.797 122.688 147.473 122.788 151.106 122.396C155.347 121.939 159.585 121.157 163.781 120.4C171.515 119.003 179.35 117.873 187.041 116.185C193 114.877 203.705 106.226 191.922 104.84C188.628 104.453 183.987 104.162 180.767 104.967C177.782 105.713 175.195 107.565 171.989 107.565C165.644 107.565 172.834 95.4808 174.746 92.7349C177.482 88.8064 181.187 85.6712 183.873 81.6436C185.83 78.708 187.536 75.9772 189.07 72.7706C190.833 69.0824 189.161 65.8333 190.274 62.2181C191.722 57.5119 198.173 55.5345 202.062 53.8204C207.95 51.2258 214.932 52.236 221.329 52.236C225.498 52.236 229.52 53.3768 233.751 53.3768C238.284 53.3768 243.46 52.6611 247.885 53.6937C256.365 55.6724 265.108 55.8143 273.617 57.3696C282.642 59.0194 290.042 65.4927 299.475 65.894C306.813 66.2063 313.924 67.7521 321.087 69.2214C325.178 70.0605 330.451 69.5056 334.08 71.8833C337.44 74.0851 344.22 77.5319 344.22 82.1823C344.22 85.8568 340.827 87.9931 338.263 89.8828C332.38 94.2174 330.278 104.556 328.249 111.178C326.248 117.707 325.438 124.431 323.686 131.016C322.572 135.201 323.297 140.822 321.087 144.61C320.151 146.215 318.918 133.744 318.837 132.442C318.42 125.687 320.068 119.942 320.802 113.333C321.369 108.231 321.682 102.564 322.893 97.5833C323.971 93.1534 324.259 91.041 322.988 86.397C322.716 85.4021 322.233 81.2022 320.643 81.2633C317.554 81.3822 314.371 85.8744 312.658 87.9181C303.975 98.2758 298.471 110.928 291.553 122.459C289.147 126.469 286.773 130.724 283.504 134.121C278.141 139.694 282.328 124.513 282.775 122.935C285.838 112.124 290.042 101.354 293.708 90.7068C295.548 85.3622 296.745 79.7403 298.271 74.2917C298.304 74.1743 299.015 72.0261 298.524 72.1368C294.806 72.9764 290.312 80.201 288.194 82.7211C277.919 94.9438 270.732 109.405 260.307 121.445C255.524 126.969 258.754 120.222 260.054 116.755C262.907 109.147 265.057 101.528 266.93 93.6222C268.662 86.314 271.422 78.8612 272.254 71.3763C272.85 66.0098 269.179 69.4648 266.677 72.0101C254.921 83.965 246.491 98.6142 237.871 112.826C237.281 113.799 232.253 123.341 233.942 118.276C238.688 104.036 244.436 90.325 247.695 75.6227C247.941 74.5133 251.774 62.629 246.554 65.0384C241.646 67.3036 237.634 74.718 235.051 78.855C225.278 94.5044 217.024 111.372 210.523 128.639C208.582 133.796 210.651 127.954 211.062 126.769C214.368 117.233 217.091 107.667 218.826 97.7101C219.89 91.5996 220.093 87.3352 218.16 81.6436C216.629 77.134 215.295 79.0805 212.9 82.4042C210.058 86.3473 207.63 90.8004 205.801 95.3017C205.561 95.8928 203.392 101.562 205.58 98.5974C213.212 88.2567 218.297 75.411 222.945 63.4857C223.067 63.1742 225.019 58.9964 224.181 58.6372C221.839 57.6334 216.329 63.7561 215.372 64.7215C207.309 72.856 199.066 84.3102 195.946 95.6186C194.305 101.569 195.173 107.54 194.647 113.586C194.267 117.957 193.633 122.593 193.633 126.959C193.633 131.724 194.146 137.823 192.175 142.329C191.407 144.083 191.351 145.264 191.351 147.24C191.351 149.35 192.365 154.414 191.224 156.24C190.064 158.096 181.174 153.073 183.619 152.184C185.48 151.507 187.53 150.306 188.499 152.374C189.227 153.927 179.855 152.713 178.549 152.247C176.805 151.626 176.059 150.522 178.264 150.061C185.455 148.556 193.538 149.092 200.731 150.156C211.492 151.747 220.984 156.827 231.153 160.296C232.465 160.744 256.095 165.693 255.744 163.656C255.308 161.13 245.024 157.38 243.353 156.494C236.549 152.883 229.694 149.25 223.167 145.149C219.285 142.71 215.726 139.493 212.139 136.625C211.531 136.138 208.158 134.304 207.925 133.487C207.211 130.988 212.723 130.889 214.009 130.73C224.461 129.442 234.31 134.853 244.494 136.308C247.1 136.68 249.697 136.656 252.321 136.656C252.529 136.656 254.64 136.887 254.223 136.529C248.94 132.001 242.335 128.044 236.35 124.488C236.016 124.289 231.731 122.263 231.85 121.667C232.054 120.65 245.457 129.91 245.92 130.287C257.575 139.773 268.088 153.096 283.884 155.353C288.338 155.989 292.043 156.185 294.785 160.233C296.344 162.535 297.443 166.969 296.75 169.74C296.397 171.151 294.021 175.205 292.884 175.888C289.559 177.882 288.83 167.293 288.669 166.096C287.87 160.148 288.161 154.517 291.775 149.522C294.899 145.203 299.173 142.435 302.834 138.684C305.742 135.706 307.968 132.029 309.109 128.037C309.462 126.799 309.566 124.73 310.313 123.664C310.793 122.978 311.373 128.489 311.422 128.987C312.207 136.992 309.734 144.963 308.348 152.786C307.93 155.144 306.311 161.6 308.348 163.782C313.182 168.962 317.64 160.701 320.834 157.444C323.151 155.081 328.005 152.442 328.788 148.92C329.749 144.594 323.571 139.112 321.404 136.656" stroke="#FCE8C2" stroke-width="25" stroke-linecap="round"/>
<path d="M193.306 99.4316L245.806 74.4316M279.306 111.432L296.306 103.432M287.806 118.932L309.806 111.432M279.306 136.432L319.806 118.932M287.806 142.432C298.473 139.932 319.806 134.432 319.806 132.432M296.306 150.932H309.806M204.306 136.432L226.806 125.432M189.306 132.432L215.306 118.932M168.806 159.932L189.306 146.432M176.306 159.932L199.306 150.932M63.306 88.4316C71.9727 92.0983 90.606 99.4316 95.806 99.4316" stroke="#562714"/>
<path d="M189.306 71.4316L214.806 59.9316M189.306 82.9316L225.806 65.9316" stroke="#562714"/>
<path d="M123.806 6.43164C110.473 5.09831 76.106 1.83158 71.306 3.43158C65.306 5.43158 61.306 11.4316 58.306 16.4316" stroke="#562714"/>
<path d="M81.7604 13.7943C92.4958 13.6291 105.697 19.0357 116.029 18.4617C122.832 18.0838 131.943 16.1129 138.384 13.7943C143.643 11.9011 142.655 13.7942 148.701 13.7942C155.182 13.7942 165.08 17.9429 171.306 18.4617C177.528 18.9802 172.915 23.4318 178.806 23.4318M195.306 23.4318C199.256 24.485 213.143 25.1093 213.309 29.7619C213.649 39.2817 195.664 32.7069 191.016 33.0168C173.969 34.1532 168.701 58.3524 165.774 71.5232C164.771 76.0396 164.363 84.964 161.107 88.3506C158.927 90.6174 158.097 92.1022 156.931 94.9833C154.965 99.8394 151.951 101.618 148.701 105.301C145.311 109.143 139.152 113.422 133.716 112.179C128.99 111.099 121.321 107.805 117.38 112.425C107.881 123.562 107.179 136.745 89.4985 136.745C79.3607 136.745 71.1489 128.19 60.7569 127.901C55.9323 127.767 51.6731 125.69 46.8773 125.69C42.8412 125.69 47.3315 113.201 43.306 112.978C41.1092 112.855 34.701 126.773 33.1207 125.936C30.8242 124.72 29.3938 125.932 32.7522 127.41C39.9354 130.57 35.5869 127.901 43.306 127.901C54.2447 127.901 74.0412 136.745 85.0767 136.745C94.8751 136.745 103.405 142.162 112.713 136.99C119.044 133.473 125.086 124.739 128.189 117.952C133.607 106.102 131.753 91.9756 136.603 80.1212C142.43 65.8762 143.364 49.7562 153.553 37.8685C155.669 35.3999 164.486 34.0957 162.212 28.4107C159.992 22.8591 148.493 25.5069 144.771 26.6912C131.896 30.7876 117.82 30.6216 104.422 30.6216C100.718 30.6216 97.3425 29.7063 93.9203 29.5162C90.3889 29.32 84.9981 28.9142 81.7604 27.551C78.9147 26.3528 73.0777 27.2841 70.7059 29.1477C68.0536 31.2316 61.2887 41.447 60.7569 44.9925C60.269 48.2451 56.7035 49.5071 56.3351 52.7306C55.924 56.3271 79.4173 59.8472 78.3677 63.171C76.9894 67.5354 48.0875 73.4648 45.5262 77.0505C51.806 91.9126 33.4264 94.7499 34.2261 105.546C34.5414 109.803 43.7798 108.896 46.3246 107.942C52.8076 105.51 55.1578 97.443 58.0547 91.9126C63.7478 81.0439 59.6392 67.7724 66.8982 57.2138C71.0622 51.1572 75.8965 41.7856 83.6028 39.7109C88.7408 38.3276 84.7248 49.2027 84.2169 50.7654C82.0676 57.3786 79.5418 62.6873 74.575 67.6542C68.5801 73.649 65.4743 80.7983 62.7221 88.5963C61.1132 93.1548 58.0323 106.492 61.8623 110.705C64.0801 113.145 67.3501 112.023 70.2146 112.978C76.1847 114.968 80.0582 109.22 81.8832 104.318C86.8781 90.9032 86.7395 74.1055 87.2876 59.8546C87.6936 49.2978 99.4813 32.52 108.844 28.0423C122.658 21.4354 110.683 59.0362 107.8 63.171C100.371 73.8233 89.5561 84.0294 87.4104 97.4398C86.7452 101.598 83.7311 114.046 87.8403 116.785C99.7052 124.695 111.23 93.9445 114.064 87.6136C118.174 78.432 122.113 68.904 122.662 58.7492C122.983 52.8158 125.27 43.9065 127.759 38.544C129.376 35.063 137.856 23.8123 140.349 32.4641C142.507 39.954 140.884 48.2224 137.463 55.0643C133.665 62.6592 130.877 70.5694 127.084 78.1559" stroke="#D19780" stroke-width="25" stroke-linecap="round"/>
<path fill-rule="evenodd" clip-rule="evenodd" d="M117.603 6.24168C127.946 7.45968 158.24 9.15868 188.171 10.2007C213.083 11.0677 220.603 12.2267 220.603 15.2007C220.603 16.6697 218.865 16.5177 218.323 15.0017C218.078 14.3147 217.554 14.0497 217.16 14.4147C216.766 14.7797 217.101 16.1297 217.904 17.4147C221.246 22.7607 220.787 27.2927 217.26 23.7657C215.945 22.4517 215.696 22.7397 215.101 26.2657C214.73 28.4577 213.99 30.2517 213.456 30.2517C212.922 30.2517 212.763 30.7017 213.103 31.2517C213.452 31.8167 212.633 32.2517 211.221 32.2517C209.846 32.2517 208.443 31.8017 208.103 31.2517C207.763 30.7017 208.052 30.2517 208.744 30.2517C209.723 30.2517 209.736 29.9847 208.803 29.0517C207.87 28.1187 207.336 28.1187 206.403 29.0517C204.985 30.4697 201.603 30.6577 201.603 29.3187C201.603 27.9367 197.799 26.9607 191.66 26.7677C188.667 26.6737 186.06 26.1217 185.866 25.5417C185.623 24.8107 184.29 24.7977 181.523 25.4997C176.749 26.7117 175.633 25.9807 178.097 23.2577C181.414 19.5937 178.382 21.1847 173.696 25.5687C171.157 27.9427 168.357 30.3047 167.473 30.8187C165.065 32.2157 159.341 42.9817 158.521 47.6547C156.545 58.9137 149.682 81.3777 141.079 104.752C137.312 114.986 136.15 117.362 132.511 122.261C131.086 124.181 128.929 128.975 127.719 132.915C126.508 136.854 124.902 140.589 124.148 141.214C122.554 142.537 120.177 151.597 120.931 153.473C121.252 154.271 121.475 154.094 121.524 153.002C121.606 151.194 123.603 150.473 123.603 152.252C123.603 154.563 126.495 153.043 126.787 150.579C127.126 147.711 129.603 146.031 129.603 148.669C129.603 149.539 130.226 150.252 130.986 150.252C132.44 150.252 133.566 153.187 133.589 157.033C133.597 158.288 134.278 159.574 135.103 159.89C135.928 160.207 136.603 161.093 136.603 161.859C136.603 163.434 134.033 163.757 133.13 162.296C132.805 161.77 131.813 161.618 130.926 161.958C129.957 162.33 128.773 161.838 127.958 160.723C126.666 158.956 126.603 158.972 126.603 161.061C126.603 164.718 123.928 163.576 121.193 158.752L119.492 155.752L120.045 159.112C120.492 161.835 120.018 163.202 117.543 166.327C113.207 171.803 123.241 190.252 130.556 190.252C131.047 190.252 132.819 191.404 134.492 192.812C136.886 194.827 157.226 201.252 161.21 201.252C161.426 201.252 161.603 200.293 161.603 199.121C161.603 197.215 161.999 197.056 165.353 197.61C167.416 197.951 171.106 198.235 173.553 198.241C180.36 198.258 177.196 200.178 169.119 200.933L162.276 201.572L169.69 204.009C177.629 206.619 179.818 206.624 198.603 204.08C213.3 202.089 220.771 203.087 234.387 208.86C236.193 209.625 238.344 210.252 239.167 210.252C239.991 210.252 241.949 211.714 243.519 213.502C248.191 218.821 256.438 220.354 271.826 218.762C276.801 218.247 280.004 218.327 280.826 218.986C283.164 220.859 306.653 225.252 314.331 225.252C320.765 225.252 322.603 224.547 322.603 222.079C322.603 221.002 324.113 216.852 325.96 212.856L329.316 205.591L338.048 203.677C346.397 201.847 346.848 201.608 348.303 198.257C350.289 193.684 353.635 181.652 354.089 177.449C354.285 175.633 354.869 173.608 355.386 172.949C355.904 172.291 356.631 170.482 357.002 168.931C357.373 167.379 360.562 163.239 364.088 159.73C368.841 155 370.786 152.238 371.608 149.051C373.519 141.635 374.857 137.828 376.369 135.503C377.897 133.154 382.564 115.275 382.589 111.677C382.609 108.773 386.835 96.8047 390.133 90.3157L392.895 84.8797L390.499 83.0357C389.181 82.0217 384.446 78.7597 379.977 75.7877L371.852 70.3827L369.388 73.0677C368.033 74.5437 363.716 80.0267 359.796 85.2517C349.731 98.6677 347.872 100.841 347.112 100.088C346.222 99.2057 348.223 95.4357 351.475 91.8697C353.267 89.9057 353.703 88.8437 352.846 88.5347C351.934 88.2047 352.171 87.2637 353.705 85.1087C354.869 83.4737 355.543 81.8587 355.203 81.5187C354.863 81.1787 355.59 79.8307 356.818 78.5237C358.129 77.1277 358.649 75.8587 358.077 75.4487C356.231 74.1277 357.11 69.6377 359.853 66.3717C364.138 61.2707 359.479 56.2517 350.457 56.2517C347.804 56.2517 341.744 55.1247 336.989 53.7467C332.235 52.3687 322.441 50.3457 315.224 49.2507C308.008 48.1557 297.828 46.3277 292.603 45.1887C278.434 42.0997 269.366 40.1527 266.92 39.6737C265.719 39.4387 264.461 38.2357 264.124 36.9997C263.788 35.7627 262.078 30.7857 260.326 25.9377L257.139 17.1247L247.607 17.7997C242.101 18.1907 236.562 18.0587 234.494 17.4877C232.206 16.8557 230.297 16.8437 229.206 17.4537C227.917 18.1757 226.626 17.7167 223.938 15.5807C216.837 9.93768 216.813 9.92968 205.785 9.53368C199.91 9.32168 181.603 8.48068 165.103 7.66368C121.897 5.52568 107.97 5.10868 117.603 6.24168ZM58.8125 12.8417C58.2775 13.7977 55.7665 14.7447 52.5125 15.2167C49.5375 15.6487 48.3395 16.0587 49.8525 16.1267C55.0695 16.3637 53.0455 19.0527 47.0895 19.7967C39.8705 20.6987 39.1105 22.0397 46.1495 21.4567C52.2105 20.9537 53.2285 22.1407 49.0715 24.8637C47.6795 25.7767 46.7455 26.7277 46.9965 26.9797C47.7405 27.7237 42.3255 33.3377 39.4025 34.8527C35.8265 36.7057 34.6095 36.6167 34.5705 34.5017C34.5415 32.9187 34.3995 32.9367 33.0705 34.6927C31.0725 37.3347 31.2265 38.1627 33.6025 37.5417C35.1445 37.1387 35.6025 37.5107 35.6025 39.1667C35.6025 41.6597 32.7725 43.1447 31.6095 41.2627C31.0175 40.3057 30.5375 40.5047 29.7095 42.0507C28.3655 44.5637 28.2935 45.5607 29.5125 44.8077C30.0125 44.4987 31.1255 44.5147 31.9855 44.8447C34.7915 45.9217 29.3235 56.2517 25.9475 56.2517C23.8405 56.2517 24.3715 53.5267 26.8115 51.8177C28.4465 50.6727 28.7285 49.9777 27.8975 49.1467C27.0655 48.3147 25.9755 49.4177 23.7045 53.3877L20.6355 58.7517L22.8695 59.3167C24.0975 59.6267 25.2525 59.5147 25.4355 59.0667C25.6195 58.6187 26.1815 58.2517 26.6855 58.2517C28.4045 58.2517 27.6075 61.0917 25.0305 64.1547C23.6165 65.8357 22.7505 67.6827 23.1065 68.2587C23.4635 68.8357 22.2575 70.7147 20.4285 72.4337C18.3345 74.4027 17.5655 75.7197 18.3525 75.9897C19.0405 76.2257 19.6025 76.8787 19.6025 77.4417C19.6025 78.0047 18.9645 78.2207 18.1855 77.9217C17.4055 77.6227 16.5115 78.0457 16.1985 78.8617C15.8855 79.6777 14.8825 80.2117 13.9695 80.0487C13.0565 79.8857 12.1135 80.3147 11.8725 81.0017C11.3145 82.5977 14.8055 82.6487 16.3855 81.0687C17.0365 80.4177 17.9135 80.2297 18.3355 80.6507C18.7565 81.0727 17.6315 82.7297 15.8365 84.3347C13.7795 86.1717 13.1325 87.2517 14.0865 87.2517C16.4095 87.2517 15.8965 88.8657 12.8525 91.1367C11.3405 92.2647 10.6975 93.2027 11.4235 93.2197C13.1705 93.2617 16.0265 96.1617 15.1675 97.0207C14.7965 97.3907 14.0915 97.0437 13.6005 96.2487C12.8545 95.0417 12.3175 95.1707 10.3405 97.0277C9.03855 98.2507 7.24155 99.2517 6.34755 99.2517C4.34755 99.2517 2.80155 101.485 4.42555 102.026C6.28455 102.646 5.79555 104.372 3.85255 104.046C2.45755 103.812 2.09555 104.49 2.06855 107.39C2.04955 109.391 1.43755 111.746 0.709545 112.623C-0.426455 113.992 -0.279455 114.357 1.74355 115.194C9.35855 118.34 20.6025 135.626 20.6025 144.184V149.026L26.8525 150.096C43.3445 152.919 62.0266 153.228 70.9016 150.823C78.5766 148.744 83.0965 148.842 90.0635 151.239C96.8725 153.581 97.1505 153.48 97.9695 148.358C98.3155 146.192 99.1625 144.213 99.8505 143.961C100.853 143.594 100.853 143.237 99.8525 142.177C97.8665 140.072 98.3065 137.941 100.603 138.542C102.848 139.129 103.196 138.245 101.42 136.469C100.769 135.818 100.584 134.94 101.009 134.519C101.434 134.097 102.865 135.102 104.188 136.752C106.748 139.946 107.551 139.09 105.071 135.811C103.45 133.667 103.18 132.252 104.393 132.252C104.827 132.252 106.497 134.502 108.103 137.252C112.724 145.164 112.941 143.065 108.405 134.338C105.04 127.866 104.179 125.054 103.675 118.9C103.074 111.551 102.3 109.221 100.92 110.602C100.544 110.978 100.769 111.818 101.42 112.469C103.002 114.051 102.915 115.252 101.218 115.252C100.456 115.252 99.0955 114.127 98.1945 112.752C97.2935 111.377 96.0475 110.252 95.4245 110.252C94.8015 110.252 95.1095 111.155 96.1085 112.258C98.3055 114.687 97.5825 115.715 94.4275 114.647C93.1485 114.214 91.5876 113.957 90.9576 114.076C90.3276 114.194 89.2315 112.82 88.5225 111.022C87.8125 109.223 87.0415 107.379 86.8085 106.924C86.2025 105.741 102.834 107.289 104.429 108.564C105.385 109.327 105.982 109.256 106.567 108.31C107.014 107.587 107.852 107.288 108.43 107.645C109.007 108.002 109.897 107.548 110.408 106.637C111.19 105.239 112.618 105.054 119.517 105.453C127.368 105.908 127.687 105.842 127.401 103.839C127.128 101.925 126.356 101.728 118.111 101.46C110.348 101.207 103.372 99.4207 109.153 99.1657C110.68 99.0987 110.561 98.9167 108.603 98.3267C103.566 96.8087 97.6025 96.2197 97.6025 97.2397C97.6025 97.7967 98.9255 98.2517 100.544 98.2517C102.162 98.2517 103.807 98.7727 104.201 99.4107C104.731 100.268 103.275 100.398 98.6135 99.9107C95.1455 99.5477 91.2505 99.2517 89.9555 99.2517C88.5305 99.2517 87.6025 98.6597 87.6025 97.7517C87.6025 96.9267 87.1525 96.2517 86.6025 96.2517C86.0525 96.2517 85.6025 96.7017 85.6025 97.2517C85.6025 98.5937 81.8635 98.5357 81.4145 97.1867C81.2185 96.6007 79.4935 95.9867 77.5805 95.8217C75.6675 95.6567 70.1655 95.1827 65.3525 94.7687C59.1195 94.2317 56.6025 94.3367 56.6025 95.1337C56.6025 96.9687 50.8115 96.4397 49.6825 94.5017C49.1165 93.5307 48.6495 93.3077 48.6325 94.0017C48.5445 97.6167 28.2375 94.9537 27.8235 91.2727C27.6035 89.3127 27.8025 89.0517 28.7735 90.0227C30.3935 91.6427 32.1435 91.6247 30.8555 90.0017C29.3385 88.0897 28.3235 81.2517 29.5575 81.2517C30.1325 81.2517 30.6165 80.4647 30.6345 79.5017C30.7085 75.4357 34.6025 72.7367 34.6025 76.7517C34.6025 78.1267 34.1005 79.2517 33.4855 79.2517C32.8275 79.2517 32.5695 80.3007 32.8585 81.8097C33.2285 83.7467 32.9965 84.2327 31.9025 83.8137C30.9245 83.4377 30.5645 83.8237 30.7885 85.0057C31.0155 86.2037 32.2145 86.8347 34.6105 87.0177C37.4495 87.2337 37.7755 87.0837 36.3525 86.2177C33.2455 84.3257 34.1585 81.9957 37.7025 82.7737C40.5205 83.3927 40.7415 83.2637 40.1345 81.3527C39.6035 79.6807 39.8895 79.2517 41.5355 79.2517C43.8855 79.2517 43.9545 79.5387 42.6725 84.0087C42.1605 85.7917 42.1105 87.2517 42.5615 87.2517C43.0115 87.2517 43.6755 85.6767 44.0365 83.7517C44.3975 81.8267 45.0805 80.2517 45.5545 80.2517C46.0275 80.2517 46.1795 79.3517 45.8925 78.2517C45.5885 77.0897 45.8615 76.2517 46.5445 76.2517C47.1915 76.2517 47.4685 75.8437 47.1605 75.3457C46.8525 74.8477 45.6625 74.6847 44.5165 74.9847C42.9755 75.3877 42.7735 75.7387 43.7395 76.3357C44.4575 76.7797 44.6995 77.4877 44.2785 77.9097C43.8565 78.3307 42.6385 78.1307 41.5705 77.4637C40.5035 76.7967 38.7235 76.2517 37.6165 76.2517C36.5085 76.2517 35.6025 75.7527 35.6025 75.1437C35.6025 74.4747 36.5485 74.2727 37.9885 74.6337C39.8355 75.0967 40.4955 74.7687 40.9105 73.1817C41.3755 71.4027 41.9515 71.2217 45.2745 71.8127C49.9615 72.6477 51.2875 73.7207 49.8175 75.4927C49.1575 76.2877 49.0635 77.3797 49.5835 78.2207C50.2195 79.2507 50.6855 78.7117 51.3395 76.1867C52.6915 70.9677 55.1395 71.6907 54.9455 77.2517C54.8595 79.7267 55.0055 80.9637 55.2695 80.0017C55.5335 79.0387 56.1525 78.2517 56.6445 78.2517C57.1365 78.2517 57.3335 77.6887 57.0815 77.0017C56.1855 74.5557 58.1485 72.9387 60.4935 74.1927C61.6725 74.8247 67.9175 75.4877 74.3705 75.6677C80.8225 75.8467 89.0275 76.4977 92.6025 77.1127C100.265 78.4327 129.698 80.4897 130.431 79.7577C131.627 78.5607 129.048 78.1327 114.988 77.1907C106.801 76.6417 94.9275 75.5567 88.6025 74.7787C82.2775 74.0007 75.8895 73.6117 74.4075 73.9137C72.9255 74.2167 66.7286 73.4717 60.6376 72.2587C54.5456 71.0457 48.8965 70.3087 48.0825 70.6207C45.7785 71.5057 43.6025 70.2417 43.6025 68.0197C43.6025 66.2747 44.0425 66.0907 46.8525 66.6597C52.9035 67.8857 62.2685 68.3667 60.1025 67.3397C59.0025 66.8187 56.3025 66.3157 54.1025 66.2227C46.3435 65.8927 45.1235 65.1267 44.9125 60.4587C44.7795 57.5057 45.1245 56.2517 46.0695 56.2517C46.9225 56.2517 47.2235 55.5197 46.8925 54.2517C46.5115 52.7967 46.8615 52.2517 48.1765 52.2517C49.8615 52.2517 49.8525 52.1497 48.0435 50.7517C46.1975 49.3247 46.1885 49.1847 47.8695 47.8787C48.8695 47.1027 49.3785 45.8327 49.0425 44.9557C48.7155 44.1037 49.2755 42.5787 50.2865 41.5677C51.2985 40.5557 51.9745 38.9447 51.7905 37.9867C51.6055 37.0297 52.1135 35.9927 52.9185 35.6837C53.7395 35.3687 54.1755 34.3337 53.9115 33.3247C53.5875 32.0847 54.1635 31.3087 55.7715 30.8217C57.1635 30.4017 57.5985 29.9087 56.8525 29.6007C55.0865 28.8717 55.2995 26.3057 57.1865 25.5807C58.4255 25.1057 58.4885 24.7997 57.4765 24.1737C56.4535 23.5417 56.5415 22.9767 57.8945 21.4817C58.8365 20.4407 59.3175 19.2997 58.9635 18.9457C58.6085 18.5917 59.3955 17.3527 60.7105 16.1927C62.4205 14.6857 62.6035 14.2417 61.3525 14.6367C59.3325 15.2747 59.0605 14.1937 60.8025 12.4517C61.6785 11.5757 61.6915 11.2517 60.8525 11.2517C60.2195 11.2517 59.3015 11.9667 58.8125 12.8417ZM96.1525 26.8797C84.3765 36.6087 77.0775 43.2517 78.1635 43.2517C79.1985 43.2517 92.9565 32.2147 101.103 24.8497C108.694 17.9857 105.167 19.4327 96.1525 26.8797ZM111.526 34.5707C105.708 39.0707 97.6105 45.1147 93.5315 48.0017C89.4525 50.8897 86.6035 53.2517 87.1995 53.2517C89.3575 53.2517 123.603 28.2397 123.603 26.6627C123.603 25.5137 121.21 27.0817 111.526 34.5707ZM121.103 37.8367C116.703 41.4157 108.935 47.5427 103.84 51.4517C98.7445 55.3607 94.7845 58.7667 95.0385 59.0207C95.4635 59.4457 119.453 41.2237 127.603 34.2857C134.476 28.4337 128.951 31.4517 121.103 37.8367ZM135.103 38.4137C121.345 49.9677 107.523 62.5047 108.007 62.9897C108.447 63.4287 124.918 49.6187 139.103 36.9167C145.197 31.4597 141.924 32.6847 135.103 38.4137ZM207.425 39.5747C209.802 40.2857 212.052 41.3557 212.425 41.9527C212.798 42.5497 214.306 42.9047 215.777 42.7407C217.248 42.5777 223.759 43.3437 230.246 44.4427C238.442 45.8317 242.151 46.1077 242.405 45.3467C242.945 43.7267 244.603 44.0177 244.603 45.7327C244.603 46.5467 245.841 47.4657 247.353 47.7747C248.865 48.0837 253.532 49.2167 257.723 50.2937C267.196 52.7277 268.287 52.7807 266.583 50.7277C264.367 48.0577 266.276 47.9387 277.318 50.0587C283.25 51.1967 293.278 52.8677 299.603 53.7717C314.135 55.8467 331.621 59.9847 333.682 61.8347C334.55 62.6137 336.003 63.2517 336.912 63.2517C337.82 63.2517 340.259 63.8827 342.333 64.6537C344.406 65.4247 346.99 66.3497 348.075 66.7077C349.722 67.2517 349.804 67.5107 348.575 68.2777C347.342 69.0467 347.462 69.4477 349.311 70.7507C351.488 72.2847 351.478 74.9277 349.291 76.3947C348.764 76.7477 349.294 77.5507 350.468 78.1797C352.947 79.5067 353.218 81.4967 351.152 83.2107C350.354 83.8737 349.406 86.3807 349.046 88.7827C348.686 91.1847 347.314 94.6107 345.997 96.3957C344.68 98.1797 343.603 100.228 343.603 100.946C343.603 101.664 342.873 102.252 341.981 102.252C340.715 102.252 340.61 102.556 341.502 103.63C342.825 105.225 341.358 110.252 339.569 110.252C338.973 110.252 338.775 110.722 339.13 111.296C339.485 111.87 339.35 112.882 338.83 113.546C338.31 114.209 337.629 116.102 337.316 117.752C337.004 119.402 336.207 122.102 335.545 123.752C334.882 125.402 334.238 127.652 334.112 128.752C332.534 142.569 322.772 172.842 320.191 171.924C319.043 171.516 318.97 169.751 319.997 167.252C320.439 166.177 319.407 165.247 316.358 163.97C310.199 161.39 308.079 159.596 309.342 158.033C310.208 156.961 311.775 150.184 311.773 147.516C311.773 147.096 312.135 146.302 312.577 145.752C313.314 144.834 314.076 139.498 315.04 128.502C315.249 126.124 315.014 124.498 314.508 124.811C314.01 125.118 313.603 127.564 313.603 130.246C313.603 132.928 313.154 136.303 312.605 137.746C312.056 139.19 311.414 141.932 311.177 143.841C309.415 158.048 305.342 163.649 297.353 162.855C293.859 162.507 291.603 162.669 291.603 163.267C291.603 164.739 289.95 164.457 288.174 162.681C287.31 161.816 286.603 161.591 286.603 162.181C286.603 162.77 285.141 163.259 283.353 163.267C281.565 163.276 279.428 163.719 278.603 164.252C277.487 164.973 278.064 165.225 280.853 165.237C282.916 165.245 284.603 165.702 284.603 166.252C284.603 166.802 283.73 167.252 282.662 167.252C281.594 167.252 280.459 167.675 280.14 168.193C279.471 169.275 286.82 168.34 287.603 167.243C288.604 165.842 294.603 166.335 294.603 167.819C294.603 168.607 293.703 169.252 292.603 169.252C291.503 169.252 290.603 169.702 290.603 170.252C290.603 170.802 289.055 171.252 287.162 171.252C285.269 171.252 283.43 171.723 283.075 172.298C282.637 173.006 284.073 173.126 287.516 172.669C291.026 172.204 292.603 172.344 292.603 173.123C292.603 173.773 294.299 174.252 296.603 174.252C298.803 174.252 300.603 174.702 300.603 175.252C300.603 175.802 298.578 176.252 296.103 176.252C293.423 176.252 291.603 176.709 291.603 177.383C291.603 178.117 292.832 178.314 295.103 177.946C297.028 177.633 298.603 177.799 298.603 178.315C298.603 178.83 300.122 179.252 301.978 179.252C310.224 179.252 306.338 183.979 297.445 184.766C290.292 185.399 289.594 185.647 290.137 187.359C290.737 189.251 289.207 190.038 288.175 188.369C287.875 187.883 285.18 187.18 282.186 186.806C279.192 186.432 276.206 185.479 275.551 184.689C274.744 183.717 272.311 183.252 268.03 183.252C263.075 183.252 261.493 182.877 260.736 181.524C259.977 180.169 258.189 179.749 252.436 179.573C244.894 179.343 225.047 175.846 220.603 173.965C219.228 173.382 217.468 173.02 216.692 173.16C215.915 173.3 212.315 172.715 208.692 171.862C194.627 168.548 193.73 168.42 194.259 169.799C194.556 170.572 193.865 171.225 192.542 171.422C190.052 171.793 199.788 179.252 202.762 179.252C204.587 179.252 213.603 186.114 213.603 187.502C213.603 188.066 212.43 188.207 210.853 187.833C209.341 187.474 206.593 187.005 204.747 186.791C202.901 186.576 200.383 185.455 199.152 184.298C197.921 183.142 196.281 182.428 195.508 182.713C193.137 183.587 190.752 181.504 192.603 180.176C193.732 179.366 193.794 178.974 192.853 178.593C192.166 178.314 191.603 177.233 191.603 176.192C191.603 175.15 190.478 173.561 189.103 172.66C187.728 171.759 186.603 170.569 186.603 170.015C186.603 169.453 187.28 169.569 188.134 170.278C189.401 171.329 189.909 171.22 191.075 169.65C192.367 167.909 192.22 167.685 189.293 166.935C187.539 166.486 184.416 165.68 182.353 165.145C177.941 164 177.47 162.532 181.353 162.027C182.865 161.83 180.278 161.686 175.603 161.705C162.146 161.762 150.393 155.939 157.853 152.911C160.249 151.939 156.427 150.413 152.689 150.85L149.103 151.269L152.483 149.705C156.036 148.06 166.603 148.556 166.603 150.367C166.603 150.854 167.39 151.216 168.353 151.173C169.337 151.129 169.572 150.879 168.889 150.602C167.39 149.994 169.41 146.252 171.237 146.252C171.87 146.252 172.648 145.577 172.965 144.752C173.281 143.927 173.134 143.252 172.638 143.252C172.143 143.252 171.775 141.902 171.822 140.252C171.92 136.809 173.163 136.29 174.116 139.294C174.58 140.754 175.311 141.162 176.684 140.726C179.355 139.879 179.095 141.104 176.353 142.288C174.743 142.983 175.88 143.088 180.353 142.657C184.134 142.293 186.603 142.438 186.603 143.025C186.603 143.558 183.903 144.299 180.603 144.672C177.303 145.046 174.603 145.779 174.603 146.302C174.603 147.575 174.856 147.55 185.154 145.274C194.531 143.201 202.092 142.652 201.191 144.109C200.9 144.581 198.415 145.233 195.67 145.558C185.565 146.754 183.829 149.403 193.603 148.711C198.278 148.38 202.89 147.886 203.853 147.613C204.816 147.34 205.603 147.64 205.603 148.278C205.603 149.101 207.099 149.234 210.731 148.734C217.034 147.867 216.685 149.733 210.348 150.778C205.296 151.61 201.942 153.174 205.105 153.222C207.179 153.253 225.265 149.849 229.522 148.626C231.369 148.095 231.813 148.264 231.402 149.341C230.979 150.449 232.173 150.791 236.961 150.935C240.314 151.036 243.218 151.598 243.414 152.185C243.845 153.479 247.603 153.623 247.603 152.345C247.603 151.847 243.216 150.456 237.853 149.256C232.49 148.055 225.628 146.456 222.603 145.703C219.578 144.95 215.359 144.059 213.227 143.724C211.095 143.389 205.695 142.068 201.227 140.789C188.426 137.126 186.503 136.827 187.188 138.612C187.619 139.737 186.831 140.306 184.14 140.811C179.269 141.725 178.675 140.79 182.76 138.64L186.103 136.88L182.669 135.868C180.128 135.12 179.131 135.168 178.835 136.055C178.266 137.763 176.603 137.538 176.603 135.752C176.603 134.759 175.61 134.252 173.662 134.252C172.044 134.252 170.474 133.853 170.173 133.365C169.872 132.878 168.051 132.183 166.126 131.822C159.84 130.643 159.257 124.912 164.216 113.032C166.727 107.014 167.28 103.715 165.603 104.752C165.053 105.092 164.603 106.483 164.603 107.842C164.603 109.202 163.928 110.574 163.103 110.89C162.278 111.207 161.603 112.453 161.603 113.659C161.603 114.865 161.104 116.351 160.494 116.961C159.884 117.571 159.334 120.361 159.273 123.161C159.212 125.961 158.824 128.252 158.412 128.252C156.453 128.252 148.158 137.288 149.387 138.082C151.06 139.163 149.828 142.368 147.873 142.02C146.104 141.704 141.886 146.869 143.002 147.984C143.422 148.405 144.342 147.962 145.045 147C145.748 146.039 146.836 145.252 147.463 145.252C148.09 145.252 148.603 144.834 148.603 144.323C148.603 143.352 155.571 141.745 164.103 140.749C169.077 140.169 169.088 140.174 166.316 141.76C164.782 142.637 161.29 143.62 158.554 143.944C154.875 144.38 153.648 144.925 153.841 146.039C153.985 146.867 153.541 147.741 152.853 147.982C152.166 148.222 151.603 147.931 151.603 147.335C151.603 146.74 150.816 146.259 149.853 146.267C148.384 146.28 148.34 146.432 149.575 147.214C151.499 148.43 148.969 149.496 143.797 149.647L140.187 149.752L138.957 142.752C138.28 138.902 137.732 134.627 137.741 133.252C137.763 129.41 140.429 136.825 140.527 141.002C140.598 144.028 142.603 145.868 142.603 142.907C142.603 142.167 143.503 140.747 144.603 139.752C145.703 138.757 146.617 137.224 146.635 136.347C146.652 135.47 147.296 133.921 148.066 132.905C148.836 131.889 149.241 130.472 148.966 129.756C148.691 129.04 148.955 128.153 149.551 127.784C150.148 127.415 150.371 126.686 150.048 126.163C149.104 124.636 151.545 118.488 153.373 117.787C154.753 117.257 154.802 116.993 153.654 116.284C152.495 115.567 152.579 114.946 154.154 112.587C155.196 111.028 155.925 109.347 155.776 108.853C155.626 108.358 155.805 107.233 156.173 106.353C156.541 105.472 156.96 103.517 157.106 102.008C157.251 100.499 158.099 97.7267 158.99 95.8487C159.881 93.9707 160.363 91.7907 160.061 91.0027C159.759 90.2157 160.207 88.9947 161.057 88.2897C161.908 87.5837 162.603 86.3727 162.603 85.5977C162.603 84.8227 163.25 83.9407 164.04 83.6377C164.83 83.3347 165.254 82.5067 164.982 81.7977C164.711 81.0897 165.289 80.2027 166.268 79.8267C167.661 79.2927 167.759 78.9657 166.719 78.3227C165.626 77.6477 165.662 76.9027 166.922 74.1267C167.765 72.2707 168.738 69.3357 169.085 67.6057C169.432 65.8747 170.561 63.6947 171.592 62.7617C172.624 61.8277 173.227 60.4347 172.932 59.6657C172.637 58.8977 173.143 57.9817 174.057 57.6307C174.97 57.2807 175.494 56.4097 175.22 55.6957C174.078 52.7197 176.943 49.1917 179.971 49.8447C182.127 50.3087 182.725 50.1257 182.379 49.1067C182.121 48.3507 180.915 47.8987 179.65 48.0837C176.994 48.4717 177.233 46.4767 180.041 44.8227C181.389 44.0287 181.978 44.0747 182.315 45.0017C183.014 46.9227 184.063 46.5447 188.642 42.7187C193.034 39.0497 195.278 38.7437 192.109 42.2457C189.387 45.2527 191.618 44.5847 195.565 41.2107C199.412 37.9227 201.116 37.6877 207.425 39.5747ZM180.485 54.0017C180.419 54.4147 180.443 55.1607 180.537 55.6597C180.632 56.1597 180.122 56.9467 179.406 57.4097C178.341 58.0977 178.348 58.4097 179.445 59.1177C180.408 59.7387 180.512 60.5157 179.812 61.8677C177.465 66.4007 176.559 68.9627 176.221 72.0317C176.021 73.8357 175.185 76.0857 174.361 77.0317C173.538 77.9777 173.068 79.3147 173.317 80.0017C173.566 80.6897 173.368 81.2517 172.877 81.2517C172.387 81.2517 171.112 81.9497 170.044 82.8037C168.158 84.3117 168.166 84.3377 170.353 83.7357C172.914 83.0317 173.331 84.4027 171.114 86.2427C170.295 86.9227 169.914 87.9457 170.267 88.5167C170.62 89.0877 170.124 90.1287 169.165 90.8297C167.916 91.7437 167.683 92.5717 168.343 93.7517C169.897 96.5297 182.603 63.1047 182.603 56.2367C182.603 53.6887 180.83 51.8167 180.485 54.0017ZM363.673 69.6777C362.419 71.0117 361.645 72.5097 361.951 73.0067C362.258 73.5027 361.196 75.5027 359.592 77.4497C356.947 80.6577 356.646 82.2517 358.684 82.2517C360.081 82.2517 369.748 69.2957 369.115 68.2707C368.077 66.5917 366.088 67.1057 363.673 69.6777ZM159.103 71.2517C159.452 72.3517 160.581 73.2517 161.611 73.2517C164.37 73.2517 164.987 75.0157 163.189 77.7607C162.317 79.0917 161.603 81.0967 161.603 82.2167C161.603 84.9347 159.984 84.8167 159.259 82.0457C158.942 80.8317 158.447 80.0737 158.16 80.3617C157.872 80.6487 158.029 82.2517 158.509 83.9237C159.474 87.2877 158.864 92.2517 157.486 92.2517C157.001 92.2517 156.571 91.6897 156.533 91.0017C156.494 90.3147 156.106 90.6517 155.671 91.7517C155.236 92.8517 155.108 95.4847 155.387 97.6027C155.678 99.8157 155.438 101.736 154.822 102.117C154.233 102.481 153.52 104.798 153.239 107.265C152.958 109.733 152.699 111.864 152.665 112.002C152.631 112.14 152.041 112.252 151.353 112.252C150.603 112.252 150.04 113.752 149.946 116.002C149.556 125.333 147.954 128.019 145.16 124.029C143.159 121.173 143.066 123.7 145.034 127.471C146.473 130.229 145.324 136.252 143.359 136.252C141.905 136.252 140.603 131.223 140.603 125.604C140.603 118.844 138.882 118.799 136.926 125.506C136.181 128.062 135.128 130.427 134.587 130.762C134.046 131.096 133.603 132.693 133.603 134.311C133.603 136.148 133.084 137.252 132.22 137.252C130.61 137.252 129.182 141.591 130.629 142.085C131.914 142.525 131.891 146.252 130.603 146.252C130.053 146.252 129.603 145.615 129.603 144.835C129.603 144.056 129.061 143.238 128.4 143.018C126.599 142.417 129.229 131.989 132.879 125.252C134.518 122.227 136.364 118.726 136.981 117.472C137.765 115.879 138.716 115.341 140.135 115.686C142.286 116.21 145.533 112.53 143.945 111.368C142.883 110.591 142.607 103.252 143.64 103.252C144.06 103.252 144.881 104.94 145.465 107.002C146.472 110.564 146.497 110.488 145.97 105.502C145.508 101.133 145.683 100.252 147.009 100.252C148.043 100.252 148.603 99.3727 148.603 97.7517C148.603 96.3767 148.153 95.2517 147.603 95.2517C147.053 95.2517 146.603 94.8017 146.603 94.2517C146.603 93.7017 147.278 93.2517 148.103 93.2517C148.928 93.2517 149.603 92.5767 149.603 91.7517C149.603 90.9267 150.053 90.2517 150.603 90.2517C151.153 90.2517 151.603 88.6767 151.603 86.7517C151.603 84.8267 152.083 83.2517 152.67 83.2517C153.283 83.2517 153.467 82.3987 153.103 81.2517C152.427 79.1207 154.143 78.3887 154.861 80.5017C155.095 81.1897 155.598 79.6927 155.98 77.1757C156.361 74.6587 156.384 71.8457 156.031 70.9257C155.602 69.8067 155.9 69.2517 156.929 69.2517C157.775 69.2517 158.754 70.1517 159.103 71.2517ZM84.6025 80.3037C84.6025 80.9427 108.598 83.2777 114.603 83.2227C117.031 83.2007 117.644 82.9327 116.603 82.3487C114.26 81.0327 84.6025 79.1377 84.6025 80.3037ZM133.227 83.0507C132.819 83.7117 131.162 84.2517 129.544 84.2517C127.27 84.2517 126.603 84.7047 126.603 86.2517C126.603 88.5687 121.72 88.9027 111.103 87.3137C97.7175 85.3097 96.0455 85.2777 103.528 87.1707C107.612 88.2047 114.25 89.3587 118.278 89.7357C125.066 90.3717 127.37 91.4367 124.353 92.5437C123.356 92.9087 123.358 93.2717 124.364 94.3377C125.405 95.4407 126.123 95.1277 128.482 92.5447C131.081 89.6997 131.171 89.3717 129.472 88.9277C127.145 88.3187 127.041 86.4047 129.289 85.5417C130.294 85.1557 131.362 85.5077 131.932 86.4117C132.691 87.6137 133.376 87.7027 135.238 86.8397C137.856 85.6267 138.36 84.2517 136.186 84.2517C135.407 84.2517 134.59 83.7117 134.369 83.0507C134.058 82.1167 133.805 82.1167 133.227 83.0507ZM179.785 88.9737C179.28 89.9517 178.551 92.4947 178.166 94.6247C177.781 96.7547 177.058 99.2297 176.56 100.125C174.244 104.283 172.547 110.014 172.114 115.143L171.64 120.752L173.168 115.752C174.008 113.002 175.19 109.627 175.796 108.252C176.401 106.877 177.028 104.706 177.189 103.427C177.351 102.148 178.067 100.398 178.781 99.5377C179.495 98.6777 179.936 96.8867 179.762 95.5577C179.588 94.2287 180.151 92.0647 181.013 90.7487C181.91 89.3787 182.179 88.1077 181.642 87.7757C181.126 87.4567 180.29 87.9957 179.785 88.9737ZM359.129 94.4037C357.284 96.5957 356.832 97.7757 357.645 98.2777C358.5 98.8057 358.36 99.6937 357.122 101.582C356.192 103.002 355.68 104.568 355.986 105.062C356.509 105.909 340.746 126.428 338.511 127.809C336.451 129.082 336.426 127.31 338.464 124.447C339.608 122.84 340.281 121.263 339.959 120.942C339.638 120.62 340.434 118.646 341.729 116.555C343.024 114.463 343.978 112.286 343.848 111.716C343.545 110.376 359.305 91.2517 360.713 91.2517C361.3 91.2517 360.587 92.6697 359.129 94.4037ZM45.1025 99.6377C65.4695 101.096 72.6035 102.5 62.7795 103.117C60.2065 103.279 56.6135 103.503 54.7945 103.616C52.9755 103.729 51.1135 104.426 50.6565 105.165C49.6745 106.754 47.6025 105.755 47.6025 103.693C47.6025 101.784 46.6035 101.869 45.1145 103.905C43.7525 105.767 41.6025 104.948 41.6025 102.568C41.6025 101.366 40.9145 101.14 38.6415 101.594C35.6195 102.199 33.9715 101.081 35.1275 99.2107C35.4815 98.6387 36.5205 98.4037 37.4365 98.6897C38.3525 98.9747 41.8025 99.4017 45.1025 99.6377ZM39.5295 123.002C49.7365 140.294 51.1605 142.039 54.7545 141.657C57.6855 141.347 57.8535 141.444 56.1025 142.442C55.0025 143.068 53.7995 144.041 53.4285 144.602C52.9805 145.281 52.2795 145.229 51.3365 144.446C50.5565 143.799 49.6255 143.563 49.2665 143.921C48.9085 144.28 47.7585 143.798 46.7125 142.851C45.2495 141.527 44.7085 141.433 44.3685 142.441C44.0155 143.49 43.6275 143.504 42.4235 142.511C41.5955 141.828 40.6605 141.527 40.3465 141.842C39.5275 142.661 35.6025 140.391 35.6025 139.099C35.6025 137.556 29.3875 130.695 28.2995 131.037C26.6185 131.565 24.3555 129.023 25.7435 128.165C26.6535 127.602 26.2325 126.326 24.1415 123.309C22.5815 121.058 21.5975 118.924 21.9535 118.567C22.7295 117.791 22.1305 117.113 28.5735 126.052C31.4675 130.067 34.0395 133.148 34.2885 132.899C34.5375 132.65 32.6855 129.653 30.1715 126.239C27.6585 122.825 25.6025 119.631 25.6025 119.142C25.6025 116.956 27.5425 118.923 33.6025 127.252C37.1775 132.166 40.4935 136.201 40.9715 136.219C41.4485 136.237 40.7345 134.789 39.3835 133.002C35.2995 127.599 29.6025 119.305 29.6025 118.762C29.6025 115.914 33.5625 120.097 38.6315 128.299C42.0465 133.825 45.0595 138.128 45.3265 137.861C45.5935 137.594 43.5285 133.596 40.7375 128.976C35.0815 119.612 33.9795 117.252 35.2615 117.252C35.7425 117.252 37.6625 119.84 39.5295 123.002ZM48.4485 120.702C48.8545 122.797 59.7185 140.65 62.6125 143.979C64.9695 146.689 65.0725 147.252 63.2095 147.252C62.4435 147.252 61.5605 146.585 61.2475 145.769C60.9035 144.874 59.9695 144.515 58.8905 144.863C57.5075 145.31 57.4165 145.217 58.4905 144.452C59.6085 143.655 58.4915 141.191 52.7405 131.77C48.8145 125.339 45.6025 119.628 45.6025 119.081C45.6025 117.395 48.0815 118.807 48.4485 120.702ZM351.688 120.699C353.932 119.313 352.192 122.847 347.364 129.486C344.483 133.447 342.237 137.378 342.374 138.22C342.785 140.745 335.019 148.989 333.562 147.575C332.615 146.657 332.848 145.592 334.621 142.723C336.241 140.102 336.558 138.842 335.727 138.329C334.916 137.828 335.434 136.414 337.429 133.68C342.351 126.938 350 118.944 350.396 120.131C350.604 120.754 351.185 121.01 351.688 120.699ZM370.423 148.006C370.611 149.326 370.118 150.501 369.236 150.839C368.407 151.157 367.969 152.042 368.262 152.805C369.222 155.307 362.343 157.801 358.675 156.282C355.145 154.82 354.709 153.298 357.603 152.542C358.703 152.254 359.603 151.562 359.603 151.005C359.603 150.395 361.1 150.224 363.353 150.575C366.739 151.104 366.921 151.024 365.228 149.754C362.535 147.735 363.86 145.034 367.347 145.435C369.324 145.662 370.194 146.389 370.423 148.006ZM339.493 150.502C338.845 151.74 337.094 154.327 335.604 156.252C334.113 158.177 333.06 160.222 333.263 160.797C333.713 162.067 329.973 166.252 328.39 166.252C327.765 166.252 328.311 165.127 329.603 163.752C330.895 162.377 331.471 161.252 330.883 161.252C330.295 161.252 329.879 160.127 329.959 158.753C330.038 157.378 330.644 156.253 331.306 156.253C331.967 156.252 333.955 154.452 335.723 152.252C339.218 147.903 341.384 146.898 339.493 150.502ZM358.056 157.413C360.823 158.673 361.526 161.252 359.103 161.252C358.278 161.252 357.603 161.879 357.603 162.645C357.603 164.954 355.046 165.214 350.02 163.416C341.309 160.3 343.184 158.233 352.353 160.845C354.276 161.392 354.603 161.105 354.603 158.869C354.603 155.87 354.638 155.855 358.056 157.413ZM324.142 181.315C324.503 181.9 323.977 183.287 322.972 184.397C321.25 186.3 321.244 186.472 322.874 187.384C325.269 188.724 325.037 190.496 322.103 193.252C320.728 194.544 319.603 195.127 319.603 194.549C319.603 193.97 320.278 192.937 321.103 192.252C321.928 191.567 322.603 190.542 322.603 189.975C322.603 189.407 321.78 189.687 320.774 190.597C318.411 192.736 316.95 192.743 318.723 190.608C319.944 189.136 319.826 189.043 317.595 189.723C315.225 190.445 315.264 190.313 318.403 187.018C320.218 185.112 321.628 183.148 321.535 182.653C321.073 180.188 322.874 179.264 324.142 181.315ZM188.603 189.376C188.603 190.127 190.428 190.348 194.103 190.044C197.128 189.793 199.603 189.914 199.603 190.313C199.603 191.442 197.564 191.912 191.627 192.151C188.615 192.272 185.952 192.57 185.71 192.812C184.356 194.165 187.614 194.28 197.762 193.235C214.268 191.535 213.996 191.53 214.395 193.502C214.66 194.807 214.096 195.252 212.176 195.252C209.366 195.252 208.71 196.695 211.103 197.614C213.411 198.499 212.88 200.252 210.303 200.252C209.038 200.252 207.576 200.674 207.053 201.19C205.113 203.107 195.603 203.68 195.603 201.881C195.603 200.634 196.599 200.248 199.853 200.237C205.54 200.216 207.498 199.004 205.337 196.843C204.462 195.968 202.926 195.288 201.924 195.331C200.863 195.377 200.627 195.621 201.359 195.916C203.727 196.871 201.485 198.252 197.567 198.252C194.491 198.252 193.297 198.789 192.011 200.752C190.037 203.765 188.603 203.976 188.603 201.252C188.603 200.141 187.936 199.252 187.103 199.252C186.278 199.252 185.716 199.815 185.853 200.502C186.006 201.267 184.745 201.877 182.603 202.073C179.781 202.332 179.345 202.148 180.353 201.123C181.85 199.601 182.006 195.619 180.603 194.752C178.831 193.657 179.539 191.252 181.634 191.252C182.752 191.252 183.925 190.577 184.241 189.752C184.907 188.018 188.603 187.699 188.603 189.376ZM309.365 193.456L312.627 193.251L311.987 197.252C311.558 199.932 311.719 201.252 312.475 201.252C313.095 201.252 313.603 201.702 313.603 202.252C313.603 202.802 312.928 203.252 312.103 203.252C311.278 203.252 310.603 203.644 310.603 204.123C310.603 205.89 300.495 206.464 298.658 204.802C296.49 202.84 295.5 202.82 296.241 204.752C297.102 206.996 292.293 206.335 285.103 203.221C284.003 202.745 282.208 202.214 281.114 202.042C276.973 201.39 278.156 198.382 282.333 198.943C285.084 199.312 287.209 198.877 289.815 197.414C292.847 195.711 293.943 195.554 296.381 196.474C300.296 197.952 302.61 196.994 301.879 194.199C301.375 192.272 301.583 192.117 303.707 192.842C305.025 193.292 307.571 193.568 309.365 193.456Z" fill="#562714"/>
</svg>
