<svg width="822" height="344" viewBox="0 0 822 344" fill="none" xmlns="http://www.w3.org/2000/svg">
<path fill-rule="evenodd" clip-rule="evenodd" d="M426.5 0.440307C424.3 0.887307 420.827 1.96131 418.782 2.82831C416.737 3.69431 413.041 4.40331 410.569 4.40331C408.097 4.40331 403.791 3.50331 401 2.40331C398.143 1.27731 393.568 0.403307 390.528 0.403307C387.559 0.403307 383.863 0.879308 382.315 1.46131C380.767 2.04331 378.041 3.50631 376.257 4.71131C374.473 5.91731 373.011 7.66431 373.007 8.59431C373.003 9.52431 373.478 10.5813 374.063 10.9423C374.648 11.3033 375.885 10.9343 376.813 10.1223C377.741 9.30931 379.94 7.91531 381.7 7.02431C383.461 6.13231 387.286 5.40331 390.2 5.40431C393.115 5.40431 397.867 6.30431 400.761 7.40431C403.654 8.50331 408.025 9.40331 410.473 9.40331C412.922 9.40331 417.304 8.53931 420.212 7.48331C423.121 6.42831 426.925 5.27531 428.666 4.92231C430.408 4.57031 433.61 4.75931 435.782 5.34431C437.954 5.92931 441.479 7.81531 443.615 9.53631C445.752 11.2563 449.3 13.4953 451.5 14.5123C454.286 15.7983 457.862 16.3663 463.282 16.3813C468 16.3943 472.528 17.0143 474.782 17.9543C476.827 18.8073 479.981 20.9373 481.791 22.6893C483.921 24.7513 485.632 27.8183 486.643 31.3883C487.502 34.4213 489.319 38.8443 490.682 41.2163C492.193 43.8483 495.173 46.8223 498.329 48.8463C501.173 50.6713 504.27 53.0213 505.212 54.0703C506.153 55.1183 507.616 57.6333 508.462 59.6573C509.308 61.6823 510 65.1373 510 67.3343C510 69.5313 509.1 73.6123 508 76.4033C506.9 79.1943 506 83.6943 506 86.4033C506 89.1123 506.9 93.6123 508 96.4033C509.1 99.1943 510 103.5 510 105.972C510 108.444 509.377 111.959 508.615 113.782C507.853 115.605 505.334 118.628 503.017 120.5C500.7 122.372 497.246 125.21 495.343 126.808C493.44 128.406 490.982 131.478 489.882 133.634C488.782 135.791 488.021 138.724 488.191 140.152C488.361 141.58 489.053 142.93 489.729 143.152C490.438 143.385 491.957 141.297 493.318 138.218C494.661 135.182 497.26 131.592 499.346 129.892C501.362 128.248 504.656 125.556 506.665 123.91C508.673 122.264 511.366 118.664 512.649 115.91C514.05 112.902 514.984 109.011 514.99 106.164C514.996 103.557 514.1 99.0573 513.001 96.1643C511.901 93.2703 511.001 88.8623 511.001 86.3683C511 83.8743 511.948 79.1493 513.106 75.8683C514.673 71.4283 515.072 68.5263 514.664 64.5143C514.314 61.0793 513.082 57.4533 511.265 54.5143C509.551 51.7403 506.178 48.4223 502.799 46.1863C499.711 44.1423 496.289 41.2133 495.195 39.6773C494.102 38.1413 492.663 34.8663 491.999 32.3993C491.335 29.9333 489.979 26.3373 488.987 24.4093C487.995 22.4813 485.904 19.7173 484.342 18.2673C482.779 16.8173 479.925 14.8133 478 13.8123C475.497 12.5123 472.08 11.9593 466 11.8733C461.325 11.8063 456.375 11.3963 455 10.9613C453.625 10.5273 450.249 8.45531 447.498 6.35631C444.746 4.25831 441.371 2.12331 439.998 1.61231C438.624 1.10131 435.925 0.445307 434 0.155307C432.075 -0.134693 428.7 -0.00669262 426.5 0.440307ZM343.429 14.7603C340.64 16.0723 336.916 18.8913 335.152 21.0243C333.29 23.2773 331.071 27.8363 329.857 31.9013C328.189 37.4883 326.903 39.7053 323.478 42.9013C321.118 45.1023 317.501 48.2453 315.44 49.8863C313.379 51.5273 310.641 55.1273 309.356 57.8863C307.951 60.9033 307.016 64.7923 307.01 67.6423C307.004 70.2493 307.9 74.7493 308.999 77.6423C310.099 80.5363 310.999 84.9443 310.999 87.4383C311 89.9323 310.052 94.6573 308.894 97.9383C307.34 102.34 306.929 105.291 307.327 109.2C307.642 112.304 308.962 116.37 310.515 119.018C311.972 121.504 315.008 124.746 317.262 126.221C319.517 127.696 323.013 130.54 325.033 132.541C327.45 134.935 329.115 137.801 329.901 140.925C330.559 143.536 331.934 147.299 332.957 149.287C333.98 151.276 336.096 154.089 337.658 155.539C339.221 156.989 342.013 158.939 343.863 159.873C345.712 160.807 349.551 161.811 352.393 162.104C356.351 162.513 357.866 162.269 358.866 161.064C359.585 160.199 359.882 159.021 359.527 158.447C359.172 157.873 357.094 157.403 354.909 157.403C352.724 157.403 349.263 156.705 347.218 155.852C345.173 154.999 342.019 152.869 340.209 151.117C338.079 149.055 336.368 145.988 335.357 142.418C334.498 139.385 332.681 134.962 331.318 132.59C329.807 129.958 326.827 126.984 323.671 124.96C320.827 123.135 317.73 120.785 316.788 119.736C315.847 118.688 314.384 116.173 313.538 114.149C312.692 112.124 312 108.669 312 106.472C312 104.275 312.9 100.194 314 97.4033C315.1 94.6123 316 90.1123 316 87.4033C316 84.6943 315.1 80.1943 314 77.4033C312.9 74.6123 312 70.3063 312 67.8343C312 65.3623 312.623 61.8473 313.385 60.0243C314.147 58.2013 316.673 55.1783 318.998 53.3063C321.324 51.4343 324.9 48.4563 326.945 46.6883C328.991 44.9203 331.398 41.7703 332.295 39.6883C333.191 37.6063 334.411 33.9853 335.005 31.6403C335.598 29.2953 337.477 25.7903 339.179 23.8523C340.882 21.9133 343.225 19.8163 344.387 19.1923C345.549 18.5693 349.2 17.7983 352.5 17.4813C357.641 16.9863 358.5 16.6173 358.5 14.9033C358.5 13.2053 357.745 12.8633 353.5 12.6393C349.897 12.4493 347.083 13.0413 343.429 14.7603ZM409.688 21.0493C409.309 21.4273 409 27.0613 409 33.5703C409 44.0703 408.775 45.6283 407 47.4033C405.303 49.1003 403.667 49.4033 396.191 49.4033C390.168 49.4033 386.768 48.9553 385.441 47.9853C383.773 46.7673 383.452 45.0703 383.157 35.9303C382.859 26.6723 382.6 25.3333 381.157 25.6083C379.782 25.8703 379.415 27.6773 379 36.2473C378.578 44.9643 378.198 46.7913 376.559 47.9873C375.251 48.9413 371.886 49.4033 366.243 49.4033C361.637 49.4033 356.998 48.9373 355.934 48.3683C354.485 47.5923 354 46.2613 354 43.0593C354 40.7083 353.393 37.9563 352.652 36.9413C351.91 35.9273 350.785 35.4183 350.152 35.8093C349.518 36.2013 349 38.5193 349 40.9623C349 44.0703 348.4 46.0033 347 47.4033C345.889 48.5143 343.667 49.4033 342 49.4033C339.667 49.4033 339 49.8473 339 51.4033C339 52.9593 339.667 53.4033 342 53.4033C343.667 53.4033 345.889 54.2923 347 55.4033C348.775 57.1783 348.998 58.7243 348.985 69.1533C348.976 75.6163 348.544 81.5783 348.024 82.4033C347.329 83.5073 344.494 84.0353 337.29 84.4033C328.333 84.8603 327.5 85.0733 327.5 86.9033C327.5 88.7333 328.333 88.9463 337.29 89.4033C344.494 89.7713 347.329 90.2993 348.024 91.4033C348.544 92.2283 348.976 98.1903 348.985 104.653C348.998 115.082 348.775 116.628 347 118.403C345.889 119.514 343.667 120.403 342 120.403C339.667 120.403 339 120.847 339 122.403C339 123.959 339.667 124.403 342 124.403C343.667 124.403 345.889 125.292 347 126.403C348.4 127.803 349 129.736 349 132.844C349 135.287 349.47 137.575 350.044 137.93C350.618 138.285 351.743 138.031 352.544 137.367C353.452 136.613 354 134.335 354 131.316C354 127.552 354.431 126.243 355.934 125.438C356.998 124.869 361.723 124.403 366.434 124.403C373.667 124.403 375.311 124.714 377 126.403C378.733 128.136 379 129.736 379 138.403C379 147.577 379.158 148.403 380.909 148.403C382.646 148.403 382.849 147.449 383.159 137.821C383.452 128.734 383.774 127.038 385.441 125.821C386.761 124.857 390.141 124.403 396 124.403C401.853 124.403 405.24 124.857 406.559 125.819C408.255 127.056 408.563 128.858 409 140.069C409.41 150.588 409.771 152.903 411 152.903C412.227 152.903 412.545 150.905 412.747 141.903C412.882 135.853 413.236 129.861 413.532 128.587C413.866 127.155 415.393 125.719 417.536 124.824C419.441 124.028 421 122.938 421 122.403C421 121.868 419.441 120.778 417.536 119.982C415.315 119.054 413.846 117.639 413.445 116.041C413.101 114.669 412.972 108.547 413.16 102.437C413.421 93.9223 413.85 91.1063 415 90.3803C415.825 89.8603 420.862 89.4273 426.193 89.4183C435.086 89.4043 436.015 89.5873 437.443 91.6263C438.606 93.2853 439 96.4363 439 104.06C439 109.677 438.557 115.437 438.017 116.86C437.359 118.589 436.033 119.646 434.017 120.05C432.04 120.445 431 121.256 431 122.403C431 123.55 432.04 124.361 434.017 124.756C436.033 125.16 437.359 126.217 438.017 127.946C438.557 129.369 439 134.554 439 139.468C439 147.736 439.149 148.403 441 148.403C442.867 148.403 443 147.736 443 138.403C443 129.736 443.267 128.136 445 126.403C446.689 124.714 448.333 124.403 455.566 124.403C460.277 124.403 465.002 124.869 466.066 125.438C467.515 126.214 468 127.545 468 130.747C468 133.098 468.607 135.85 469.348 136.865C470.09 137.879 471.215 138.388 471.848 137.997C472.482 137.605 473 135.287 473 132.844C473 129.736 473.6 127.803 475 126.403C476.111 125.292 478.333 124.403 480 124.403C482.333 124.403 483 123.959 483 122.403C483 120.847 482.333 120.403 480 120.403C478.333 120.403 476.111 119.514 475 118.403C473.762 117.165 473 115.07 473 112.903C473 110.136 472.604 109.403 471.107 109.403C470.066 109.403 468.941 110.115 468.607 110.985C468.273 111.855 468 113.864 468 115.45C468 117.277 467.291 118.712 466.066 119.368C465.002 119.937 460.277 120.403 455.566 120.403C448.333 120.403 446.689 120.092 445 118.403C443.224 116.627 443 115.07 443 104.474C443 94.8573 443.311 92.2353 444.605 90.9413C445.908 89.6383 448.101 89.3893 456.249 89.6193C463.94 89.8373 466.474 90.2543 467.084 91.4033C467.522 92.2283 468.149 94.1703 468.476 95.7193C468.885 97.6523 469.597 98.4353 470.746 98.2133C471.722 98.0253 472.702 96.5173 473.094 94.5963C473.465 92.7843 474.081 90.9873 474.463 90.6023C474.845 90.2183 479.509 89.6783 484.829 89.4033C493.667 88.9463 494.5 88.7313 494.5 86.9033C494.5 85.0733 493.667 84.8603 484.71 84.4033C477.506 84.0353 474.671 83.5073 473.976 82.4033C473.456 81.5783 473.024 75.6163 473.015 69.1533C473.002 58.7243 473.225 57.1783 475 55.4033C476.111 54.2923 478.333 53.4033 480 53.4033C482.333 53.4033 483 52.9593 483 51.4033C483 49.8473 482.333 49.4033 480 49.4033C478.333 49.4033 476.111 48.5143 475 47.4033C473.6 46.0033 473 44.0703 473 40.9623C473 38.5193 472.53 36.2313 471.956 35.8763C471.382 35.5213 470.257 35.7753 469.456 36.4393C468.548 37.1933 468 39.4713 468 42.4903C468 46.2543 467.569 47.5633 466.066 48.3683C465.002 48.9373 460.363 49.4033 455.757 49.4033C450.114 49.4033 446.749 48.9413 445.441 47.9873C443.802 46.7913 443.422 44.9643 443 36.2473C442.585 27.6773 442.218 25.8703 440.843 25.6083C439.4 25.3333 439.141 26.6723 438.843 35.9303C438.548 45.0703 438.227 46.7673 436.559 47.9853C435.239 48.9493 431.859 49.4033 426 49.4033C420.147 49.4033 416.76 48.9493 415.441 47.9873C413.747 46.7513 413.436 44.9493 413 33.8173C412.699 26.1363 412.077 20.9243 411.438 20.7123C410.853 20.5193 410.066 20.6713 409.688 21.0493ZM377.581 55.8443C378.615 57.2583 378.996 60.9233 378.985 69.3443C378.976 75.7023 378.6 81.4853 378.149 82.1953C377.698 82.9063 376.018 83.8393 374.415 84.2673C372.522 84.7743 371.5 85.6983 371.5 86.9033C371.5 88.1083 372.522 89.0323 374.415 89.5393C376.018 89.9673 377.698 90.9003 378.149 91.6113C378.6 92.3213 378.976 98.1903 378.985 104.653C378.998 115.082 378.775 116.628 377 118.403C375.311 120.092 373.667 120.403 366.434 120.403C361.723 120.403 356.998 119.937 355.934 119.368C354.17 118.424 354 117.158 354 104.99C354 95.5313 354.364 91.3493 355.25 90.6213C355.938 90.0573 357.625 89.4393 359 89.2493C360.718 89.0113 361.5 88.2773 361.5 86.9033C361.5 85.5293 360.718 84.7953 359 84.5573C357.625 84.3673 355.938 83.7493 355.25 83.1853C354.363 82.4563 354 78.2623 354 68.7483C354 55.7913 354.076 55.3063 356.25 54.3863C357.488 53.8633 362.474 53.5403 367.331 53.6683C374.754 53.8663 376.389 54.2133 377.581 55.8443ZM405.457 54.3863C407.186 55.0443 408.243 56.3703 408.647 58.3863C409.042 60.3633 409.853 61.4033 411 61.4033C412.147 61.4033 412.958 60.3633 413.353 58.3863C413.769 56.3083 414.818 55.0393 416.728 54.3043C418.253 53.7183 423.19 53.3883 427.7 53.5713C432.685 53.7733 436.411 54.4133 437.2 55.2033C438.133 56.1363 438.5 60.1703 438.5 69.4893C438.5 79.9453 438.208 82.6613 437 83.4243C436.175 83.9463 431.225 84.3723 426 84.3723C420.775 84.3723 415.91 83.9983 415.189 83.5413C414.468 83.0843 413.562 80.5033 413.177 77.8063C412.699 74.4683 412.004 72.9033 411 72.9033C409.996 72.9033 409.301 74.4683 408.823 77.8063C408.438 80.5033 407.532 83.0843 406.811 83.5413C406.09 83.9983 401.225 84.3723 396 84.3723C390.775 84.3723 385.825 83.9463 385 83.4253C383.869 82.7123 383.415 79.9863 383.154 72.3603C382.963 66.7953 383.101 60.6803 383.459 58.7703C383.884 56.5073 384.875 54.9903 386.305 54.4143C387.512 53.9283 391.733 53.5013 395.685 53.4663C399.637 53.4323 404.034 53.8463 405.457 54.3863ZM465.435 54.3783L468 55.3533V68.6783C468 77.7093 467.613 82.3903 466.8 83.2033C466.031 83.9723 462.105 84.4033 455.871 84.4033C448.361 84.4033 445.785 84.0453 444.571 82.8323C443.321 81.5823 443 78.8603 443 69.5233C443 61.6403 443.411 57.2683 444.25 56.2093C444.938 55.3423 446.175 54.3923 447 54.0973C447.825 53.8023 451.733 53.5253 455.685 53.4823C459.637 53.4393 464.024 53.8423 465.435 54.3783ZM407 90.3803C408.171 91.1193 408.572 94.0593 408.83 103.785C409.135 115.31 409.004 116.399 407.08 118.323C405.288 120.115 403.779 120.403 396.191 120.403C390.169 120.403 386.768 119.955 385.441 118.986C383.751 117.751 383.456 116.067 383.163 105.943C382.89 96.5313 383.132 93.8503 384.436 91.8603C385.965 89.5273 386.538 89.4043 395.773 89.4183C401.123 89.4273 406.175 89.8593 407 90.3803ZM452.5 158.754C449.75 160.036 446.855 161.864 446.067 162.817C445.279 163.77 442.883 165.443 440.742 166.534C438.602 167.626 434.747 168.568 432.175 168.626C429.604 168.684 424.686 167.758 421.246 166.568C417.806 165.377 413.476 164.403 411.624 164.403C409.771 164.403 404.71 165.561 400.378 166.977C394.56 168.878 391.405 169.387 388.313 168.925C386.011 168.581 382.47 167.175 380.444 165.801C378.419 164.426 376.066 163.437 375.214 163.603C374.363 163.768 373.486 164.441 373.267 165.099C373.048 165.757 374.721 167.637 376.985 169.277C379.249 170.917 383.313 172.733 386.016 173.313C388.719 173.893 392.408 174.104 394.215 173.783C396.022 173.462 399.879 172.345 402.788 171.301C405.696 170.257 409.841 169.403 412 169.403C414.159 169.403 418.209 170.303 421 171.403C423.897 172.545 428.432 173.403 431.569 173.403C434.591 173.403 438.703 172.718 440.705 171.882C442.707 171.045 446.25 168.8 448.577 166.894C450.904 164.987 454.005 162.971 455.469 162.415C456.933 161.858 460.099 161.403 462.506 161.403C464.913 161.403 467.135 160.994 467.444 160.493C467.753 159.993 467.732 158.868 467.396 157.993C466.959 156.853 465.471 156.406 462.143 156.413C459.395 156.419 455.459 157.374 452.5 158.754ZM499.5 245.321C494.161 245.839 493.463 246.162 493.167 248.258C492.843 250.545 492.989 250.595 498.167 249.974C501.1 249.622 505.637 249.082 508.25 248.775C512.06 248.326 513 247.838 513 246.309C513 244.743 512.331 244.433 509.25 244.571C507.188 244.664 502.8 245.001 499.5 245.321ZM0 301.403V343.403H13H26V340.403V337.403H16.5H7V298.403V259.403H3.5H0V301.403ZM50.5 260.815C48.85 261.548 46.375 263.366 45 264.855L42.5 267.562L42.216 305.483L41.931 343.403H44.966H48V330.903V318.403H56H64V330.903V343.403H67.034H70.069L69.784 305.483L69.5 267.562L67 264.854C65.625 263.364 63.052 261.528 61.282 260.774C59.512 260.02 57.037 259.421 55.782 259.442C54.527 259.464 52.15 260.081 50.5 260.815ZM147 301.403V343.403H156.874C163.216 343.403 168.313 342.851 171.121 341.86C173.525 341.012 176.996 338.875 178.834 337.11C180.672 335.346 183.036 332.233 184.088 330.193C185.316 327.81 186 324.435 186 320.759C186 316.996 185.284 313.555 183.91 310.718C182.761 308.343 180.173 305.036 178.16 303.368C176.147 301.7 173.488 300.077 172.25 299.761C171.012 299.445 170 299.03 170 298.839C170 298.648 171.124 296.835 172.498 294.81C173.873 292.785 175.49 289.297 176.093 287.058C176.696 284.819 176.91 281.239 176.568 279.103C176.226 276.967 175.103 273.573 174.071 271.561C173.039 269.549 171.138 266.918 169.847 265.715C168.556 264.512 165.475 262.609 163 261.487C160.175 260.207 156.359 259.439 152.75 259.425L147 259.403V301.403ZM202 301.403V343.403H215H228V340.403V337.403H218.5H209V313.903V290.403H218.5H228V287.403V284.403H218.5H209V274.903V265.403H218.5H228V262.403V259.403H215H202V301.403ZM243 301.403V343.403H256H269V340.403V337.403H259.5H250V298.403V259.403H246.5H243V301.403ZM285 301.403V343.403H297.5H310V340.403V337.403H300.5H291V298.403V259.403H288H285V301.403ZM326 301.403V343.403H338.5H351V340.441V337.478L341.75 337.191L332.5 336.903L332.232 313.653L331.963 290.403H341.482H351V287.403V284.403H341.5H332V274.903V265.403H341.5H351V262.403V259.403H338.5H326V301.403ZM427 301.403V343.403H439.5H452V340.441V337.478L442.75 337.191L433.5 336.903L433.238 298.153L432.977 259.403H429.988H427V301.403ZM468 301.403V343.403H471.5H475V301.403V259.403H471.5H468V301.403ZM490 301.403V343.403H503H516V340.403V337.403H506.5H497V313.903V290.403H506.5H516V287.403V284.403H506.5H497V274.903V265.403H506.5H516V262.403V259.403H503H490V301.403ZM562.892 260.852C560.358 261.551 555.931 263.404 553.053 264.971C550.176 266.537 545.644 270.201 542.982 273.113C540.321 276.025 536.9 280.994 535.382 284.155C533.117 288.868 532.547 291.613 532.216 299.403C531.878 307.358 532.164 309.836 533.973 314.641C535.162 317.796 537.567 322.504 539.317 325.102C541.068 327.7 544.82 331.707 547.656 334.007C550.492 336.307 555.235 339.096 558.196 340.203C561.156 341.311 565.698 342.535 568.289 342.924L573 343.63V331.517V319.403H570H567V327.97C567 336.388 566.961 336.526 564.75 335.863C563.513 335.493 560.602 334.369 558.283 333.367C555.963 332.364 551.807 329.432 549.047 326.85C546.287 324.268 542.786 319.624 541.268 316.529C538.831 311.561 538.513 309.791 538.545 301.403C538.574 293.821 539.021 290.942 540.759 287.144C541.957 284.527 545.088 280.073 547.718 277.248C550.611 274.14 554.87 270.983 558.5 269.258C561.8 267.688 565.4 266.398 566.5 266.39C567.6 266.382 569.513 266.104 570.75 265.773C572.424 265.324 573 264.431 573 262.286C573 259.786 572.635 259.415 570.25 259.492C568.737 259.542 565.427 260.154 562.892 260.852ZM589 301.403V343.403H601.5H614V340.441V337.478L604.75 337.191L595.5 336.903L595.232 313.653L594.963 290.403H604.482H614V287.403V284.403H604.5H595V274.903V265.403H604.5H614V262.403V259.403H601.5H589V301.403ZM661.024 260.942C658.013 261.786 653.607 263.615 651.235 265.006C648.862 266.396 645.402 268.867 643.547 270.496C641.691 272.125 638.737 275.697 636.981 278.432C635.225 281.168 632.937 286.146 631.895 289.494C630.853 292.842 630 298.194 630 301.387C630 304.58 630.905 310.122 632.011 313.702C633.159 317.421 635.884 322.743 638.367 326.115C640.798 329.417 645.088 333.571 648.106 335.544C651.073 337.484 655.383 339.806 657.684 340.703C659.985 341.6 664.721 342.626 668.21 342.984C672.67 343.44 676.443 343.149 680.921 342.002C684.424 341.104 689.515 339.159 692.234 337.679C694.954 336.199 699.356 332.605 702.018 329.693C704.679 326.781 708.127 321.812 709.678 318.651C712.278 313.355 712.5 311.996 712.5 301.382C712.5 290.417 712.344 289.544 709.266 283.293C707.243 279.182 703.972 274.775 700.525 271.515C697.496 268.65 692.088 264.935 688.508 263.26C683.493 260.913 680.22 260.121 674.249 259.81C669.171 259.545 664.612 259.935 661.024 260.942ZM729 301.403V343.403H732.5H736V301.403V259.403H732.5H729V301.403ZM760.5 260.815C758.85 261.548 756.382 263.359 755.016 264.839C752.936 267.093 752.471 268.738 752.157 274.975C751.95 279.069 752.078 284.007 752.442 285.946C752.865 288.199 756.457 293.884 762.388 301.688C767.495 308.406 772.196 314.886 772.836 316.087C773.476 317.289 774 321.373 774 325.163C774 331.074 773.671 332.364 771.686 334.229C770.216 335.609 768.089 336.403 765.86 336.403C763.483 336.403 761.646 335.656 760.174 334.089C758.426 332.227 758 330.563 758 325.589V319.403H755H752V326.255C752 331.714 752.461 333.798 754.27 336.505C755.518 338.374 758.106 340.714 760.02 341.705C762.293 342.882 764.814 343.347 767.288 343.045C769.372 342.791 772.206 341.843 773.586 340.939C774.966 340.034 776.972 337.856 778.044 336.099C779.572 333.593 779.993 331.068 779.993 324.403C779.993 317.493 779.594 315.248 777.863 312.403C776.692 310.478 772.262 304.403 768.018 298.903C763.774 293.403 759.784 287.92 759.151 286.719C758.518 285.517 758 281.433 758 277.643C758 271.591 758.304 270.466 760.492 268.411C761.968 267.024 764.214 266.07 766 266.07C767.786 266.07 770.032 267.024 771.508 268.411C773.655 270.427 774 271.628 774 277.077V283.403H777.106H780.212L779.852 275.479C779.544 268.703 779.131 267.164 776.996 264.85C775.623 263.363 773.052 261.528 771.282 260.774C769.512 260.02 767.037 259.421 765.782 259.442C764.527 259.464 762.15 260.081 760.5 260.815ZM796 301.403V343.403H809H822V340.403V337.403H812.5H803V313.903V290.403H812.5H822V287.403V284.403H812.5H803V274.903V265.403H812.5H822V262.403V259.403H809H796V301.403ZM61.75 268.692C63.945 270.702 64 271.257 64 291.577V312.403H56H48V291.577C48 271.254 48.054 270.702 50.25 268.705C51.487 267.579 53.175 266.415 54 266.119C54.825 265.823 56.4 265.818 57.5 266.107C58.6 266.396 60.513 267.56 61.75 268.692ZM162.497 268.306C164.145 269.244 166.507 271.516 167.747 273.355C169.367 275.76 170 278.16 170 281.903C170 285.654 169.372 288.031 167.75 290.413C166.512 292.231 164.375 294.525 163 295.509C161.625 296.494 158.813 297.598 156.75 297.962L153 298.626V281.935V265.244L156.25 265.923C158.037 266.296 160.848 267.368 162.497 268.306ZM686.659 269.374C690.046 270.935 694.645 274.096 696.879 276.398C699.113 278.7 702.192 283.131 703.721 286.243C706.168 291.226 706.5 293.039 706.5 301.403C706.5 309.746 706.165 311.586 703.745 316.512C702.23 319.598 698.619 324.365 695.72 327.107C692.304 330.337 688.347 332.88 684.475 334.332C679.602 336.16 676.932 336.511 670 336.233C663.503 335.973 660.322 335.317 656.5 333.447C653.75 332.102 649.207 328.716 646.404 325.921C643.034 322.562 640.609 318.975 639.247 315.333C638.113 312.303 636.876 307.758 636.497 305.233C636.104 302.612 636.329 298.123 637.02 294.772C637.686 291.544 639.111 287.171 640.187 285.054C641.262 282.936 643.959 279.233 646.18 276.824C648.4 274.415 652.551 271.302 655.404 269.906C658.257 268.511 662.595 266.957 665.045 266.454C667.495 265.951 671.975 265.764 675 266.038C678.025 266.312 683.271 267.813 686.659 269.374ZM172.616 306.965C174.134 308.099 176.255 310.203 177.328 311.64C178.401 313.078 179.493 316.474 179.753 319.188C180.086 322.646 179.698 325.237 178.457 327.851C177.484 329.903 175.036 332.674 173.017 334.01C170.203 335.873 167.442 336.586 161.174 337.069L153 337.699V320.949V304.198L161.427 304.55C168.005 304.826 170.461 305.356 172.616 306.965Z" fill="#664228"/>
</svg>
