<svg width="1106" height="174" viewBox="0 0 1106 174" fill="none" xmlns="http://www.w3.org/2000/svg">
<path fill-rule="evenodd" clip-rule="evenodd" d="M119.49 0.440307C117.29 0.887307 113.817 1.96131 111.772 2.82831C109.727 3.69431 106.031 4.40331 103.559 4.40331C101.087 4.40331 96.781 3.50331 93.99 2.40331C91.133 1.27731 86.558 0.403308 83.518 0.403308C80.549 0.403308 76.853 0.879306 75.305 1.46131C73.757 2.04331 71.031 3.50631 69.247 4.71131C67.463 5.91731 66.001 7.66431 65.997 8.59431C65.993 9.52431 66.468 10.5813 67.053 10.9423C67.638 11.3033 68.875 10.9343 69.803 10.1223C70.731 9.30931 72.93 7.91531 74.69 7.02431C76.451 6.13231 80.276 5.40331 83.19 5.40431C86.105 5.40431 90.857 6.30431 93.751 7.40431C96.644 8.50331 101.015 9.40331 103.463 9.40331C105.912 9.40331 110.294 8.53931 113.202 7.48331C116.111 6.42831 119.915 5.27531 121.656 4.92231C123.398 4.57031 126.6 4.75931 128.772 5.34431C130.944 5.92931 134.469 7.81531 136.605 9.53631C138.742 11.2563 142.29 13.4953 144.49 14.5123C147.276 15.7983 150.852 16.3663 156.272 16.3813C160.99 16.3943 165.518 17.0143 167.772 17.9543C169.817 18.8073 172.971 20.9373 174.781 22.6893C176.911 24.7513 178.622 27.8183 179.633 31.3883C180.492 34.4213 182.309 38.8443 183.672 41.2163C185.183 43.8483 188.163 46.8223 191.319 48.8463C194.163 50.6713 197.26 53.0213 198.202 54.0703C199.143 55.1183 200.606 57.6333 201.452 59.6573C202.298 61.6823 202.99 65.1373 202.99 67.3343C202.99 69.5313 202.09 73.6123 200.99 76.4033C199.89 79.1943 198.99 83.6943 198.99 86.4033C198.99 89.1123 199.89 93.6123 200.99 96.4033C202.09 99.1943 202.99 103.5 202.99 105.972C202.99 108.444 202.367 111.959 201.605 113.782C200.843 115.605 198.324 118.628 196.007 120.5C193.69 122.372 190.236 125.21 188.333 126.808C186.43 128.406 183.972 131.478 182.872 133.634C181.772 135.791 181.011 138.724 181.181 140.152C181.351 141.58 182.043 142.93 182.719 143.152C183.428 143.385 184.947 141.297 186.308 138.218C187.651 135.182 190.25 131.592 192.336 129.892C194.352 128.248 197.646 125.556 199.655 123.91C201.663 122.264 204.356 118.664 205.639 115.91C207.04 112.902 207.974 109.011 207.98 106.164C207.986 103.557 207.09 99.0573 205.991 96.1643C204.891 93.2703 203.991 88.8623 203.991 86.3683C203.99 83.8743 204.938 79.1493 206.096 75.8683C207.663 71.4283 208.062 68.5263 207.654 64.5143C207.304 61.0793 206.072 57.4533 204.255 54.5143C202.541 51.7403 199.168 48.4223 195.789 46.1863C192.701 44.1423 189.279 41.2133 188.185 39.6773C187.092 38.1413 185.653 34.8663 184.989 32.3993C184.325 29.9333 182.969 26.3373 181.977 24.4093C180.985 22.4813 178.894 19.7173 177.332 18.2673C175.769 16.8173 172.915 14.8133 170.99 13.8123C168.487 12.5123 165.07 11.9593 158.99 11.8733C154.315 11.8063 149.365 11.3963 147.99 10.9613C146.615 10.5273 143.239 8.45531 140.488 6.35631C137.736 4.25831 134.361 2.12331 132.988 1.61231C131.614 1.10131 128.915 0.445307 126.99 0.155307C125.065 -0.134693 121.69 -0.00669271 119.49 0.440307ZM36.419 14.7603C33.63 16.0723 29.906 18.8913 28.142 21.0243C26.28 23.2773 24.061 27.8363 22.847 31.9013C21.179 37.4883 19.893 39.7053 16.468 42.9013C14.108 45.1023 10.491 48.2453 8.43002 49.8863C6.36902 51.5273 3.63101 55.1273 2.34601 57.8863C0.941008 60.9033 0.00602996 64.7923 2.99598e-05 67.6423C-0.00597004 70.2493 0.890013 74.7493 1.98901 77.6423C3.08901 80.5363 3.98901 84.9443 3.98901 87.4383C3.99001 89.9323 3.04203 94.6573 1.88403 97.9383C0.330033 102.34 -0.080984 105.291 0.317016 109.2C0.632016 112.304 1.95203 116.37 3.50503 119.018C4.96203 121.504 7.99801 124.746 10.252 126.221C12.507 127.696 16.003 130.54 18.023 132.541C20.44 134.935 22.105 137.801 22.891 140.925C23.549 143.536 24.924 147.299 25.947 149.287C26.97 151.276 29.086 154.089 30.648 155.539C32.211 156.989 35.003 158.939 36.853 159.873C38.702 160.807 42.541 161.811 45.383 162.104C49.341 162.513 50.856 162.269 51.856 161.064C52.575 160.199 52.872 159.021 52.517 158.447C52.162 157.873 50.084 157.403 47.899 157.403C45.714 157.403 42.253 156.705 40.208 155.852C38.163 154.999 35.009 152.869 33.199 151.117C31.069 149.055 29.358 145.988 28.347 142.418C27.488 139.385 25.671 134.962 24.308 132.59C22.797 129.958 19.817 126.984 16.661 124.96C13.817 123.135 10.72 120.785 9.77801 119.736C8.83701 118.688 7.37401 116.173 6.52801 114.149C5.68201 112.124 4.99002 108.669 4.99002 106.472C4.99002 104.275 5.89002 100.194 6.99002 97.4033C8.09002 94.6123 8.99002 90.1123 8.99002 87.4033C8.99002 84.6943 8.09002 80.1943 6.99002 77.4033C5.89002 74.6123 4.99002 70.3063 4.99002 67.8343C4.99002 65.3623 5.61303 61.8473 6.37503 60.0243C7.13703 58.2013 9.66301 55.1783 11.988 53.3063C14.314 51.4343 17.89 48.4563 19.935 46.6883C21.981 44.9203 24.388 41.7703 25.285 39.6883C26.181 37.6063 27.401 33.9853 27.995 31.6403C28.588 29.2953 30.467 25.7903 32.169 23.8523C33.872 21.9133 36.215 19.8163 37.377 19.1923C38.539 18.5693 42.19 17.7983 45.49 17.4813C50.631 16.9863 51.49 16.6173 51.49 14.9033C51.49 13.2053 50.735 12.8633 46.49 12.6393C42.887 12.4493 40.073 13.0413 36.419 14.7603ZM102.678 21.0493C102.299 21.4273 101.99 27.0613 101.99 33.5703C101.99 44.0703 101.765 45.6283 99.99 47.4033C98.293 49.1003 96.657 49.4033 89.181 49.4033C83.158 49.4033 79.758 48.9553 78.431 47.9853C76.763 46.7673 76.442 45.0703 76.147 35.9303C75.849 26.6723 75.59 25.3333 74.147 25.6083C72.772 25.8703 72.405 27.6773 71.99 36.2473C71.568 44.9643 71.188 46.7913 69.549 47.9873C68.241 48.9413 64.876 49.4033 59.233 49.4033C54.627 49.4033 49.988 48.9373 48.924 48.3683C47.475 47.5923 46.99 46.2613 46.99 43.0593C46.99 40.7083 46.383 37.9563 45.642 36.9413C44.9 35.9273 43.775 35.4183 43.142 35.8093C42.508 36.2013 41.99 38.5193 41.99 40.9623C41.99 44.0703 41.39 46.0033 39.99 47.4033C38.879 48.5143 36.657 49.4033 34.99 49.4033C32.657 49.4033 31.99 49.8473 31.99 51.4033C31.99 52.9593 32.657 53.4033 34.99 53.4033C36.657 53.4033 38.879 54.2923 39.99 55.4033C41.765 57.1783 41.988 58.7243 41.975 69.1533C41.966 75.6163 41.534 81.5783 41.014 82.4033C40.319 83.5073 37.484 84.0353 30.28 84.4033C21.323 84.8603 20.49 85.0733 20.49 86.9033C20.49 88.7333 21.323 88.9463 30.28 89.4033C37.484 89.7713 40.319 90.2993 41.014 91.4033C41.534 92.2283 41.966 98.1903 41.975 104.653C41.988 115.082 41.765 116.628 39.99 118.403C38.879 119.514 36.657 120.403 34.99 120.403C32.657 120.403 31.99 120.847 31.99 122.403C31.99 123.959 32.657 124.403 34.99 124.403C36.657 124.403 38.879 125.292 39.99 126.403C41.39 127.803 41.99 129.736 41.99 132.844C41.99 135.287 42.46 137.575 43.034 137.93C43.608 138.285 44.733 138.031 45.534 137.367C46.442 136.613 46.99 134.335 46.99 131.316C46.99 127.552 47.421 126.243 48.924 125.438C49.988 124.869 54.713 124.403 59.424 124.403C66.657 124.403 68.301 124.714 69.99 126.403C71.723 128.136 71.99 129.736 71.99 138.403C71.99 147.577 72.148 148.403 73.899 148.403C75.636 148.403 75.839 147.449 76.149 137.821C76.442 128.734 76.764 127.038 78.431 125.821C79.751 124.857 83.131 124.403 88.99 124.403C94.843 124.403 98.23 124.857 99.549 125.819C101.245 127.056 101.553 128.858 101.99 140.069C102.4 150.588 102.761 152.903 103.99 152.903C105.217 152.903 105.535 150.905 105.737 141.903C105.872 135.853 106.226 129.861 106.522 128.587C106.856 127.155 108.383 125.719 110.526 124.824C112.431 124.028 113.99 122.938 113.99 122.403C113.99 121.868 112.431 120.778 110.526 119.982C108.305 119.054 106.836 117.639 106.435 116.041C106.091 114.669 105.962 108.547 106.15 102.437C106.411 93.9223 106.84 91.1063 107.99 90.3803C108.815 89.8603 113.852 89.4273 119.183 89.4183C128.076 89.4043 129.005 89.5873 130.433 91.6263C131.596 93.2853 131.99 96.4363 131.99 104.06C131.99 109.677 131.547 115.437 131.007 116.86C130.349 118.589 129.023 119.646 127.007 120.05C125.03 120.445 123.99 121.256 123.99 122.403C123.99 123.55 125.03 124.361 127.007 124.756C129.023 125.16 130.349 126.217 131.007 127.946C131.547 129.369 131.99 134.554 131.99 139.468C131.99 147.736 132.139 148.403 133.99 148.403C135.857 148.403 135.99 147.736 135.99 138.403C135.99 129.736 136.257 128.136 137.99 126.403C139.679 124.714 141.323 124.403 148.556 124.403C153.267 124.403 157.992 124.869 159.056 125.438C160.505 126.214 160.99 127.545 160.99 130.747C160.99 133.098 161.597 135.85 162.338 136.865C163.08 137.879 164.205 138.388 164.838 137.997C165.472 137.605 165.99 135.287 165.99 132.844C165.99 129.736 166.59 127.803 167.99 126.403C169.101 125.292 171.323 124.403 172.99 124.403C175.323 124.403 175.99 123.959 175.99 122.403C175.99 120.847 175.323 120.403 172.99 120.403C171.323 120.403 169.101 119.514 167.99 118.403C166.752 117.165 165.99 115.07 165.99 112.903C165.99 110.136 165.594 109.403 164.097 109.403C163.056 109.403 161.931 110.115 161.597 110.985C161.263 111.855 160.99 113.864 160.99 115.45C160.99 117.277 160.281 118.712 159.056 119.368C157.992 119.937 153.267 120.403 148.556 120.403C141.323 120.403 139.679 120.092 137.99 118.403C136.214 116.627 135.99 115.07 135.99 104.474C135.99 94.8573 136.301 92.2353 137.595 90.9413C138.898 89.6383 141.091 89.3893 149.239 89.6193C156.93 89.8373 159.464 90.2543 160.074 91.4033C160.512 92.2283 161.139 94.1703 161.466 95.7193C161.875 97.6523 162.587 98.4353 163.736 98.2133C164.712 98.0253 165.692 96.5173 166.084 94.5963C166.455 92.7843 167.071 90.9873 167.453 90.6023C167.835 90.2183 172.499 89.6783 177.819 89.4033C186.657 88.9463 187.49 88.7313 187.49 86.9033C187.49 85.0733 186.657 84.8603 177.7 84.4033C170.496 84.0353 167.661 83.5073 166.966 82.4033C166.446 81.5783 166.014 75.6163 166.005 69.1533C165.992 58.7243 166.215 57.1783 167.99 55.4033C169.101 54.2923 171.323 53.4033 172.99 53.4033C175.323 53.4033 175.99 52.9593 175.99 51.4033C175.99 49.8473 175.323 49.4033 172.99 49.4033C171.323 49.4033 169.101 48.5143 167.99 47.4033C166.59 46.0033 165.99 44.0703 165.99 40.9623C165.99 38.5193 165.52 36.2313 164.946 35.8763C164.372 35.5213 163.247 35.7753 162.446 36.4393C161.538 37.1933 160.99 39.4713 160.99 42.4903C160.99 46.2543 160.559 47.5633 159.056 48.3683C157.992 48.9373 153.353 49.4033 148.747 49.4033C143.104 49.4033 139.739 48.9413 138.431 47.9873C136.792 46.7913 136.412 44.9643 135.99 36.2473C135.575 27.6773 135.208 25.8703 133.833 25.6083C132.39 25.3333 132.131 26.6723 131.833 35.9303C131.538 45.0703 131.217 46.7673 129.549 47.9853C128.229 48.9493 124.849 49.4033 118.99 49.4033C113.137 49.4033 109.75 48.9493 108.431 47.9873C106.737 46.7513 106.426 44.9493 105.99 33.8173C105.689 26.1363 105.067 20.9243 104.428 20.7123C103.843 20.5193 103.056 20.6713 102.678 21.0493ZM70.571 55.8443C71.605 57.2583 71.986 60.9233 71.975 69.3443C71.966 75.7023 71.59 81.4853 71.139 82.1953C70.688 82.9063 69.008 83.8393 67.405 84.2673C65.512 84.7743 64.49 85.6983 64.49 86.9033C64.49 88.1083 65.512 89.0323 67.405 89.5393C69.008 89.9673 70.688 90.9003 71.139 91.6113C71.59 92.3213 71.966 98.1903 71.975 104.653C71.988 115.082 71.765 116.628 69.99 118.403C68.301 120.092 66.657 120.403 59.424 120.403C54.713 120.403 49.988 119.937 48.924 119.368C47.16 118.424 46.99 117.158 46.99 104.99C46.99 95.5313 47.354 91.3493 48.24 90.6213C48.928 90.0573 50.615 89.4393 51.99 89.2493C53.708 89.0113 54.49 88.2773 54.49 86.9033C54.49 85.5293 53.708 84.7953 51.99 84.5573C50.615 84.3673 48.928 83.7493 48.24 83.1853C47.353 82.4563 46.99 78.2623 46.99 68.7483C46.99 55.7913 47.066 55.3063 49.24 54.3863C50.478 53.8633 55.464 53.5403 60.321 53.6683C67.744 53.8663 69.379 54.2133 70.571 55.8443ZM98.447 54.3863C100.176 55.0443 101.233 56.3703 101.637 58.3863C102.032 60.3633 102.843 61.4033 103.99 61.4033C105.137 61.4033 105.948 60.3633 106.343 58.3863C106.759 56.3083 107.808 55.0393 109.718 54.3043C111.243 53.7183 116.18 53.3883 120.69 53.5713C125.675 53.7733 129.401 54.4133 130.19 55.2033C131.123 56.1363 131.49 60.1703 131.49 69.4893C131.49 79.9453 131.198 82.6613 129.99 83.4243C129.165 83.9463 124.215 84.3723 118.99 84.3723C113.765 84.3723 108.9 83.9983 108.179 83.5413C107.458 83.0843 106.552 80.5033 106.167 77.8063C105.689 74.4683 104.994 72.9033 103.99 72.9033C102.986 72.9033 102.291 74.4683 101.813 77.8063C101.428 80.5033 100.522 83.0843 99.801 83.5413C99.08 83.9983 94.215 84.3723 88.99 84.3723C83.765 84.3723 78.815 83.9463 77.99 83.4253C76.859 82.7123 76.405 79.9863 76.144 72.3603C75.953 66.7953 76.091 60.6803 76.449 58.7703C76.874 56.5073 77.865 54.9903 79.295 54.4143C80.502 53.9283 84.723 53.5013 88.675 53.4663C92.627 53.4323 97.024 53.8463 98.447 54.3863ZM158.425 54.3783L160.99 55.3533V68.6783C160.99 77.7093 160.603 82.3903 159.79 83.2033C159.021 83.9723 155.095 84.4033 148.861 84.4033C141.351 84.4033 138.775 84.0453 137.561 82.8323C136.311 81.5823 135.99 78.8603 135.99 69.5233C135.99 61.6403 136.401 57.2683 137.24 56.2093C137.928 55.3423 139.165 54.3923 139.99 54.0973C140.815 53.8023 144.723 53.5253 148.675 53.4823C152.627 53.4393 157.014 53.8423 158.425 54.3783ZM99.99 90.3803C101.161 91.1193 101.562 94.0593 101.82 103.785C102.125 115.31 101.994 116.399 100.07 118.323C98.278 120.115 96.769 120.403 89.181 120.403C83.159 120.403 79.758 119.955 78.431 118.986C76.741 117.751 76.446 116.067 76.153 105.943C75.88 96.5313 76.122 93.8503 77.426 91.8603C78.955 89.5273 79.528 89.4043 88.763 89.4183C94.113 89.4273 99.165 89.8593 99.99 90.3803ZM145.49 158.754C142.74 160.036 139.845 161.864 139.057 162.817C138.269 163.77 135.873 165.443 133.732 166.534C131.592 167.626 127.737 168.568 125.165 168.626C122.594 168.684 117.676 167.758 114.236 166.568C110.796 165.377 106.466 164.403 104.614 164.403C102.761 164.403 97.7 165.561 93.368 166.977C87.55 168.878 84.395 169.387 81.303 168.925C79.001 168.581 75.46 167.175 73.434 165.801C71.409 164.426 69.056 163.437 68.204 163.603C67.353 163.768 66.476 164.441 66.257 165.099C66.038 165.757 67.711 167.637 69.975 169.277C72.239 170.917 76.303 172.733 79.006 173.313C81.709 173.893 85.398 174.104 87.205 173.783C89.012 173.462 92.869 172.345 95.778 171.301C98.686 170.257 102.831 169.403 104.99 169.403C107.149 169.403 111.199 170.303 113.99 171.403C116.887 172.545 121.422 173.403 124.559 173.403C127.581 173.403 131.693 172.718 133.695 171.882C135.697 171.045 139.24 168.8 141.567 166.894C143.894 164.987 146.995 162.971 148.459 162.415C149.923 161.858 153.089 161.403 155.496 161.403C157.903 161.403 160.125 160.994 160.434 160.493C160.743 159.993 160.722 158.868 160.386 157.993C159.949 156.853 158.461 156.406 155.133 156.413C152.385 156.419 148.449 157.374 145.49 158.754ZM787.49 37.6913C782.151 38.2093 777.453 32.4243 777.157 34.5203C776.833 36.8073 776.979 36.8573 782.157 36.2363C785.09 35.8843 789.627 35.3443 792.24 35.0373C796.05 34.5883 800.99 40.2083 800.99 38.6793C800.99 37.1133 800.321 36.8033 797.24 36.9413C795.178 37.0343 790.79 37.3713 787.49 37.6913ZM283.99 87.6653V129.665H296.99H309.99V126.665V123.665H300.49H290.99V84.6653V45.6653H287.49H283.99V87.6653ZM334.49 47.0773C332.84 47.8103 330.365 49.6283 328.99 51.1173L326.49 53.8243L326.206 91.7453L325.921 129.665H328.956H331.99V117.165V104.665H339.99H347.99V117.165V129.665H351.024H354.059L353.774 91.7453L353.49 53.8243L350.99 51.1163C349.615 49.6263 347.042 47.7903 345.272 47.0363C343.502 46.2823 341.027 45.6833 339.772 45.7043C338.517 45.7263 336.14 46.3433 334.49 47.0773ZM430.99 87.6653V129.665H440.864C447.206 129.665 452.303 129.113 455.111 128.122C457.515 127.274 460.986 125.137 462.824 123.372C464.662 121.608 467.026 118.495 468.078 116.455C469.306 114.072 469.99 110.697 469.99 107.021C469.99 103.258 469.274 99.8173 467.9 96.9803C466.751 94.6053 464.163 91.2983 462.15 89.6303C460.137 87.9623 457.478 86.3393 456.24 86.0233C455.002 85.7073 453.99 85.2923 453.99 85.1013C453.99 84.9103 455.114 83.0973 456.488 81.0723C457.863 79.0473 459.48 75.5593 460.083 73.3203C460.686 71.0813 460.9 67.5013 460.558 65.3653C460.216 63.2293 459.093 59.8353 458.061 57.8233C457.029 55.8113 455.128 53.1803 453.837 51.9773C452.546 50.7743 449.465 48.8713 446.99 47.7493C444.165 46.4693 440.349 45.7013 436.74 45.6873L430.99 45.6653V87.6653ZM485.99 87.6653V129.665H498.99H511.99V126.665V123.665H502.49H492.99V100.165V76.6653H502.49H511.99V73.6653V70.6653H502.49H492.99V61.1653V51.6653H502.49H511.99V48.6653V45.6653H498.99H485.99V87.6653ZM526.99 87.6653V129.665H539.99H552.99V126.665V123.665H543.49H533.99V84.6653V45.6653H530.49H526.99V87.6653ZM568.99 87.6653V129.665H581.49H593.99V126.665V123.665H584.49H574.99V84.6653V45.6653H571.99H568.99V87.6653ZM609.99 87.6653V129.665H622.49H634.99V126.703V123.74L625.74 123.453L616.49 123.165L616.222 99.9153L615.953 76.6653H625.472H634.99V73.6653V70.6653H625.49H615.99V61.1653V51.6653H625.49H634.99V48.6653V45.6653H622.49H609.99V87.6653ZM710.99 87.6653V129.665H723.49H735.99V126.703V123.74L726.74 123.453L717.49 123.165L717.228 84.4153L716.967 45.6653H713.978H710.99V87.6653ZM751.99 87.6653V129.665H755.49H758.99V87.6653V45.6653H755.49H751.99V87.6653ZM773.99 87.6653V129.665H786.99H799.99V126.665V123.665H790.49H780.99V100.165V76.6653H790.49H799.99V73.6653V70.6653H790.49H780.99V61.1653V51.6653H790.49H799.99V48.6653V45.6653H786.99H773.99V87.6653ZM846.882 47.1143C844.348 47.8133 839.921 49.6663 837.043 51.2333C834.166 52.7993 829.634 56.4633 826.972 59.3753C824.311 62.2873 820.89 67.2563 819.372 70.4173C817.107 75.1303 816.537 77.8753 816.206 85.6653C815.868 93.6203 816.154 96.0983 817.963 100.903C819.152 104.058 821.557 108.766 823.307 111.364C825.058 113.962 828.81 117.969 831.646 120.269C834.482 122.569 839.225 125.358 842.186 126.465C845.146 127.573 849.688 128.797 852.279 129.186L856.99 129.892V117.779V105.665H853.99H850.99V114.232C850.99 122.65 850.951 122.788 848.74 122.125C847.503 121.755 844.592 120.631 842.273 119.629C839.953 118.626 835.797 115.694 833.037 113.112C830.277 110.53 826.776 105.886 825.258 102.791C822.821 97.8233 822.503 96.0533 822.535 87.6653C822.564 80.0833 823.011 77.2043 824.749 73.4063C825.947 70.7893 829.078 66.3353 831.708 63.5103C834.601 60.4023 838.86 57.2453 842.49 55.5203C845.79 53.9503 849.39 52.6603 850.49 52.6523C851.59 52.6443 853.503 52.3663 854.74 52.0353C856.414 51.5863 856.99 50.6933 856.99 48.5483C856.99 46.0483 856.625 45.6773 854.24 45.7543C852.727 45.8043 849.417 46.4163 846.882 47.1143ZM872.99 87.6653V129.665H885.49H897.99V126.703V123.74L888.74 123.453L879.49 123.165L879.222 99.9153L878.953 76.6653H888.472H897.99V73.6653V70.6653H888.49H878.99V61.1653V51.6653H888.49H897.99V48.6653V45.6653H885.49H872.99V87.6653ZM945.014 47.2043C942.003 48.0483 937.597 49.8773 935.225 51.2683C932.852 52.6583 929.392 55.1293 927.537 56.7583C925.681 58.3873 922.727 61.9593 920.971 64.6943C919.215 67.4303 916.927 72.4083 915.885 75.7563C914.843 79.1043 913.99 84.4563 913.99 87.6493C913.99 90.8423 914.895 96.3843 916.001 99.9643C917.149 103.683 919.874 109.005 922.357 112.377C924.788 115.679 929.078 119.833 932.096 121.806C935.063 123.746 939.373 126.068 941.674 126.965C943.975 127.862 948.711 128.888 952.2 129.246C956.66 129.702 960.433 129.411 964.911 128.264C968.414 127.366 973.505 125.421 976.224 123.941C978.944 122.461 983.346 118.867 986.008 115.955C988.669 113.043 992.117 108.074 993.668 104.913C996.268 99.6173 996.49 98.2583 996.49 87.6443C996.49 76.6793 996.334 75.8063 993.256 69.5553C991.233 65.4443 987.962 61.0373 984.515 57.7773C981.486 54.9123 976.078 51.1973 972.498 49.5223C967.483 47.1753 964.21 46.3833 958.239 46.0723C953.161 45.8073 948.602 46.1973 945.014 47.2043ZM1012.99 87.6653V129.665H1016.49H1019.99V87.6653V45.6653H1016.49H1012.99V87.6653ZM1044.49 47.0773C1042.84 47.8103 1040.37 49.6213 1039.01 51.1013C1036.93 53.3553 1036.46 55.0003 1036.15 61.2373C1035.94 65.3313 1036.07 70.2693 1036.43 72.2083C1036.86 74.4613 1040.45 80.1463 1046.38 87.9503C1051.48 94.6683 1056.19 101.148 1056.83 102.349C1057.47 103.551 1057.99 107.635 1057.99 111.425C1057.99 117.336 1057.66 118.626 1055.68 120.491C1054.21 121.871 1052.08 122.665 1049.85 122.665C1047.47 122.665 1045.64 121.918 1044.16 120.351C1042.42 118.489 1041.99 116.825 1041.99 111.851V105.665H1038.99H1035.99V112.517C1035.99 117.976 1036.45 120.06 1038.26 122.767C1039.51 124.636 1042.1 126.976 1044.01 127.967C1046.28 129.144 1048.8 129.609 1051.28 129.307C1053.36 129.053 1056.2 128.105 1057.58 127.201C1058.96 126.296 1060.96 124.118 1062.03 122.361C1063.56 119.855 1063.98 117.33 1063.98 110.665C1063.98 103.755 1063.58 101.51 1061.85 98.6653C1060.68 96.7403 1056.25 90.6653 1052.01 85.1653C1047.76 79.6653 1043.77 74.1823 1043.14 72.9813C1042.51 71.7793 1041.99 67.6953 1041.99 63.9053C1041.99 57.8533 1042.29 56.7283 1044.48 54.6733C1045.96 53.2863 1048.2 52.3323 1049.99 52.3323C1051.78 52.3323 1054.02 53.2863 1055.5 54.6733C1057.65 56.6893 1057.99 57.8903 1057.99 63.3393V69.6653H1061.1H1064.2L1063.84 61.7413C1063.53 54.9653 1063.12 53.4263 1060.99 51.1123C1059.61 49.6253 1057.04 47.7903 1055.27 47.0363C1053.5 46.2823 1051.03 45.6833 1049.77 45.7043C1048.52 45.7263 1046.14 46.3433 1044.49 47.0773ZM1079.99 87.6653V129.665H1092.99H1105.99V126.665V123.665H1096.49H1086.99V100.165V76.6653H1096.49H1105.99V73.6653V70.6653H1096.49H1086.99V61.1653V51.6653H1096.49H1105.99V48.6653V45.6653H1092.99H1079.99V87.6653ZM345.74 54.9543C347.935 56.9643 347.99 57.5193 347.99 77.8393V98.6653H339.99H331.99V77.8393C331.99 57.5163 332.044 56.9643 334.24 54.9673C335.477 53.8413 337.165 52.6773 337.99 52.3813C338.815 52.0853 340.39 52.0803 341.49 52.3693C342.59 52.6583 344.503 53.8223 345.74 54.9543ZM446.487 54.5683C448.135 55.5063 450.497 57.7783 451.737 59.6173C453.357 62.0223 453.99 64.4223 453.99 68.1653C453.99 71.9163 453.362 74.2933 451.74 76.6753C450.502 78.4933 448.365 80.7873 446.99 81.7713C445.615 82.7563 442.803 83.8603 440.74 84.2243L436.99 84.8883V68.1973V51.5063L440.24 52.1853C442.027 52.5583 444.838 53.6303 446.487 54.5683ZM970.649 55.6363C974.036 57.1973 978.635 60.3583 980.869 62.6603C983.103 64.9623 986.182 69.3933 987.711 72.5053C990.158 77.4883 990.49 79.3013 990.49 87.6653C990.49 96.0083 990.155 97.8483 987.735 102.774C986.22 105.86 982.609 110.627 979.71 113.369C976.294 116.599 972.337 119.142 968.465 120.594C963.592 122.422 960.922 122.773 953.99 122.495C947.493 122.235 944.312 121.579 940.49 119.709C937.74 118.364 933.197 114.978 930.394 112.183C927.024 108.824 924.599 105.237 923.237 101.595C922.103 98.5653 920.866 94.0203 920.487 91.4953C920.094 88.8743 920.319 84.3853 921.01 81.0343C921.676 77.8063 923.101 73.4333 924.177 71.3163C925.252 69.1983 927.949 65.4953 930.17 63.0863C932.39 60.6773 936.541 57.5643 939.394 56.1683C942.247 54.7733 946.585 53.2193 949.035 52.7163C951.485 52.2133 955.965 52.0263 958.99 52.3003C962.015 52.5743 967.261 54.0753 970.649 55.6363ZM456.606 93.2273C458.124 94.3613 460.245 96.4653 461.318 97.9023C462.391 99.3403 463.483 102.736 463.743 105.45C464.076 108.908 463.688 111.499 462.447 114.113C461.474 116.165 459.026 118.936 457.007 120.272C454.193 122.135 451.432 122.848 445.164 123.331L436.99 123.961V107.211V90.4603L445.417 90.8123C451.995 91.0883 454.451 91.6183 456.606 93.2273Z" fill="#664228"/>
</svg>
