<svg width="208" height="174" viewBox="0 0 208 174" fill="none" xmlns="http://www.w3.org/2000/svg">
<path fill-rule="evenodd" clip-rule="evenodd" d="M119.5 0.440307C117.3 0.887307 113.827 1.96131 111.782 2.82831C109.737 3.69431 106.041 4.40331 103.569 4.40331C101.097 4.40331 96.791 3.50331 94 2.40331C91.143 1.27731 86.568 0.403307 83.528 0.403307C80.559 0.403307 76.863 0.879308 75.315 1.46131C73.767 2.04331 71.041 3.50631 69.257 4.71131C67.473 5.91731 66.011 7.66431 66.007 8.59431C66.003 9.52431 66.478 10.5813 67.063 10.9423C67.648 11.3033 68.885 10.9343 69.813 10.1223C70.741 9.30931 72.94 7.91531 74.7 7.02431C76.461 6.13231 80.286 5.40331 83.2 5.40431C86.115 5.40431 90.867 6.30431 93.761 7.40431C96.654 8.50331 101.025 9.40331 103.473 9.40331C105.922 9.40331 110.304 8.53931 113.212 7.48331C116.121 6.42831 119.925 5.27531 121.666 4.92231C123.408 4.57031 126.61 4.75931 128.782 5.34431C130.954 5.92931 134.479 7.81531 136.615 9.53631C138.752 11.2563 142.3 13.4953 144.5 14.5123C147.286 15.7983 150.862 16.3663 156.282 16.3813C161 16.3943 165.528 17.0143 167.782 17.9543C169.827 18.8073 172.981 20.9373 174.791 22.6893C176.921 24.7513 178.632 27.8183 179.643 31.3883C180.502 34.4213 182.319 38.8443 183.682 41.2163C185.193 43.8483 188.173 46.8223 191.329 48.8463C194.173 50.6713 197.27 53.0213 198.212 54.0703C199.153 55.1183 200.616 57.6333 201.462 59.6573C202.308 61.6823 203 65.1373 203 67.3343C203 69.5313 202.1 73.6123 201 76.4033C199.9 79.1943 199 83.6943 199 86.4033C199 89.1123 199.9 93.6123 201 96.4033C202.1 99.1943 203 103.5 203 105.972C203 108.444 202.377 111.959 201.615 113.782C200.853 115.605 198.334 118.628 196.017 120.5C193.7 122.372 190.246 125.21 188.343 126.808C186.44 128.406 183.982 131.478 182.882 133.634C181.782 135.791 181.021 138.724 181.191 140.152C181.361 141.58 182.053 142.93 182.729 143.152C183.438 143.385 184.957 141.297 186.318 138.218C187.661 135.182 190.26 131.592 192.346 129.892C194.362 128.248 197.656 125.556 199.665 123.91C201.673 122.264 204.366 118.664 205.649 115.91C207.05 112.902 207.984 109.011 207.99 106.164C207.996 103.557 207.1 99.0573 206.001 96.1643C204.901 93.2703 204.001 88.8623 204.001 86.3683C204 83.8743 204.948 79.1493 206.106 75.8683C207.673 71.4283 208.072 68.5263 207.664 64.5143C207.314 61.0793 206.082 57.4533 204.265 54.5143C202.551 51.7403 199.178 48.4223 195.799 46.1863C192.711 44.1423 189.289 41.2133 188.195 39.6773C187.102 38.1413 185.663 34.8663 184.999 32.3993C184.335 29.9333 182.979 26.3373 181.987 24.4093C180.995 22.4813 178.904 19.7173 177.342 18.2673C175.779 16.8173 172.925 14.8133 171 13.8123C168.497 12.5123 165.08 11.9593 159 11.8733C154.325 11.8063 149.375 11.3963 148 10.9613C146.625 10.5273 143.249 8.45531 140.498 6.35631C137.746 4.25831 134.371 2.12331 132.998 1.61231C131.624 1.10131 128.925 0.445307 127 0.155307C125.075 -0.134693 121.7 -0.00669262 119.5 0.440307ZM36.429 14.7603C33.64 16.0723 29.916 18.8913 28.152 21.0243C26.29 23.2773 24.071 27.8363 22.857 31.9013C21.189 37.4883 19.903 39.7053 16.478 42.9013C14.118 45.1023 10.501 48.2453 8.44003 49.8863C6.37903 51.5273 3.64102 55.1273 2.35602 57.8863C0.951018 60.9033 0.0160397 64.7923 0.0100397 67.6423C0.00403973 70.2493 0.900023 74.7493 1.99902 77.6423C3.09902 80.5363 3.99902 84.9443 3.99902 87.4383C4.00002 89.9323 3.05204 94.6573 1.89404 97.9383C0.340042 102.34 -0.0709742 105.291 0.327026 109.2C0.642026 112.304 1.96204 116.37 3.51504 119.018C4.97204 121.504 8.00802 124.746 10.262 126.221C12.517 127.696 16.013 130.54 18.033 132.541C20.45 134.935 22.115 137.801 22.901 140.925C23.559 143.536 24.934 147.299 25.957 149.287C26.98 151.276 29.096 154.089 30.658 155.539C32.221 156.989 35.013 158.939 36.863 159.873C38.712 160.807 42.551 161.811 45.393 162.104C49.351 162.513 50.866 162.269 51.866 161.064C52.585 160.199 52.882 159.021 52.527 158.447C52.172 157.873 50.094 157.403 47.909 157.403C45.724 157.403 42.263 156.705 40.218 155.852C38.173 154.999 35.019 152.869 33.209 151.117C31.079 149.055 29.368 145.988 28.357 142.418C27.498 139.385 25.681 134.962 24.318 132.59C22.807 129.958 19.827 126.984 16.671 124.96C13.827 123.135 10.73 120.785 9.78802 119.736C8.84702 118.688 7.38402 116.173 6.53802 114.149C5.69202 112.124 5.00003 108.669 5.00003 106.472C5.00003 104.275 5.90003 100.194 7.00003 97.4033C8.10003 94.6123 9.00003 90.1123 9.00003 87.4033C9.00003 84.6943 8.10003 80.1943 7.00003 77.4033C5.90003 74.6123 5.00003 70.3063 5.00003 67.8343C5.00003 65.3623 5.62304 61.8473 6.38504 60.0243C7.14704 58.2013 9.67302 55.1783 11.998 53.3063C14.324 51.4343 17.9 48.4563 19.945 46.6883C21.991 44.9203 24.398 41.7703 25.295 39.6883C26.191 37.6063 27.411 33.9853 28.005 31.6403C28.598 29.2953 30.477 25.7903 32.179 23.8523C33.882 21.9133 36.225 19.8163 37.387 19.1923C38.549 18.5693 42.2 17.7983 45.5 17.4813C50.641 16.9863 51.5 16.6173 51.5 14.9033C51.5 13.2053 50.745 12.8633 46.5 12.6393C42.897 12.4493 40.083 13.0413 36.429 14.7603ZM102.688 21.0493C102.309 21.4273 102 27.0613 102 33.5703C102 44.0703 101.775 45.6283 100 47.4033C98.303 49.1003 96.667 49.4033 89.191 49.4033C83.168 49.4033 79.768 48.9553 78.441 47.9853C76.773 46.7673 76.452 45.0703 76.157 35.9303C75.859 26.6723 75.6 25.3333 74.157 25.6083C72.782 25.8703 72.415 27.6773 72 36.2473C71.578 44.9643 71.198 46.7913 69.559 47.9873C68.251 48.9413 64.886 49.4033 59.243 49.4033C54.637 49.4033 49.998 48.9373 48.934 48.3683C47.485 47.5923 47 46.2613 47 43.0593C47 40.7083 46.393 37.9563 45.652 36.9413C44.91 35.9273 43.785 35.4183 43.152 35.8093C42.518 36.2013 42 38.5193 42 40.9623C42 44.0703 41.4 46.0033 40 47.4033C38.889 48.5143 36.667 49.4033 35 49.4033C32.667 49.4033 32 49.8473 32 51.4033C32 52.9593 32.667 53.4033 35 53.4033C36.667 53.4033 38.889 54.2923 40 55.4033C41.775 57.1783 41.998 58.7243 41.985 69.1533C41.976 75.6163 41.544 81.5783 41.024 82.4033C40.329 83.5073 37.494 84.0353 30.29 84.4033C21.333 84.8603 20.5 85.0733 20.5 86.9033C20.5 88.7333 21.333 88.9463 30.29 89.4033C37.494 89.7713 40.329 90.2993 41.024 91.4033C41.544 92.2283 41.976 98.1903 41.985 104.653C41.998 115.082 41.775 116.628 40 118.403C38.889 119.514 36.667 120.403 35 120.403C32.667 120.403 32 120.847 32 122.403C32 123.959 32.667 124.403 35 124.403C36.667 124.403 38.889 125.292 40 126.403C41.4 127.803 42 129.736 42 132.844C42 135.287 42.47 137.575 43.044 137.93C43.618 138.285 44.743 138.031 45.544 137.367C46.452 136.613 47 134.335 47 131.316C47 127.552 47.431 126.243 48.934 125.438C49.998 124.869 54.723 124.403 59.434 124.403C66.667 124.403 68.311 124.714 70 126.403C71.733 128.136 72 129.736 72 138.403C72 147.577 72.158 148.403 73.909 148.403C75.646 148.403 75.849 147.449 76.159 137.821C76.452 128.734 76.774 127.038 78.441 125.821C79.761 124.857 83.141 124.403 89 124.403C94.853 124.403 98.24 124.857 99.559 125.819C101.255 127.056 101.563 128.858 102 140.069C102.41 150.588 102.771 152.903 104 152.903C105.227 152.903 105.545 150.905 105.747 141.903C105.882 135.853 106.236 129.861 106.532 128.587C106.866 127.155 108.393 125.719 110.536 124.824C112.441 124.028 114 122.938 114 122.403C114 121.868 112.441 120.778 110.536 119.982C108.315 119.054 106.846 117.639 106.445 116.041C106.101 114.669 105.972 108.547 106.16 102.437C106.421 93.9223 106.85 91.1063 108 90.3803C108.825 89.8603 113.862 89.4273 119.193 89.4183C128.086 89.4043 129.015 89.5873 130.443 91.6263C131.606 93.2853 132 96.4363 132 104.06C132 109.677 131.557 115.437 131.017 116.86C130.359 118.589 129.033 119.646 127.017 120.05C125.04 120.445 124 121.256 124 122.403C124 123.55 125.04 124.361 127.017 124.756C129.033 125.16 130.359 126.217 131.017 127.946C131.557 129.369 132 134.554 132 139.468C132 147.736 132.149 148.403 134 148.403C135.867 148.403 136 147.736 136 138.403C136 129.736 136.267 128.136 138 126.403C139.689 124.714 141.333 124.403 148.566 124.403C153.277 124.403 158.002 124.869 159.066 125.438C160.515 126.214 161 127.545 161 130.747C161 133.098 161.607 135.85 162.348 136.865C163.09 137.879 164.215 138.388 164.848 137.997C165.482 137.605 166 135.287 166 132.844C166 129.736 166.6 127.803 168 126.403C169.111 125.292 171.333 124.403 173 124.403C175.333 124.403 176 123.959 176 122.403C176 120.847 175.333 120.403 173 120.403C171.333 120.403 169.111 119.514 168 118.403C166.762 117.165 166 115.07 166 112.903C166 110.136 165.604 109.403 164.107 109.403C163.066 109.403 161.941 110.115 161.607 110.985C161.273 111.855 161 113.864 161 115.45C161 117.277 160.291 118.712 159.066 119.368C158.002 119.937 153.277 120.403 148.566 120.403C141.333 120.403 139.689 120.092 138 118.403C136.224 116.627 136 115.07 136 104.474C136 94.8573 136.311 92.2353 137.605 90.9413C138.908 89.6383 141.101 89.3893 149.249 89.6193C156.94 89.8373 159.474 90.2543 160.084 91.4033C160.522 92.2283 161.149 94.1703 161.476 95.7193C161.885 97.6523 162.597 98.4353 163.746 98.2133C164.722 98.0253 165.702 96.5173 166.094 94.5963C166.465 92.7843 167.081 90.9873 167.463 90.6023C167.845 90.2183 172.509 89.6783 177.829 89.4033C186.667 88.9463 187.5 88.7313 187.5 86.9033C187.5 85.0733 186.667 84.8603 177.71 84.4033C170.506 84.0353 167.671 83.5073 166.976 82.4033C166.456 81.5783 166.024 75.6163 166.015 69.1533C166.002 58.7243 166.225 57.1783 168 55.4033C169.111 54.2923 171.333 53.4033 173 53.4033C175.333 53.4033 176 52.9593 176 51.4033C176 49.8473 175.333 49.4033 173 49.4033C171.333 49.4033 169.111 48.5143 168 47.4033C166.6 46.0033 166 44.0703 166 40.9623C166 38.5193 165.53 36.2313 164.956 35.8763C164.382 35.5213 163.257 35.7753 162.456 36.4393C161.548 37.1933 161 39.4713 161 42.4903C161 46.2543 160.569 47.5633 159.066 48.3683C158.002 48.9373 153.363 49.4033 148.757 49.4033C143.114 49.4033 139.749 48.9413 138.441 47.9873C136.802 46.7913 136.422 44.9643 136 36.2473C135.585 27.6773 135.218 25.8703 133.843 25.6083C132.4 25.3333 132.141 26.6723 131.843 35.9303C131.548 45.0703 131.227 46.7673 129.559 47.9853C128.239 48.9493 124.859 49.4033 119 49.4033C113.147 49.4033 109.76 48.9493 108.441 47.9873C106.747 46.7513 106.436 44.9493 106 33.8173C105.699 26.1363 105.077 20.9243 104.438 20.7123C103.853 20.5193 103.066 20.6713 102.688 21.0493ZM70.581 55.8443C71.615 57.2583 71.996 60.9233 71.985 69.3443C71.976 75.7023 71.6 81.4853 71.149 82.1953C70.698 82.9063 69.018 83.8393 67.415 84.2673C65.522 84.7743 64.5 85.6983 64.5 86.9033C64.5 88.1083 65.522 89.0323 67.415 89.5393C69.018 89.9673 70.698 90.9003 71.149 91.6113C71.6 92.3213 71.976 98.1903 71.985 104.653C71.998 115.082 71.775 116.628 70 118.403C68.311 120.092 66.667 120.403 59.434 120.403C54.723 120.403 49.998 119.937 48.934 119.368C47.17 118.424 47 117.158 47 104.99C47 95.5313 47.364 91.3493 48.25 90.6213C48.938 90.0573 50.625 89.4393 52 89.2493C53.718 89.0113 54.5 88.2773 54.5 86.9033C54.5 85.5293 53.718 84.7953 52 84.5573C50.625 84.3673 48.938 83.7493 48.25 83.1853C47.363 82.4563 47 78.2623 47 68.7483C47 55.7913 47.076 55.3063 49.25 54.3863C50.488 53.8633 55.474 53.5403 60.331 53.6683C67.754 53.8663 69.389 54.2133 70.581 55.8443ZM98.457 54.3863C100.186 55.0443 101.243 56.3703 101.647 58.3863C102.042 60.3633 102.853 61.4033 104 61.4033C105.147 61.4033 105.958 60.3633 106.353 58.3863C106.769 56.3083 107.818 55.0393 109.728 54.3043C111.253 53.7183 116.19 53.3883 120.7 53.5713C125.685 53.7733 129.411 54.4133 130.2 55.2033C131.133 56.1363 131.5 60.1703 131.5 69.4893C131.5 79.9453 131.208 82.6613 130 83.4243C129.175 83.9463 124.225 84.3723 119 84.3723C113.775 84.3723 108.91 83.9983 108.189 83.5413C107.468 83.0843 106.562 80.5033 106.177 77.8063C105.699 74.4683 105.004 72.9033 104 72.9033C102.996 72.9033 102.301 74.4683 101.823 77.8063C101.438 80.5033 100.532 83.0843 99.811 83.5413C99.09 83.9983 94.225 84.3723 89 84.3723C83.775 84.3723 78.825 83.9463 78 83.4253C76.869 82.7123 76.415 79.9863 76.154 72.3603C75.963 66.7953 76.101 60.6803 76.459 58.7703C76.884 56.5073 77.875 54.9903 79.305 54.4143C80.512 53.9283 84.733 53.5013 88.685 53.4663C92.637 53.4323 97.034 53.8463 98.457 54.3863ZM158.435 54.3783L161 55.3533V68.6783C161 77.7093 160.613 82.3903 159.8 83.2033C159.031 83.9723 155.105 84.4033 148.871 84.4033C141.361 84.4033 138.785 84.0453 137.571 82.8323C136.321 81.5823 136 78.8603 136 69.5233C136 61.6403 136.411 57.2683 137.25 56.2093C137.938 55.3423 139.175 54.3923 140 54.0973C140.825 53.8023 144.733 53.5253 148.685 53.4823C152.637 53.4393 157.024 53.8423 158.435 54.3783ZM100 90.3803C101.171 91.1193 101.572 94.0593 101.83 103.785C102.135 115.31 102.004 116.399 100.08 118.323C98.288 120.115 96.779 120.403 89.191 120.403C83.169 120.403 79.768 119.955 78.441 118.986C76.751 117.751 76.456 116.067 76.163 105.943C75.89 96.5313 76.132 93.8503 77.436 91.8603C78.965 89.5273 79.538 89.4043 88.773 89.4183C94.123 89.4273 99.175 89.8593 100 90.3803ZM145.5 158.754C142.75 160.036 139.855 161.864 139.067 162.817C138.279 163.77 135.883 165.443 133.742 166.534C131.602 167.626 127.747 168.568 125.175 168.626C122.604 168.684 117.686 167.758 114.246 166.568C110.806 165.377 106.476 164.403 104.624 164.403C102.771 164.403 97.71 165.561 93.378 166.977C87.56 168.878 84.405 169.387 81.313 168.925C79.011 168.581 75.47 167.175 73.444 165.801C71.419 164.426 69.066 163.437 68.214 163.603C67.363 163.768 66.486 164.441 66.267 165.099C66.048 165.757 67.721 167.637 69.985 169.277C72.249 170.917 76.313 172.733 79.016 173.313C81.719 173.893 85.408 174.104 87.215 173.783C89.022 173.462 92.879 172.345 95.788 171.301C98.696 170.257 102.841 169.403 105 169.403C107.159 169.403 111.209 170.303 114 171.403C116.897 172.545 121.432 173.403 124.569 173.403C127.591 173.403 131.703 172.718 133.705 171.882C135.707 171.045 139.25 168.8 141.577 166.894C143.904 164.987 147.005 162.971 148.469 162.415C149.933 161.858 153.099 161.403 155.506 161.403C157.913 161.403 160.135 160.994 160.444 160.493C160.753 159.993 160.732 158.868 160.396 157.993C159.959 156.853 158.471 156.406 155.143 156.413C152.395 156.419 148.459 157.374 145.5 158.754Z" fill="#592B18"/>
</svg>
