<svg width="469" height="325" viewBox="0 0 469 325" fill="none" xmlns="http://www.w3.org/2000/svg">
<path d="M82.5993 46.9317L99.4946 41.3C105.752 41.3 120.144 40.1736 127.653 35.6682C137.04 30.0364 137.04 20.6502 142.671 18.7726C148.303 16.8951 163.321 20.6502 172.707 20.6502C182.094 20.6502 197.112 35.6682 214.007 31.9134C230.902 28.1587 230.902 24.4047 244.043 16.8956C254.556 10.8884 262.19 16.8956 264.693 20.6502C261.564 23.1532 260.563 29.661 281.588 35.6682C302.613 41.6754 311.624 51.9377 313.501 56.318C312.876 63.2013 316.881 76.2169 337.906 73.2133C358.931 70.2097 375.451 84.4768 381.083 91.9858C383.586 86.9798 388.592 86.3541 388.592 123.899C388.592 161.444 406.113 164.573 414.873 161.444C458.426 140.419 446.787 152.684 435.523 161.444C436.149 167.702 435.898 181.719 429.891 187.726C422.382 195.235 433.646 208.376 428.014 223.394C423.509 235.408 399.855 230.903 388.592 227.148C387.966 237.786 384.086 256.809 373.574 247.798C363.061 238.787 346.666 267.822 339.783 283.466H304.115L264.693 304.116C250.301 300.987 219.639 293.603 212.13 289.098C202.743 283.466 172.707 290.975 157.689 289.098C145.675 287.596 143.923 278.46 144.549 274.08L137.04 311.625C137.04 300.987 136.289 279.711 133.285 279.711C129.531 279.711 137.04 268.448 133.285 259.062C129.531 249.675 129.531 245.921 118.267 238.412C107.003 230.903 88.2309 238.412 86.3537 240.289C84.4764 242.166 61.9493 247.798 67.5811 223.394C73.2129 198.989 56.3176 197.112 48.8086 185.849C41.2995 174.585 28.1587 182.094 24.4042 180.217C20.6497 178.34 20.6497 172.708 30.036 163.322C39.4223 153.935 37.545 144.549 39.4223 137.04C40.9241 131.033 58.8206 118.267 67.5811 112.636C69.4584 105.752 73.2131 91.2349 73.2131 88.2313C73.2131 84.4768 71.3358 67.5815 73.2131 60.0725C75.0903 52.5635 76.9676 48.809 82.5993 46.9317Z" fill="#D19780"/>
<path fill-rule="evenodd" clip-rule="evenodd" d="M238.828 5.15201C230.625 9.65742 229.22 11.8801 233.069 14.2567C236.921 16.6408 235.907 18.2628 228.897 20.9435C223.806 22.8883 216.459 28.0132 212.569 32.3309C206.821 38.7135 209.453 38.0377 226.637 28.7303C238.265 22.434 250.741 17.9061 254.361 18.6682C258.967 19.6407 255.055 23.4628 241.314 31.4186C226.254 40.1365 222.714 43.8121 226.108 47.2062C228.537 49.6354 234.837 51.599 240.101 51.5689C245.365 51.5352 251.575 50.2699 253.895 48.7531C256.219 47.2362 259.328 40.4143 260.807 33.5924C262.313 26.6578 265.418 21.8558 267.85 22.6968C270.242 23.5228 272.134 28.6815 272.056 34.1594C271.973 39.6334 273.985 44.1162 276.527 44.1162C279.065 44.1162 282.091 42.5844 283.248 40.7147C284.404 38.8449 289.15 38.1053 293.794 39.0739L302.238 40.831L293.479 35.6048C288.662 32.7326 281.018 23.7556 276.49 15.6609C270.783 5.45237 265.41 0.669125 258.967 0.0646467C253.857 -0.419683 244.794 1.87058 238.828 5.15201ZM120.801 21.2739C108.404 34.0692 98.9388 40.388 89.943 41.871C82.8057 43.0462 71.8989 44.4579 65.7039 45.0023C55.4203 45.9071 54.4817 47.1386 54.8947 59.1343C55.1462 66.3617 56.5392 75.8005 57.9884 80.107C59.8732 85.7049 57.7781 91.3217 50.6296 99.8181C45.1292 106.351 42.5574 111.697 44.9077 111.697C47.258 111.697 54.2865 109.058 60.5227 105.833C68.8615 101.519 70.8476 98.7368 68.0129 95.3202C65.8916 92.7672 63.0194 83.5799 61.634 74.9032C59.9595 64.4356 60.4964 59.1343 63.2297 59.1343C65.4937 59.1343 66.3722 56.6 65.1858 53.5025C63.8379 49.992 65.2121 47.8708 68.8352 47.8708C72.0303 47.8708 75.6008 49.4176 76.7685 51.3061C77.9361 53.1946 77.005 55.3685 74.7035 56.1344C72.0716 57.013 72.7962 59.4271 76.6408 62.6185C81.9309 67.0075 82.4453 66.8611 80.4066 61.5409C79.1038 58.1543 79.329 55.3798 80.9059 55.3798C82.4791 55.3798 89.8417 59.7463 97.2643 65.0852L110.758 74.7943L100.001 64.8937C94.0843 59.4497 90.0669 54.1671 91.0807 53.1571C92.0906 52.1471 99.0703 54.9518 106.594 59.3896C117.52 65.8361 121.368 66.5457 125.739 62.9188C128.746 60.4221 132.286 52.6352 133.604 45.618C134.922 38.5971 137.839 32.8528 140.085 32.8528C142.799 32.8528 142.66 31.3397 139.668 28.3474C137.19 25.8694 135.162 21.4391 135.162 18.503C135.162 14.0915 136.184 14.0051 141.012 18.015C144.229 20.6844 153.942 23.3501 162.6 23.9396C171.258 24.529 185.323 26.0872 193.857 27.405C202.391 28.7228 210.328 28.261 211.492 26.3763C212.667 24.4765 208.616 23.6805 202.402 24.5929C194.705 25.723 184.313 22.5692 169.223 14.527C157.137 8.08804 145.326 2.81671 142.968 2.81671C140.614 2.81671 130.638 11.1217 120.801 21.2739ZM309.969 42.3591C305.959 45.389 299.831 47.8708 296.347 47.8708C292.867 47.8708 287.87 50.4576 285.245 53.6227C281.044 58.6837 281.727 58.894 290.937 55.3948C296.693 53.2059 302.114 52.1284 302.985 52.9994C303.856 53.8667 297.413 59.4046 288.673 65.3029C279.929 71.205 272.127 78.5639 271.335 81.6613C270.28 85.7613 270.982 85.5735 273.91 80.9705C276.122 77.4938 287.299 69.2865 298.754 62.7349C310.209 56.1795 320.23 51.4713 321.029 52.271C321.825 53.067 321.303 55.4886 319.869 57.6512C318.431 59.8138 310.873 65.8624 303.075 71.0999L288.894 80.6138L301.885 90.5257C309.03 95.9735 316.738 100.434 319.013 100.434C321.945 100.434 322.017 98.3088 319.253 93.1539C316.663 88.3106 316.618 85.093 319.122 83.5461C321.195 82.2658 322.914 75.8268 322.944 69.2377C322.978 62.6485 324.453 54.963 326.229 52.1622C328.369 48.7868 330.288 48.4114 331.921 51.0508C333.273 53.2435 333.359 59.108 332.109 64.0827C330.532 70.3753 331.64 73.8257 335.751 75.4026C339.002 76.6491 344.195 76.6979 347.292 75.5114C350.39 74.3213 352.924 75.2186 352.924 77.5051C352.924 79.7916 356.303 81.6613 360.433 81.6613C364.732 81.6613 367.942 84.1656 367.942 87.5146C367.942 90.7322 369.631 92.3241 371.696 91.0476C373.761 89.7711 375.451 90.1803 375.451 91.9524C375.451 93.7246 373.341 97.5166 370.758 100.37C367.811 103.633 369.83 103.231 376.194 99.2888C382.108 95.6206 387.244 94.5018 388.539 96.593C389.756 98.5641 384.796 104.038 377.516 108.754C370.236 113.47 364.296 118.174 364.315 119.206C364.334 120.239 370.916 125.728 378.946 131.409C386.977 137.089 396.412 141.733 399.919 141.733C404.53 141.733 405.532 139.916 403.55 135.163C402.04 131.548 398.98 124.012 396.747 118.41C394.513 112.813 393.916 106.997 395.421 105.495C396.927 103.989 401.012 105.615 404.503 109.107C408.825 113.424 409.324 115.452 406.069 115.452C403.441 115.452 402.333 117.141 403.61 119.206C404.886 121.271 410.068 122.961 415.125 122.961C422.788 122.961 423.708 121.865 420.633 116.391C418.602 112.775 414.445 103.475 411.397 95.7182C407.916 86.8688 402.194 80.2234 396.037 77.8843C390.642 75.8306 381.496 74.1523 375.714 74.1523C369.932 74.1523 360.715 70.6231 355.233 66.3129C349.751 61.999 342.719 53.5513 339.61 47.5404C335.893 40.3467 331.103 36.6486 325.606 36.7274C321.014 36.7913 313.975 39.3255 309.969 42.3591ZM144.395 44.3678C143.032 46.5679 142.69 49.1435 143.636 50.0859C144.579 51.0283 148.119 50.7392 151.498 49.4439C154.881 48.1448 156.713 45.573 155.568 43.722C154.427 41.8748 152.001 40.3617 150.18 40.3617C148.359 40.3617 145.754 42.1639 144.395 44.3678ZM184.91 60.1555C178.2 62.258 172.707 65.5207 172.707 67.4092C172.707 69.2977 170.755 69.6356 168.371 68.1639C165.608 66.4518 165.06 67.1389 166.862 70.0561C168.442 72.6092 166.88 77.7266 163.321 81.6613C159.818 85.5322 158.02 90.4206 159.319 92.5231C160.622 94.6294 163.896 95.5042 166.595 94.468C169.295 93.4317 173.672 95.1926 176.319 98.3839C178.97 101.579 184.121 104.188 187.771 104.188C191.416 104.188 198.392 100.945 203.265 96.976C212.028 89.8499 212.051 89.6322 205.345 78.2034C201.617 71.8471 200.348 66.6433 202.53 66.6433C204.715 66.6433 206.524 69.5981 206.554 73.2137C206.603 78.699 207.185 78.8792 210.087 74.2912C213.11 69.5117 215.31 69.6281 226.926 75.166C234.274 78.6727 240.289 83.3546 240.289 85.5773C240.289 87.7962 241.978 88.5696 244.043 87.2931C246.108 86.0166 247.798 83.4522 247.798 81.5975C247.798 79.7428 240.619 74.1298 231.841 69.1213C223.063 64.1165 211.66 59.1943 206.498 58.1806C201.336 57.1669 191.619 58.0567 184.91 60.1555ZM249.675 59.1343C248.398 61.1993 249.566 62.8625 252.269 62.8325C254.973 62.7987 259.718 61.1354 262.816 59.1343C267.392 56.1757 266.908 55.4849 260.221 55.4361C255.697 55.406 250.951 57.0693 249.675 59.1343ZM86.3537 68.0625C86.3537 68.8397 89.3085 71.7982 92.9241 74.6329C98.8788 79.2998 99.0102 79.1683 94.3433 73.2137C91.5087 69.5981 88.5501 66.6433 87.7729 66.6433C86.992 66.6433 86.3537 67.2816 86.3537 68.0625ZM151.836 76.2361C144.838 81.8453 144.883 81.9129 152.996 77.9819C157.644 75.7292 161.444 73.1011 161.444 72.1437C161.444 71.1825 160.922 70.3978 160.284 70.3978C159.646 70.3978 155.846 73.026 151.836 76.2361ZM119.442 80.4712C122.149 81.5562 125.389 81.421 126.636 80.1746C127.882 78.9281 125.667 78.042 121.71 78.2034C117.336 78.3837 116.446 79.2735 119.442 80.4712ZM136.683 85.9978C135.02 88.6823 135.65 89.313 138.335 87.6498C140.719 86.178 142.671 84.2294 142.671 83.3171C142.671 82.4047 141.928 81.6613 141.016 81.6613C140.103 81.6613 138.155 83.6137 136.683 85.9978ZM76.3404 87.9201C77.7184 89.2943 79.9711 89.2943 81.349 87.9201C82.7231 86.5422 81.5968 85.4158 78.8447 85.4158C76.0926 85.4158 74.9663 86.5422 76.3404 87.9201ZM238.325 100.881C223.919 109.486 211.289 117.265 210.26 118.17C209.231 119.075 213.455 118.636 219.646 117.19C230.486 114.656 230.625 114.784 223.393 120.629C215.967 126.633 215.997 126.802 226.419 136.094C232.213 141.26 239.14 145.488 241.813 145.488C244.486 145.488 253.981 140.194 262.917 133.721C278.404 122.503 278.825 121.703 271.928 116.593C267.948 113.642 260.172 110.304 254.646 109.174C248.06 107.827 245.286 105.315 246.6 101.898C247.7 99.0259 252.363 96.6794 256.962 96.6794C261.562 96.6794 274.898 103.385 286.597 111.581C298.296 119.777 307.87 124.868 307.87 122.897C307.87 120.926 300.691 114.731 291.913 109.129C283.135 103.528 273.385 95.8609 270.238 92.0914C264.783 85.5435 263.338 85.9415 238.325 100.881ZM277.834 87.2931C277.834 88.3256 278.678 89.1704 279.711 89.1704C280.743 89.1704 281.588 88.3256 281.588 87.2931C281.588 86.2606 280.743 85.4158 279.711 85.4158C278.678 85.4158 277.834 86.2606 277.834 87.2931ZM76.9674 106.268C61.0296 116.518 47.7311 122.54 43.1769 121.568C39.0469 120.689 30.0398 117.686 23.1616 114.896C11.8004 110.286 10.171 110.488 5.32765 117.108C2.39913 121.117 0 129.986 0 136.819C0 143.652 1.68953 149.243 3.75451 149.243C5.81949 149.243 7.50902 144.174 7.50902 137.979C7.50902 131.784 8.46642 126.715 9.63407 126.715C10.8017 126.715 15.0255 128.465 19.0203 130.601C23.0151 132.741 26.2816 137.303 26.2816 140.739C26.2816 145.514 27.3178 145.954 30.6781 142.593C34.0384 139.233 32.713 136.335 25.0463 130.305C19.531 125.965 15.018 120.641 15.018 118.474C15.018 115.809 16.5349 115.756 19.7112 118.313C22.2943 120.393 29.7245 123.231 36.2235 124.62C45.8764 126.682 53.269 124.219 76.5845 111.179C92.2821 102.401 105.126 93.856 105.126 92.1927C105.126 90.5295 104.706 89.2154 104.188 89.268C103.67 89.3205 91.4223 96.9722 76.9674 106.268ZM102.168 107.331C95.3796 110.954 90.724 114.817 91.8278 115.921C92.9316 117.021 89.6164 121.887 84.4615 126.73C79.3065 131.57 75.0902 136.928 75.0902 138.632C75.0902 140.337 77.3654 141.733 80.1475 141.733C82.9296 141.733 89.102 145.113 93.8627 149.243C98.6235 153.372 103.745 156.752 105.243 156.752C106.737 156.752 109.849 154.48 112.155 151.698C114.46 148.92 123.114 143.596 131.385 139.868C139.656 136.136 146.407 132.073 146.388 130.838C146.366 129.603 139.608 125.762 131.37 122.3C123.129 118.842 116.39 114.194 116.39 111.975C116.39 109.756 119.836 107.943 124.049 107.943C128.262 107.943 138.282 111.299 146.321 115.399C154.359 119.499 161.913 124.436 163.111 126.374C164.309 128.311 160.197 133.519 153.98 137.949C147.759 142.376 142.66 147.996 142.645 150.436C142.63 152.877 136.664 158.933 129.38 163.889C122.1 168.849 116.713 174.615 117.411 176.707C118.106 178.798 124.406 184.88 131.404 190.219C138.406 195.558 142.859 197.818 141.305 195.235C139.198 191.74 143.088 190.531 156.529 190.49C166.46 190.463 178.384 189.42 183.032 188.177C189.141 186.54 191.48 183.112 191.48 175.802C191.48 170.245 189.085 162.417 186.156 158.415C180.941 151.281 180.389 151.349 159.428 161.629C147.654 167.403 137.096 171.203 135.966 170.073C134.836 168.939 134.614 167.459 135.474 166.784C136.338 166.104 146.903 159.485 158.955 152.073C177.438 140.709 182.435 139.162 190.868 142.195C196.368 144.17 203.423 147.835 206.551 150.331C209.674 152.832 215.239 159.567 218.907 165.304C222.579 171.041 224.568 177.379 223.33 179.384C222.087 181.392 222.076 183.033 223.303 183.033C224.531 183.033 230.121 180.116 235.727 176.549C241.332 172.982 247.035 168.484 248.395 166.555C249.806 164.553 253.452 165.623 256.865 169.036C260.161 172.333 266.356 176.144 270.629 177.499C274.901 178.854 277.432 180.931 276.253 182.113C275.07 183.292 261.006 184.456 244.993 184.693C219.977 185.064 213.602 186.592 199.642 195.569C190.71 201.314 180.851 206.994 177.738 208.188C173.601 209.776 173.286 211.106 176.563 213.129C179.559 214.984 174.164 222.425 160.291 235.574C148.878 246.39 135.654 257.181 130.908 259.546C126.159 261.915 120.723 269.263 118.826 275.878C116.435 284.213 116.844 291.452 120.152 299.442C122.78 305.783 127.954 312.594 131.652 314.572C135.346 316.551 141.019 317.152 144.256 315.913C147.488 314.67 149.084 311.952 147.8 309.872C146.516 307.795 147.793 304.619 150.638 302.817C153.484 301.011 162.934 299.513 171.637 299.479C183.918 299.434 190.339 301.946 200.292 310.686C207.347 316.881 217.281 321.95 222.368 321.95C227.456 321.95 234.676 318.571 238.411 314.441C242.147 310.311 246.671 306.932 248.458 306.932C250.249 306.932 258.393 311.351 266.559 316.754C274.721 322.16 284.002 325.581 287.182 324.36C290.363 323.14 294.549 317.978 296.482 312.887C298.42 307.799 303.349 301.841 307.442 299.652C311.538 297.459 323.346 295.668 333.682 295.668C344.022 295.668 353.525 297.358 354.801 299.423C356.078 301.488 354.993 303.177 352.395 303.177C348.888 303.177 348.76 304.27 351.899 307.409C354.238 309.748 360.328 310.585 365.528 309.278C370.698 307.983 377.715 304.131 381.124 300.726C386.084 295.766 386.831 290.326 384.875 273.472C382.678 254.523 383.317 251.587 391.28 244.104C396.15 239.531 403.448 235.48 407.503 235.101C411.558 234.718 418.038 234.673 421.902 235.003C427.714 235.491 428.123 236.576 424.26 241.228C420.494 245.767 420.588 246.942 424.74 247.292C427.571 247.528 433.27 247.367 437.4 246.927C441.53 246.488 447.196 244.25 449.993 241.956C453.308 239.234 454.431 232.976 453.218 223.954C452.201 216.347 447.436 204.813 442.638 198.321C434.72 187.61 433.665 187.182 431.254 193.7C429.794 197.653 429.944 206.863 431.592 214.169C434.198 225.711 433.59 227.716 426.97 229.446C422.784 230.543 414.641 229.003 408.877 226.022C401.143 222.02 395.823 221.584 388.558 224.344C383.144 226.405 377.794 228.087 376.667 228.087C375.541 228.087 378 225.132 382.134 221.517C386.268 217.901 390.649 209.386 391.873 202.594C393.544 193.313 392.947 190.993 389.467 193.268C386.921 194.935 378.485 200.248 370.717 205.08L356.596 213.861L367.901 226.736C375.034 234.86 379.205 243.721 379.205 250.746C379.205 256.869 377.516 261.878 375.451 261.878C373.386 261.878 371.696 258.386 371.696 254.121C371.696 249.856 370.056 243.297 368.047 239.546C366.038 235.795 361.488 231.609 357.932 230.246C351.85 227.911 351.846 228.181 357.827 234.793C361.327 238.656 364.187 242.955 364.187 244.34C364.187 245.726 361.882 246.86 359.063 246.86C356.243 246.86 349.774 243.586 344.687 239.584C339.599 235.581 330.502 231.32 324.468 230.111C315.904 228.395 315.146 228.669 321.011 231.365C325.141 233.265 333.385 239.959 339.333 246.244C346.188 253.494 349.286 259.918 347.792 263.804C346.5 267.172 347.183 273.186 349.316 277.166C352.56 283.23 351.929 284.405 345.415 284.405C341.139 284.405 333.611 281.765 328.685 278.537C320.305 273.044 318.732 273.303 304.059 282.561C295.439 288.005 287.547 291.617 286.522 290.589C285.493 289.564 291.466 284.213 299.794 278.702C309.822 272.068 315.766 264.904 317.391 257.504C318.743 251.354 319.201 245.677 318.412 244.889C317.624 244.1 306.06 250.299 292.713 258.668C279.366 267.037 266.863 275.383 264.929 277.215C262.782 279.254 264.866 284.225 270.28 289.988C275.153 295.177 277.387 299.423 275.239 299.423C273.092 299.423 266.886 295.92 261.445 291.64C256.005 287.363 251.552 281.536 251.552 278.702C251.552 275.863 264.997 264.649 281.427 253.783C297.86 242.914 310.659 233.377 309.871 232.593C309.082 231.804 304.292 233.426 299.227 236.193C294.162 238.964 279.696 246.619 267.085 253.212L244.152 265.197L217.855 247.581C203.393 237.89 191.544 227.896 191.521 225.369C191.499 222.838 196.466 218.194 202.556 215.044C208.649 211.894 214.987 209.371 216.635 209.439C218.287 209.51 215.599 212.93 210.658 217.041C205.721 221.156 202.342 225.05 203.149 225.696C203.96 226.341 212.528 232.213 222.192 238.743C231.856 245.272 241.276 250.614 243.127 250.614C244.974 250.614 250.471 246.375 255.337 241.198L264.182 231.782L255.757 220.383C250.884 213.794 247.824 204.989 248.504 199.504L249.675 190.02L257.848 197.679C262.778 202.301 266.57 203.683 267.407 201.167C268.263 198.603 274.77 200.762 284.265 206.758C292.769 212.127 300.868 218.359 302.257 220.608C304.055 223.522 306.308 223.432 310.081 220.3C312.995 217.882 315.379 214.421 315.379 212.611C315.379 210.798 310.633 209.315 304.832 209.315C299.032 209.315 291.173 207.036 287.363 204.254C283.405 201.359 281.626 197.274 283.206 194.713C284.798 192.138 289.431 191.24 294.106 192.6C299.111 194.056 296.824 191.173 288.159 185.109C280.417 179.688 274.079 173.722 274.079 171.848C274.079 169.975 277.834 165.811 282.425 162.597C287.013 159.383 292.097 156.752 293.719 156.752C295.341 156.752 294.545 160.232 291.943 164.49C287.911 171.094 288.286 173.02 294.508 177.63C298.517 180.6 308.189 183.033 315.998 183.033C327.945 183.033 331.118 181.265 335.954 171.912C341.42 161.34 341.289 160.57 333.247 156.267C328.035 153.478 326.586 151.139 329.469 150.177C332.045 149.318 334.151 146.956 334.151 144.921C334.151 142.867 330.622 142.349 326.199 143.753C320.507 145.556 318.717 144.857 319.907 141.294C320.819 138.55 325.666 135.163 330.675 133.763L339.783 131.217L330.397 130.868C325.234 130.676 316.002 133.823 309.878 137.859C301.75 143.213 298.007 143.997 296.002 140.754C294.132 137.727 292.42 138.674 290.633 143.716C289.187 147.79 284.453 154.037 280.105 157.608C275.757 161.174 269.991 164.133 267.287 164.178C264.584 164.223 263.405 162.59 264.667 160.547C265.951 158.471 264.547 157.765 261.472 158.944C258.453 160.101 250.339 158.141 243.442 154.589C236.545 151.037 225.409 143.956 218.7 138.854C211.991 133.751 206.498 127.143 206.498 124.17C206.498 121.196 204.809 119.807 202.744 121.084C200.679 122.36 198.989 126.682 198.989 130.691C198.989 134.78 196.428 137.979 193.151 137.979C189.941 137.979 174.498 129.531 158.838 119.206C143.178 108.882 126.801 100.505 122.438 100.592C118.079 100.678 108.956 103.712 102.168 107.331ZM153.935 106.066C153.935 107.098 154.78 107.943 155.812 107.943C156.845 107.943 157.689 107.098 157.689 106.066C157.689 105.033 156.845 104.188 155.812 104.188C154.78 104.188 153.935 105.033 153.935 106.066ZM358.199 108.525C356.536 111.209 357.167 111.84 359.851 110.177C362.235 108.705 364.187 106.756 364.187 105.844C364.187 104.932 363.444 104.188 362.532 104.188C361.619 104.188 359.671 106.141 358.199 108.525ZM163.321 111.697C164.598 113.762 166.486 115.452 167.519 115.452C168.551 115.452 168.352 113.762 167.076 111.697C165.799 109.632 163.911 107.943 162.878 107.943C161.846 107.943 162.045 109.632 163.321 111.697ZM349.169 113.575C349.169 114.607 350.014 115.452 351.047 115.452C352.079 115.452 352.924 114.607 352.924 113.575C352.924 112.542 352.079 111.697 351.047 111.697C350.014 111.697 349.169 112.542 349.169 113.575ZM70.0441 123.396C62.1033 127.586 56.4002 131.803 57.3689 132.771C58.3338 133.74 65.2534 130.917 72.7399 126.498C80.2264 122.079 86.3537 117.787 86.3537 116.957C86.3537 116.131 85.9332 115.527 85.4151 115.617C84.897 115.711 77.9812 119.21 70.0441 123.396ZM172.707 117.329C172.707 118.362 173.552 119.206 174.585 119.206C175.617 119.206 176.462 118.362 176.462 117.329C176.462 116.297 175.617 115.452 174.585 115.452C173.552 115.452 172.707 116.297 172.707 117.329ZM446.787 126.715C442.364 129.573 442.259 130.369 446.306 130.414C450.462 130.459 450.556 131.563 446.787 136.102C444.215 139.199 439.784 141.733 436.942 141.733C434.096 141.733 431.769 143.378 431.769 145.39C431.769 147.403 426.7 151.672 420.505 154.874C414.31 158.077 409.242 162.425 409.242 164.538C409.242 166.648 416.728 163.224 425.874 156.932C435.024 150.639 443.802 145.488 445.382 145.488C446.967 145.488 442.773 151.15 436.064 158.069L423.869 170.651L433.706 177.093C443.257 183.352 443.922 183.247 456.856 173.38C469.355 163.848 470.057 162.188 468.274 146.382C467.23 137.119 464.08 128.086 461.275 126.31C458.471 124.53 455.328 123.077 454.296 123.077C453.263 123.077 449.884 124.714 446.787 126.715ZM358.556 132.415C362.686 135.779 369.444 140.187 373.574 142.214L381.083 145.901L373.574 139.789C369.444 136.425 362.686 132.017 358.556 129.989L351.047 126.302L358.556 132.415ZM341.66 136.102C341.66 137.134 342.505 137.979 343.538 137.979C344.57 137.979 345.415 137.134 345.415 136.102C345.415 135.069 344.57 134.224 343.538 134.224C342.505 134.224 341.66 135.069 341.66 136.102ZM352.924 143.611C352.924 144.643 353.769 145.488 354.801 145.488C355.834 145.488 356.678 144.643 356.678 143.611C356.678 142.578 355.834 141.733 354.801 141.733C353.769 141.733 352.924 142.578 352.924 143.611ZM33.539 152.914C30.3026 154.807 23.1503 157.172 17.6462 158.171C12.1383 159.169 5.91711 161.047 3.81458 162.346C1.71581 163.641 0 175.464 0 188.62C0 204.911 1.80215 214.334 5.65429 218.187C8.76303 221.295 14.6126 224.888 18.6524 226.172C22.6923 227.453 29.4016 226.683 33.5616 224.453C37.7216 222.226 42.8615 217.169 44.979 213.212C47.6447 208.23 47.5959 205.252 44.8213 203.54C42.6174 202.177 35.007 202.151 27.9148 203.48C20.8225 204.813 15.018 204.389 15.018 202.545C15.018 200.702 22.0577 196.425 30.6593 193.046C42.2608 188.488 47.5922 187.974 51.3091 191.06C55.1162 194.218 56.3176 193.827 56.3176 189.431C56.3176 186.251 55.2363 180.833 53.9185 177.394C51.9962 172.385 50.8623 172.138 48.2192 176.147C45.576 180.157 44.1418 179.842 41.033 174.563C38.281 169.892 34.4702 168.646 27.9598 170.279C22.9063 171.544 18.7725 170.981 18.7725 169.025C18.7725 167.069 23.0752 163.506 28.3353 161.111C33.5954 158.711 40.8941 156.752 44.5548 156.752C48.2154 156.752 58.3864 162.89 67.1532 170.395C77.5231 179.275 84.3751 182.759 86.7592 180.375C89.1471 177.987 88.7303 175.318 85.5728 172.723C82.9071 170.531 72.4433 164.351 62.3286 158.989C52.214 153.628 42.9216 149.295 41.6788 149.355C40.4361 149.419 36.7754 151.018 33.539 152.914ZM364.187 151.12C364.187 152.152 365.032 152.997 366.065 152.997C367.097 152.997 367.942 152.152 367.942 151.12C367.942 150.087 367.097 149.243 366.065 149.243C365.032 149.243 364.187 150.087 364.187 151.12ZM377.328 160.506C378.605 162.571 380.493 164.261 381.526 164.261C382.558 164.261 382.359 162.571 381.083 160.506C379.806 158.441 377.918 156.752 376.885 156.752C375.853 156.752 376.052 158.441 377.328 160.506ZM375.451 169.892C375.451 170.925 376.296 171.77 377.328 171.77C378.361 171.77 379.205 170.925 379.205 169.892C379.205 168.86 378.361 168.015 377.328 168.015C376.296 168.015 375.451 168.86 375.451 169.892ZM364.187 177.401C364.187 178.434 365.032 179.279 366.065 179.279C367.097 179.279 367.942 178.434 367.942 177.401C367.942 176.369 367.097 175.524 366.065 175.524C365.032 175.524 364.187 176.369 364.187 177.401ZM366.065 188.312C355.74 195.138 344.322 204.07 340.692 208.162C334.358 215.303 334.433 215.893 342.569 222.684C347.232 226.578 348.937 227.359 346.354 224.419C343.774 221.483 341.66 217.871 341.66 216.403C341.66 214.931 352.759 205.812 366.32 196.133C382.359 184.685 393.514 179.2 398.237 180.435C402.232 181.479 404.552 180.799 403.392 178.929C402.236 177.056 397.588 175.61 393.063 175.716C388.539 175.817 376.39 181.49 366.065 188.312ZM352.924 184.91C352.924 185.943 353.769 186.788 354.801 186.788C355.834 186.788 356.678 185.943 356.678 184.91C356.678 183.878 355.834 183.033 354.801 183.033C353.769 183.033 352.924 183.878 352.924 184.91ZM78.2665 199.992C68.655 204.997 57.2488 213.595 52.9236 219.095C47.7649 225.654 45.0541 234.545 45.0541 244.907C45.0541 255.454 47.3406 262.783 51.9211 266.928C55.6982 270.344 64.5663 273.123 71.6323 273.1C78.6945 273.077 90.8141 272.011 98.5559 270.731C106.301 269.451 112.635 266.935 112.635 265.14C112.635 263.346 104.608 261.852 94.8014 261.821C81.9046 261.78 78.5256 260.755 82.5992 258.123C85.6967 256.122 95.312 254.459 103.966 254.425C112.62 254.395 120.741 252.687 122.01 250.629C123.283 248.576 120.002 244.922 114.723 242.52C107.51 239.231 102.795 239.208 95.74 242.422C90.3786 244.866 86.3537 245.181 86.3537 243.158C86.3537 241.209 89.7328 237.808 93.8627 235.596C99.1153 232.784 101.372 227.734 101.372 218.791C101.372 211.759 103.061 204.959 105.126 203.683C107.191 202.406 108.881 203.165 108.881 205.369C108.881 207.974 111.535 207.723 116.454 204.652C123.505 200.255 123.583 199.605 117.614 195.235C114.085 192.656 107.721 190.621 103.471 190.719C99.2167 190.812 87.8781 194.987 78.2665 199.992ZM339.426 194.879C337.763 197.563 338.394 198.194 341.078 196.531C343.463 195.059 345.415 193.11 345.415 192.198C345.415 191.286 344.671 190.542 343.759 190.542C342.847 190.542 340.898 192.494 339.426 194.879ZM304.115 196.174C304.115 197.206 304.96 198.051 305.993 198.051C307.025 198.051 307.87 197.206 307.87 196.174C307.87 195.141 307.025 194.297 305.993 194.297C304.96 194.297 304.115 195.141 304.115 196.174ZM148.303 201.806C149.58 203.871 151.468 205.56 152.501 205.56C153.533 205.56 153.334 203.871 152.058 201.806C150.781 199.741 148.893 198.051 147.86 198.051C146.828 198.051 147.027 199.741 148.303 201.806ZM127.653 203.645C127.653 204.591 132.88 208.068 139.266 211.372C145.652 214.676 151.543 216.711 152.358 215.896C153.173 215.082 147.95 211.605 140.745 208.17C133.544 204.738 127.653 202.703 127.653 203.645ZM160.441 209.78C162.991 212.348 166.021 213.501 167.173 212.345C168.33 211.188 166.246 209.089 162.544 207.678C157.194 205.643 156.762 206.071 160.441 209.78ZM128.404 224.524C124.331 231.05 124.856 231.842 133.255 231.842C138.433 231.842 142.671 230.359 142.671 228.545C142.671 226.736 140.49 223.443 137.824 221.228C134.224 218.243 131.798 219.088 128.404 224.524ZM201.298 260.162C211.683 269.957 213.846 274.35 211.972 281.818C210.298 288.494 211.469 292.222 216.05 294.786C220.54 297.298 221.167 299.198 218.13 301.075C215.734 302.554 204.493 298.526 193.151 292.124C176.95 282.982 170.988 281.307 165.356 284.322C161.41 286.432 156.12 288.159 153.597 288.159C151.074 288.159 153.293 284.36 158.527 279.712C163.821 275.011 169.122 265.186 170.474 257.564C172.512 246.083 174.153 244.187 180.588 245.869C184.812 246.972 194.131 253.408 201.298 260.162ZM198.989 282.528C198.989 283.56 199.834 284.405 200.866 284.405C201.899 284.405 202.744 283.56 202.744 282.528C202.744 281.495 201.899 280.65 200.866 280.65C199.834 280.65 198.989 281.495 198.989 282.528Z" fill="#562714"/>
</svg>
