<svg width="452" height="160" viewBox="0 0 452 160" fill="none" xmlns="http://www.w3.org/2000/svg">
<path fill-rule="evenodd" clip-rule="evenodd" d="M148.79 2.08978C145.127 6.43318 146.939 10.4941 153.215 12.0073C158.893 13.377 160.808 12.0456 159.93 7.33758C158.676 0.60514 152.496 -2.30509 148.79 2.08978ZM278.749 32.348C278.02 33.2907 277.311 36.641 277.173 39.7932C276.754 49.415 271.47 69.6178 268.554 72.747C267.122 74.2831 266.396 73.1959 264.831 67.1784C260.73 51.4132 256.347 42.099 252.52 41.025C248.499 39.895 246.186 41.5012 245.559 45.86C242.791 65.1135 241.112 68.4736 238.573 59.8339C233.516 42.6147 222.674 37.1096 220.53 50.6719C220.12 53.2613 218.814 60.5522 217.627 66.8752C216.439 73.1981 215.466 79.6218 215.464 81.1503C215.461 83.7791 210.188 101.355 208.168 105.47C203.944 114.072 196.816 101.042 199.634 89.8677C201.203 83.6455 201.81 56.315 200.532 49.4545C199.649 44.718 196.891 43.2848 192.835 45.457C189.978 46.9866 189.217 46.9855 185.012 45.4537C176.093 42.2041 169.717 47.2483 166.238 60.3058C162.424 74.6171 160.793 99.5092 163.481 102.404C164.011 102.976 164.446 104.625 164.446 106.068C164.446 118.596 179.566 122.613 188.283 112.399C192.422 107.551 193.168 107.536 196.174 112.244C199.61 117.625 205.416 119.941 208.433 117.134C209.664 115.987 211.054 115.05 211.521 115.05C214.476 115.05 219.93 97.2888 222.616 78.9189C224.915 63.1974 225.812 59.211 227.052 59.211C228.946 59.211 235.053 78.54 235.64 86.3958C236.232 94.3052 236.977 95.0005 243.324 93.5629L247.6 92.5951L247.636 82.7455C247.735 55.5343 252.129 53.9588 258.313 78.9189C262.076 94.1082 273.022 90.4491 277.962 72.3495C278.867 69.0375 280.338 63.4952 281.232 60.0321C283.171 52.5168 284.063 52.2026 285.882 58.3898C293.336 83.7309 312.668 89.0444 323.5 68.7277C329.696 57.1066 326.891 55.4161 317.522 65.1233C305.031 78.0627 300.282 74.3248 291.229 44.43L287.251 31.2914L283.662 30.9618C281.345 30.7494 279.606 31.24 278.749 32.348ZM117.209 54.204C114.915 56.0708 114.77 58.0318 115.856 72.5882C117.15 89.9378 114.971 96.448 104.221 107.351C93.8753 117.843 92.707 117.622 87.0688 104.101C86.4403 102.596 84.5212 95.5053 82.804 88.3458C79.4411 74.3291 78.5933 72.0353 75.3752 68.2438C71.1257 63.2369 62.44 66.7657 62.4012 73.5146C62.3685 79.024 57.6119 79.8736 57.3477 74.4178C57.3293 74.0499 56.5619 69.5698 54.0619 68.2438C51.5619 66.9177 48.4181 68.6839 48.4181 68.6839L44.9593 70.8211C43.0575 71.9959 40.6587 74.7923 39.6313 77.0335C37.3193 82.0733 36.8449 82.0875 34.39 77.1988C28.7009 65.8602 17.5511 66.8916 10.4376 79.4138C5.80443 87.5707 4.95789 92.0525 4.2597 94.0611C3.56152 96.0698 4.24585 94.4918 3.15369 98.2808C2.06152 102.07 1.06235 104.57 0.561937 107.57C0.0615234 110.57 0.561937 111.57 6.04517e-08 115.336C-0.000413597 122.07 1.02439 139.89 3.33331 145.572C4.4036 148.209 5.29529 151.411 5.31366 152.689C5.42181 160.109 15.6186 162.19 16.2951 154.931C16.6287 151.351 13.979 143.517 12.4343 143.517C2.99759 143.517 6.65537 97.4541 17.2817 82.4772C21.4221 76.6415 30.7874 81.8795 30.7874 90.0298C30.7874 91.0863 31.4995 94.8078 32.3709 98.2994C33.4973 102.817 33.9758 110.176 34.0299 123.809C34.1237 147.581 35.5817 151.061 42.5463 144.136C45.1939 141.501 45.2133 141.372 44.1359 133.461C39.8282 101.827 41.6382 81.1086 48.7078 81.1086C53.9725 81.1086 56.7467 94.1443 55.1153 111.218C53.6052 127.019 56.6957 133.007 62.3675 125.27C64.3295 122.593 64.4897 121.118 64.2928 107.478C64.0867 93.2651 64.5316 89.8064 67.7169 80.8349C69.9932 74.4233 71.6267 77.8393 78.0903 102.539C85.0752 129.226 98.2931 129.581 117.406 103.598C119.116 101.273 119.946 102.46 120.996 108.735C125.132 133.454 143.832 135.69 158.416 113.211C161.246 108.848 162.132 105.267 160.747 103.783C160.397 103.406 157.183 106.192 153.607 109.974C133.851 130.863 125.675 119.715 125.675 71.8875C125.675 53.1694 123.658 48.9552 117.209 54.204ZM404.679 55.3296C400.997 59.28 401.556 64.6854 405.648 64.6854C408.694 64.6854 415.72 56.892 414.855 54.4723C413.818 51.5752 407.697 52.0899 404.679 55.3296ZM185.638 56.431L188.623 59.1255L189.324 76.9601C190.23 99.9932 188.194 106.405 178.931 109.685C166.681 114.023 164.959 74.0445 176.628 56.234C178.723 53.038 181.959 53.1081 185.638 56.431ZM438.131 57.0059C436.746 59.3851 436.406 64.6405 437.63 64.7609C438.051 64.8025 439.772 65.0368 441.456 65.281C445.523 65.8722 451.149 62.9905 451.149 60.3168C451.149 55.3121 440.667 52.6472 438.131 57.0059ZM372.117 63.3058C369.093 66.8062 368.972 67.7302 371.114 71.0105C375.059 77.0553 385.853 70.8934 382.672 64.4117C380.181 59.3347 375.933 58.8902 372.117 63.3058Z" fill="#562714"/>
</svg>
