<svg width="1335" height="900" viewBox="0 0 1335 900" fill="none" xmlns="http://www.w3.org/2000/svg">
<path d="M677.461 173.989L750.38 217.535C774.812 232.125 804.202 235.923 831.54 228.023L971.35 187.617C1018.46 174.003 1060.15 221.375 1040.66 266.372C1025.44 301.504 1044.83 341.976 1081.74 352.135L1084.48 352.889C1140.46 368.297 1144.64 446.088 1090.63 467.406L1034.13 489.709C999.903 503.217 978.114 537.056 979.978 573.802L980.239 578.935C983.042 634.183 934.721 678.253 879.964 670.39L744.797 650.978C721.006 647.561 696.771 652.598 676.311 665.211L560.071 736.872C512.982 765.902 451.103 744.734 431.661 692.944L429.855 688.133C416.924 653.686 383.456 631.331 346.683 632.578L285.972 634.636C227.94 636.603 200.778 563.589 245.987 527.15L248.198 525.368C278.007 501.341 279.663 456.496 251.706 430.337C215.9 396.833 235.263 336.772 283.895 330.489L428.227 311.842C456.449 308.195 481.893 293.002 498.488 269.885L548.018 200.89C577.622 159.653 633.877 147.961 677.461 173.989Z" stroke="#562714" stroke-width="5"/>
<path fill-rule="evenodd" clip-rule="evenodd" d="M981.456 312.26C978.034 314.906 976.38 318.88 976.291 324.668C976.152 333.769 972.615 335.625 966.179 329.973C952.381 317.859 943.574 323.935 948.051 342.478C951.231 355.646 949.227 361.927 941.837 361.963C935.131 361.995 933.143 358.647 932.696 346.564C932.359 337.452 932.035 335.783 930.44 334.929C925.586 332.332 922.569 340.989 924.865 350.927C926.469 357.867 926.197 359.582 923.08 362.195C916.652 367.581 910.531 360.708 910.531 348.103C910.531 341.072 910.277 339.912 908.531 338.978C903.26 336.157 901.06 342.252 903.645 352.518C906.023 361.961 898.946 372.978 890.503 372.978C888.466 372.978 888.387 372.681 889.121 367.728C892.017 348.171 881.978 335.099 874.796 349.074C872.554 353.436 874.404 368.066 877.622 371.428C881.758 375.75 864.54 378.57 859.109 374.46C857.007 372.87 856.884 373.567 861.584 360.478C867.092 345.138 860.639 326.302 848.863 323.346C839.475 320.99 838.526 348.759 847.342 367.9L849.839 373.321L846.935 375.647C831.418 388.073 816.152 380.726 824.263 364.734C833.373 346.771 830.373 329.978 818.053 329.978C810.227 329.978 808.73 335.397 811.013 355.471C812.581 369.259 812.58 370.267 810.986 372.028C810.036 373.077 809.564 374.622 809.915 375.535C811.503 379.674 801.95 392.981 797.396 392.974C791.258 392.965 787.482 388.593 790.39 384.863C796.152 377.469 797.029 371.27 792.859 367.406C785.184 360.293 778.013 364.279 778.176 375.567C778.265 381.711 778.241 381.739 775.239 378.86C763.316 367.426 747.275 378.039 756.608 391.188C759.13 394.741 759.05 395.032 755.732 394.368C753.109 393.844 752.842 394.112 751.482 398.643C748.779 407.65 743.854 406.175 737.902 394.576C733.254 385.517 730.43 385.811 728.979 395.504C727.568 404.919 726.134 407.117 724.018 403.108C717.326 390.432 713.96 386.978 708.297 386.978C705.039 386.978 703.531 388.781 703.531 392.678C703.531 396.51 703.246 396.616 699.685 394.109C689.873 387.201 684.653 398.101 688.638 417.179C690.305 425.162 691.914 425.789 691.092 418.134C688.537 394.35 699.46 390.995 705.959 413.567C707.872 420.209 708.603 421.532 710.521 421.815C713.088 422.195 714.814 420.245 713.916 417.978C704.166 393.356 709.033 383.104 719.973 405.218C725.919 417.237 730.619 416.588 732.153 403.537C732.698 398.898 734.531 395.461 734.531 399.077C734.531 406.502 747.283 413.596 751.499 408.517C753.783 405.765 756.226 405.841 760.679 408.803C771.258 415.839 780.73 411.533 782.213 399.013C782.541 396.244 782.952 393.978 783.126 393.978C783.3 393.978 785.117 395.114 787.163 396.503C796.431 402.793 805.372 398.623 812.438 384.716C815.2 379.279 816.027 379.028 819.762 382.492C826.961 389.167 838.819 388.335 849.186 380.428C853.082 377.456 853.075 377.456 858.558 380.105C863.707 382.593 874.096 382.288 879.506 379.491C881.225 378.602 883.501 378.151 884.565 378.489C891.663 380.742 900.375 377.202 904.614 370.344C906.859 366.71 908.915 366.198 911.972 368.51C915.736 371.357 926.076 369.401 928.303 365.421C929.219 363.784 929.55 363.809 933.721 365.828C943.231 370.432 954.326 366.106 954.496 357.728C954.532 355.942 956.531 355.18 956.531 356.952C956.531 357.488 957.859 358.613 959.481 359.452C968.028 363.872 974.531 358.078 974.531 346.044C974.531 338.891 976.632 337.832 980.048 343.261C984.934 351.028 1009.66 351.453 1012.08 343.813C1013.13 340.506 1011.44 340.143 1004.03 342.089C988.135 346.266 978.897 339.786 988.116 330.924C998.469 320.973 992.352 303.833 981.456 312.26ZM988.531 319.843C988.531 321.99 984.897 326.978 983.333 326.978C982.054 326.978 983.042 321.272 984.659 319.323C986.279 317.372 988.531 317.674 988.531 319.843ZM855.001 333.381C860.463 338.843 861.123 351.883 856.487 362.762C852.944 371.08 848.56 364.525 846.427 347.721C844.316 331.09 847.457 325.837 855.001 333.381ZM959.595 332.675C964.037 335.299 964.032 336.892 959.567 341.441C957.347 343.703 955.531 346.324 955.531 347.266C955.531 349.756 953.84 349.364 953.211 346.728C949.909 332.881 952.032 328.207 959.595 332.675ZM821.896 338.051C826.254 341.478 825.157 355.041 820.004 361.439C817.007 365.16 816.639 364.751 815.407 356.334C813.266 341.7 816.162 333.54 821.896 338.051ZM969.253 348.017C968.594 352.929 967.038 354.978 963.968 354.978C959.698 354.978 960.174 349.766 964.795 345.911C968.54 342.785 969.87 343.414 969.253 348.017ZM883.953 352.732C884.813 355.443 885.045 364.797 884.271 365.572C882.917 366.925 880.782 363.884 880.237 359.826C879.393 353.527 882.389 347.805 883.953 352.732ZM549.108 367.228C548.854 368.465 548.371 371.187 548.034 373.276C547.559 376.224 546.548 377.68 543.518 379.776C539.097 382.835 538.926 384.33 542.943 384.803C545.105 385.057 546.515 384.245 549.475 381.039C553.179 377.027 553.303 376.979 556.14 378.458C561.942 381.484 567.205 378.536 562.482 374.906C561.134 373.87 559.726 373.012 559.353 373C558.981 372.988 557.882 371.178 556.911 368.978C554.798 364.19 549.954 363.103 549.108 367.228ZM788.944 372.487C789.606 375.125 787.236 380.978 785.505 380.978C784.107 380.978 784.3 372.609 785.731 371.178C787.51 369.399 788.244 369.698 788.944 372.487ZM772.037 382.419C776.845 386.953 776.588 390.093 771.304 391.399C764.188 393.157 757.521 386.695 760.989 381.402C763.348 377.801 767.551 378.188 772.037 382.419ZM584.731 388.178C584.035 388.874 583.531 392.209 583.531 396.119C583.531 403.779 583.467 403.854 576.305 404.66C569.074 405.473 566.378 407.783 570.281 409.822C571.915 410.676 578.06 409.542 582.781 407.515C584.058 406.967 584.531 407.226 584.531 408.474C584.531 409.414 585.892 414.246 587.556 419.213C590.809 428.92 590.745 430.381 586.873 434.983C582.464 440.223 577.901 438.051 575.814 429.72C575.091 426.837 573.772 424.028 572.882 423.478C571.991 422.928 570.086 421.527 568.647 420.365C558.797 412.409 547.693 427.669 552.758 442.2C555.147 449.051 548.075 443.004 543.879 434.606C538.649 424.141 534.284 421.708 530.435 427.113C528.449 429.902 528.07 430.068 527.006 428.613C525.674 426.792 522.979 426.444 522.034 427.973C521.696 428.52 522.345 433.237 523.475 438.455C526.793 453.769 524.912 459.978 516.954 459.978C513.848 459.978 513.859 461.492 516.982 463.538C519.937 465.474 522.77 464.761 525.399 461.419C527.887 458.256 528.235 458.333 529.065 462.228C531.641 474.309 536.151 484.978 538.681 484.978C541.613 484.978 541.973 480.765 539.462 475.844C532.249 461.708 528.765 438.848 532.87 432.584C535.339 428.815 535.931 429.196 540.078 437.228C548.95 454.411 559.98 456.961 570.457 444.252C573.13 441.009 573.274 440.963 576.115 442.445C581.886 445.454 588.89 443.051 592.027 436.986L593.62 433.905L596.76 436.141C602.611 440.307 610.816 440.016 615.085 435.49C618.56 431.805 618.657 431.772 623.01 432.868C629.306 434.454 636.121 434.239 639.831 432.338C646.804 428.766 645.082 425.86 637.589 428.554C633.14 430.154 631.903 430.226 627.765 429.123C621.48 427.448 621.414 427.337 622.542 420.445C624.712 407.193 623.307 399.978 618.555 399.978C612.385 399.978 609.472 413.008 613.527 422.468C617.447 431.614 608.511 437.439 599.088 431.879C595.746 429.907 595.531 429.469 595.523 424.629C595.516 419.803 594.052 408.46 592.974 404.88C592.638 403.763 594.457 402.011 599.012 399.065C602.597 396.746 605.531 394.428 605.531 393.914C605.531 392.537 605 392.69 598.372 395.978C595.047 397.628 592.2 398.978 592.047 398.978C591.894 398.978 591.232 396.846 590.576 394.241C588.871 387.47 587.186 385.723 584.731 388.178ZM770.781 397.257C778.031 397.02 778.419 397.361 776.068 401.906C772.613 408.587 765.003 407.44 760.584 399.573L758.429 395.736L761.23 396.607C762.771 397.086 767.069 397.379 770.781 397.257ZM591.108 411.978C591.635 415.47 591.516 416.225 590.58 415.349C589.916 414.728 589.127 412.253 588.826 409.849C588.082 403.91 590.186 405.873 591.108 411.978ZM619.531 410.853C619.531 415.35 618.377 420.001 617.409 419.403C616.389 418.772 616.209 409.633 617.198 408.645C618.614 407.228 619.531 408.096 619.531 410.853ZM567.067 426.694C570.051 432.984 566.273 442.978 560.911 442.978C557.666 442.978 556.175 439.629 556.857 433.872C558.128 423.141 563.566 419.317 567.067 426.694ZM426.531 427.257C421.463 429.789 417.562 451.552 421.463 455.528C423.93 458.043 423.075 462.309 419.633 464.659C412.395 469.599 408.164 466.735 401.344 452.276C395.671 440.25 390.531 438.175 390.531 447.912C390.531 450.595 387.861 450.592 387.009 447.909C386.171 445.269 380.944 442.057 378.517 442.692C376.071 443.332 374.789 447.267 373.413 458.358C371.796 471.391 366.288 472.208 365.865 459.478C365.575 450.759 363.269 440.978 361.503 440.978C357.185 440.978 356.714 444.286 359.192 457.213C361.797 470.812 357.169 475.866 349.562 467.728C347.891 465.941 345.553 463.465 344.367 462.227C342.521 460.298 342.378 459.61 343.371 457.43C344.927 454.014 344 448 344 445.5C344 444.5 343.916 448.24 344 444.5C344.084 440.76 341.417 438.76 340.726 438.621C340.036 438.483 339.584 438.26 338.968 438.621C338.352 438.983 338.906 446.84 338.968 452.478C338.87 474.251 331.244 486.173 323.867 476.084C321.91 473.408 321.272 475.577 323.022 478.961C327.478 487.578 336.888 484.545 339.19 473.75C340.229 468.882 342.199 468.273 345.822 471.702C351.982 477.531 355.675 478.288 361.223 474.86L364.65 472.741L366.905 474.86C372.92 480.511 375.964 476.59 377.568 461.124C378.93 447.989 384.142 446.943 386.038 459.426C387.917 471.803 393.516 472.624 393.546 460.528C393.569 451.527 394.789 450.579 398.054 457.024C405.867 472.441 414.199 475.952 423.299 467.662C425.535 465.625 425.637 465.621 430.602 467.406C439.388 470.566 458.531 465.631 458.531 460.206C458.531 459.154 457.9 458.937 456.281 459.429C433.534 466.351 428.361 465.06 432.943 453.606C436.994 443.479 436.233 429.494 431.492 426.957C429.257 425.761 429.561 425.743 426.531 427.257ZM431.017 436.895C432.201 443.903 429.306 455.087 426.925 452.705C425.215 450.995 425.288 440.293 427.034 436.612C429.243 431.958 430.194 432.025 431.017 436.895ZM866.697 450.278C866.104 450.992 865.346 453.58 865.012 456.028C863.722 465.486 864.431 464.874 850.531 468.545C843.483 470.406 841.46 471.99 842.253 475.024C842.921 477.578 844.705 477.491 854.037 474.445C863.352 471.404 863.27 471.349 861.137 479.214C856.949 494.662 852.447 499.437 849.571 491.478C845.704 480.776 845.735 480.822 842.789 481.162C840.961 481.373 839.941 482.144 839.727 483.478C838.497 491.126 834.531 499.889 834.531 494.957C834.531 490.885 825.402 482.704 822.713 484.366C821.111 485.356 818.359 491.994 816.485 499.394C811.688 518.329 806.208 518.192 806.4 499.142C806.503 488.939 805.775 486.978 801.884 486.978C800.04 486.978 799.348 487.644 798.908 489.841L798.336 492.705L794.429 490.591L790.522 488.478L786.808 490.606C779.34 494.886 775.934 509.731 780.436 518.376C784.431 526.047 776.994 526.176 768.473 518.584C765.831 516.23 765.531 515.346 765.531 509.925C765.531 506.605 764.343 499.296 762.892 493.683C761.441 488.07 760.047 481.829 759.795 479.812C759.355 476.289 756.456 471.978 754.527 471.978C751.485 471.978 750.697 480.141 752.949 488.324C753.729 491.159 754.658 495.21 755.013 497.327L755.659 501.175L751.616 500.492C741.687 498.815 735.47 505.316 734.727 518.154C733.803 534.118 721.219 537.305 711.986 523.913C705.044 513.844 699.531 514.115 699.531 524.525C699.531 525.874 699.081 526.978 698.531 526.978C697.981 526.978 697.531 526.278 697.531 525.422C697.531 519.652 687.423 516.201 684.734 521.053C681.128 527.563 681.376 527.481 676.093 523.915C664.319 515.969 656.531 519.4 656.531 532.531C656.531 537.495 655.965 541.369 654.917 543.577C653.098 547.411 652.983 547.451 649.531 545.478C645.612 543.237 642.604 543.689 639.531 546.978C637.99 548.628 636.459 549.978 636.13 549.978C635.078 549.978 635.488 546.122 636.614 545.427C637.754 544.722 641.106 537.559 642.673 532.478C646.017 521.635 640.421 497.978 634.512 497.978C629.824 497.978 627.339 523.958 630.61 538.769C632.072 545.388 626.702 551.899 617.965 554.099C612.616 555.446 612.628 557.348 617.987 557.796C622.334 558.16 626.605 556.659 629.114 553.887C631.449 551.307 632.213 551.481 632.807 554.728C636.649 575.727 646.072 589.142 655.71 587.333C667.548 585.111 670.46 566.929 660.972 554.489C656.293 548.355 657.941 547.212 663.15 552.978C671.708 562.451 686.116 551.087 684.706 535.978C683.697 525.167 691.145 524.32 695.063 534.8C698.782 544.747 702.649 544.196 703.981 533.528C704.81 526.897 705.393 526.729 709.084 532.054C710.637 534.296 713.68 537.034 715.847 538.139L719.785 540.148L726.311 536.836C729.931 534.998 733.564 532.327 734.471 530.836C736.101 528.155 736.112 528.153 738.568 530.041C744.013 534.225 754.527 529.998 760.711 521.139L762.344 518.8L765.187 521.741C773.096 529.921 788.718 528.852 798.376 519.471C802.582 515.386 802.668 515.367 805.031 517.978C807.962 521.217 812.925 520.639 815.922 516.71C818.35 513.527 819.274 510.582 821.564 498.728C822.713 492.779 825.813 490.563 827.159 494.728C828.156 497.814 832.752 506.428 834.228 507.978C836.269 510.12 839.899 505.723 841.614 499.033C843.175 492.942 844.388 492.991 846.204 499.218C848.873 508.373 856.906 505.448 861.999 493.466C864.876 486.695 867.531 486.092 867.531 492.209C867.531 504.946 879.443 506.916 890 495.925C895.186 490.526 896.137 489.931 898.438 490.647C906.482 493.152 917.531 489.969 917.531 485.146C917.531 483.118 917.181 482.852 915.281 483.435C904.854 486.637 900.678 484.97 902.422 478.304C905.502 466.535 904.092 462.84 897.411 465.17C893.413 466.564 892.317 469.102 892.598 476.323C892.899 484.079 892.341 485.389 886.23 491.281C877.353 499.838 871.871 494.972 870.785 477.574C870.183 467.917 869.599 468.622 882.024 464.007C894.164 459.499 891.94 456.56 878.531 459.393C870.843 461.017 871.114 461.148 872.417 456.429C874.04 450.55 870.041 446.249 866.697 450.278ZM760.531 497.537C760.531 498.88 760.081 499.978 759.531 499.978C758.981 499.978 758.531 498.601 758.531 496.919C758.531 495.134 758.948 494.117 759.531 494.478C760.081 494.818 760.531 496.194 760.531 497.537ZM793.941 496.289C797.949 499.219 796.942 510.42 792.195 515.728C784.566 524.258 780.961 506.038 788.436 496.728C790.114 494.638 791.53 494.526 793.941 496.289ZM751.458 505.613C753.405 506.003 755.617 507.535 757.169 509.57L759.703 512.892L757.09 517.685C753.074 525.052 743.803 529.421 740.536 525.484C738.173 522.637 740.168 511.729 743.716 508.1C747.073 504.666 746.938 504.709 751.458 505.613ZM638.809 513.987C640.477 523.007 637.625 538.978 634.346 538.978C633.393 538.978 633.262 518.238 634.18 512.681C635.067 507.317 637.714 508.064 638.809 513.987ZM673.948 528.04C679.434 532.856 679.365 537.198 673.722 542.305C668.966 546.609 661.531 540.966 661.531 533.053C661.531 524.912 667.597 522.463 673.948 528.04ZM535.512 534.501C534.617 535.579 534.407 538.336 534.791 543.945L535.334 551.866L532.191 552.172C526.538 552.722 527.85 558.978 533.618 558.978C538.884 558.978 540.445 567.843 536.27 574.038C532.371 579.823 522.147 586.688 524.072 582.228C528.777 571.328 525.154 560.765 516.214 559.314C509.657 558.25 505.642 571.916 510.037 580.342C512.379 584.832 511.971 585.978 508.031 585.978C504.271 585.978 503.441 587.332 506.281 588.833C513.724 592.768 529.766 588.618 536.493 581.019C541.09 575.826 542.531 574.956 542.531 577.371C542.531 583.653 558.427 577.901 560.959 570.703C562.292 566.912 560.882 566.12 558.113 569.106C554.643 572.848 550.022 574.523 546.986 573.139C542.956 571.303 543.323 559.857 547.531 556.165C549.181 554.717 550.531 553.183 550.531 552.755C550.531 552.328 549.181 551.978 547.531 551.978C545.881 551.978 544.461 551.416 544.375 550.728C544.289 550.041 544.102 548.353 543.96 546.978C542.872 536.443 538.841 530.49 535.512 534.501ZM649.531 550.478C649.531 551.478 648.531 551.978 646.531 551.978C641.666 551.978 643.126 549.572 648.281 549.094C648.969 549.03 649.531 549.653 649.531 550.478ZM643.965 557.974C645.029 557.976 647.853 557.032 650.241 555.877C656.712 552.744 661.988 559.026 661.787 569.624C661.504 584.574 648.823 586.944 642.528 573.224C639.105 565.761 638.685 564.699 637.687 560.978C637.17 559.053 636.415 556.661 636.007 555.662C635.329 553.999 635.55 554.02 638.649 555.909C640.509 557.043 642.901 557.972 643.965 557.974ZM519.407 566.329C521.607 568.979 521.776 576.268 519.698 578.884C516.92 582.382 514.93 581.046 514.149 575.158C513.148 567.61 516.207 562.473 519.407 566.329Z" fill="#562714"/>
</svg>
