<svg width="692" height="282" viewBox="0 0 692 282" fill="none" xmlns="http://www.w3.org/2000/svg">
<path fill-rule="evenodd" clip-rule="evenodd" d="M660.372 3.00007C656.95 5.64607 655.296 9.62008 655.207 15.4081C655.068 24.5091 651.531 26.3651 645.095 20.7131C631.297 8.59908 622.49 14.6751 626.967 33.2181C630.147 46.3861 628.143 52.6671 620.753 52.7031C614.047 52.7351 612.059 49.3871 611.612 37.3041C611.275 28.1921 610.951 26.5231 609.356 25.6691C604.502 23.0721 601.485 31.7291 603.781 41.6671C605.385 48.6071 605.113 50.3221 601.996 52.9351C595.568 58.3211 589.447 51.4481 589.447 38.8431C589.447 31.8121 589.193 30.6521 587.447 29.7181C582.176 26.8971 579.976 32.9921 582.561 43.2581C584.939 52.7011 577.862 63.7181 569.419 63.7181C567.382 63.7181 567.303 63.4211 568.037 58.4681C570.933 38.9111 560.894 25.8391 553.712 39.8141C551.47 44.1761 553.32 58.8061 556.538 62.1681C560.674 66.4901 543.456 69.3101 538.025 65.2001C535.923 63.6101 535.8 64.3071 540.5 51.2181C546.008 35.8781 539.555 17.0421 527.779 14.0861C518.391 11.7301 517.442 39.4991 526.258 58.6401L528.755 64.0611L525.851 66.3871C510.334 78.8131 495.068 71.4661 503.179 55.4741C512.289 37.5111 509.289 20.7181 496.969 20.7181C489.143 20.7181 487.646 26.1371 489.929 46.2111C491.497 59.9991 491.496 61.0071 489.902 62.7681C488.952 63.8171 488.48 65.3621 488.831 66.2751C490.419 70.4141 480.866 83.7211 476.312 83.7141C470.174 83.7051 466.398 79.3331 469.306 75.6031C475.068 68.2091 475.945 62.0101 471.775 58.1461C464.1 51.0331 456.929 55.0191 457.092 66.3071C457.181 72.4511 457.157 72.4791 454.155 69.6001C442.232 58.1661 426.191 68.7791 435.524 81.9281C438.046 85.4811 437.966 85.7721 434.648 85.1081C432.025 84.5841 431.758 84.8521 430.398 89.3831C427.695 98.3901 422.77 96.9151 416.818 85.3161C412.17 76.2571 409.346 76.5511 407.895 86.2441C406.484 95.6591 405.05 97.8571 402.934 93.8481C396.242 81.1721 392.876 77.7181 387.213 77.7181C383.955 77.7181 382.447 79.5211 382.447 83.4181C382.447 87.2501 382.162 87.3561 378.601 84.8491C368.789 77.9411 363.569 88.8411 367.554 107.919C369.221 115.902 370.83 116.529 370.008 108.874C367.453 85.0901 378.376 81.7351 384.875 104.307C386.788 110.949 387.519 112.272 389.437 112.555C392.004 112.935 393.73 110.985 392.832 108.718C383.082 84.0961 387.949 73.8441 398.889 95.9581C404.835 107.977 409.535 107.328 411.069 94.2771C411.614 89.6381 413.447 86.2011 413.447 89.8171C413.447 97.2421 426.199 104.336 430.415 99.2571C432.699 96.5051 435.142 96.5811 439.595 99.5431C450.174 106.579 459.646 102.273 461.129 89.7531C461.457 86.9841 461.868 84.7181 462.042 84.7181C462.216 84.7181 464.033 85.8541 466.079 87.2431C475.347 93.5331 484.288 89.3631 491.354 75.4561C494.116 70.0191 494.943 69.7681 498.678 73.2321C505.877 79.9071 517.735 79.0751 528.102 71.1681C531.998 68.1961 531.991 68.1961 537.474 70.8451C542.623 73.3331 553.012 73.0281 558.422 70.2311C560.141 69.3421 562.417 68.8911 563.481 69.2291C570.579 71.4821 579.291 67.9421 583.53 61.0841C585.775 57.4501 587.831 56.9381 590.888 59.2501C594.652 62.0971 604.992 60.1411 607.219 56.1611C608.135 54.5241 608.466 54.5491 612.637 56.5681C622.147 61.1721 633.242 56.8461 633.412 48.4681C633.448 46.6821 635.447 45.9201 635.447 47.6921C635.447 48.2281 636.775 49.3531 638.397 50.1921C646.944 54.6121 653.447 48.8181 653.447 36.7841C653.447 29.6311 655.548 28.5721 658.964 34.0011C663.85 41.7681 688.575 42.1931 691 34.5531C692.049 31.2461 690.353 30.8831 682.947 32.8291C667.051 37.0061 657.813 30.5261 667.032 21.6641C677.385 11.7131 671.268 -5.42693 660.372 3.00007ZM667.447 10.5831C667.447 12.7301 663.813 17.7181 662.249 17.7181C660.97 17.7181 661.958 12.0121 663.575 10.0631C665.195 8.11207 667.447 8.41407 667.447 10.5831ZM533.917 24.1211C539.379 29.5831 540.039 42.6231 535.403 53.5021C531.86 61.8201 527.476 55.2651 525.343 38.4611C523.232 21.8301 526.373 16.5771 533.917 24.1211ZM638.511 23.4151C642.953 26.0391 642.948 27.6321 638.483 32.1811C636.263 34.4431 634.447 37.0641 634.447 38.0061C634.447 40.4961 632.756 40.1041 632.127 37.4681C628.825 23.6211 630.948 18.9471 638.511 23.4151ZM500.812 28.7911C505.17 32.2181 504.073 45.7811 498.92 52.1791C495.923 55.9001 495.555 55.4911 494.323 47.0741C492.182 32.4401 495.078 24.2801 500.812 28.7911ZM648.169 38.7571C647.51 43.6691 645.954 45.7181 642.884 45.7181C638.614 45.7181 639.09 40.5061 643.711 36.6511C647.456 33.5251 648.786 34.1541 648.169 38.7571ZM562.869 43.4721C563.729 46.1831 563.961 55.5371 563.187 56.3121C561.833 57.6651 559.698 54.6241 559.153 50.5661C558.309 44.2671 561.305 38.5451 562.869 43.4721ZM228.024 57.9681C227.77 59.2051 227.287 61.9271 226.95 64.0161C226.475 66.9641 225.464 68.4201 222.434 70.5161C218.013 73.5751 217.842 75.0701 221.859 75.5431C224.021 75.7971 225.431 74.9851 228.391 71.7791C232.095 67.7671 232.219 67.7191 235.056 69.1981C240.858 72.2241 246.121 69.2761 241.398 65.6461C240.05 64.6101 238.642 63.7521 238.269 63.7401C237.897 63.7281 236.798 61.9181 235.827 59.7181C233.714 54.9301 228.87 53.8431 228.024 57.9681ZM467.86 63.2271C468.522 65.8651 466.152 71.7181 464.421 71.7181C463.023 71.7181 463.216 63.3491 464.647 61.9181C466.426 60.1391 467.16 60.4381 467.86 63.2271ZM450.953 73.1591C455.761 77.6931 455.504 80.8331 450.22 82.1391C443.104 83.8971 436.437 77.4351 439.905 72.1421C442.264 68.5411 446.467 68.9281 450.953 73.1591ZM263.647 78.9181C262.951 79.6141 262.447 82.9491 262.447 86.8591C262.447 94.5191 262.383 94.5941 255.221 95.4001C247.99 96.2131 245.294 98.5231 249.197 100.562C250.831 101.416 256.976 100.282 261.697 98.2551C262.974 97.7071 263.447 97.9661 263.447 99.2141C263.447 100.154 264.808 104.986 266.472 109.953C269.725 119.66 269.661 121.121 265.789 125.723C261.38 130.963 256.817 128.791 254.73 120.46C254.007 117.577 252.688 114.768 251.798 114.218C250.907 113.668 249.002 112.267 247.563 111.105C237.713 103.149 226.609 118.409 231.674 132.94C234.063 139.791 226.991 133.744 222.795 125.346C217.565 114.881 213.2 112.448 209.351 117.853C207.365 120.642 206.986 120.808 205.922 119.353C204.59 117.532 201.895 117.184 200.95 118.713C200.612 119.26 201.261 123.977 202.391 129.195C205.709 144.509 203.828 150.718 195.87 150.718C192.764 150.718 192.775 152.232 195.898 154.278C198.853 156.214 201.686 155.501 204.315 152.159C206.803 148.996 207.151 149.073 207.981 152.968C210.557 165.049 215.067 175.718 217.597 175.718C220.529 175.718 220.889 171.505 218.378 166.584C211.165 152.448 207.681 129.588 211.786 123.324C214.255 119.555 214.847 119.936 218.994 127.968C227.866 145.151 238.896 147.701 249.373 134.992C252.046 131.749 252.19 131.703 255.031 133.185C260.802 136.194 267.806 133.791 270.943 127.726L272.536 124.645L275.676 126.881C281.527 131.047 289.732 130.756 294.001 126.23C297.476 122.545 297.573 122.512 301.926 123.608C308.222 125.194 315.037 124.979 318.747 123.078C325.72 119.506 323.998 116.6 316.505 119.294C312.056 120.894 310.819 120.966 306.681 119.863C300.396 118.188 300.33 118.077 301.458 111.185C303.628 97.9331 302.223 90.7181 297.471 90.7181C291.301 90.7181 288.388 103.748 292.443 113.208C296.363 122.354 287.427 128.179 278.004 122.619C274.662 120.647 274.447 120.209 274.439 115.369C274.432 110.543 272.968 99.2001 271.89 95.6201C271.554 94.5031 273.373 92.7511 277.928 89.8051C281.513 87.4861 284.447 85.1681 284.447 84.6541C284.447 83.2771 283.916 83.4301 277.288 86.7181C273.963 88.3681 271.116 89.7181 270.963 89.7181C270.81 89.7181 270.148 87.5861 269.492 84.9811C267.787 78.2101 266.102 76.4631 263.647 78.9181ZM449.697 87.9971C456.947 87.7601 457.335 88.1011 454.984 92.6461C451.529 99.3271 443.919 98.1801 439.5 90.3131L437.345 86.4761L440.146 87.3471C441.687 87.8261 445.985 88.1191 449.697 87.9971ZM270.024 102.718C270.551 106.21 270.432 106.965 269.496 106.089C268.832 105.468 268.043 102.993 267.742 100.589C266.998 94.6501 269.102 96.6131 270.024 102.718ZM298.447 101.593C298.447 106.09 297.293 110.741 296.325 110.143C295.305 109.512 295.125 100.373 296.114 99.3851C297.53 97.9681 298.447 98.8361 298.447 101.593ZM245.983 117.434C248.967 123.724 245.189 133.718 239.827 133.718C236.582 133.718 235.091 130.369 235.773 124.612C237.044 113.881 242.482 110.057 245.983 117.434ZM105.447 117.997C100.379 120.529 96.4782 142.292 100.379 146.268C102.846 148.783 101.991 153.049 98.5492 155.399C91.3112 160.339 87.0802 157.475 80.2602 143.016C74.5872 130.99 69.4472 128.915 69.4472 138.652C69.4472 141.335 66.7772 141.332 65.9252 138.649C65.0872 136.009 59.8602 132.797 57.4332 133.432C54.9872 134.072 53.7052 138.007 52.3292 149.098C50.7122 162.131 45.2042 162.948 44.7812 150.218C44.4912 141.499 42.1852 131.718 40.4192 131.718C36.1012 131.718 35.6302 135.026 38.1082 147.953C40.7132 161.552 36.0852 166.606 28.4782 158.468C26.8072 156.681 24.4692 154.205 23.2832 152.967C21.4372 151.038 21.2942 150.35 22.2872 148.17C23.8432 144.754 22.916 138.74 22.916 136.24C22.916 135.24 22.832 138.981 22.916 135.24C23 131.5 20.3328 129.5 19.6423 129.362C18.9519 129.224 18.5 129 17.8842 129.362C17.2685 129.724 17.8224 137.58 17.8842 143.218C17.7862 164.991 10.1602 176.913 2.78323 166.824C0.826233 164.148 0.188236 166.317 1.93824 169.701C6.39424 178.318 15.8042 175.285 18.1062 164.49C19.1452 159.622 21.1152 159.013 24.7382 162.442C30.8982 168.271 34.5912 169.028 40.1392 165.6L43.5662 163.481L45.8212 165.6C51.8362 171.251 54.8802 167.33 56.4842 151.864C57.8462 138.729 63.0582 137.683 64.9542 150.166C66.8332 162.543 72.4322 163.364 72.4622 151.268C72.4852 142.267 73.7052 141.319 76.9702 147.764C84.7832 163.181 93.1152 166.692 102.215 158.402C104.451 156.365 104.553 156.361 109.518 158.146C118.304 161.306 137.447 156.371 137.447 150.946C137.447 149.894 136.816 149.677 135.197 150.169C112.45 157.091 107.277 155.8 111.859 144.346C115.91 134.219 115.149 120.234 110.408 117.697C108.173 116.501 108.477 116.483 105.447 117.997ZM109.933 127.635C111.117 134.643 108.222 145.827 105.841 143.445C104.131 141.735 104.204 131.033 105.95 127.352C108.159 122.698 109.11 122.765 109.933 127.635ZM545.613 141.018C545.02 141.732 544.262 144.32 543.928 146.768C542.638 156.226 543.347 155.614 529.447 159.285C522.399 161.146 520.376 162.73 521.169 165.764C521.837 168.318 523.621 168.231 532.953 165.185C542.268 162.144 542.186 162.089 540.053 169.954C535.865 185.402 531.363 190.177 528.487 182.218C524.62 171.516 524.651 171.562 521.705 171.902C519.877 172.113 518.857 172.884 518.643 174.218C517.413 181.866 513.447 190.629 513.447 185.697C513.447 181.625 504.318 173.444 501.629 175.106C500.027 176.096 497.275 182.734 495.401 190.134C490.604 209.069 485.124 208.932 485.316 189.882C485.419 179.679 484.691 177.718 480.8 177.718C478.956 177.718 478.264 178.384 477.824 180.581L477.252 183.445L473.345 181.331L469.438 179.218L465.724 181.346C458.256 185.626 454.85 200.471 459.352 209.116C463.347 216.787 455.91 216.916 447.389 209.324C444.747 206.97 444.447 206.086 444.447 200.665C444.447 197.345 443.259 190.036 441.808 184.423C440.357 178.81 438.963 172.569 438.711 170.552C438.271 167.029 435.372 162.718 433.443 162.718C430.401 162.718 429.613 170.881 431.865 179.064C432.645 181.899 433.574 185.95 433.929 188.067L434.575 191.915L430.532 191.232C420.603 189.555 414.386 196.056 413.643 208.894C412.719 224.858 400.135 228.045 390.902 214.653C383.96 204.584 378.447 204.855 378.447 215.265C378.447 216.614 377.997 217.718 377.447 217.718C376.897 217.718 376.447 217.018 376.447 216.162C376.447 210.392 366.339 206.941 363.65 211.793C360.044 218.303 360.292 218.221 355.009 214.655C343.235 206.709 335.447 210.14 335.447 223.271C335.447 228.235 334.881 232.109 333.833 234.317C332.014 238.151 331.899 238.191 328.447 236.218C324.528 233.977 321.52 234.429 318.447 237.718C316.906 239.368 315.375 240.718 315.046 240.718C313.994 240.718 314.404 236.862 315.53 236.167C316.67 235.462 320.022 228.299 321.589 223.218C324.933 212.375 319.337 188.718 313.428 188.718C308.74 188.718 306.255 214.698 309.526 229.509C310.988 236.128 305.618 242.639 296.881 244.839C291.532 246.186 291.544 248.088 296.903 248.536C301.25 248.9 305.521 247.399 308.03 244.627C310.365 242.047 311.129 242.221 311.723 245.468C315.565 266.467 324.988 279.882 334.626 278.073C346.464 275.851 349.376 257.669 339.888 245.229C335.209 239.095 336.857 237.952 342.066 243.718C350.624 253.191 365.032 241.827 363.622 226.718C362.613 215.907 370.061 215.06 373.979 225.54C377.698 235.487 381.565 234.936 382.897 224.268C383.726 217.637 384.309 217.469 388 222.794C389.553 225.036 392.596 227.774 394.763 228.879L398.701 230.888L405.227 227.576C408.847 225.738 412.48 223.067 413.387 221.576C415.017 218.895 415.028 218.893 417.484 220.781C422.929 224.965 433.443 220.738 439.627 211.879L441.26 209.54L444.103 212.481C452.012 220.661 467.634 219.592 477.292 210.211C481.498 206.126 481.584 206.107 483.947 208.718C486.878 211.957 491.841 211.379 494.838 207.45C497.266 204.267 498.19 201.322 500.48 189.468C501.629 183.519 504.729 181.303 506.075 185.468C507.072 188.554 511.668 197.168 513.144 198.718C515.185 200.86 518.815 196.463 520.53 189.773C522.091 183.682 523.304 183.731 525.12 189.958C527.789 199.113 535.822 196.188 540.915 184.206C543.792 177.435 546.447 176.832 546.447 182.949C546.447 195.686 558.359 197.656 568.916 186.665C574.102 181.266 575.053 180.671 577.354 181.387C585.398 183.892 596.447 180.709 596.447 175.886C596.447 173.858 596.097 173.592 594.197 174.175C583.77 177.377 579.594 175.71 581.338 169.044C584.418 157.275 583.008 153.58 576.327 155.91C572.329 157.304 571.233 159.842 571.514 167.063C571.815 174.819 571.257 176.129 565.146 182.021C556.269 190.578 550.787 185.712 549.701 168.314C549.099 158.657 548.515 159.362 560.94 154.747C573.08 150.239 570.856 147.3 557.447 150.133C549.759 151.757 550.03 151.888 551.333 147.169C552.956 141.29 548.957 136.989 545.613 141.018ZM439.447 188.277C439.447 189.62 438.997 190.718 438.447 190.718C437.897 190.718 437.447 189.341 437.447 187.659C437.447 185.874 437.864 184.857 438.447 185.218C438.997 185.558 439.447 186.934 439.447 188.277ZM472.857 187.029C476.865 189.959 475.858 201.16 471.111 206.468C463.482 214.998 459.877 196.778 467.352 187.468C469.03 185.378 470.446 185.266 472.857 187.029ZM430.374 196.353C432.321 196.743 434.533 198.275 436.085 200.31L438.619 203.632L436.006 208.425C431.99 215.792 422.719 220.161 419.452 216.224C417.089 213.377 419.084 202.469 422.632 198.84C425.989 195.406 425.854 195.449 430.374 196.353ZM317.725 204.727C319.393 213.747 316.541 229.718 313.262 229.718C312.309 229.718 312.178 208.978 313.096 203.421C313.983 198.057 316.63 198.804 317.725 204.727ZM352.864 218.78C358.35 223.596 358.281 227.938 352.638 233.045C347.882 237.349 340.447 231.706 340.447 223.793C340.447 215.652 346.513 213.203 352.864 218.78ZM214.428 225.241C213.533 226.319 213.323 229.076 213.707 234.685L214.25 242.606L211.107 242.912C205.454 243.462 206.766 249.718 212.534 249.718C217.8 249.718 219.361 258.583 215.186 264.778C211.287 270.563 201.063 277.428 202.988 272.968C207.693 262.068 204.07 251.505 195.13 250.054C188.573 248.99 184.558 262.656 188.953 271.082C191.295 275.572 190.887 276.718 186.947 276.718C183.187 276.718 182.357 278.072 185.197 279.573C192.64 283.508 208.682 279.358 215.409 271.759C220.006 266.566 221.447 265.696 221.447 268.111C221.447 274.393 237.343 268.641 239.875 261.443C241.208 257.652 239.798 256.86 237.029 259.846C233.559 263.588 228.938 265.263 225.902 263.879C221.872 262.043 222.239 250.597 226.447 246.905C228.097 245.457 229.447 243.923 229.447 243.495C229.447 243.068 228.097 242.718 226.447 242.718C224.797 242.718 223.377 242.156 223.291 241.468C223.205 240.781 223.018 239.093 222.876 237.718C221.788 227.183 217.757 221.23 214.428 225.241ZM328.447 241.218C328.447 242.218 327.447 242.718 325.447 242.718C320.582 242.718 322.042 240.312 327.197 239.834C327.885 239.77 328.447 240.393 328.447 241.218ZM322.881 248.714C323.945 248.716 326.769 247.772 329.157 246.617C335.628 243.484 340.904 249.766 340.703 260.364C340.42 275.314 327.739 277.684 321.444 263.964C318.021 256.501 317.601 255.439 316.603 251.718C316.086 249.793 315.331 247.401 314.923 246.402C314.245 244.739 314.466 244.76 317.565 246.649C319.425 247.783 321.817 248.712 322.881 248.714ZM198.323 257.069C200.523 259.719 200.692 267.008 198.614 269.624C195.836 273.122 193.846 271.786 193.065 265.898C192.064 258.35 195.123 253.213 198.323 257.069Z" fill="#562714"/>
</svg>
