<svg id="Calque_1" xmlns="http://www.w3.org/2000/svg" viewBox="0 0 150.64 150.64"><style>.st0{fill:#fbbe5e}</style><path class="st0" d="M75.32 118.87c-24.01 0-43.55-19.53-43.55-43.55S51.3 31.77 75.32 31.77s43.55 19.53 43.55 43.55-19.54 43.55-43.55 43.55zm0-86.23c-23.54 0-42.68 19.15-42.68 42.68 0 23.54 19.15 42.68 42.68 42.68S118 98.85 118 75.32c.01-23.54-19.14-42.68-42.68-42.68zM27.16 50.88c.22.12.45-.08.79-.71.71-1.33.76-1.92.3-2.85-.17-.35-.27-.52-.22-.62.02-.03.07-.04.14 0 .03.02.1.07.19.15l1.04 1.03c.06.06.08.11.02.22l-2.63 4.96c-.02.03-.03.04-.06.02l-.22-.12c-.03-.02-.04-.03-.02-.06l.06-.11c.24-.46.22-.69-.36-1l-3.89-2.06c-.58-.31-.78-.2-1.03.26l-.06.11c-.02.03-.03.04-.06.02l-.22-.12c-.03-.01-.03-.03-.01-.06l1.38-2.6c.02-.03.03-.04.06-.02l.22.12c.03.02.04.03.02.06l-.06.11c-.25.46-.22.69.36 1l4.26 2.27zm.29-10.33c.54.38.94 1.3.88 2.03-.01.05-.01.08-.03.11-.02.02-.05.04-.11-.01-.11-.08-.13-.11-.14-.21-.09-.74-.21-.89-.32-.97-.1-.07-.18-.07-.55.05-.36.13-.55.12-.74-.02a.642.642 0 0 1-.15-.9c.23-.33.75-.37 1.16-.08zm11.2-5.3c.36.12.73.09 1.04-.22l.09-.09c.03-.03.04-.03.07 0l.18.17c.02.02.02.03-.01.06l-2.24 2.28c-.03.03-.04.03-.06.01l-.18-.17c-.03-.03-.03-.04 0-.07l.09-.09c.34-.35.28-.57.13-.73a.496.496 0 0 0-.22-.13l-.77-.25-1.97 2.01.28.69c.05.13.13.37.16.4.12.12.27.17.59-.16l.09-.09c.03-.03.04-.03.07 0l.18.17c.02.02.02.03-.01.06l-1.48 1.51c-.03.03-.04.03-.06.01l-.18-.17c-.03-.03-.03-.04 0-.07l.09-.09c.4-.45.44-.68.22-1.25l-1.72-4.38-.35-.12c-.03-.01-.05-.01-.07-.03-.05-.05-.04-.11-.02-.5.03-.32.02-.46-.06-.69-.03-.09-.03-.13.03-.19.02-.02.05-.02.12.01l5.97 2.11zm-4.02 2.38l1.71-1.74-2.78-.93 1.07 2.67zm10.2-12.69c-.36-.54-.59-.55-1.03-.26l-.1.07c-.03.02-.04.02-.07-.01l-.14-.2c-.02-.02-.01-.04.02-.06l1.7-1.14c.03-.02.04-.02.06.01l.14.21c.02.03.02.04-.01.07l-.1.07c-.43.29-.52.51-.15 1.05L47 27.51c.7 1.06.69 2.31-1.03 3.46-1.58 1.05-2.92 1.22-3.98-.38l-1.74-2.6c-.36-.54-.59-.55-1.03-.26l-.1.07c-.03.02-.04.02-.07-.01l-.14-.2c-.02-.02-.01-.04.02-.06l2.45-1.64c.03-.02.04-.02.06.01l.14.2c.02.03.02.04-.01.07l-.1.07c-.43.29-.52.51-.15 1.05l1.89 2.83c.67 1.01 1.49 1.15 2.53.46 1.28-.85 1.59-1.89 1.03-2.72l-1.94-2.92zm10.14-.1c.25.6.48.65.96.45l.11-.05c.04-.01.05-.01.06.03l.1.23c.01.03.01.04-.03.05l-2.72 1.13c-.03.01-.05.01-.06-.02l-.09-.23c-.01-.03-.01-.05.03-.06l.11-.05c.48-.2.61-.4.35-1l-1.69-4.06c-.22-.53-.44-.66-.81-.51-.81.34-1.06.76-1.3 1.69-.04.15-.06.29-.12.31-.04.02-.1-.01-.12-.04-.08-.18-.09-.76-.28-1.6-.03-.11-.03-.23.04-.27.04-.01.07-.02.26.01.13.03.36-.01.93-.25l3.07-1.28c.58-.24.76-.38.83-.49.11-.16.14-.18.18-.2.08-.03.16.06.22.16.46.72.86 1.14.94 1.32.01.04-.01.1-.05.12-.05.02-.17-.06-.3-.14-.83-.49-1.31-.61-2.12-.27-.37.15-.43.4-.21.93l1.71 4.09zm10.57-7.55c-.13-.64-.34-.74-.85-.63l-.12.02c-.04.01-.05 0-.06-.04l-.05-.24c-.01-.03 0-.04.04-.05l2.89-.58c.04-.01.05 0 .05.03l.05.24c.01.04 0 .05-.04.06l-.12.02c-.51.1-.67.27-.54.91l.86 4.32c.13.64.34.74.85.63l.12-.02c.04-.01.05 0 .06.04l.05.24c.01.03 0 .04-.04.05l-2.9.58c-.04.01-.05 0-.05-.03l-.05-.24c-.01-.04 0-.05.04-.06l.12-.02c.51-.1.67-.27.55-.91l-.39-1.97-3.36.67.39 1.97c.13.64.34.74.85.63l.12-.02c.04-.01.05 0 .06.04l.05.24c.01.03 0 .04-.04.05l-2.89.57c-.04.01-.05 0-.05-.03l-.05-.24c-.01-.04 0-.05.04-.06l.12-.02c.51-.1.67-.27.54-.91l-.86-4.32c-.13-.64-.34-.74-.85-.63l-.12.02c-.04.01-.05 0-.06-.04l-.05-.24c-.01-.03 0-.04.04-.05l2.89-.57c.04-.01.05 0 .05.03l.05.24c.01.04 0 .05-.04.06l-.12.02c-.51.1-.67.27-.54.91l.38 1.93 3.36-.67-.38-1.93zm9.12 4.03c0 .25.29.36 1 .36 1.51 0 1.92-.22 2.52-1.07.23-.31.33-.48.45-.48.04 0 .07.05.07.12 0 .04-.01.12-.05.24l-.43 1.4c-.03.09-.06.12-.19.12L72.55 22c-.04 0-.05-.01-.05-.04v-.25c0-.04.01-.05.05-.05h.12c.52 0 .71-.13.71-.79l.01-4.4c0-.65-.19-.79-.71-.79h-.12c-.04 0-.05-.01-.05-.05v-.23c0-.03.01-.04.05-.04l5.32.01c.17 0 .18.01.24.13l.54 1.25c.04.09.06.17.06.22 0 .08-.04.12-.09.12-.1 0-.22-.14-.39-.38-.58-.79-1.57-1.03-2.56-1.03-.93 0-1 .13-1 .91v1.8h1.4c.66 0 1.07-.61 1.07-1.14v-.12c0-.04.01-.05.05-.05h.25c.03 0 .04.01.04.05l-.01 2.95c0 .04-.01.05-.04.05h-.25c-.04 0-.05-.01-.05-.05v-.12c0-.52-.42-1.14-1.07-1.14h-1.4l-.01 2.5zm14.3 2.43c-.02.07-.02.07-.05.07-.04-.01-.04-.02-.07-.06l-4.08-6.58c-.06-.09-.09-.13-.12-.14-.03-.01-.04.06-.06.16l-.88 4.28c-.13.64.06.82.57.92l.07.02c.04.01.05.02.04.06l-.05.24c-.01.03-.02.04-.05.03l-1.94-.4c-.04-.01-.04-.02-.04-.05l.05-.24c.01-.04.02-.05.06-.04l.07.02c.51.1.82.03.95-.61l.8-3.92c.14-.71.15-.78-.01-1.01-.12-.17-.22-.25-.55-.32l-.07-.02c-.04-.01-.04-.02-.04-.06l.05-.24c.01-.03.02-.04.05-.03l1.92.39c.11.02.18.06.24.16l3.28 5.27.7-3.43c.13-.64-.05-.82-.57-.92l-.07-.02c-.04-.01-.04-.02-.04-.06l.05-.24c.01-.03.02-.04.05-.03l1.94.4c.04.01.04.02.04.05l-.05.24c-.01.04-.02.05-.06.04l-.07-.02c-.51-.11-.82-.03-.95.61l-1.11 5.48zm8.21 1.71c-.26.6-.13.8.35 1l.11.05c.04.02.04.03.03.06l-.1.23c-.01.03-.02.03-.06.02l-2.71-1.16c-.03-.01-.04-.03-.03-.05l.1-.23c.02-.03.03-.04.06-.02l.11.05c.48.2.71.16.96-.45l1.73-4.05c.23-.53.17-.78-.2-.93-.8-.34-1.28-.23-2.12.25-.14.08-.25.16-.31.14-.04-.02-.07-.08-.05-.12.08-.18.48-.6.95-1.32.06-.1.14-.19.22-.15.03.02.07.04.17.2.07.11.25.25.83.5l3.06 1.3c.58.25.8.28.93.25.19-.03.23-.03.26-.01.08.03.07.15.04.26-.19.84-.21 1.42-.29 1.6-.02.03-.08.06-.12.04-.05-.02-.07-.17-.11-.32-.23-.93-.48-1.36-1.29-1.7-.37-.16-.58-.03-.81.5l-1.71 4.06zm8.37-.62c.34-.56.25-.77-.19-1.04l-.1-.06c-.03-.02-.04-.03-.02-.06l.13-.21c.02-.02.03-.03.06-.01l2.52 1.54c.03.02.04.03.02.06l-.13.21c-.02.03-.03.04-.07.02l-.1-.06c-.45-.27-.68-.26-1.02.3l-2.3 3.75c-.34.56-.25.77.2 1.04l.11.06c.03.02.04.03.02.07l-.13.21c-.01.02-.03.03-.06.01l-2.51-1.54c-.03-.02-.04-.03-.02-.06l.13-.21c.02-.03.03-.04.06-.02l.11.06c.44.27.68.26 1.02-.3l2.27-3.76zm5.59 12.04c.19.16.43.31.62.38.01.01.03.01.04.02.01.01.02.03 0 .06l-.12.14c-.04.04-.06.04-.11.02-.61-.3-.79-.41-1.11-.68-.71-.61-1.06-1.44-1.11-2.62-.92-1.26-.8-2.82.31-4.11 1.32-1.54 3.32-1.64 4.92-.26 1.56 1.34 1.75 3.42.46 4.92-1.16 1.34-2.59 1.53-4.19.81-.28.47-.17.92.29 1.32zm3.25-6.9c-1.29-1.11-2.49-.28-3.62 1.04-1.1 1.28-2 2.55-.48 3.86 1.06.92 2.18.59 3.62-1.08 1.18-1.37 1.84-2.64.48-3.82zm9.22 11.61c.52-.4.51-.63.19-1.04l-.07-.1c-.02-.03-.02-.04.01-.07l.2-.15c.02-.02.04-.02.06.01l1.25 1.63c.02.03.02.04 0 .06l-.19.15c-.03.02-.04.02-.07-.01l-.07-.1c-.32-.41-.54-.48-1.06-.09l-2.66 2.04c-1.01.77-2.26.84-3.52-.8-1.16-1.51-1.41-2.83.11-4l2.48-1.9c.52-.4.51-.63.19-1.04l-.08-.1c-.02-.03-.02-.04.01-.07l.19-.15c.02-.02.04-.02.06.02l1.8 2.34c.02.03.02.04 0 .06l-.2.15c-.03.02-.04.02-.07-.01l-.07-.1c-.32-.41-.54-.48-1.06-.09l-2.7 2.07c-.96.74-1.05 1.56-.29 2.55.93 1.22 1.99 1.46 2.78.85l2.78-2.11zm-.26 9.01c-.22.11-.2.42.12 1.05.67 1.35 1.05 1.62 2.08 1.78.38.07.58.08.63.19.02.03-.01.08-.08.11-.03.02-.11.05-.23.06l-1.45.24c-.09.01-.14 0-.2-.12L121.78 49c-.02-.03-.01-.05.01-.06l.22-.11c.03-.02.05-.01.06.02l.05.11c.23.47.43.58 1.02.29l3.95-1.95c.59-.29.62-.52.39-.99l-.05-.11c-.02-.03-.01-.05.02-.06l.22-.11c.02-.01.04-.01.05.03l2.36 4.77c.07.15.07.17-.01.27l-.88 1.04c-.06.07-.13.13-.17.15-.07.03-.13.02-.15-.03-.04-.09.03-.26.17-.52.45-.87.22-1.87-.22-2.75-.41-.83-.56-.83-1.26-.49l-1.62.8.62 1.26c.29.59 1.03.69 1.5.46l.11-.05c.03-.02.05-.01.06.02l.11.22c.01.03.01.04-.02.06l-2.65 1.31c-.03.02-.05.01-.06-.01l-.11-.22c-.02-.04-.01-.05.02-.06l.11-.06c.47-.23.84-.88.55-1.47l-.62-1.26-2.22 1.1zm11.19 14.85c.13.75.05 1.46-.06 2.26.08.11.13.19.17.25.17.27.2.31.21.4.02.1-.01.15-.19.18l-1.75.3c-.08.01-.15-.02-.16-.09-.01-.06.08-.16.25-.24.87-.44 1.39-1.84 1.2-2.93-.09-.54-.3-1.11-.73-1.46-.64-.52-1.47-.63-2.8-.4-1.36.23-2.89 1.18-2.6 2.84.08.47.33.94.66 1.27.16.14.31.26.45.24l.86-.15c.64-.11.74-.32.69-.65l-.02-.12c-.01-.04 0-.05.04-.05l.24-.04c.03-.01.04 0 .05.04l.44 2.53c.01.04 0 .05-.03.05l-.24.04c-.04.01-.05 0-.05-.04l-.02-.12c-.06-.33-.22-.49-.86-.38-.62.11-1.19.22-1.29.26-.61-.79-.98-1.77-1.18-2.94-.38-2.2.66-4.01 2.65-4.35 1.15-.2 1.9-.03 2.7.61.67.56 1.17 1.51 1.37 2.69zm.84 11.95c-.07 1.98-1.37 3.51-3.62 3.44-1.93-.06-3.34-1.63-3.27-3.64.07-2.13 1.51-3.55 3.53-3.48 1.86.06 3.44 1.31 3.36 3.68zm-6.64-.2c-.06 1.76 1.55 2.1 3.09 2.16 1.42.05 3.23-.02 3.29-1.95.05-1.5-.86-2.15-3.12-2.23-1.44-.06-3.19.07-3.26 2.02zm3.14 14.57c.64.16.81 0 .93-.5l.03-.12c.01-.04.02-.04.06-.03l.24.06c.03.01.04.02.03.05l-.49 1.99c-.01.04-.02.04-.05.04l-.24-.06c-.04-.01-.04-.02-.03-.06l.03-.12c.12-.51.04-.72-.6-.88l-3.25-.79c-1.23-.3-2.07-1.24-1.58-3.25.45-1.84 1.33-2.87 3.19-2.42l3.04.74c.64.15.81 0 .93-.5l.03-.12c.01-.04.02-.04.06-.04l.24.06c.03.01.04.02.03.05l-.7 2.87c-.01.04-.02.04-.05.04l-.24-.06c-.04-.01-.04-.02-.03-.06l.03-.12c.12-.51.04-.72-.6-.88l-3.31-.81c-1.18-.29-1.87.16-2.17 1.38-.36 1.49.11 2.47 1.08 2.7l3.39.84zm2.35-1.71l-.06-1.33c-.01-.06-.01-.1 0-.12.01-.06.17-.1.23-.08.04.01.06.04.08.1l.48 1.34c.05.14.09.19.07.29-.03.1-.08.13-.19.23l-1.05.96c-.05.04-.08.06-.12.05-.06-.02-.19-.12-.17-.18 0-.02.02-.05.05-.1l.68-1.16zm-9.74 8.62c-.59-.28-.79-.16-1.01.31l-.05.11c-.02.03-.03.04-.06.02l-.22-.1c-.03-.01-.03-.02-.01-.06l1.24-2.68c.02-.03.03-.04.05-.03l.22.1c.04.02.04.03.02.06l-.05.11c-.22.47-.18.7.42.98l3.99 1.85c.52.24.77.19.94-.17.37-.79.27-1.28-.19-2.12-.07-.14-.15-.26-.13-.31.02-.04.08-.07.12-.05.18.08.58.5 1.28.99.1.06.18.15.15.22-.02.03-.04.06-.2.17-.12.07-.26.25-.52.81l-1.4 3.02c-.26.57-.3.79-.28.92.03.19.02.23 0 .26-.04.08-.15.06-.27.03-.83-.22-1.41-.25-1.59-.34-.03-.02-.06-.08-.04-.12.02-.05.17-.07.32-.1.94-.2 1.37-.44 1.74-1.23.17-.36.05-.58-.47-.83l-4-1.82zm-3.66 15.67c-1.54 1.79-3.24 2.35-5.07.76-.79-.68-1.16-1.5-1.23-2.36-.08-.96.35-1.66 1.43-2.91l1.91-2.21c.03-.03.04-.03.06-.01l.19.16c.03.02.03.04 0 .07l-.08.09c-.34.39-.37.62.13 1.05l3.33 2.88c.5.43.72.37 1.06-.02l.08-.09c.02-.03.04-.03.07-.01l.19.16c.02.02.02.03 0 .06l-2.07 2.38zm-4.72-4.16c-1.28 1.48-.62 2.79.71 3.94 1.76 1.53 2.81 1.11 3.92-.18.45-.52.44-.63-.04-1.05l-3.41-2.95c-.51-.44-.6-.43-1.18.24zm-6.73 7.06c-.15-.19-.45-.11-1.01.33-1.18.93-1.36 1.36-1.31 2.4.01.39.04.59-.05.66-.03.02-.08 0-.13-.06-.02-.03-.07-.1-.11-.22l-.53-1.37c-.03-.09-.03-.13.07-.21l4.3-3.39c.03-.02.04-.02.06 0l.15.19c.02.03.02.04-.01.07l-.1.08c-.41.32-.48.54-.07 1.06l2.72 3.46c.41.51.64.5 1.04.18l.1-.08c.03-.02.04-.02.07.01l.15.19c.02.02.02.04-.01.06l-4.18 3.29c-.13.11-.15.1-.27.04l-1.2-.65a.561.561 0 0 1-.18-.14c-.05-.06-.05-.12 0-.15.07-.06.26-.02.54.06.94.26 1.87-.17 2.64-.78.73-.57.7-.72.22-1.33l-1.12-1.42-1.1.87c-.51.4-.46 1.15-.14 1.56l.08.1c.02.03.02.04-.01.07l-.19.15c-.02.02-.04.02-.06-.01l-1.82-2.32c-.02-.03-.02-.04 0-.06l.19-.15c.03-.02.04-.02.07.01l.08.1c.32.41 1.03.63 1.55.23l1.1-.87-1.53-1.96zm-12.73 7.69c-.09-.23-.4-.23-1.06.04-1.4.57-1.82.99-2.05 2-.09.38-.12.57-.23.62-.04.01-.08-.02-.11-.09-.01-.04-.04-.12-.05-.24l-.14-1.46c-.01-.09.01-.14.13-.19l5.2-2.13c.03-.01.05-.01.06.02l.09.23c.01.04.01.05-.03.06l-.11.05c-.48.2-.61.39-.36 1l1.67 4.08c.25.61.47.66.96.46l.11-.05c.04-.01.05-.01.06.03l.09.23c.01.03.01.04-.03.05l-2.73 1.12c-.04.01-.05.01-.06-.02l-.09-.23c-.01-.04-.01-.05.03-.06l.11-.05c.48-.2.61-.39.36-1l-1.82-4.47zm-13.54 4.11c-.22-.3-.55-.49-.98-.41l-.12.02c-.04.01-.05 0-.05-.04l-.05-.24c-.01-.03 0-.04.04-.05l3.13-.62c.04-.01.05 0 .05.03l.05.24c.01.04 0 .05-.04.06l-.12.02c-.47.09-.56.31-.51.53.02.08.05.17.1.23l.5.65 2.76-.55.16-.73c.03-.14.1-.38.09-.42-.03-.17-.13-.29-.58-.2l-.12.02c-.04.01-.05 0-.06-.04l-.05-.24c-.01-.03 0-.04.04-.05l2.07-.41c.04-.01.05 0 .05.03l.05.24c.01.04 0 .05-.04.06l-.12.02c-.58.14-.75.31-.88.91l-1.05 4.59.22.29c.01.03.04.04.04.06.01.07-.03.11-.27.42-.2.25-.28.36-.33.61-.02.09-.05.13-.13.14-.03.01-.05-.01-.09-.08l-3.76-5.09zm4.66.31l-2.4.47 1.78 2.34.62-2.81zm-19.75 2.79c.24-.12.43-.19.75-.25.13-.03.16-.02.17-.05 0-.03-.06-.03-.17-.06-1.2-.36-1.75-1-1.66-1.9.05-.51.24-.86.71-1.18.63-.44 1.28-.42 2.56-.29l2.69.25c.04 0 .05.01.04.04l-.02.25c0 .04-.01.05-.05.04l-.12-.01c-.52-.05-.72.07-.78.72l-.41 4.38c-.06.65.12.8.64.85l.12.01c.04 0 .05.01.04.05l-.02.25c0 .03-.01.04-.05.03l-2-.19c-.12-.01-.37-.02-1.12-.09-1.43-.13-2.27-.79-2.18-1.73.04-.47.35-.87.86-1.12zm2.64-.39l.18-1.97c.08-.87.06-.99-.55-1.05-1.09-.1-1.64.25-1.74 1.29-.04.46.02.89.16 1.13.18.32.69.56 1.3.62.18.02.37.03.55.03.07 0 .1-.01.1-.05zm-.06.41a.977.977 0 0 0-.28-.04c-1.21-.11-1.64.18-1.73 1.15-.09.98.26 1.34 1.19 1.43.43.04.62-.09.64-.33l.19-2.08c.01-.08 0-.12-.01-.13zm-9.27-4.68c.07-.24-.18-.43-.86-.62-1.45-.41-1.9-.3-2.71.34-.3.24-.45.38-.56.34-.04-.01-.05-.06-.03-.14.01-.04.04-.12.11-.22l.79-1.23c.05-.07.09-.1.22-.07l5.26 1.5c.04.01.04.02.03.05l-.07.24c-.01.04-.02.04-.06.03l-.12-.03c-.5-.14-.72-.07-.9.56l-1.2 4.23c-.18.63-.03.81.47.95l.12.03c.04.01.04.02.03.06l-.07.24c-.01.03-.02.03-.05.02l-5.12-1.46c-.17-.05-.17-.06-.19-.19l-.18-1.35a.554.554 0 0 1 .01-.23c.02-.07.07-.11.13-.09.09.03.17.2.27.47.34.91 1.23 1.42 2.18 1.68.89.25.99.14 1.21-.6l.49-1.73-1.35-.38c-.63-.18-1.2.3-1.34.8l-.03.12c-.01.04-.02.04-.06.03l-.24-.07c-.03-.01-.03-.02-.02-.06l.81-2.84c.01-.04.02-.04.05-.04l.24.07c.04.01.04.02.03.06l-.03.12c-.14.5.09 1.21.72 1.39l1.35.38.67-2.36zm-9.17-3.38c.11-.22-.09-.45-.73-.77-1.35-.67-1.95-.71-2.86-.22-.34.18-.51.29-.61.23-.03-.02-.04-.07 0-.14.02-.03.06-.11.15-.19l1.01-1.07c.06-.06.11-.08.22-.03l5.03 2.5c.03.02.04.03.03.05l-.11.22c-.02.03-.03.04-.06.02l-.11-.05c-.47-.23-.7-.2-.99.39L51.14 129c-.29.59-.18.79.29 1.02l.11.06c.03.02.04.03.02.06l-.11.22c-.01.03-.03.03-.06.01l-2.64-1.31c-.03-.02-.04-.03-.03-.05l.11-.22c.02-.03.03-.04.06-.02l.11.06c.47.23.7.2.99-.39l2.16-4.33zm-13.6-1.34c-.6-.46-1.03-1.04-1.49-1.7-.13-.03-.22-.05-.29-.07-.31-.08-.36-.09-.43-.15-.08-.06-.09-.12.02-.26l1.08-1.41c.05-.07.12-.09.18-.04s.05.17-.02.35c-.34.91.24 2.29 1.11 2.96.44.33.97.61 1.53.57.82-.06 1.5-.53 2.33-1.61.84-1.1 1.31-2.82-.02-3.85-.38-.29-.88-.47-1.35-.48-.22 0-.41.02-.49.13l-.53.69c-.4.52-.33.74-.06.94l.1.07c.03.02.03.04.01.07l-.15.2c-.02.02-.03.02-.06 0l-2.04-1.56c-.03-.02-.03-.04-.01-.06l.15-.2c.02-.03.04-.03.07-.01l.1.07c.26.2.5.21.89-.31.38-.5.72-.98.77-1.07.98.17 1.92.63 2.87 1.36 1.77 1.35 2.24 3.39 1.02 4.99-.71.93-1.38 1.31-2.4 1.39-.93.07-1.94-.28-2.89-1.01zm-5.61-6.64c-.48.45-.44.68-.09 1.06l.08.09c.03.03.03.04 0 .07l-.18.17c-.02.02-.03.02-.06-.01l-2.02-2.15c-.03-.03-.03-.04-.01-.06l.18-.17c.03-.03.04-.03.07 0l.08.09c.36.38.58.43 1.06-.02l3.2-3.02c.48-.45.44-.68.09-1.06l-.08-.09c-.03-.03-.03-.04 0-.07l.18-.17c.02-.02.03-.02.06.01l2.02 2.15c.03.03.03.04 0 .06l-.18.17c-.03.03-.04.03-.07 0l-.08-.09c-.36-.38-.58-.43-1.06.02l-3.19 3.02zm-2.26-13.11c-.14-.21-.34-.41-.5-.53l-.03-.03c-.01-.01-.01-.04.02-.06l.16-.11c.05-.03.07-.02.11.02.51.45.66.6.9.95.52.78.64 1.67.38 2.82.56 1.45.03 2.93-1.39 3.89-1.68 1.14-3.63.71-4.81-1.05-1.15-1.71-.79-3.76.86-4.87 1.47-.99 2.9-.79 4.26.32.36-.38.38-.84.04-1.35zm-4.95 5.8c.95 1.41 2.33.92 3.77-.05 1.4-.94 2.6-1.93 1.48-3.59-.78-1.16-1.95-1.15-3.78.09-1.5 1.01-2.48 2.05-1.47 3.55zM19.9 95.21c-.61.25-.66.47-.46.96l.05.11c.01.04.01.05-.03.06l-.23.09c-.03.01-.04.01-.05-.03l-.78-1.9c-.01-.04-.01-.05.02-.06l.23-.09c.03-.01.05-.01.06.03l.05.11c.2.48.39.61 1 .36l3.1-1.27c1.18-.48 2.41-.21 3.19 1.7.72 1.76.61 3.1-1.16 3.83l-2.9 1.18c-.61.25-.66.47-.46.96l.05.11c.01.04.01.05-.03.06l-.23.09c-.03.01-.04.01-.05-.03l-1.12-2.73c-.01-.04-.01-.05.02-.06l.23-.09c.04-.01.05-.01.06.03l.05.11c.2.48.39.61 1 .36l3.15-1.29c1.12-.46 1.43-1.23.95-2.39-.58-1.42-1.54-1.93-2.46-1.56l-3.25 1.35zm2.61-8.61c.24-.05.3-.35.16-1.05-.29-1.48-.59-1.83-1.54-2.26-.35-.16-.54-.23-.56-.34-.01-.04.03-.07.11-.09.04-.01.12-.02.24 0l1.46.15c.09.01.13.03.16.16l1.06 5.37c.01.04 0 .05-.03.05l-.24.05c-.04.01-.05 0-.06-.04l-.02-.12c-.1-.51-.27-.67-.91-.54l-4.32.85c-.64.13-.74.34-.63.85l.02.12c.01.04 0 .05-.04.06l-.24.05c-.03.01-.04 0-.05-.04l-1.03-5.22c-.03-.17-.03-.18.08-.26l1.12-.77c.08-.05.16-.09.2-.1.07-.02.13.01.14.07.02.09-.1.24-.3.45-.66.72-.7 1.74-.51 2.71.18.91.32.95 1.09.8l1.77-.35-.27-1.38c-.13-.64-.81-.93-1.32-.83l-.12.02c-.04.01-.05 0-.06-.04l-.05-.24c-.01-.03 0-.04.04-.05l2.89-.57c.04-.01.05 0 .05.03l.05.24c.01.04 0 .05-.04.05l-.12.02c-.51.1-1.04.63-.91 1.27l.27 1.38 2.46-.46z"/><path class="st0" d="M85.64 150.64c-1.85 0-3.72-.51-5.38-1.55a9.3 9.3 0 0 0-9.87 0c-4.27 2.7-9.93 1.8-13.17-2.09a9.293 9.293 0 0 0-9.39-3.05c-4.9 1.25-10.01-1.36-11.88-6.05a9.29 9.29 0 0 0-7.98-5.8c-5.05-.33-9.1-4.38-9.43-9.43a9.278 9.278 0 0 0-5.8-7.98c-4.7-1.87-7.3-6.98-6.05-11.88.87-3.44-.32-7.12-3.05-9.39-3.89-3.23-4.79-8.89-2.09-13.17a9.3 9.3 0 0 0 0-9.87c-2.7-4.27-1.8-9.94 2.09-13.17a9.293 9.293 0 0 0 3.05-9.39c-1.25-4.9 1.36-10.01 6.05-11.88a9.29 9.29 0 0 0 5.8-7.98c.33-5.05 4.38-9.1 9.43-9.43a9.278 9.278 0 0 0 7.98-5.8c1.87-4.7 6.97-7.3 11.88-6.05 3.44.87 7.12-.32 9.39-3.05 3.23-3.89 8.89-4.78 13.17-2.09a9.3 9.3 0 0 0 9.87 0c4.28-2.7 9.94-1.8 13.17 2.09a9.293 9.293 0 0 0 9.39 3.05c4.9-1.25 10.01 1.36 11.88 6.05a9.29 9.29 0 0 0 7.98 5.8c5.05.33 9.1 4.38 9.43 9.43a9.278 9.278 0 0 0 5.8 7.98c4.7 1.87 7.3 6.98 6.05 11.88-.87 3.44.32 7.12 3.05 9.39 3.89 3.23 4.79 8.89 2.09 13.17a9.3 9.3 0 0 0 0 9.87c2.7 4.27 1.8 9.94-2.09 13.17a9.293 9.293 0 0 0-3.05 9.39c1.25 4.9-1.35 10.01-6.05 11.88a9.29 9.29 0 0 0-5.8 7.98c-.33 5.05-4.38 9.1-9.43 9.43a9.278 9.278 0 0 0-7.98 5.8c-1.87 4.7-6.98 7.3-11.88 6.05-3.44-.87-7.12.32-9.39 3.05a10.126 10.126 0 0 1-7.79 3.64zm-10.32-3.83c1.88 0 3.76.52 5.39 1.55 3.91 2.47 9.09 1.65 12.04-1.91 2.48-2.98 6.51-4.29 10.26-3.33 4.48 1.14 9.15-1.24 10.86-5.54 1.44-3.6 4.86-6.09 8.73-6.34 4.61-.3 8.32-4.01 8.62-8.62.25-3.87 2.74-7.3 6.34-8.73 4.3-1.71 6.68-6.38 5.54-10.86-.96-3.76.35-7.78 3.33-10.26 3.56-2.96 4.38-8.13 1.91-12.04a10.15 10.15 0 0 1 0-10.79c2.47-3.91 1.65-9.09-1.91-12.04-2.98-2.48-4.29-6.51-3.33-10.26 1.14-4.48-1.24-9.15-5.54-10.86-3.6-1.44-6.09-4.86-6.34-8.73-.3-4.62-4.01-8.32-8.62-8.62-3.87-.25-7.3-2.74-8.73-6.34-1.71-4.3-6.38-6.68-10.86-5.54-3.76.96-7.79-.35-10.26-3.33C89.8.66 84.62-.16 80.71 2.31a10.15 10.15 0 0 1-10.79 0C66.01-.16 60.83.66 57.88 4.22a10.14 10.14 0 0 1-10.26 3.33c-4.49-1.14-9.15 1.24-10.86 5.54-1.43 3.6-4.86 6.09-8.73 6.34-4.62.3-8.32 4.01-8.62 8.62-.25 3.87-2.74 7.3-6.34 8.73-4.3 1.71-6.68 6.38-5.54 10.86.96 3.76-.35 7.78-3.33 10.26-3.56 2.96-4.38 8.13-1.91 12.04a10.15 10.15 0 0 1 0 10.79C-.18 84.64.64 89.82 4.2 92.77c2.98 2.48 4.29 6.51 3.33 10.26-1.14 4.48 1.24 9.15 5.54 10.86 3.6 1.43 6.09 4.86 6.34 8.73.3 4.62 4.01 8.32 8.62 8.62 3.87.25 7.3 2.74 8.73 6.34 1.71 4.3 6.38 6.68 10.86 5.54 3.76-.96 7.79.35 10.26 3.33 2.96 3.56 8.13 4.38 12.04 1.91a10.07 10.07 0 0 1 5.4-1.55z"/><circle class="st0" cx="19.18" cy="67.54" r="1.93"/></svg>