<svg width="238" height="447" viewBox="0 0 238 447" fill="none" xmlns="http://www.w3.org/2000/svg">
<path fill-rule="evenodd" clip-rule="evenodd" d="M236.777 438.632C217.564 444.856 191.401 448.731 189.387 445.652C186.362 441.028 189.188 438.688 200.961 436.068C213.402 433.298 213.532 433.741 198.242 426.883C58.9812 364.429 -11.3014 246.733 2.7072 99.4422C7.14247 52.809 20.6707 0.0427849 28.1907 0.0476668C33.9037 0.0513756 34.4677 3.17275 30.7326 14.1243C-26.3691 181.58 36.8895 336.278 193.815 412.941C216.023 423.791 215.966 423.79 209.142 413.382C203.476 404.74 203.107 403.286 205.927 400.738C210.007 397.05 211.865 398.711 224.309 417.175C238.624 438.415 238.438 438.094 236.777 438.632Z" fill="#685548"/>
</svg>
