<svg width="512" height="504" viewBox="0 0 512 504" fill="none" xmlns="http://www.w3.org/2000/svg">
<path fill-rule="evenodd" clip-rule="evenodd" d="M15.7665 1.98746C7.53148 4.90446 0.465454 14.9975 0.465454 23.8425C0.465454 39.4605 52.3174 90.8425 68.0784 90.8425H75.1915L106.399 194.342C143.451 317.221 142.237 314.208 157.726 321.76C168.866 327.191 158.926 327.486 289.965 317.835C300.965 317.025 343.94 313.884 385.465 310.854C477.941 304.108 472.83 304.911 482.062 295.679C489.607 288.134 489.318 289.616 501.442 196.518C513.174 106.434 513.057 108.009 508.13 105.827C505.763 104.779 98.5964 67.0695 92.3264 67.3175C91.9754 67.3315 91.3794 65.6545 91.0024 63.5925C89.7524 56.7585 85.8525 52.0525 61.3035 27.7505C32.4145 -0.845535 29.0845 -2.72954 15.7665 1.98746ZM52.1724 39.6355C79.1614 66.6245 79.9845 67.9145 74.0105 73.8875C68.0025 79.8965 66.6835 79.0565 39.7205 52.0315C12.7095 24.9595 12.0924 23.9875 18.1014 17.9785C24.1304 11.9505 25.1104 12.5735 52.1724 39.6355ZM129.465 85.4515C148.99 87.1745 165.104 88.7065 165.273 88.8555C165.804 89.3205 176.7 148.44 176.323 148.809C175.56 149.554 108.242 146.512 107.549 145.701C103.202 140.612 88.0335 81.3195 91.2155 81.8545C92.7285 82.1085 109.94 83.7275 129.465 85.4515ZM221.73 93.7315C241.4 95.5505 257.819 97.3635 258.217 97.7605C258.839 98.3825 262.607 151.474 262.07 152.054C261.707 152.447 192.469 149.679 192.103 149.258C191.612 148.692 181.465 94.0815 181.465 92.0005C181.465 89.8965 179.205 89.7995 221.73 93.7315ZM314.965 102.194L343.965 104.842L343.689 129.785C343.537 143.503 343.312 154.829 343.188 154.953C342.59 155.551 279.768 153.075 278.465 152.402C277.271 151.785 276.728 147.567 275.803 131.734C275.163 120.794 274.404 108.824 274.115 105.135L273.589 98.4295L279.777 98.9885C283.18 99.2955 299.015 100.738 314.965 102.194ZM393.377 109.344C411.204 110.988 425.92 112.463 426.078 112.62C426.493 113.035 422.854 157.297 422.371 157.715C422.029 158.01 359.446 155.79 358.715 155.456C357.764 155.022 359.406 106.338 360.372 106.348C360.698 106.351 375.551 107.699 393.377 109.344ZM472.465 116.459C485.39 117.631 496.117 118.724 496.302 118.886C496.689 119.225 491.435 159.664 490.937 160.188C490.457 160.692 438.518 158.729 437.976 158.186C437.499 157.709 440.353 117.787 441.022 115.592C441.541 113.885 445.209 113.986 472.465 116.459ZM157.789 163.22C171.642 163.715 178.851 164.347 179.323 165.111C180.508 167.028 191.893 230.248 191.182 230.959C190.818 231.324 177.634 231.671 161.885 231.732L133.252 231.842L123.396 199.342C117.976 181.467 113.264 165.612 112.927 164.109L112.314 161.376L124.64 161.926C131.419 162.229 146.336 162.811 157.789 163.22ZM240.761 166.268C252.749 166.726 262.704 167.267 262.883 167.471C263.314 167.96 266.504 219.476 266.482 225.592L266.465 230.342L244.465 230.564C232.365 230.686 218.99 230.799 214.743 230.814L207.02 230.842L201.296 200.342C198.148 183.567 195.548 168.627 195.518 167.141L195.465 164.441L207.215 164.938C213.677 165.212 228.773 165.81 240.761 166.268ZM322.15 169.182C346.3 170.015 343.229 165.428 342.279 199.25C341.331 233.022 346.534 228.029 311.39 228.893L281.815 229.62L280.616 210.231C279.957 199.567 279.135 185.573 278.79 179.134L278.164 167.425L290.064 167.955C296.61 168.246 311.048 168.798 322.15 169.182ZM398.317 171.973L421.667 172.635L421.074 178.738C420.748 182.095 419.755 194.067 418.867 205.342C417.978 216.617 417.099 226.005 416.912 226.205C416.725 226.405 402.974 226.811 386.355 227.107L356.138 227.645L356.802 209.333C357.167 199.262 357.465 186.31 357.465 180.553V170.084L366.215 170.697C371.028 171.035 385.474 171.608 398.317 171.973ZM478.25 174.967C488.09 175.47 489.478 175.755 489.086 177.193C488.838 178.1 487.388 188.852 485.862 201.087C484.337 213.322 482.836 223.717 482.527 224.187C482.218 224.656 470.827 225.319 457.215 225.66L432.465 226.279L432.491 222.56C432.509 219.938 435.768 179.345 436.428 173.518C436.466 173.186 458.052 173.934 478.25 174.967ZM480.448 242.092C480.053 280.644 473.666 289.706 445.591 291.552C423.896 292.979 426.357 296.622 428.767 266.643L430.793 241.444L433.879 241.053C445.191 239.62 480.465 240.406 480.448 242.092ZM415.414 246.092C415.344 252.582 411.906 293.242 411.385 293.732C410.84 294.244 355.182 298.393 354.743 297.954C354.559 297.77 354.759 285.294 355.187 270.231L355.965 242.842L373.965 242.307C383.865 242.013 397.253 241.675 403.715 241.557L415.465 241.342L415.414 246.092ZM340.934 251.592C340.696 256.13 340.276 268.572 340.001 279.241C339.402 302.459 343.622 299.019 312.908 301.327C282.205 303.635 286.638 307.142 284.95 279.207C284.174 266.356 283.306 253.27 283.021 250.126L282.503 244.409L293.234 244.088C299.136 243.911 312.381 243.671 322.666 243.554L341.368 243.342L340.934 251.592ZM269.781 274.192C271.937 309.02 275.684 306.203 246.366 306.203C215.5 306.203 216.5 288 210.684 247.438C210.974 245.927 237.567 244.568 262.465 244.793L267.965 244.842L269.781 274.192ZM200.735 277.491C203.909 294.62 206.384 308.749 206.235 308.889C198.469 316.198 160.602 309.551 154.937 299.885C152.92 296.442 138.465 251.205 138.465 248.333C138.465 247.464 145.354 247.184 181.965 246.567L194.965 246.347L200.735 277.491ZM146.6 339.092C142.528 342.507 121.489 394.017 121.476 400.603C121.449 414.651 132.132 424.342 147.647 424.342H152.465V433.164V441.985L147.316 444.312C116.801 458.104 126.955 504.033 160.465 503.786C194.165 503.537 203.474 455.822 172.156 443.862L167.465 442.07V433.206V424.342H296.465H425.465V433.206V442.07L420.726 443.88C389.347 455.864 399.175 503.97 432.965 503.79C467.225 503.608 476.117 453.953 443.799 443.287L440.465 442.187V433.264V424.342H448.918C462.731 424.342 468.77 418.556 462.01 411.797L459.557 409.342H300.945C108.06 409.342 129.332 414.341 146.92 373.148C153.27 358.276 158.465 345.24 158.465 344.179C158.465 338.975 150.706 335.648 146.6 339.092ZM168.543 458.616C182.106 467.756 177.586 487.567 161.587 489.104C148.942 490.319 140.036 477.49 145.37 465.743C149.357 456.964 160.848 453.43 168.543 458.616ZM442.329 459.245C455.839 468.865 448.201 490.227 431.674 489.048C414.407 487.816 410.507 464.122 426.466 457.411C430.478 455.724 438.722 456.677 442.329 459.245Z" fill="#FCE8C2"/>
</svg>
