<svg width="512" height="437" viewBox="0 0 512 437" fill="none" xmlns="http://www.w3.org/2000/svg">
<path fill-rule="evenodd" clip-rule="evenodd" d="M0 14.4871V28.9729L33.75 29.2371L67.5 29.5L90.041 164.5L112.583 299.5L284.041 300C453.241 300.493 455.545 300.526 458.895 302.5C468.77 308.316 469.636 321.702 460.576 328.468C457.873 330.486 456.745 330.504 296.177 331.014C136.303 331.522 134.426 331.551 127.877 333.594C72.8501 350.764 81.9238 430.793 139.449 435.655C175.224 438.679 204.414 401.881 193.034 368.102C191.915 364.781 191 361.824 191 361.532C191 361.239 230.375 361 278.5 361C326.625 361 365.994 361.337 365.987 361.75C365.98 362.163 365.08 365.353 363.987 368.839C355.381 396.292 373.044 427.046 401.703 434.511C440.134 444.521 476.28 405.996 464.108 368C461.563 360.055 461.521 359.006 463.75 358.978C498.194 358.546 507.023 288.227 474.063 276.842C473.473 276.639 480.891 229.605 492.371 160.75L511.67 45H305.942H100.214L99.2139 39.25C98.665 36.0879 96.9722 25.9629 95.4531 16.75L92.6909 0H46.3462H0V14.4871ZM211 97.509V120.019L161.786 119.759L112.573 119.5L109.342 100C107.565 89.2749 105.872 79.2629 105.58 77.75L105.05 75H158.025H211V97.509ZM347 97.5V120H294H241V97.5V75H294H347V97.5ZM476 77.0969C476 79.0859 470.559 112.98 469.474 117.75L468.962 120H422.481H376V97.5V75H426H476V77.0969ZM211 173V196H168.158H125.316L121.638 173.75C119.616 161.512 117.97 151.162 117.981 150.75C117.991 150.338 138.925 150 164.5 150H211V173ZM346.769 172.75L346.5 195.5L293.75 195.759L241 196.018V173.009V150H294.019H347.038L346.769 172.75ZM463.467 154.25C463.106 156.588 461.391 166.825 459.656 177L456.5 195.5L416.25 195.761L376 196.023V173.011V150H420.061H464.123L463.467 154.25ZM211 248V271H174.519H138.038L137.526 268.75C137.245 267.512 135.658 258.175 134 248C132.342 237.825 130.755 228.488 130.474 227.25L129.962 225H170.481H211V248ZM346.769 248.25L347.038 271H294.019H241V247.991V224.982L293.75 225.241L346.5 225.5L346.769 248.25ZM451 227.097C451 228.977 445.8 261.417 444.403 268.25L443.841 271H409.921H376V248V225H413.5C450.909 225 451 225.005 451 227.097ZM170 385C170 399.359 158.359 411 144 411C129.641 411 118 399.359 118 385C118 370.641 129.641 359 144 359C158.359 359 170 370.641 170 385ZM414 411C428.359 411 440 399.359 440 385C440 370.641 428.359 359 414 359C399.641 359 388 370.641 388 385C388 399.359 399.641 411 414 411Z" fill="#562714"/>
</svg>
