<svg width="512" height="512" viewBox="0 0 512 512" fill="none" xmlns="http://www.w3.org/2000/svg">
<path fill-rule="evenodd" clip-rule="evenodd" d="M19.2358 0.746881C4.49583 4.56788 -4.31117 22.1499 2.14783 34.8589C3.12683 36.7839 52.8208 87.2969 112.58 147.109L221.233 255.859L112.58 364.609C52.8208 424.422 3.26183 474.709 2.44983 476.359C-7.55317 496.672 15.5618 519.274 35.7358 508.907C38.8988 507.282 72.1148 474.767 147.526 399.477C206.535 340.562 255.303 292.19 255.899 291.984C256.496 291.778 305.64 340.223 365.11 399.639C424.579 459.055 474.811 508.468 476.736 509.447C492.435 517.426 514.419 501.234 511.252 484.025C509.408 474 511.108 475.824 398.956 363.609L291.267 255.859L398.899 148.109C515.338 31.5439 511.094 36.2049 511.1 24.8589C511.108 7.32888 491.781 -5.37612 476.736 2.27088C474.811 3.24988 424.579 52.6629 365.11 112.079C305.64 171.495 256.504 219.94 255.919 219.734C255.333 219.528 206.551 171.156 147.514 112.241C78.4158 43.2869 38.7218 4.38188 36.0998 3.04388C31.4428 0.668881 23.6378 -0.395119 19.2358 0.746881Z" fill="#562714"/>
</svg>
