<svg width="291" height="393" viewBox="0 0 291 393" fill="none" xmlns="http://www.w3.org/2000/svg">
<path d="M176.983 11.8045C176.983 11.8045 274.857 101.185 283.54 110.945C292.223 120.705 282.17 131.03 270.439 124.407C258.708 117.784 166.743 19.4944 166.743 19.4944C154.045 2.69688 168.458 5.71381 176.983 11.8045Z" fill="#F6C68D"/>
<path d="M21.9712 172.756C21.9712 172.756 217.95 216.033 228.696 222.639C239.441 229.246 234.629 239.874 224.516 239.961C214.402 240.049 17.7913 190.078 17.7913 190.078C-3.8545 180.575 -1.56835 170.789 21.9712 172.756Z" fill="#F6C68D"/>
<path d="M92.2987 371.01C92.2987 371.01 211.772 323.992 220.332 325.138C228.892 326.284 231.507 337.724 226.443 342.192C221.379 346.661 98.4089 388.064 98.4089 388.064C82.9714 389.102 79.4816 379.5 92.2987 371.01Z" fill="#F6C68D"/>
</svg>
