<svg width="512" height="256" viewBox="0 0 512 256" fill="none" xmlns="http://www.w3.org/2000/svg">
<path d="M371.729 10.352C372.147 6.64101 372.968 4.939 375.382 2.782C377.855 0.572998 379.467 0 383.212 0H387.927L448.698 60.741C491.313 103.335 509.79 122.455 510.544 124.741C512.697 131.263 512.488 131.501 448.698 195.259L387.927 256H383.064C375.993 256 371.004 250.786 371.749 244.174C372.24 239.816 373.294 238.679 421.358 190.607C448.367 163.594 470.465 141.16 470.465 140.755C470.465 140.349 366.383 139.901 239.171 139.758C17.0674 139.51 7.76644 139.427 5.08744 137.672C-1.38256 133.432 -1.75556 123.43 4.39444 119.05L7.27444 117H239.369C367.022 117 471.465 116.673 471.465 116.272C471.465 115.872 448.903 92.954 421.327 65.342L371.189 15.139L371.729 10.352Z" fill="#FCE8C2"/>
</svg>
