<svg width="462" height="60" viewBox="0 0 462 60" fill="none" xmlns="http://www.w3.org/2000/svg">
<path fill-rule="evenodd" clip-rule="evenodd" d="M457.662 0.947587C466.456 5.69759 462.063 9.84858 440.012 17.6236C418.48 25.2166 417.236 25.4286 414.918 21.8916C411.639 16.8866 413.594 15.3646 433.215 7.64058C455.038 -0.949419 454.448 -0.788412 457.662 0.947587ZM70.3372 6.63259C75.7772 12.0726 71.5462 14.7086 49.7872 19.4346C29.1812 23.9106 28.9432 23.7576 64.4732 28.9246C83.0582 31.6266 85.5502 32.6226 85.5222 37.3376C85.4882 43.0236 81.4302 44.8346 71.7852 43.4686C63.7552 42.3316 63.6532 42.3946 67.4412 46.1826C73.5192 52.2606 71.1122 60.4696 63.7272 58.8506C57.0092 57.3786 34.5492 47.6336 21.6202 40.5806C-10.9828 22.7966 -9.71976 21.1736 46.2192 8.96459C63.4812 5.19659 68.4232 4.71859 70.3372 6.63259ZM396.363 21.7466C402.344 28.1136 397.863 32.4216 382.291 35.2796C353.504 40.5616 350.424 40.2646 349.73 32.1436C349.274 26.8026 351.765 25.7166 372.167 22.3556C393.524 18.8376 393.627 18.8356 396.363 21.7466ZM115.537 34.5566C138.141 37.0836 140.458 38.2486 137.639 45.6636C135.844 50.3866 132.654 50.5846 111.037 47.3166C94.8572 44.8706 92.5372 43.8316 92.5372 39.0316C92.5372 32.6516 94.7142 32.2276 115.537 34.5566ZM327.902 36.5056C330.662 38.6766 331.305 42.1286 329.558 45.3936C326.89 50.3796 288.636 55.0626 284.63 50.8936C278.711 44.7336 282.318 39.1226 293.194 37.5716C318.388 33.9806 324.455 33.7936 327.902 36.5056ZM175.97 39.5916C193.133 41.8526 197.186 43.1836 198.11 46.8666C200.599 56.7856 193.692 58.2196 166.221 53.4866C151.718 50.9876 148.072 47.1076 153.61 40.0676C156.058 36.9546 155.967 36.9566 175.97 39.5916ZM241.378 42.3186C260.158 43.0706 265.38 46.6806 258.149 53.9116C252.896 59.1646 215.758 58.5226 212.323 53.1196C206.524 44.0006 213.998 41.2226 241.378 42.3186Z" fill="#562714"/>
</svg>
