<svg width="463" height="59" viewBox="0 0 463 59" fill="none" xmlns="http://www.w3.org/2000/svg">
<path fill-rule="evenodd" clip-rule="evenodd" d="M5.20389 1.27795C-3.58318 6.04076 0.815862 10.1853 22.8782 17.9282C44.4212 25.4898 45.6655 25.7 47.9784 22.1597C51.2501 17.1499 49.2928 15.6307 29.6606 7.93532C7.82512 -0.622878 8.41536 -0.462731 5.20389 1.27795ZM392.537 6.39866C387.105 11.8466 391.34 14.4764 413.105 19.1707C433.718 23.6167 433.956 23.4633 398.433 28.6821C379.852 31.4112 377.362 32.4108 377.397 37.1258C377.439 42.8117 381.499 44.6168 391.142 43.2367C399.171 42.088 399.273 42.1509 395.49 45.9444C389.421 52.0312 391.84 60.2367 399.223 58.607C405.939 57.1252 428.384 47.3475 441.303 40.2757C473.88 22.4442 472.615 20.823 416.658 8.69552C399.391 4.95268 394.448 4.48187 392.537 6.39866ZM66.5331 21.9876C60.5614 28.3633 65.0487 32.6648 80.6248 35.5001C109.419 40.7401 112.499 40.4387 113.181 32.3167C113.629 26.975 111.137 25.8927 90.73 22.5614C69.3679 19.0745 69.2649 19.0726 66.5331 21.9876ZM347.377 34.3885C324.777 36.9484 322.462 38.1168 325.292 45.5277C327.094 50.248 330.284 50.4414 351.896 47.1419C368.072 44.6723 370.391 43.63 370.384 38.83C370.375 32.45 368.197 32.0291 347.377 34.3885ZM135.016 36.6469C132.259 38.8219 131.621 42.2748 133.373 45.5373C136.048 50.5194 174.309 55.1466 178.308 50.9718C184.218 44.8032 180.603 39.1975 169.725 37.6623C144.526 34.108 138.459 33.9298 135.016 36.6469ZM286.952 39.5115C269.792 41.7975 265.741 43.1344 264.823 46.8188C262.348 56.7414 269.257 58.1653 296.721 53.3923C311.22 50.8722 314.861 46.9869 309.313 39.955C306.86 36.8455 306.951 36.8474 286.952 39.5115ZM221.548 42.3338C202.769 43.1132 197.552 46.7308 204.794 53.9512C210.054 59.1966 247.192 58.5005 250.619 53.0925C256.404 43.965 248.926 41.1979 221.548 42.3338Z" fill="#F6C68D"/>
</svg>
