<svg width="462" height="60" viewBox="0 0 462 60" fill="none" xmlns="http://www.w3.org/2000/svg">
<path fill-rule="evenodd" clip-rule="evenodd" d="M4.24524 0.947587C-4.54876 5.69759 -0.155762 9.84858 21.8952 17.6236C43.4272 25.2166 44.6712 25.4286 46.9892 21.8916C50.2682 16.8866 48.3132 15.3646 28.6922 7.64058C6.86924 -0.949419 7.45924 -0.788412 4.24524 0.947587ZM391.57 6.63259C386.13 12.0726 390.361 14.7086 412.12 19.4346C432.726 23.9106 432.964 23.7576 397.434 28.9246C378.849 31.6266 376.357 32.6226 376.385 37.3376C376.419 43.0236 380.477 44.8346 390.122 43.4686C398.152 42.3316 398.254 42.3946 394.466 46.1826C388.388 52.2606 390.795 60.4696 398.18 58.8506C404.898 57.3786 427.358 47.6336 440.287 40.5806C472.89 22.7966 471.627 21.1736 415.688 8.96459C398.426 5.19659 393.484 4.71859 391.57 6.63259ZM65.5442 21.7466C59.5632 28.1136 64.0442 32.4216 79.6162 35.2796C108.403 40.5616 111.483 40.2646 112.177 32.1436C112.633 26.8026 110.142 25.7166 89.7402 22.3556C68.3832 18.8376 68.2802 18.8356 65.5442 21.7466ZM346.37 34.5566C323.766 37.0836 321.449 38.2486 324.268 45.6636C326.063 50.3866 329.253 50.5846 350.87 47.3166C367.05 44.8706 369.37 43.8316 369.37 39.0316C369.37 32.6516 367.193 32.2276 346.37 34.5566ZM134.005 36.5056C131.245 38.6766 130.602 42.1286 132.349 45.3936C135.017 50.3796 173.271 55.0626 177.277 50.8936C183.196 44.7336 179.589 39.1226 168.713 37.5716C143.519 33.9806 137.452 33.7936 134.005 36.5056ZM285.937 39.5916C268.774 41.8526 264.721 43.1836 263.797 46.8666C261.308 56.7856 268.215 58.2196 295.686 53.4866C310.189 50.9876 313.835 47.1076 308.297 40.0676C305.849 36.9546 305.94 36.9566 285.937 39.5916ZM220.529 42.3186C201.749 43.0706 196.527 46.6806 203.758 53.9116C209.011 59.1646 246.149 58.5226 249.584 53.1196C255.383 44.0006 247.909 41.2226 220.529 42.3186Z" fill="#562714"/>
</svg>
