<svg width="560" height="551" viewBox="0 0 560 551" fill="none" xmlns="http://www.w3.org/2000/svg">
<path fill-rule="evenodd" clip-rule="evenodd" d="M123.017 1.80918C114.933 4.95311 111.353 9.8821 109.971 19.7711C107.896 34.6151 100.545 41.9203 89.1466 40.4659C78.0333 39.0489 67.8899 49.176 69.3351 60.2452C70.3436 67.9787 77.906 75.2771 86.0624 76.3907C99.2906 78.1972 101.103 86.1756 96.3456 121.664C91.0822 160.929 89.1174 163.77 68.4167 162.048C38.223 159.534 33.8202 191.837 63.5773 197.555C83.9773 201.476 84.7707 203.603 80.0624 241.753C74.939 283.271 72.2807 287.356 52.1173 284.712C21.3714 280.68 17.5998 314.574 48.1354 320.499C67.8579 324.325 68.4414 326.152 62.9688 366.978L58.7741 398.271L55.6024 401.902C50.5977 407.633 46.5722 408.43 30.3773 406.889C-8.15668 403.226 -9.60964 437.865 28.8607 443.041C47.2826 445.521 51.0908 450.184 49.8031 468.687C47.6612 499.456 79.7149 501.605 85.8087 471.1C89.6836 451.7 90.786 451.348 130.894 456.725C174.91 462.625 174.057 461.877 170.847 491.762C168.426 514.314 169.457 518.889 178.007 523.509C193.511 531.887 202.141 524.013 206.383 497.618C211.291 467.082 210.64 467.414 254.046 473.233C292.978 478.451 295.136 479.657 295.259 496.252C295.439 520.552 324.436 523.828 331.048 500.296C335.35 484.986 337.709 484.447 377.264 489.75C418.801 495.317 418.704 495.241 416.311 520.028C414.638 537.374 415.779 541.876 423.164 547.069C436.435 556.4 448.036 548.26 451.698 527.048C455.373 505.764 460.026 500.872 474.759 502.794C507.35 507.047 513.826 473.066 481.636 466.707C461.983 462.825 460.743 459.216 465.904 420.916C471.467 379.634 472.534 378.33 498.667 380.892C535.815 384.535 539.906 350.12 502.914 345.161C478.241 341.854 476.934 338.87 482.347 298.206C487.598 258.769 489.475 256.167 511.627 257.619C542.562 259.647 543.853 225.569 512.998 221.41C495.326 219.027 493.652 213.716 498.72 176.106C504.275 134.882 505.374 133.475 530.132 135.899C551.111 137.954 557.727 134.607 559.548 121.02C561.187 108.794 555.344 103.658 536.056 100.376C516.247 97.004 511.611 93.0298 511.944 79.7038C512.53 56.2125 482.148 51.5265 476.45 74.2307C472.41 90.3276 468.622 91.3554 431.601 86.3929C391.604 81.0316 387.728 78.5607 390.116 59.947C392.03 45.031 386.855 36.0014 375.519 34.4819C363.903 32.9248 356.579 39.6402 354.668 53.599C351.92 73.6689 347.689 75.1449 308.119 69.8407C269.931 64.7216 267.021 63.0341 266.899 45.9211C266.739 23.6363 237.586 18.9345 231.868 40.2709C227.205 57.6647 224 58.5517 184.789 53.3026C145.874 48.0943 143.962 46.8411 145.231 27.3893C146.466 8.45858 136.229 -3.32894 123.017 1.80918Z" fill="#F6C68D"/>
</svg>
