<svg width="516" height="514" viewBox="0 0 516 514" fill="none" xmlns="http://www.w3.org/2000/svg">
<mask id="path-1-inside-1_29_55" fill="white">
<path fill-rule="evenodd" clip-rule="evenodd" d="M65.4615 2.12187C57.8675 6.31187 54.9735 11.6729 54.9175 21.6579C54.8335 36.6459 48.5185 44.8629 37.0275 44.9359C25.8245 45.0079 17.1165 56.3929 20.0195 67.1719C22.0465 74.7029 30.5115 80.9319 38.7435 80.9519C52.0945 80.9849 54.9505 88.6519 54.9505 124.458C54.9505 164.074 53.3805 167.151 32.6345 168.194C2.37446 169.714 2.30246 202.316 32.5555 204.03C53.2955 205.205 54.3645 207.208 54.7665 245.646C55.2045 287.476 53.1125 291.878 32.7765 291.936C1.76746 292.025 2.53246 326.12 33.5845 327.935C53.6405 329.107 54.4615 330.84 54.4615 372.031V403.604L51.8005 407.625C47.6015 413.97 43.7175 415.294 27.4615 415.919C-11.2175 417.408 -8.05554 451.933 30.7615 451.952C49.3495 451.962 53.7435 456.078 54.9255 474.588C56.8905 505.369 88.9455 503.24 90.9325 472.196C92.1955 452.453 93.2415 451.958 133.708 451.958C178.117 451.958 177.173 451.33 177.962 481.377C178.558 504.051 180.188 508.448 189.276 511.891C205.756 518.135 213.263 509.184 213.961 482.46C214.768 451.542 214.167 451.958 257.961 451.958C297.241 451.958 299.54 452.866 301.867 469.298C305.274 493.358 334.449 492.753 337.876 468.551C340.106 452.805 342.372 451.958 382.281 451.958C424.19 451.958 424.083 451.895 425.005 476.78C425.651 494.195 427.38 498.505 435.39 502.671C449.783 510.156 460.199 500.547 461.011 479.037C461.826 457.453 465.787 451.986 480.645 451.934C513.512 451.819 515.416 417.279 482.667 415.253C462.672 414.016 460.964 410.604 460.99 371.958C461.019 330.303 461.904 328.869 488.145 327.936C525.448 326.611 524.931 291.958 487.608 291.958C462.714 291.958 461.022 289.174 460.985 248.151C460.949 208.366 462.464 205.538 484.613 204.034C515.543 201.934 512.295 167.987 481.161 167.964C463.329 167.95 460.964 162.908 460.99 124.958C461.019 83.3619 461.922 81.8209 486.782 80.9349C507.848 80.1839 513.961 75.9879 513.961 62.2789C513.961 49.9439 507.487 45.6299 487.934 44.9389C467.853 44.2289 462.73 40.9059 461.289 27.6539C458.749 4.29286 428.014 3.68486 425.383 26.9449C423.517 43.4359 419.899 44.9579 382.547 44.9579C342.193 44.9579 338.023 43.0239 337.917 24.2579C337.832 9.21986 331.503 0.957865 320.066 0.957865C308.346 0.957865 301.979 8.58687 301.939 22.6759C301.882 42.9329 297.885 44.9579 257.961 44.9579C219.431 44.9579 216.323 43.6719 213.928 26.7269C210.809 4.66086 181.29 3.87387 178.457 25.7809C176.147 43.6399 173.088 44.9449 133.527 44.9519C94.2654 44.9599 92.2035 43.9719 90.8775 24.5239C89.5865 5.59686 77.8745 -4.72613 65.4615 2.12187Z"/>
</mask>
<path d="M65.4615 2.12187L63.0462 -2.25611L63.046 -2.25597L65.4615 2.12187ZM54.9175 21.6579L49.9175 21.6298L49.9175 21.6298L54.9175 21.6579ZM37.0275 44.9359L36.9957 39.936L36.9953 39.936L37.0275 44.9359ZM20.0195 67.1719L24.8476 65.8723L24.8474 65.8716L20.0195 67.1719ZM38.7435 80.9519L38.7558 75.9519L38.7556 75.9519L38.7435 80.9519ZM32.6345 168.194L32.8853 173.188L32.8855 173.188L32.6345 168.194ZM32.5555 204.03L32.2726 209.022L32.2726 209.022L32.5555 204.03ZM54.7665 245.646L49.7667 245.698L49.7667 245.698L54.7665 245.646ZM32.7765 291.936L32.7622 286.936L32.7621 286.936L32.7765 291.936ZM33.5845 327.935L33.2927 332.926L33.2928 332.926L33.5845 327.935ZM54.4615 403.604L58.6311 406.363L59.4615 405.108V403.604H54.4615ZM51.8005 407.625L55.9701 410.384L55.9701 410.384L51.8005 407.625ZM27.4615 415.919L27.2694 410.923L27.2691 410.923L27.4615 415.919ZM30.7615 451.952L30.7641 446.952L30.7639 446.952L30.7615 451.952ZM54.9255 474.588L59.9153 474.269L59.9153 474.269L54.9255 474.588ZM90.9325 472.196L95.9223 472.515L95.9223 472.515L90.9325 472.196ZM177.962 481.377L172.964 481.508L172.964 481.508L177.962 481.377ZM189.276 511.891L191.048 507.215L191.048 507.215L189.276 511.891ZM213.961 482.46L218.96 482.59L218.96 482.59L213.961 482.46ZM301.867 469.298L306.818 468.597L306.818 468.597L301.867 469.298ZM337.876 468.551L332.926 467.85L332.926 467.85L337.876 468.551ZM425.005 476.78L420.009 476.965L420.009 476.965L425.005 476.78ZM435.39 502.671L433.083 507.107L433.084 507.107L435.39 502.671ZM461.011 479.037L456.015 478.848L456.015 478.848L461.011 479.037ZM480.645 451.934L480.628 446.934L480.628 446.934L480.645 451.934ZM482.667 415.253L482.359 420.243L482.359 420.243L482.667 415.253ZM460.99 371.958L455.99 371.954L455.99 371.954L460.99 371.958ZM488.145 327.936L487.968 322.939L487.968 322.939L488.145 327.936ZM460.985 248.151L465.985 248.146L465.985 248.146L460.985 248.151ZM484.613 204.034L484.275 199.045L484.275 199.045L484.613 204.034ZM481.161 167.964L481.158 172.964L481.158 172.964L481.161 167.964ZM460.99 124.958L455.99 124.954L455.99 124.954L460.99 124.958ZM486.782 80.9349L486.961 85.9317L486.961 85.9317L486.782 80.9349ZM487.934 44.9389L487.758 49.9357L487.758 49.9357L487.934 44.9389ZM461.289 27.6539L456.319 28.1943L456.319 28.1944L461.289 27.6539ZM425.383 26.9449L430.352 27.507L430.352 27.5068L425.383 26.9449ZM337.917 24.2579L342.917 24.2296L342.917 24.2296L337.917 24.2579ZM301.939 22.6759L296.939 22.6617L296.939 22.6618L301.939 22.6759ZM213.928 26.7269L218.879 26.0271L218.879 26.0271L213.928 26.7269ZM178.457 25.7809L183.416 26.4223L183.416 26.4221L178.457 25.7809ZM133.527 44.9519L133.527 39.9519L133.526 39.9519L133.527 44.9519ZM90.8775 24.5239L95.8659 24.1837L95.8659 24.1836L90.8775 24.5239ZM63.046 -2.25597C58.6707 0.158098 55.2219 3.15626 52.9627 7.34187C50.7437 11.4531 49.948 16.2056 49.9175 21.6298L59.9174 21.6859C59.943 17.1252 60.6222 14.2047 61.7627 12.0916C62.8631 10.053 64.6582 8.27563 67.8769 6.4997L63.046 -2.25597ZM49.9175 21.6298C49.8789 28.5306 48.3948 33.0987 46.2856 35.8432C44.3326 38.3844 41.4315 39.9078 36.9957 39.936L37.0592 49.9358C44.1145 49.8909 50.1163 47.2693 54.2145 41.9368C58.1566 36.8075 59.8721 29.7731 59.9174 21.6859L49.9175 21.6298ZM36.9953 39.936C22.5407 40.0289 11.4297 54.5046 15.1915 68.4721L24.8474 65.8716C22.8032 58.2811 29.1083 49.9869 37.0596 49.9358L36.9953 39.936ZM15.1913 68.4714C16.5586 73.5514 19.9822 77.8818 24.091 80.9055C28.2111 83.9376 33.398 85.9389 38.7313 85.9519L38.7556 75.9519C35.857 75.9448 32.6954 74.8216 30.0182 72.8514C27.3297 70.8729 25.5073 68.3233 24.8476 65.8723L15.1913 68.4714ZM38.7311 85.9519C41.6726 85.9591 43.3093 86.402 44.342 87.0196C45.2549 87.5655 46.2542 88.5821 47.1681 91.0354C48.1218 93.5954 48.8495 97.3769 49.3126 102.972C49.7717 108.518 49.9505 115.547 49.9505 124.458H59.9505C59.9505 115.466 59.7722 108.11 59.2786 102.147C58.789 96.2321 57.9683 91.3812 56.539 87.5446C55.0701 83.6012 52.8521 80.4571 49.4745 78.4372C46.2168 76.489 42.4898 75.9611 38.7558 75.9519L38.7311 85.9519ZM49.9505 124.458C49.9505 134.38 49.8501 141.81 49.397 147.458C48.9369 153.193 48.1458 156.505 47.1185 158.518C46.2681 160.185 45.2034 161.09 43.2472 161.763C40.9366 162.558 37.6154 162.937 32.3834 163.2L32.8855 173.188C38.0265 172.929 42.6813 172.533 46.4999 171.219C50.6729 169.784 53.8906 167.248 56.0259 163.063C57.9843 159.225 58.8824 154.274 59.365 148.258C59.8546 142.154 59.9505 134.343 59.9505 124.458H49.9505ZM32.3836 163.2C15.4952 164.048 4.92914 173.999 4.9026 186.028C4.87607 198.051 15.39 208.065 32.2726 209.022L32.8383 199.038C19.4679 198.28 14.8914 191.136 14.9026 186.05C14.9138 180.97 19.5137 173.859 32.8853 173.188L32.3836 163.2ZM32.2726 209.022C37.5555 209.321 40.8848 209.656 43.2149 210.391C45.1829 211.012 46.1264 211.813 46.8766 213.218C47.8278 215.001 48.5909 218.031 49.0612 223.519C49.5233 228.912 49.6659 236.055 49.7667 245.698L59.7662 245.594C59.666 236.018 59.5243 228.496 59.0247 222.666C58.5334 216.932 57.6576 212.18 55.6988 208.51C53.539 204.463 50.3014 202.141 46.2232 200.854C42.5073 199.682 37.9255 199.326 32.8383 199.038L32.2726 209.022ZM49.7667 245.698C49.8763 256.158 49.8238 264.091 49.3879 270.159C48.9458 276.314 48.1355 280.015 47.0454 282.31C46.1139 284.271 44.9898 285.211 43.1915 285.845C41.0163 286.612 37.832 286.921 32.7622 286.936L32.7907 296.936C37.8889 296.921 42.5921 296.659 46.515 295.277C50.8148 293.762 53.9993 290.977 56.078 286.601C57.9982 282.559 58.8998 277.313 59.3622 270.876C59.8308 264.352 59.8757 256.048 59.7662 245.594L49.7667 245.698ZM32.7621 286.936C24.1092 286.961 17.1114 289.367 12.2135 293.535C7.2894 297.726 4.77602 303.481 4.90885 309.4C5.18048 321.505 15.9752 331.914 33.2927 332.926L33.8762 322.943C20.1418 322.141 15.0279 314.595 14.9063 309.176C14.8425 306.333 16.0113 303.434 18.6947 301.151C21.4042 298.845 25.9392 296.955 32.7908 296.936L32.7621 286.936ZM33.2928 332.926C38.4367 333.227 41.5633 333.545 43.719 334.268C45.4391 334.844 46.3 335.584 47.0249 337.115C47.9491 339.067 48.6457 342.367 49.0304 348.254C49.4082 354.035 49.4615 361.697 49.4615 372.031H59.4615C59.4615 361.769 59.4121 353.768 59.0092 347.602C58.6132 341.543 57.8511 336.613 56.063 332.836C54.0757 328.639 50.9709 326.151 46.8963 324.786C43.2572 323.566 38.7602 323.229 33.8761 322.943L33.2928 332.926ZM49.4615 372.031V403.604H59.4615V372.031H49.4615ZM50.2918 400.844L47.6308 404.865L55.9701 410.384L58.6311 406.363L50.2918 400.844ZM47.6308 404.865C45.9483 407.408 44.7308 408.437 42.5395 409.184C39.8069 410.115 35.4909 410.606 27.2694 410.923L27.6536 420.915C35.688 420.606 41.442 420.123 45.7652 418.65C50.6297 416.992 53.4537 414.187 55.9701 410.384L47.6308 404.865ZM27.2691 410.923C16.9199 411.321 8.76819 413.945 3.17597 418.193C-2.49212 422.499 -5.51562 428.534 -4.9287 434.943C-3.75558 447.752 10.4924 456.942 30.759 456.952L30.7639 446.952C12.2135 446.943 5.472 438.861 5.02962 434.031C4.80879 431.619 5.82104 428.742 9.22551 426.156C12.7059 423.512 18.6635 421.261 27.6538 420.915L27.2691 410.923ZM30.7588 456.952C40.1378 456.957 43.9666 458.121 45.9524 459.981C47.9346 461.838 49.3394 465.569 49.9356 474.906L59.9153 474.269C59.3296 465.097 57.9463 457.515 52.789 452.683C47.6353 447.856 39.9731 446.957 30.7641 446.952L30.7588 456.952ZM49.9356 474.906C50.4804 483.44 53.1492 490.251 57.4014 494.929C61.6917 499.648 67.4074 501.953 73.2521 501.565C85.1161 500.777 94.8297 489.585 95.9223 472.515L85.9427 471.876C85.0483 485.85 77.7408 491.245 72.5893 491.587C69.9263 491.764 67.1356 490.77 64.8009 488.202C62.428 485.592 60.353 481.126 59.9153 474.269L49.9356 474.906ZM95.9223 472.515C96.2488 467.411 96.5382 464.35 97.2182 462.236C97.7515 460.578 98.4042 459.833 99.7573 459.193C101.566 458.337 104.694 457.685 110.435 457.334C116.06 456.991 123.547 456.958 133.708 456.958V446.958C123.637 446.958 115.818 446.987 109.825 447.353C103.949 447.712 99.1497 448.418 95.4806 450.154C91.356 452.105 88.9812 455.186 87.6985 459.174C86.5626 462.705 86.2476 467.11 85.9427 471.877L95.9223 472.515ZM133.708 456.958C144.911 456.958 152.958 456.922 158.915 457.318C165.026 457.725 167.908 458.555 169.425 459.564C170.516 460.289 171.432 461.459 172.032 464.951C172.671 468.665 172.761 473.78 172.964 481.508L182.961 481.246C182.769 473.95 182.682 467.876 181.888 463.257C181.055 458.417 179.284 454.11 174.961 451.236C171.064 448.645 165.806 447.755 159.579 447.34C153.199 446.916 144.71 446.958 133.708 446.958V456.958ZM172.964 481.508C173.257 492.649 173.787 500.298 175.747 505.584C176.805 508.437 178.32 510.758 180.48 512.634C182.562 514.442 184.993 515.615 187.505 516.567L191.048 507.215C189.016 506.445 187.835 505.777 187.037 505.084C186.317 504.458 185.683 503.618 185.123 502.107C183.847 498.666 183.264 492.779 182.961 481.245L172.964 481.508ZM187.505 516.567C192.049 518.288 196.471 519.162 200.607 518.646C204.914 518.108 208.559 516.1 211.368 512.751C214.067 509.533 215.836 505.275 216.994 500.357C218.16 495.406 218.78 489.466 218.96 482.59L208.963 482.329C208.794 488.816 208.214 494.016 207.261 498.065C206.3 502.146 205.031 504.746 203.706 506.325C202.491 507.774 201.126 508.504 199.368 508.723C197.44 508.964 194.744 508.616 191.048 507.215L187.505 516.567ZM218.96 482.59C219.167 474.667 219.282 469.358 219.946 465.498C220.578 461.827 221.543 460.519 222.69 459.724C224.208 458.672 227.06 457.8 233.087 457.363C238.973 456.935 246.915 456.958 257.961 456.958V446.958C247.111 446.958 238.705 446.928 232.362 447.389C226.159 447.84 220.9 448.797 216.993 451.505C212.715 454.471 210.942 458.856 210.091 463.803C209.272 468.561 209.16 474.794 208.963 482.329L218.96 482.59ZM257.961 456.958C267.805 456.958 275.167 457.016 280.77 457.348C286.458 457.684 289.828 458.284 291.935 459.116C293.719 459.821 294.465 460.626 295.046 461.83C295.816 463.424 296.323 465.808 296.917 469.999L306.818 468.597C306.248 464.571 305.595 460.68 304.052 457.483C302.32 453.895 299.6 451.392 295.608 449.815C291.94 448.366 287.225 447.712 281.361 447.365C275.414 447.013 267.758 446.958 257.961 446.958V456.958ZM296.917 469.999C298.938 484.27 309.033 492.248 319.968 492.022C330.83 491.796 340.808 483.509 342.827 469.252L332.926 467.85C331.518 477.794 325.194 481.911 319.761 482.024C314.4 482.135 308.204 478.385 306.818 468.597L296.917 469.999ZM342.827 469.252C343.397 465.228 343.882 463.015 344.613 461.556C345.143 460.498 345.847 459.725 347.7 459.033C349.864 458.224 353.315 457.65 359.097 457.329C364.795 457.012 372.281 456.958 382.281 456.958V446.958C372.327 446.958 364.564 447.01 358.543 447.344C352.606 447.674 347.868 448.295 344.199 449.666C340.217 451.154 337.443 453.545 335.673 457.075C334.105 460.203 333.471 464.001 332.926 467.85L342.827 469.252ZM382.281 456.958C392.833 456.958 400.488 456.957 406.184 457.326C412.021 457.705 414.928 458.446 416.502 459.36C417.595 459.996 418.376 460.885 418.953 463.485C419.605 466.427 419.771 470.54 420.009 476.965L430.002 476.595C429.779 470.577 429.613 465.366 428.716 461.321C427.743 456.934 425.759 453.173 421.525 450.714C417.772 448.533 412.79 447.734 406.832 447.347C400.732 446.951 392.684 446.958 382.281 446.958V456.958ZM420.009 476.965C420.328 485.579 420.912 491.858 422.796 496.555C424.908 501.822 428.451 504.698 433.083 507.107L437.698 498.235C434.32 496.478 432.993 495.116 432.077 492.832C430.933 489.979 430.329 485.396 430.002 476.595L420.009 476.965ZM433.084 507.107C437.27 509.284 441.523 510.404 445.657 510.151C449.862 509.894 453.618 508.231 456.684 505.402C462.629 499.918 465.582 490.511 466.008 479.225L456.015 478.848C455.629 489.073 452.968 495.225 449.904 498.052C448.465 499.379 446.868 500.059 445.046 500.17C443.154 500.286 440.708 499.8 437.697 498.235L433.084 507.107ZM466.008 479.226C466.208 473.934 466.595 469.855 467.234 466.695C467.875 463.527 468.713 461.585 469.611 460.344C471.096 458.295 473.642 456.958 480.663 456.934L480.628 446.934C472.791 446.961 465.927 448.384 461.513 454.478C459.463 457.308 458.228 460.783 457.433 464.712C456.636 468.649 456.223 473.348 456.015 478.848L466.008 479.226ZM480.663 456.934C498.722 456.871 510.568 447.044 511.255 434.585C511.951 421.961 501.001 411.377 482.976 410.262L482.359 420.243C497.083 421.154 501.556 428.854 501.27 434.035C500.975 439.381 495.436 446.882 480.628 446.934L480.663 456.934ZM482.976 410.262C477.956 409.952 474.778 409.525 472.574 408.711C470.709 408.022 469.646 407.101 468.792 405.395C467.776 403.366 466.995 400.072 466.538 394.448C466.088 388.904 465.984 381.635 465.99 371.961L455.99 371.954C455.984 381.603 456.084 389.253 456.571 395.257C457.052 401.181 457.943 406.063 459.85 409.872C461.919 414.005 465.031 416.585 469.109 418.091C472.848 419.472 477.381 419.935 482.359 420.243L482.976 410.262ZM465.99 371.961C465.998 361.496 466.062 353.813 466.538 348.05C467.024 342.181 467.897 339.08 468.994 337.301C469.863 335.892 471.115 334.913 474.016 334.209C477.202 333.435 481.64 333.17 488.323 332.933L487.968 322.939C481.53 323.168 476.017 323.432 471.656 324.491C467.01 325.62 463.119 327.778 460.483 332.051C458.075 335.955 457.081 341.081 456.573 347.225C456.055 353.475 455.998 361.593 455.99 371.954L465.99 371.961ZM488.323 332.933C507.972 332.235 521.055 322.372 520.861 309.375C520.667 296.356 507.265 286.958 487.608 286.958V296.958C505.275 296.958 510.793 304.886 510.862 309.525C510.932 314.186 505.622 322.312 487.968 322.939L488.323 332.933ZM487.608 286.958C481.32 286.958 477.134 286.763 474.148 286.027C471.468 285.367 470.185 284.382 469.248 282.841C468.097 280.947 467.177 277.712 466.639 271.846C466.11 266.075 465.995 258.429 465.985 248.146L455.985 248.155C455.995 258.384 456.104 266.469 456.681 272.759C457.249 278.952 458.315 284.105 460.703 288.035C463.306 292.318 467.115 294.593 471.755 295.737C476.089 296.805 481.45 296.958 487.608 296.958V286.958ZM465.985 248.146C465.976 238.176 466.067 230.74 466.531 225.094C467.001 219.364 467.821 216.089 468.888 214.098C469.774 212.443 470.936 211.458 473.17 210.705C475.729 209.842 479.357 209.402 484.952 209.022L484.275 199.045C478.795 199.417 473.928 199.896 469.974 201.229C465.696 202.672 462.329 205.163 460.072 209.376C457.996 213.253 457.06 218.239 456.564 224.276C456.062 230.396 455.976 238.233 455.985 248.155L465.985 248.146ZM484.952 209.022C493.582 208.436 500.4 205.583 504.996 201.091C509.619 196.572 511.704 190.648 511.139 184.744C509.987 172.709 498.516 162.977 481.165 162.964L481.158 172.964C494.941 172.974 500.661 180.226 501.184 185.696C501.457 188.544 500.499 191.502 498.006 193.94C495.485 196.404 491.11 198.581 484.275 199.045L484.952 209.022ZM481.165 162.964C476.795 162.96 474.107 162.624 472.305 161.919C470.833 161.343 469.8 160.471 468.906 158.564C467.882 156.381 467.089 152.911 466.605 147.26C466.129 141.682 465.984 134.437 465.99 124.961L455.99 124.954C455.984 134.453 456.125 142.07 456.642 148.112C457.152 154.08 458.059 158.987 459.852 162.81C461.775 166.909 464.676 169.672 468.662 171.231C472.317 172.662 476.612 172.96 481.158 172.964L481.165 162.964ZM465.99 124.961C465.998 114.515 466.062 106.826 466.521 101.051C466.988 95.1683 467.827 92.0205 468.889 90.2077C469.721 88.7879 470.873 87.858 473.512 87.1809C476.472 86.4212 480.622 86.1576 486.961 85.9317L486.604 75.938C480.513 76.1551 475.228 76.4164 471.026 77.4947C466.502 78.6556 462.766 80.8768 460.261 85.1526C457.986 89.0352 457.04 94.1273 456.552 100.26C456.057 106.501 455.998 114.603 455.99 124.954L465.99 124.961ZM486.961 85.9317C497.445 85.5579 505.615 84.3544 511.101 80.5884C517.259 76.3617 518.961 69.8167 518.961 62.2789H508.961C508.961 68.4501 507.607 70.8576 505.442 72.3438C502.606 74.2908 497.186 75.5608 486.604 75.938L486.961 85.9317ZM518.961 62.2789C518.961 55.1773 517.026 49.061 511.053 45.0813C505.718 41.5268 497.929 40.289 488.111 39.942L487.758 49.9357C497.493 50.2798 502.718 51.5445 505.508 53.4034C507.66 54.8373 508.961 57.0455 508.961 62.2789H518.961ZM488.111 39.942C477.953 39.5828 473.005 38.5318 470.343 36.8049C468.299 35.479 466.93 33.2718 466.26 27.1134L456.319 28.1944C457.09 35.2879 459.003 41.3682 464.901 45.1943C470.181 48.6195 477.835 49.5849 487.758 49.9357L488.111 39.942ZM466.26 27.1134C464.715 12.8997 454.28 5.03111 443.469 4.81747C432.609 4.60285 422.027 12.1366 420.415 26.3829L430.352 27.5068C431.371 18.4931 437.471 14.7009 443.272 14.8155C449.122 14.9311 455.324 19.047 456.319 28.1943L466.26 27.1134ZM420.415 26.3827C419.95 30.4921 419.434 32.9212 418.651 34.5475C418.025 35.8474 417.179 36.7508 415.334 37.5264C413.213 38.4186 409.875 39.0837 404.381 39.475C398.959 39.8612 391.893 39.9579 382.547 39.9579V49.9579C391.878 49.9579 399.272 49.8643 405.091 49.4497C410.839 49.0403 415.526 48.2943 419.211 46.7445C423.173 45.0783 425.916 42.5092 427.661 38.8855C429.248 35.5884 429.884 31.6431 430.352 27.507L420.415 26.3827ZM382.547 39.9579C372.456 39.9579 364.806 39.8353 358.954 39.3777C353.019 38.9134 349.451 38.1332 347.243 37.1092C345.358 36.2351 344.52 35.2249 343.954 33.6845C343.247 31.7614 342.944 28.906 342.917 24.2296L332.918 24.2861C332.944 28.9927 333.202 33.4163 334.568 37.1338C336.074 41.234 338.82 44.2259 343.036 46.181C346.928 47.9863 351.976 48.8624 358.175 49.3472C364.458 49.8387 372.462 49.9579 382.547 49.9579V39.9579ZM342.917 24.2296C342.872 16.1196 341.153 9.06439 337.218 3.92785C333.123 -1.41761 327.12 -4.04213 320.066 -4.04213V5.95787C324.45 5.95787 327.33 7.46434 329.28 10.0094C331.39 12.7633 332.878 17.3581 332.918 24.2861L342.917 24.2296ZM320.066 -4.04213C313.055 -4.04213 306.989 -1.7086 302.784 3.32962C298.704 8.21778 296.961 14.9584 296.939 22.6617L306.939 22.6901C306.958 16.3044 308.418 12.1859 310.462 9.73736C312.38 7.43883 315.358 5.95787 320.066 5.95787V-4.04213ZM296.939 22.6618C296.925 27.7242 296.642 30.9269 295.912 33.131C295.302 34.9707 294.412 36.0558 292.641 36.953C290.534 38.0203 287.088 38.8489 281.247 39.3427C275.491 39.8293 267.948 39.9579 257.961 39.9579V49.9579C267.937 49.9579 275.865 49.8333 282.089 49.3072C288.228 48.7882 293.27 47.8445 297.16 45.8734C301.386 43.7323 304.001 40.513 305.405 36.2757C306.687 32.4028 306.925 27.7561 306.939 22.6899L296.939 22.6618ZM257.961 39.9579C248.314 39.9579 241.055 39.8759 235.498 39.5034C229.867 39.1258 226.468 38.4717 224.307 37.577C222.437 36.8029 221.56 35.8867 220.888 34.519C220.05 32.8126 219.482 30.2886 218.879 26.0271L208.978 27.4266C209.573 31.6376 210.291 35.6287 211.913 38.9293C213.702 42.5684 216.459 45.151 220.482 46.8165C224.213 48.3614 228.965 49.0878 234.829 49.481C240.766 49.879 248.344 49.9579 257.961 49.9579V39.9579ZM218.879 26.0271C216.964 12.4802 206.683 5.04479 196.219 4.76577C185.678 4.48467 175.263 11.5008 173.499 25.1396L183.416 26.4221C184.485 18.1539 190.246 14.6101 195.952 14.7622C201.736 14.9164 207.774 18.9076 208.978 27.4267L218.879 26.0271ZM173.499 25.1395C172.917 29.6404 172.357 32.3485 171.495 34.1943C170.797 35.6911 169.888 36.6563 167.999 37.462C165.806 38.398 162.341 39.0821 156.572 39.4765C150.88 39.8656 143.433 39.9501 133.527 39.9519L133.528 49.9519C143.402 49.9501 151.174 49.8689 157.254 49.4532C163.257 49.0428 168.119 48.2833 171.924 46.6597C176.034 44.9059 178.796 42.1959 180.556 38.4249C182.154 35.003 182.843 30.8508 183.416 26.4223L173.499 25.1395ZM133.526 39.9519C123.68 39.9539 116.364 39.8916 110.83 39.5101C105.198 39.1218 102.026 38.4294 100.136 37.5245C98.6374 36.8065 97.8878 35.9457 97.2971 34.2643C96.5645 32.179 96.2044 29.1482 95.8659 24.1837L85.889 24.864C86.2136 29.6235 86.6084 34.0093 87.8623 37.5787C89.2582 41.5521 91.7266 44.5843 95.8166 46.5433C99.5163 48.3154 104.304 49.0839 110.142 49.4864C116.079 49.8957 123.744 49.9539 133.528 49.9519L133.526 39.9519ZM95.8659 24.1836C95.1634 13.8854 91.5853 5.141 85.6463 -0.0937031C79.3937 -5.60483 71.068 -6.68157 63.0462 -2.25611L67.8767 6.49984C72.2679 4.07731 76.0047 4.73806 79.0341 7.40818C82.3771 10.3547 85.3005 16.2353 85.8891 24.8641L95.8659 24.1836Z" fill="#562714" mask="url(#path-1-inside-1_29_55)"/>
<path d="M172.366 97.241L172.366 97.2414L174.548 100.101V132.511C174.548 135.493 174.56 138.257 174.572 140.822C174.605 148.352 174.631 154.167 174.316 158.743C173.888 164.945 172.855 168.076 171.053 169.894C169.258 171.707 166.17 172.746 160.033 173.178C155.502 173.496 149.744 173.47 142.286 173.436C139.744 173.424 137.004 173.412 134.048 173.412C131.482 173.412 129.077 173.42 126.821 173.427C118.844 173.454 112.733 173.474 107.963 173.116C101.786 172.652 98.6131 171.581 96.7485 169.73C94.8884 167.883 93.8123 164.742 93.346 158.614C92.9858 153.88 93.0061 147.814 93.0326 139.894C93.04 137.653 93.048 135.264 93.048 132.714C93.048 123.539 93.0809 116.569 93.276 111.197C93.4721 105.798 93.8288 102.167 94.428 99.6103C95.0134 97.112 95.7871 95.8301 96.7096 94.9534C97.6974 94.0146 99.0755 93.3174 101.393 92.39C101.403 92.3913 101.561 92.3551 101.966 92.3056C102.458 92.2455 103.142 92.1839 104.016 92.1234C105.76 92.0028 108.161 91.8931 111.1 91.7997C116.973 91.6129 124.92 91.4934 133.902 91.4749C151.259 91.4397 159.818 91.471 164.726 92.2899C167.083 92.6832 168.354 93.2264 169.285 93.8871C170.273 94.5882 171.076 95.5495 172.366 97.241ZM347.844 92.8102L347.845 92.8096C348.789 92.3382 350.121 91.9342 355.064 91.738C359.965 91.5433 368.042 91.5542 382.207 91.6639C385.093 91.6861 387.769 91.6946 390.254 91.7025C397.618 91.7259 403.297 91.7439 407.763 92.0999C413.791 92.5803 416.819 93.6449 418.586 95.4761C420.371 97.3261 421.392 100.494 421.815 106.719C422.129 111.325 422.103 117.178 422.071 124.757C422.06 127.311 422.048 130.061 422.048 133.025V164.9L419.521 167.778C419.521 167.778 419.521 167.779 419.521 167.779C418.021 169.488 417.182 170.439 416.164 171.14C415.238 171.779 414.028 172.288 411.744 172.653C406.983 173.412 398.602 173.412 381.03 173.412H380.746C377.837 173.412 375.14 173.424 372.635 173.435C365.202 173.469 359.469 173.494 354.96 173.174C348.871 172.74 345.811 171.699 344.03 169.889C342.239 168.068 341.21 164.932 340.783 158.731C340.467 154.142 340.492 148.308 340.525 140.75C340.536 138.205 340.548 135.465 340.548 132.511V100.101L342.716 97.2593L342.716 97.2587C344.001 95.5731 346.418 93.521 347.844 92.8102ZM226.072 215.716L226.072 215.716C227.097 215.35 229.418 215.008 234.511 214.793C239.484 214.584 246.796 214.5 257.548 214.5C258.847 214.5 260.104 214.499 261.322 214.498C270.802 214.49 277.892 214.484 283.293 214.987C289.425 215.558 292.734 216.748 294.745 218.756C296.755 220.764 297.945 224.069 298.516 230.194C299.02 235.588 299.014 242.671 299.006 252.14C299.005 253.357 299.004 254.614 299.004 255.912C299.004 257.347 299.005 258.732 299.007 260.069C299.016 269.403 299.023 276.401 298.535 281.746C297.973 287.894 296.793 291.198 294.794 293.199C292.796 295.2 289.497 296.381 283.355 296.943C278.017 297.431 271.026 297.424 261.702 297.415C260.366 297.413 258.982 297.412 257.548 297.412C256.114 297.412 254.73 297.413 253.394 297.415C244.07 297.424 237.08 297.431 231.741 296.943C225.599 296.381 222.3 295.2 220.302 293.199C218.303 291.198 217.123 287.894 216.561 281.746C216.073 276.401 216.08 269.403 216.089 260.069C216.091 258.732 216.092 257.347 216.092 255.912C216.092 246.934 216.14 240.084 216.378 234.78C216.618 229.449 217.045 225.846 217.744 223.292C218.421 220.815 219.316 219.466 220.447 218.501C221.669 217.457 223.368 216.68 226.072 215.716ZM350.043 215.726L349.203 213.371L350.043 215.726C353.758 214.401 359.728 213.607 366.883 213.349C373.972 213.093 381.998 213.369 389.694 214.069C397.398 214.769 404.696 215.886 410.343 217.289C413.173 217.992 415.517 218.75 417.266 219.53C419.122 220.357 419.919 221.043 420.147 221.388L422.232 220.008L420.148 221.388L422.556 225.025L422.853 253.551C422.868 254.941 422.883 256.286 422.898 257.589C423.011 267.639 423.096 275.166 422.619 280.897C422.078 287.413 420.842 290.94 418.701 293.072C416.557 295.208 413.008 296.44 406.461 296.982C400.704 297.459 393.143 297.377 383.05 297.267C381.741 297.253 380.389 297.238 378.993 297.224L348.745 296.92L345.734 294.623C343.995 293.295 343.056 292.556 342.369 291.63C341.745 290.789 341.225 289.634 340.848 287.361C340.058 282.6 340.048 274.115 340.048 256.412C340.048 247.1 340.08 240.059 340.299 234.649C340.519 229.21 340.924 225.602 341.607 223.083C342.264 220.654 343.138 219.389 344.255 218.48C345.494 217.472 347.225 216.73 350.043 215.726ZM100.546 340.149L100.546 340.149C101.802 339.486 102.897 339.042 107.311 338.786C111.821 338.525 119.437 338.476 133.59 338.456C135.728 338.453 137.755 338.445 139.678 338.438C148.178 338.407 154.637 338.383 159.637 338.784C165.817 339.279 169.059 340.393 170.997 342.316C172.935 344.238 174.072 347.468 174.611 353.637C175.047 358.629 175.067 365.081 175.095 373.574C175.101 375.494 175.107 377.519 175.119 379.655L175.287 410.15L173.026 414.007L173.026 414.007C171.819 416.066 170.973 417.314 169.941 418.216C168.975 419.061 167.684 419.736 165.375 420.239C160.515 421.296 152.146 421.409 135.483 421.406C133.991 421.406 132.551 421.407 131.162 421.408C121.611 421.416 114.443 421.422 108.973 420.918C102.667 420.336 99.2812 419.114 97.2401 417.035C95.1938 414.951 94.0112 411.511 93.493 405.136C93.0436 399.608 93.1169 392.373 93.2144 382.736C93.2286 381.335 93.2432 379.884 93.2569 378.38C93.339 369.361 93.4007 362.644 93.5755 357.547C93.7512 352.422 94.0383 349.098 94.5275 346.804C95.0016 344.582 95.6231 343.535 96.3554 342.797C97.2027 341.943 98.375 341.296 100.546 340.149ZM296.177 414.833L296.176 414.833C294.812 416.622 293.867 417.718 292.741 418.521C291.663 419.29 290.257 419.899 287.847 420.345C282.831 421.274 274.345 421.368 257.548 421.368C256.198 421.368 254.892 421.369 253.628 421.37C244.198 421.379 237.136 421.385 231.75 420.894C225.603 420.335 222.288 419.164 220.279 417.189C218.281 415.223 217.097 411.986 216.529 405.953C216.031 400.662 216.037 393.722 216.046 384.445C216.047 383.203 216.048 381.918 216.048 380.59C216.048 362.759 216.282 353.384 217.615 347.891C218.254 345.258 219.101 343.745 220.145 342.659C221.233 341.528 222.724 340.658 225.067 339.612C225.277 339.518 225.891 339.339 227.295 339.169C228.641 339.006 230.519 338.871 233.115 338.766C238.302 338.555 246.163 338.466 257.963 338.451L288.195 338.413L291.85 340.555L293.114 338.398L291.85 340.555C293.923 341.77 295.141 342.592 296.018 343.628C296.84 344.599 297.509 345.944 297.991 348.446C298.998 353.679 299.008 362.826 298.839 381.119L298.556 411.716L296.177 414.833ZM347.996 339.611L347.997 339.611C348.215 339.516 348.853 339.336 350.293 339.167C351.672 339.004 353.592 338.871 356.232 338.766C361.507 338.556 369.472 338.466 381.351 338.451C382.795 338.449 384.189 338.446 385.535 338.443C394.981 338.421 402.058 338.405 407.456 338.914C413.653 339.499 416.966 340.735 418.966 342.842C420.991 344.975 422.158 348.504 422.661 355.011C423.098 360.661 423.014 368.059 422.901 377.907C422.885 379.312 422.869 380.766 422.853 382.273L422.556 410.798L420.28 414.236L422.364 415.616L420.28 414.236C419.561 415.321 418.061 416.512 415.582 417.654C413.15 418.775 410.017 419.74 406.355 420.52C399.037 422.078 389.909 422.836 380.747 422.775C371.585 422.714 362.516 421.835 355.317 420.181C351.713 419.353 348.658 418.35 346.318 417.204C343.929 416.034 342.554 414.845 341.939 413.799L339.784 415.066L341.939 413.799L339.548 409.732V380.412C339.548 362.27 339.741 352.859 340.993 347.437C341.593 344.838 342.387 343.415 343.344 342.423C344.347 341.383 345.735 340.596 347.996 339.611ZM218.581 98.0719C218.581 98.0716 218.581 98.0714 218.581 98.0711C219.747 96.372 222.178 94.0937 223.774 93.1673C224.501 92.7452 225.02 92.4919 225.82 92.2862C226.69 92.0626 227.969 91.8779 230.207 91.7452C234.698 91.4788 242.489 91.446 257.414 91.4349C275.21 91.4218 283.874 91.4582 288.805 92.3817C291.152 92.8212 292.401 93.4243 293.331 94.1716C294.343 94.9846 295.166 96.1042 296.503 98.0542L298.548 101.038V132.41V163.804L296.302 167.198C295.089 169.032 294.346 170.052 293.409 170.792C292.54 171.478 291.321 172.055 288.962 172.478C284.034 173.363 275.317 173.412 257.548 173.412C239.78 173.412 231.062 173.363 226.134 172.478C223.775 172.055 222.556 171.478 221.687 170.792C220.75 170.052 220.007 169.032 218.794 167.198L216.548 163.804V132.41V101.038L218.581 98.0719ZM93.2579 257.04C93.1723 247.46 93.1281 240.261 93.2835 234.755C93.4399 229.218 93.7962 225.584 94.4445 223.059C95.0668 220.636 95.9176 219.391 97.0296 218.478C98.28 217.45 100.031 216.684 102.914 215.57C102.913 215.57 102.914 215.57 102.914 215.569C102.922 215.567 102.972 215.55 103.081 215.523C103.202 215.494 103.366 215.46 103.58 215.423C104.01 215.35 104.582 215.276 105.314 215.204C106.775 215.061 108.767 214.937 111.317 214.835C116.413 214.63 123.624 214.517 133.054 214.494C134.41 214.491 135.722 214.486 136.992 214.482C146.542 214.449 153.692 214.425 159.142 214.919C165.353 215.482 168.706 216.682 170.742 218.726C172.782 220.772 173.984 224.148 174.557 230.397C175.06 235.878 175.05 243.069 175.036 252.671C175.035 253.947 175.033 255.266 175.032 256.629C175.031 258.537 175.033 260.356 175.036 262.09C175.047 270.717 175.055 277.244 174.626 282.275C174.107 288.363 172.981 291.562 171.063 293.474C169.145 295.386 165.936 296.507 159.835 297.018C154.795 297.44 148.255 297.423 139.613 297.4C137.876 297.396 136.055 297.391 134.143 297.39C131.595 297.388 129.208 297.394 126.969 297.4C119.096 297.421 113.064 297.436 108.353 297.08C102.246 296.617 99.1025 295.556 97.2424 293.72C95.3852 291.887 94.2951 288.773 93.7808 282.703C93.3839 278.018 93.3503 272.016 93.3064 264.18C93.294 261.952 93.2806 259.576 93.2579 257.04Z" stroke="#562714" stroke-width="5"/>
</svg>
