<svg width="516" height="514" viewBox="0 0 516 514" fill="none" xmlns="http://www.w3.org/2000/svg">
<path fill-rule="evenodd" clip-rule="evenodd" d="M65.4615 2.12187C57.8675 6.31187 54.9735 11.6729 54.9175 21.6579C54.8335 36.6459 48.5185 44.8629 37.0275 44.9359C25.8245 45.0079 17.1165 56.3929 20.0195 67.1719C22.0465 74.7029 30.5115 80.9319 38.7435 80.9519C52.0945 80.9849 54.9505 88.6519 54.9505 124.458C54.9505 164.074 53.3805 167.151 32.6345 168.194C2.37446 169.714 2.30246 202.316 32.5555 204.03C53.2955 205.205 54.3645 207.208 54.7665 245.646C55.2045 287.476 53.1125 291.878 32.7765 291.936C1.76746 292.025 2.53246 326.12 33.5845 327.935C53.6405 329.107 54.4615 330.84 54.4615 372.031V403.604L51.8005 407.625C47.6015 413.97 43.7175 415.294 27.4615 415.919C-11.2175 417.408 -8.05554 451.933 30.7615 451.952C49.3495 451.962 53.7435 456.078 54.9255 474.588C56.8905 505.369 88.9455 503.24 90.9325 472.196C92.1955 452.453 93.2415 451.958 133.708 451.958C178.117 451.958 177.173 451.33 177.962 481.377C178.558 504.051 180.188 508.448 189.276 511.891C205.756 518.135 213.263 509.184 213.961 482.46C214.768 451.542 214.167 451.958 257.961 451.958C297.241 451.958 299.54 452.866 301.867 469.298C305.274 493.358 334.449 492.753 337.876 468.551C340.106 452.805 342.372 451.958 382.281 451.958C424.19 451.958 424.083 451.895 425.005 476.78C425.651 494.195 427.38 498.505 435.39 502.671C449.783 510.156 460.199 500.547 461.011 479.037C461.826 457.453 465.787 451.986 480.645 451.934C513.512 451.819 515.416 417.279 482.667 415.253C462.672 414.016 460.964 410.604 460.99 371.958C461.019 330.303 461.904 328.869 488.145 327.936C525.448 326.611 524.931 291.958 487.608 291.958C462.714 291.958 461.022 289.174 460.985 248.151C460.949 208.366 462.464 205.538 484.613 204.034C515.543 201.934 512.295 167.987 481.161 167.964C463.329 167.95 460.964 162.908 460.99 124.958C461.019 83.3619 461.922 81.8209 486.782 80.9349C507.848 80.1839 513.961 75.9879 513.961 62.2789C513.961 49.9439 507.487 45.6299 487.934 44.9389C467.853 44.2289 462.73 40.9059 461.289 27.6539C458.749 4.29286 428.014 3.68486 425.383 26.9449C423.517 43.4359 419.899 44.9579 382.547 44.9579C342.193 44.9579 338.023 43.0239 337.917 24.2579C337.832 9.21986 331.503 0.957865 320.066 0.957865C308.346 0.957865 301.979 8.58687 301.939 22.6759C301.882 42.9329 297.885 44.9579 257.961 44.9579C219.431 44.9579 216.323 43.6719 213.928 26.7269C210.809 4.66086 181.29 3.87387 178.457 25.7809C176.147 43.6399 173.088 44.9449 133.527 44.9519C94.2654 44.9599 92.2035 43.9719 90.8775 24.5239C89.5865 5.59686 77.8745 -4.72613 65.4615 2.12187Z" fill="#F6C68D"/>
</svg>
