<svg width="516" height="514" viewBox="0 0 516 514" fill="none" xmlns="http://www.w3.org/2000/svg">
<path fill-rule="evenodd" clip-rule="evenodd" d="M65.4615 2.12187C57.8675 6.31187 54.9735 11.6729 54.9175 21.6579C54.8335 36.6459 48.5185 44.8629 37.0275 44.9359C25.8245 45.0079 17.1165 56.3929 20.0195 67.1719C22.0465 74.7029 30.5115 80.9319 38.7435 80.9519C52.0945 80.9849 54.9505 88.6519 54.9505 124.458C54.9505 164.074 53.3805 167.151 32.6345 168.194C2.37446 169.714 2.30246 202.316 32.5555 204.03C53.2955 205.205 54.3645 207.208 54.7665 245.646C55.2045 287.476 53.1125 291.878 32.7765 291.936C1.76746 292.025 2.53246 326.12 33.5845 327.935C53.6405 329.107 54.4615 330.84 54.4615 372.031V403.604L51.8005 407.625C47.6015 413.97 43.7175 415.294 27.4615 415.919C-11.2175 417.408 -8.05554 451.933 30.7615 451.952C49.3495 451.962 53.7435 456.078 54.9255 474.588C56.8905 505.369 88.9455 503.24 90.9325 472.196C92.1955 452.453 93.2415 451.958 133.708 451.958C178.117 451.958 177.173 451.33 177.962 481.377C178.558 504.051 180.188 508.448 189.276 511.891C205.756 518.135 213.263 509.184 213.961 482.46C214.768 451.542 214.167 451.958 257.961 451.958C297.241 451.958 299.54 452.866 301.867 469.298C305.274 493.358 334.449 492.753 337.876 468.551C340.106 452.805 342.372 451.958 382.281 451.958C424.19 451.958 424.083 451.895 425.005 476.78C425.651 494.195 427.38 498.505 435.39 502.671C449.783 510.156 460.199 500.547 461.011 479.037C461.826 457.453 465.787 451.986 480.645 451.934C513.512 451.819 515.416 417.279 482.667 415.253C462.672 414.016 460.964 410.604 460.99 371.958C461.019 330.303 461.904 328.869 488.145 327.936C525.448 326.611 524.931 291.958 487.608 291.958C462.714 291.958 461.022 289.174 460.985 248.151C460.949 208.366 462.464 205.538 484.613 204.034C515.543 201.934 512.295 167.987 481.161 167.964C463.329 167.95 460.964 162.908 460.99 124.958C461.019 83.3619 461.922 81.8209 486.782 80.9349C507.848 80.1839 513.961 75.9879 513.961 62.2789C513.961 49.9439 507.487 45.6299 487.934 44.9389C467.853 44.2289 462.73 40.9059 461.289 27.6539C458.749 4.29286 428.014 3.68486 425.383 26.9449C423.517 43.4359 419.899 44.9579 382.547 44.9579C342.193 44.9579 338.023 43.0239 337.917 24.2579C337.832 9.21986 331.503 0.957865 320.066 0.957865C308.346 0.957865 301.979 8.58687 301.939 22.6759C301.882 42.9329 297.885 44.9579 257.961 44.9579C219.431 44.9579 216.323 43.6719 213.928 26.7269C210.809 4.66086 181.29 3.87387 178.457 25.7809C176.147 43.6399 173.088 44.9449 133.527 44.9519C94.2654 44.9599 92.2035 43.9719 90.8775 24.5239C89.5865 5.59686 77.8745 -4.72613 65.4615 2.12187Z" fill="#F6C68D"/>
<path fill-rule="evenodd" clip-rule="evenodd" d="M101.029 90.1019C91.5505 93.8819 91.0285 96.1089 91.0285 132.781C91.0285 178.623 88.3655 175.979 134.528 175.979C180.611 175.979 177.528 179.091 177.528 132.578V99.3229L174.834 95.792C169.75 89.126 168.825 88.972 134.377 89.042C116.38 89.079 102.487 89.5209 101.029 90.1019ZM222.999 91.0719C221.059 92.1979 218.359 94.7419 216.999 96.7249L214.528 100.331V132.477V164.623L217.189 168.645C221.942 175.829 222.778 175.979 258.028 175.979C293.278 175.979 294.114 175.829 298.867 168.645L301.528 164.623V132.477V100.331L299.045 96.7079C293.829 89.0979 293.18 88.9759 257.892 89.0019C228.126 89.0239 226.348 89.1289 222.999 91.0719ZM347.208 90.64C345.381 91.551 342.681 93.8779 341.208 95.8099L338.528 99.3229V132.578C338.528 179.061 335.497 175.979 381.227 175.979C416.474 175.979 416.14 176.032 421.88 169.495L425.029 165.909V133.092C425.029 86.4639 428.036 89.5809 382.707 89.2309C354.422 89.0119 350.126 89.183 347.208 90.64ZM102.492 213.305C91.2025 217.671 90.8965 218.863 91.2385 257.129C91.6455 302.557 88.9785 299.924 134.621 299.957C179.958 299.99 177.987 301.955 178.012 256.697C178.036 210.544 179.432 211.945 133.528 212.061C114.647 212.108 104.539 212.513 102.492 213.305ZM225.712 213.428C214.833 217.308 214.073 220.089 214.073 255.979C214.073 301.457 212.596 299.979 258.028 299.979C303.46 299.979 301.984 301.457 301.984 255.979C301.984 210.73 303.323 212.067 258.028 212.067C236.524 212.067 228.591 212.401 225.712 213.428ZM349.684 213.438C338.532 217.414 338.028 219.27 338.028 256.479C338.028 291.595 338.027 291.587 344.697 296.677L348.37 299.479L379.449 299.791C427.759 300.275 426.335 301.693 425.833 253.592L425.529 224.328L422.712 220.075C417.553 212.283 366.05 207.602 349.684 213.438ZM99.8585 338.006C91.5705 342.384 91.5655 342.405 91.2375 378.424C90.8095 425.514 89.2885 423.964 135.962 423.973C168.989 423.98 170.834 423.579 175.663 415.338L178.271 410.889L178.099 379.708C177.847 333.755 180.066 335.957 134.066 336.023C105.83 336.064 103.251 336.213 99.8585 338.006ZM224.528 337.396C214.895 341.696 214.028 345.27 214.028 380.657C214.028 425.303 212.637 423.935 258.028 423.935C291.367 423.935 293.161 423.603 298.644 416.417L301.528 412.638L301.819 381.209C302.155 344.919 301.843 343.299 293.594 338.465L289.352 335.979L258.44 336.018C234.843 336.048 226.818 336.374 224.528 337.396ZM347.479 337.386C338.237 341.411 337.528 344.479 337.528 380.479V410.479L340.264 415.133C348.082 428.433 414.111 428.873 422.845 415.683L425.529 411.63L425.833 382.366C426.333 334.412 427.804 335.961 381.828 336.018C358.072 336.048 349.794 336.377 347.479 337.386Z" fill="#DDB688"/>
</svg>
