<svg width="125" height="87" viewBox="0 0 125 87" fill="none" xmlns="http://www.w3.org/2000/svg">
<path d="M22.0001 12.5001L26.5 11.0001C28.1667 11.0001 32 10.7001 34 9.50007C36.5 8.00007 36.5 5.50007 38 5C39.5 4.49993 43.5 5.50007 46 5.50007C48.5 5.50007 52.5 9.50007 57 8.5C61.5 7.49993 61.5 6.50007 65 4.50007C67.8 2.90007 69.8333 4.50007 70.5 5.50007C69.6667 6.16673 69.4 7.90007 75 9.50007C80.6 11.1001 83 13.8334 83.5 15.0001C83.3333 16.8334 84.4 20.3001 90 19.5001C95.6 18.7001 100 22.5001 101.5 24.5001C102.167 23.1667 103.5 23.0001 103.5 33.0001C103.5 43.0001 108.167 43.8334 110.5 43.0001C122.1 37.4001 119 40.6667 116 43.0001C116.167 44.6667 116.1 48.4001 114.5 50.0001C112.5 52.0001 115.5 55.5001 114 59.5001C112.8 62.7001 106.5 61.5001 103.5 60.5001C103.333 63.3334 102.3 68.4001 99.5 66.0001C96.7 63.6001 92.3333 71.3334 90.5 75.5001H81L70.5 81.0001C66.6667 80.1667 58.5 78.2001 56.5 77.0001C54 75.5001 46 77.5001 42 77.0001C38.8 76.6001 38.3333 74.1667 38.5 73.0001L36.5 83.0001C36.5 80.1667 36.3 74.5001 35.5 74.5001C34.5 74.5001 36.5 71.5001 35.5 69.0001C34.5 66.5001 34.5 65.5001 31.5 63.5001C28.5 61.5001 23.5 63.5001 23 64.0001C22.5 64.5001 16.5 66.0001 18 59.5001C19.5 53.0001 15 52.5001 13 49.5001C11 46.5001 7.5 48.5001 6.5 48.0001C5.5 47.5001 5.5 46.0001 8 43.5001C10.5 41.0001 10 38.5001 10.5 36.5001C10.9 34.9001 15.6667 31.5001 18 30.0001C18.5 28.1667 19.5001 24.3001 19.5001 23.5001C19.5001 22.5001 19.0001 18.0001 19.5001 16.0001C20.0001 14.0001 20.5001 13.0001 22.0001 12.5001Z" fill="#E3AC87"/>
<path fill-rule="evenodd" clip-rule="evenodd" d="M63.611 1.37222C61.426 2.57222 61.052 3.16422 62.077 3.79722C63.103 4.43222 62.833 4.86422 60.966 5.57822C59.61 6.09622 57.653 7.46122 56.617 8.61122C55.086 10.3112 55.787 10.1312 60.364 7.65222C63.461 5.97522 66.784 4.76922 67.748 4.97222C68.975 5.23122 67.933 6.24922 64.273 8.36822C60.262 10.6902 59.319 11.6692 60.223 12.5732C60.87 13.2202 62.548 13.7432 63.95 13.7352C65.352 13.7262 67.006 13.3892 67.624 12.9852C68.243 12.5812 69.071 10.7642 69.465 8.94722C69.866 7.10022 70.693 5.82122 71.341 6.04522C71.978 6.26522 72.482 7.63922 72.461 9.09822C72.439 10.5562 72.975 11.7502 73.652 11.7502C74.328 11.7502 75.134 11.3422 75.442 10.8442C75.75 10.3462 77.014 10.1492 78.251 10.4072L80.5 10.8752L78.167 9.48322C76.884 8.71822 74.848 6.32722 73.642 4.17122C72.122 1.45222 70.691 0.178219 68.975 0.0172184C67.614 -0.111781 65.2 0.498222 63.611 1.37222ZM32.175 5.66622C28.873 9.07422 26.352 10.7572 23.956 11.1522C22.055 11.4652 19.15 11.8412 17.5 11.9862C14.761 12.2272 14.511 12.5552 14.621 15.7502C14.688 17.6752 15.059 20.1892 15.445 21.3362C15.947 22.8272 15.389 24.3232 13.485 26.5862C12.02 28.3262 11.335 29.7502 11.961 29.7502C12.587 29.7502 14.459 29.0472 16.12 28.1882C18.341 27.0392 18.87 26.2982 18.115 25.3882C17.55 24.7082 16.785 22.2612 16.416 19.9502C15.97 17.1622 16.113 15.7502 16.841 15.7502C17.444 15.7502 17.678 15.0752 17.362 14.2502C17.003 13.3152 17.369 12.7502 18.334 12.7502C19.185 12.7502 20.136 13.1622 20.447 13.6652C20.758 14.1682 20.51 14.7472 19.897 14.9512C19.196 15.1852 19.389 15.8282 20.413 16.6782C21.822 17.8472 21.959 17.8082 21.416 16.3912C21.069 15.4892 21.129 14.7502 21.549 14.7502C21.968 14.7502 23.929 15.9132 25.906 17.3352L29.5 19.9212L26.635 17.2842C25.059 15.8342 23.989 14.4272 24.259 14.1582C24.528 13.8892 26.387 14.6362 28.391 15.8182C31.301 17.5352 32.326 17.7242 33.49 16.7582C34.291 16.0932 35.234 14.0192 35.585 12.1502C35.936 10.2802 36.713 8.75022 37.311 8.75022C38.034 8.75022 37.997 8.34722 37.2 7.55022C36.54 6.89022 36 5.71022 36 4.92822C36 3.75322 36.272 3.73022 37.558 4.79822C38.415 5.50922 41.002 6.21922 43.308 6.37622C45.614 6.53322 49.36 6.94822 51.633 7.29922C53.906 7.65022 56.02 7.52722 56.33 7.02522C56.643 6.51922 55.564 6.30722 53.909 6.55022C51.859 6.85122 49.091 6.01122 45.072 3.86922C41.853 2.15422 38.707 0.75022 38.079 0.75022C37.452 0.75022 34.795 2.96222 32.175 5.66622ZM82.559 11.2822C81.491 12.0892 79.859 12.7502 78.931 12.7502C78.004 12.7502 76.673 13.4392 75.974 14.2822C74.855 15.6302 75.037 15.6862 77.49 14.7542C79.023 14.1712 80.467 13.8842 80.699 14.1162C80.931 14.3472 79.215 15.8222 76.887 17.3932C74.558 18.9652 72.48 20.9252 72.269 21.7502C71.988 22.8422 72.175 22.7922 72.955 21.5662C73.544 20.6402 76.521 18.4542 79.572 16.7092C82.623 14.9632 85.292 13.7092 85.505 13.9222C85.717 14.1342 85.578 14.7792 85.196 15.3552C84.813 15.9312 82.8 17.5422 80.723 18.9372L76.946 21.4712L80.406 24.1112C82.309 25.5622 84.362 26.7502 84.968 26.7502C85.749 26.7502 85.768 26.1842 85.032 24.8112C84.342 23.5212 84.33 22.6642 84.997 22.2522C85.549 21.9112 86.007 20.1962 86.015 18.4412C86.024 16.6862 86.417 14.6392 86.89 13.8932C87.46 12.9942 87.971 12.8942 88.406 13.5972C88.766 14.1812 88.789 15.7432 88.456 17.0682C88.036 18.7442 88.331 19.6632 89.426 20.0832C90.292 20.4152 91.675 20.4282 92.5 20.1122C93.325 19.7952 94 20.0342 94 20.6432C94 21.2522 94.9 21.7502 96 21.7502C97.145 21.7502 98 22.4172 98 23.3092C98 24.1662 98.45 24.5902 99 24.2502C99.55 23.9102 100 24.0192 100 24.4912C100 24.9632 99.438 25.9732 98.75 26.7332C97.965 27.6022 98.503 27.4952 100.198 26.4452C101.773 25.4682 103.141 25.1702 103.486 25.7272C103.81 26.2522 102.489 27.7102 100.55 28.9662C98.611 30.2222 97.029 31.4752 97.034 31.7502C97.039 32.0252 98.792 33.4872 100.931 35.0002C103.07 36.5132 105.583 37.7502 106.517 37.7502C107.745 37.7502 108.012 37.2662 107.484 36.0002C107.082 35.0372 106.267 33.0302 105.672 31.5382C105.077 30.0472 104.918 28.4982 105.319 28.0982C105.72 27.6972 106.808 28.1302 107.738 29.0602C108.889 30.2102 109.022 30.7502 108.155 30.7502C107.455 30.7502 107.16 31.2002 107.5 31.7502C107.84 32.3002 109.22 32.7502 110.567 32.7502C112.608 32.7502 112.853 32.4582 112.034 31.0002C111.493 30.0372 110.386 27.5602 109.574 25.4942C108.647 23.1372 107.123 21.3672 105.483 20.7442C104.046 20.1972 101.61 19.7502 100.07 19.7502C98.53 19.7502 96.075 18.8102 94.615 17.6622C93.155 16.5132 91.282 14.2632 90.454 12.6622C89.464 10.7462 88.188 9.76122 86.724 9.78222C85.501 9.79922 83.626 10.4742 82.559 11.2822ZM38.459 11.8172C38.096 12.4032 38.005 13.0892 38.257 13.3402C38.508 13.5912 39.451 13.5142 40.351 13.1692C41.252 12.8232 41.74 12.1382 41.435 11.6452C41.131 11.1532 40.485 10.7502 40 10.7502C39.515 10.7502 38.821 11.2302 38.459 11.8172ZM49.25 16.0222C47.463 16.5822 46 17.4512 46 17.9542C46 18.4572 45.48 18.5472 44.845 18.1552C44.109 17.6992 43.963 17.8822 44.443 18.6592C44.864 19.3392 44.448 20.7022 43.5 21.7502C42.567 22.7812 42.088 24.0832 42.434 24.6432C42.781 25.2042 43.653 25.4372 44.372 25.1612C45.091 24.8852 46.257 25.3542 46.962 26.2042C47.668 27.0552 49.04 27.7502 50.012 27.7502C50.983 27.7502 52.841 26.8862 54.139 25.8292C56.473 23.9312 56.479 23.8732 54.693 20.8292C53.7 19.1362 53.362 17.7502 53.943 17.7502C54.525 17.7502 55.007 18.5372 55.015 19.5002C55.028 20.9612 55.183 21.0092 55.956 19.7872C56.761 18.5142 57.347 18.5452 60.441 20.0202C62.398 20.9542 64 22.2012 64 22.7932C64 23.3842 64.45 23.5902 65 23.2502C65.55 22.9102 66 22.2272 66 21.7332C66 21.2392 64.088 19.7442 61.75 18.4102C59.412 17.0772 56.375 15.7662 55 15.4962C53.625 15.2262 51.037 15.4632 49.25 16.0222ZM66.5 15.7502C66.16 16.3002 66.471 16.7432 67.191 16.7352C67.911 16.7262 69.175 16.2832 70 15.7502C71.219 14.9622 71.09 14.7782 69.309 14.7652C68.104 14.7572 66.84 15.2002 66.5 15.7502ZM23 18.1282C23 18.3352 23.787 19.1232 24.75 19.8782C26.336 21.1212 26.371 21.0862 25.128 19.5002C24.373 18.5372 23.585 17.7502 23.378 17.7502C23.17 17.7502 23 17.9202 23 18.1282ZM40.441 20.3052C38.577 21.7992 38.589 21.8172 40.75 20.7702C41.988 20.1702 43 19.4702 43 19.2152C43 18.9592 42.861 18.7502 42.691 18.7502C42.521 18.7502 41.509 19.4502 40.441 20.3052ZM31.813 21.4332C32.534 21.7222 33.397 21.6862 33.729 21.3542C34.061 21.0222 33.471 20.7862 32.417 20.8292C31.252 20.8772 31.015 21.1142 31.813 21.4332ZM36.405 22.9052C35.962 23.6202 36.13 23.7882 36.845 23.3452C37.48 22.9532 38 22.4342 38 22.1912C38 21.9482 37.802 21.7502 37.559 21.7502C37.316 21.7502 36.797 22.2702 36.405 22.9052ZM20.333 23.4172C20.7 23.7832 21.3 23.7832 21.667 23.4172C22.033 23.0502 21.733 22.7502 21 22.7502C20.267 22.7502 19.967 23.0502 20.333 23.4172ZM63.477 26.8692C59.64 29.1612 56.276 31.2332 56.002 31.4742C55.728 31.7152 56.853 31.5982 58.502 31.2132C61.389 30.5382 61.426 30.5722 59.5 32.1292C57.522 33.7282 57.53 33.7732 60.306 36.2482C61.849 37.6242 63.694 38.7502 64.406 38.7502C65.118 38.7502 67.647 37.3402 70.027 35.6162C74.152 32.6282 74.264 32.4152 72.427 31.0542C71.367 30.2682 69.296 29.3792 67.824 29.0782C66.07 28.7192 65.331 28.0502 65.681 27.1402C65.974 26.3752 67.216 25.7502 68.441 25.7502C69.666 25.7502 73.218 27.5362 76.334 29.7192C79.45 31.9022 82 33.2582 82 32.7332C82 32.2082 80.088 30.5582 77.75 29.0662C75.412 27.5742 72.815 25.5322 71.977 24.5282C70.524 22.7842 70.139 22.8902 63.477 26.8692ZM74 23.2502C74 23.5252 74.225 23.7502 74.5 23.7502C74.775 23.7502 75 23.5252 75 23.2502C75 22.9752 74.775 22.7502 74.5 22.7502C74.225 22.7502 74 22.9752 74 23.2502ZM20.5 28.3042C16.255 31.0342 12.713 32.6382 11.5 32.3792C10.4 32.1452 8.001 31.3452 6.169 30.6022C3.143 29.3742 2.709 29.4282 1.419 31.1912C0.638999 32.2592 0 34.6212 0 36.4412C0 38.2612 0.45 39.7502 1 39.7502C1.55 39.7502 2 38.4002 2 36.7502C2 35.1002 2.255 33.7502 2.566 33.7502C2.877 33.7502 4.002 34.2162 5.066 34.7852C6.13 35.3552 7 36.5702 7 37.4852C7 38.7572 7.276 38.8742 8.171 37.9792C9.066 37.0842 8.713 36.3122 6.671 34.7062C5.202 33.5502 4 32.1322 4 31.5552C4 30.8452 4.404 30.8312 5.25 31.5122C5.938 32.0662 7.917 32.8222 9.648 33.1922C12.219 33.7412 14.188 33.0852 20.398 29.6122C24.579 27.2742 28 24.9982 28 24.5552C28 24.1122 27.888 23.7622 27.75 23.7762C27.612 23.7902 24.35 25.8282 20.5 28.3042ZM27.212 28.5872C25.404 29.5522 24.164 30.5812 24.458 30.8752C24.752 31.1682 23.869 32.4642 22.496 33.7542C21.123 35.0432 20 36.4702 20 36.9242C20 37.3782 20.606 37.7502 21.347 37.7502C22.088 37.7502 23.732 38.6502 25 39.7502C26.268 40.8502 27.632 41.7502 28.031 41.7502C28.429 41.7502 29.258 41.1452 29.872 40.4042C30.486 39.6642 32.791 38.2462 34.994 37.2532C37.197 36.2592 38.995 35.1772 38.99 34.8482C38.984 34.5192 37.184 33.4962 34.99 32.5742C32.795 31.6532 31 30.4152 31 29.8242C31 29.2332 31.918 28.7502 33.04 28.7502C34.162 28.7502 36.831 29.6442 38.972 30.7362C41.113 31.8282 43.125 33.1432 43.444 33.6592C43.763 34.1752 42.668 35.5622 41.012 36.7422C39.355 37.9212 37.997 39.4182 37.993 40.0682C37.989 40.7182 36.4 42.3312 34.46 43.6512C32.521 44.9722 31.086 46.5082 31.272 47.0652C31.457 47.6222 33.135 49.2422 34.999 50.6642C36.864 52.0862 38.05 52.6882 37.636 52.0002C37.075 51.0692 38.111 50.7472 41.691 50.7362C44.336 50.7292 47.512 50.4512 48.75 50.1202C50.377 49.6842 51 48.7712 51 46.8242C51 45.3442 50.362 43.2592 49.582 42.1932C48.193 40.2932 48.046 40.3112 42.463 43.0492C39.327 44.5872 36.515 45.5992 36.214 45.2982C35.913 44.9962 35.854 44.6022 36.083 44.4222C36.313 44.2412 39.127 42.4782 42.337 40.5042C47.26 37.4772 48.591 37.0652 50.837 37.8732C52.302 38.3992 54.181 39.3752 55.014 40.0402C55.846 40.7062 57.328 42.5002 58.305 44.0282C59.283 45.5562 59.813 47.2442 59.483 47.7782C59.152 48.3132 59.149 48.7502 59.476 48.7502C59.803 48.7502 61.292 47.9732 62.785 47.0232C64.278 46.0732 65.797 44.8752 66.159 44.3612C66.535 43.8282 67.506 44.1132 68.415 45.0222C69.293 45.9002 70.943 46.9152 72.081 47.2762C73.219 47.6372 73.893 48.1902 73.579 48.5052C73.264 48.8192 69.518 49.1292 65.253 49.1922C58.59 49.2912 56.892 49.6982 53.174 52.0892C50.795 53.6192 48.169 55.1322 47.34 55.4502C46.238 55.8732 46.154 56.2272 47.027 56.7662C47.825 57.2602 46.388 59.2422 42.693 62.7442C39.653 65.6252 36.131 68.4992 34.867 69.1292C33.602 69.7602 32.154 71.7172 31.649 73.4792C31.012 75.6992 31.121 77.6272 32.002 79.7552C32.702 81.4442 34.08 83.2582 35.065 83.7852C36.049 84.3122 37.56 84.4722 38.422 84.1422C39.283 83.8112 39.708 83.0872 39.366 82.5332C39.024 81.9802 39.364 81.1342 40.122 80.6542C40.88 80.1732 43.397 79.7742 45.715 79.7652C48.986 79.7532 50.696 80.4222 53.347 82.7502C55.226 84.4002 57.872 85.7502 59.227 85.7502C60.582 85.7502 62.505 84.8502 63.5 83.7502C64.495 82.6502 65.7 81.7502 66.176 81.7502C66.653 81.7502 68.822 82.9272 70.997 84.3662C73.171 85.8062 75.643 86.7172 76.49 86.3922C77.337 86.0672 78.452 84.6922 78.967 83.3362C79.483 81.9812 80.796 80.3942 81.886 79.8112C82.977 79.2272 86.122 78.7502 88.875 78.7502C91.629 78.7502 94.16 79.2002 94.5 79.7502C94.84 80.3002 94.551 80.7502 93.859 80.7502C92.925 80.7502 92.891 81.0412 93.727 81.8772C94.35 82.5002 95.972 82.7232 97.357 82.3752C98.734 82.0302 100.603 81.0042 101.511 80.0972C102.832 78.7762 103.031 77.3272 102.51 72.8382C101.925 67.7912 102.095 67.0092 104.216 65.0162C105.513 63.7982 107.457 62.7192 108.537 62.6182C109.617 62.5162 111.343 62.5042 112.372 62.5922C113.92 62.7222 114.029 63.0112 113 64.2502C111.997 65.4592 112.022 65.7722 113.128 65.8652C113.882 65.9282 115.4 65.8852 116.5 65.7682C117.6 65.6512 119.109 65.0552 119.854 64.4442C120.737 63.7192 121.036 62.0522 120.713 59.6492C120.442 57.6232 119.173 54.5512 117.895 52.8222C115.786 49.9692 115.505 49.8552 114.863 51.5912C114.474 52.6442 114.514 55.0972 114.953 57.0432C115.647 60.1172 115.485 60.6512 113.722 61.1122C112.607 61.4042 110.438 60.9942 108.903 60.2002C106.843 59.1342 105.426 59.0182 103.491 59.7532C102.049 60.3022 100.624 60.7502 100.324 60.7502C100.024 60.7502 100.679 59.9632 101.78 59.0002C102.881 58.0372 104.048 55.7692 104.374 53.9602C104.819 51.4882 104.66 50.8702 103.733 51.4762C103.055 51.9202 100.808 53.3352 98.739 54.6222L94.978 56.9612L97.989 60.3902C99.889 62.5542 101 64.9142 101 66.7852C101 68.4162 100.55 69.7502 100 69.7502C99.45 69.7502 99 68.8202 99 67.6842C99 66.5482 98.563 64.8012 98.028 63.8022C97.493 62.8032 96.281 61.6882 95.334 61.3252C93.714 60.7032 93.713 60.7752 95.306 62.5362C96.238 63.5652 97 64.7102 97 65.0792C97 65.4482 96.386 65.7502 95.635 65.7502C94.884 65.7502 93.161 64.8782 91.806 63.8122C90.451 62.7462 88.028 61.6112 86.421 61.2892C84.14 60.8322 83.938 60.9052 85.5 61.6232C86.6 62.1292 88.796 63.9122 90.38 65.5862C92.206 67.5172 93.031 69.2282 92.633 70.2632C92.289 71.1602 92.471 72.7622 93.039 73.8222C93.903 75.4372 93.735 75.7502 92 75.7502C90.861 75.7502 88.856 75.0472 87.544 74.1872C85.312 72.7242 84.893 72.7932 80.985 75.2592C78.689 76.7092 76.587 77.6712 76.314 77.3972C76.04 77.1242 77.631 75.6992 79.849 74.2312C82.52 72.4642 84.103 70.5562 84.536 68.5852C84.896 66.9472 85.018 65.4352 84.808 65.2252C84.598 65.0152 81.518 66.6662 77.963 68.8952C74.408 71.1242 71.078 73.3472 70.563 73.8352C69.991 74.3782 70.546 75.7022 71.988 77.2372C73.286 78.6192 73.881 79.7502 73.309 79.7502C72.737 79.7502 71.084 78.8172 69.635 77.6772C68.186 76.5382 67 74.9862 67 74.2312C67 73.4752 70.581 70.4882 74.957 67.5942C79.334 64.6992 82.743 62.1592 82.533 61.9502C82.323 61.7402 81.047 62.1722 79.698 62.9092C78.349 63.6472 74.496 65.6862 71.137 67.4422L65.029 70.6342L58.025 65.9422C54.173 63.3612 51.017 60.6992 51.011 60.0262C51.005 59.3522 52.328 58.1152 53.95 57.2762C55.573 56.4372 57.261 55.7652 57.7 55.7832C58.14 55.8022 57.424 56.7132 56.108 57.8082C54.793 58.9042 53.893 59.9412 54.108 60.1132C54.324 60.2852 56.606 61.8492 59.18 63.5882C61.754 65.3272 64.263 66.7502 64.756 66.7502C65.248 66.7502 66.712 65.6212 68.008 64.2422L70.364 61.7342L68.12 58.6982C66.822 56.9432 66.007 54.5982 66.188 53.1372L66.5 50.6112L68.677 52.6512C69.99 53.8822 71 54.2502 71.223 53.5802C71.451 52.8972 73.184 53.4722 75.713 55.0692C77.978 56.4992 80.135 58.1592 80.505 58.7582C80.984 59.5342 81.584 59.5102 82.589 58.6762C83.365 58.0322 84 57.1102 84 56.6282C84 56.1452 82.736 55.7502 81.191 55.7502C79.646 55.7502 77.553 55.1432 76.538 54.4022C75.484 53.6312 75.01 52.5432 75.431 51.8612C75.855 51.1752 77.089 50.9362 78.334 51.2982C79.667 51.6862 79.058 50.9182 76.75 49.3032C74.688 47.8592 73 46.2702 73 45.7712C73 45.2722 74 44.1632 75.223 43.3072C76.445 42.4512 77.799 41.7502 78.231 41.7502C78.663 41.7502 78.451 42.6772 77.758 43.8112C76.684 45.5702 76.784 46.0832 78.441 47.3112C79.509 48.1022 82.085 48.7502 84.165 48.7502C87.347 48.7502 88.192 48.2792 89.48 45.7882C90.936 42.9722 90.901 42.7672 88.759 41.6212C87.371 40.8782 86.985 40.2552 87.753 39.9992C88.439 39.7702 89 39.1412 89 38.5992C89 38.0522 88.06 37.9142 86.882 38.2882C85.366 38.7682 84.889 38.5822 85.206 37.6332C85.449 36.9022 86.74 36.0002 88.074 35.6272L90.5 34.9492L88 34.8562C86.625 34.8052 84.166 35.6432 82.535 36.7182C80.37 38.1442 79.373 38.3532 78.839 37.4892C78.341 36.6832 77.885 36.9352 77.409 38.2782C77.024 39.3632 75.763 41.0272 74.605 41.9782C73.447 42.9282 71.911 43.7162 71.191 43.7282C70.471 43.7402 70.157 43.3052 70.493 42.7612C70.835 42.2082 70.461 42.0202 69.642 42.3342C68.838 42.6422 66.677 42.1202 64.84 41.1742C63.003 40.2282 60.037 38.3422 58.25 36.9832C56.463 35.6242 55 33.8642 55 33.0722C55 32.2802 54.55 31.9102 54 32.2502C53.45 32.5902 53 33.7412 53 34.8092C53 35.8982 52.318 36.7502 51.445 36.7502C50.59 36.7502 46.477 34.5002 42.306 31.7502C38.135 29.0002 33.773 26.7692 32.611 26.7922C31.45 26.8152 29.02 27.6232 27.212 28.5872ZM41 28.2502C41 28.5252 41.225 28.7502 41.5 28.7502C41.775 28.7502 42 28.5252 42 28.2502C42 27.9752 41.775 27.7502 41.5 27.7502C41.225 27.7502 41 27.9752 41 28.2502ZM95.405 28.9052C94.962 29.6202 95.13 29.7882 95.845 29.3452C96.48 28.9532 97 28.4342 97 28.1912C97 27.9482 96.802 27.7502 96.559 27.7502C96.316 27.7502 95.797 28.2702 95.405 28.9052ZM43.5 29.7502C43.84 30.3002 44.343 30.7502 44.618 30.7502C44.893 30.7502 44.84 30.3002 44.5 29.7502C44.16 29.2002 43.657 28.7502 43.382 28.7502C43.107 28.7502 43.16 29.2002 43.5 29.7502ZM93 30.2502C93 30.5252 93.225 30.7502 93.5 30.7502C93.775 30.7502 94 30.5252 94 30.2502C94 29.9752 93.775 29.7502 93.5 29.7502C93.225 29.7502 93 29.9752 93 30.2502ZM18.656 32.8662C16.541 33.9822 15.022 35.1052 15.28 35.3632C15.537 35.6212 17.38 34.8692 19.374 33.6922C21.368 32.5152 23 31.3722 23 31.1512C23 30.9312 22.888 30.7702 22.75 30.7942C22.612 30.8192 20.77 31.7512 18.656 32.8662ZM46 31.2502C46 31.5252 46.225 31.7502 46.5 31.7502C46.775 31.7502 47 31.5252 47 31.2502C47 30.9752 46.775 30.7502 46.5 30.7502C46.225 30.7502 46 30.9752 46 31.2502ZM119 33.7502C117.822 34.5112 117.794 34.7232 118.872 34.7352C119.979 34.7472 120.004 35.0412 119 36.2502C118.315 37.0752 117.135 37.7502 116.378 37.7502C115.62 37.7502 115 38.1882 115 38.7242C115 39.2602 113.65 40.3972 112 41.2502C110.35 42.1032 109 43.2612 109 43.8242C109 44.3862 110.994 43.4742 113.43 41.7982C115.867 40.1222 118.205 38.7502 118.626 38.7502C119.048 38.7502 117.931 40.2582 116.144 42.1012L112.896 45.4522L115.516 47.1682C118.06 48.8352 118.237 48.8072 121.682 46.1792C125.011 43.6402 125.198 43.1982 124.723 38.9882C124.445 36.5212 123.606 34.1152 122.859 33.6422C122.112 33.1682 121.275 32.7812 121 32.7812C120.725 32.7812 119.825 33.2172 119 33.7502ZM95.5 35.2682C96.6 36.1642 98.4 37.3382 99.5 37.8782L101.5 38.8602L99.5 37.2322C98.4 36.3362 96.6 35.1622 95.5 34.6222L93.5 33.6402L95.5 35.2682ZM91 36.2502C91 36.5252 91.225 36.7502 91.5 36.7502C91.775 36.7502 92 36.5252 92 36.2502C92 35.9752 91.775 35.7502 91.5 35.7502C91.225 35.7502 91 35.9752 91 36.2502ZM94 38.2502C94 38.5252 94.225 38.7502 94.5 38.7502C94.775 38.7502 95 38.5252 95 38.2502C95 37.9752 94.775 37.7502 94.5 37.7502C94.225 37.7502 94 37.9752 94 38.2502ZM8.933 40.7282C8.071 41.2322 6.166 41.8622 4.7 42.1282C3.233 42.3942 1.576 42.8942 1.016 43.2402C0.456999 43.5852 0 46.7342 0 50.2382C0 54.5772 0.479997 57.0872 1.506 58.1132C2.334 58.9412 3.892 59.8982 4.968 60.2402C6.044 60.5812 7.831 60.3762 8.939 59.7822C10.047 59.1892 11.416 57.8422 11.98 56.7882C12.69 55.4612 12.677 54.6682 11.938 54.2122C11.351 53.8492 9.324 53.8422 7.435 54.1962C5.546 54.5512 4 54.4382 4 53.9472C4 53.4562 5.875 52.3172 8.166 51.4172C11.256 50.2032 12.676 50.0662 13.666 50.8882C14.68 51.7292 15 51.6252 15 50.4542C15 49.6072 14.712 48.1642 14.361 47.2482C13.849 45.9142 13.547 45.8482 12.843 46.9162C12.139 47.9842 11.757 47.9002 10.929 46.4942C10.196 45.2502 9.181 44.9182 7.447 45.3532C6.101 45.6902 5 45.5402 5 45.0192C5 44.4982 6.146 43.5492 7.547 42.9112C8.948 42.2722 10.892 41.7502 11.867 41.7502C12.842 41.7502 15.551 43.3852 17.886 45.3842C20.648 47.7492 22.473 48.6772 23.108 48.0422C23.744 47.4062 23.633 46.6952 22.792 46.0042C22.082 45.4202 19.295 43.7742 16.601 42.3462C13.907 40.9182 11.432 39.7642 11.101 39.7802C10.77 39.7972 9.795 40.2232 8.933 40.7282ZM97 40.2502C97 40.5252 97.225 40.7502 97.5 40.7502C97.775 40.7502 98 40.5252 98 40.2502C98 39.9752 97.775 39.7502 97.5 39.7502C97.225 39.7502 97 39.9752 97 40.2502ZM100.5 42.7502C100.84 43.3002 101.343 43.7502 101.618 43.7502C101.893 43.7502 101.84 43.3002 101.5 42.7502C101.16 42.2002 100.657 41.7502 100.382 41.7502C100.107 41.7502 100.16 42.2002 100.5 42.7502ZM100 45.2502C100 45.5252 100.225 45.7502 100.5 45.7502C100.775 45.7502 101 45.5252 101 45.2502C101 44.9752 100.775 44.7502 100.5 44.7502C100.225 44.7502 100 44.9752 100 45.2502ZM97 47.2502C97 47.5252 97.225 47.7502 97.5 47.7502C97.775 47.7502 98 47.5252 98 47.2502C98 46.9752 97.775 46.7502 97.5 46.7502C97.225 46.7502 97 46.9752 97 47.2502ZM97.5 50.1562C94.75 51.9742 91.709 54.3532 90.742 55.4432C89.055 57.3452 89.075 57.5022 91.242 59.3112C92.484 60.3482 92.938 60.5562 92.25 59.7732C91.563 58.9912 91 58.0292 91 57.6382C91 57.2462 93.956 54.8172 97.568 52.2392C101.84 49.1902 104.811 47.7292 106.069 48.0582C107.133 48.3362 107.751 48.1552 107.442 47.6572C107.134 47.1582 105.896 46.7732 104.691 46.8012C103.486 46.8282 100.25 48.3392 97.5 50.1562ZM94 49.2502C94 49.5252 94.225 49.7502 94.5 49.7502C94.775 49.7502 95 49.5252 95 49.2502C95 48.9752 94.775 48.7502 94.5 48.7502C94.225 48.7502 94 48.9752 94 49.2502ZM20.846 53.2672C18.286 54.6002 15.248 56.8902 14.096 58.3552C12.722 60.1022 12 62.4702 12 65.2302C12 68.0392 12.609 69.9912 13.829 71.0952C14.835 72.0052 17.197 72.7452 19.079 72.7392C20.96 72.7332 24.188 72.4492 26.25 72.1082C28.313 71.7672 30 71.0972 30 70.6192C30 70.1412 27.862 69.7432 25.25 69.7352C21.815 69.7242 20.915 69.4512 22 68.7502C22.825 68.2172 25.386 67.7742 27.691 67.7652C29.996 67.7572 32.159 67.3022 32.497 66.7542C32.836 66.2072 31.962 65.2342 30.556 64.5942C28.635 63.7182 27.379 63.7122 25.5 64.5682C24.072 65.2192 23 65.3032 23 64.7642C23 64.2452 23.9 63.3392 25 62.7502C26.399 62.0012 27 60.6562 27 58.2742C27 56.4012 27.45 54.5902 28 54.2502C28.55 53.9102 29 54.1122 29 54.6992C29 55.3932 29.707 55.3262 31.017 54.5082C32.895 53.3372 32.916 53.1642 31.326 52.0002C30.386 51.3132 28.691 50.7712 27.559 50.7972C26.426 50.8222 23.406 51.9342 20.846 53.2672ZM90.405 51.9052C89.962 52.6202 90.13 52.7882 90.845 52.3452C91.48 51.9532 92 51.4342 92 51.1912C92 50.9482 91.802 50.7502 91.559 50.7502C91.316 50.7502 90.797 51.2702 90.405 51.9052ZM81 52.2502C81 52.5252 81.225 52.7502 81.5 52.7502C81.775 52.7502 82 52.5252 82 52.2502C82 51.9752 81.775 51.7502 81.5 51.7502C81.225 51.7502 81 51.9752 81 52.2502ZM39.5 53.7502C39.84 54.3002 40.343 54.7502 40.618 54.7502C40.893 54.7502 40.84 54.3002 40.5 53.7502C40.16 53.2002 39.657 52.7502 39.382 52.7502C39.107 52.7502 39.16 53.2002 39.5 53.7502ZM34 54.2402C34 54.4922 35.392 55.4182 37.093 56.2982C38.794 57.1782 40.363 57.7202 40.58 57.5032C40.797 57.2862 39.406 56.3602 37.487 55.4452C35.569 54.5312 34 53.9892 34 54.2402ZM42.733 55.8742C43.412 56.5582 44.219 56.8652 44.526 56.5572C44.834 56.2492 44.279 55.6902 43.293 55.3142C41.868 54.7722 41.753 54.8862 42.733 55.8742ZM34.2 59.8012C33.115 61.5392 33.255 61.7502 35.492 61.7502C36.871 61.7502 38 61.3552 38 60.8722C38 60.3902 37.419 59.5132 36.709 58.9232C35.75 58.1282 35.104 58.3532 34.2 59.8012ZM53.615 69.2932C56.381 71.9022 56.957 73.0722 56.458 75.0612C56.012 76.8392 56.324 77.8322 57.544 78.5152C58.74 79.1842 58.907 79.6902 58.098 80.1902C57.46 80.5842 54.466 79.5112 51.445 77.8062C47.13 75.3712 45.542 74.9252 44.042 75.7282C42.991 76.2902 41.582 76.7502 40.91 76.7502C40.238 76.7502 40.829 75.7382 42.223 74.5002C43.633 73.2482 45.045 70.6312 45.405 68.6012C45.948 65.5432 46.385 65.0382 48.099 65.4862C49.224 65.7802 51.706 67.4942 53.615 69.2932ZM53 75.2502C53 75.5252 53.225 75.7502 53.5 75.7502C53.775 75.7502 54 75.5252 54 75.2502C54 74.9752 53.775 74.7502 53.5 74.7502C53.225 74.7502 53 74.9752 53 75.2502Z" fill="#55443A"/>
</svg>
