<svg width="1107" height="175" viewBox="0 0 1107 175" fill="none" xmlns="http://www.w3.org/2000/svg">
<path fill-rule="evenodd" clip-rule="evenodd" d="M120 1.15701C117.8 1.60401 114.327 2.67801 112.282 3.54501C110.237 4.41101 106.541 5.12001 104.069 5.12001C101.597 5.12001 97.291 4.22001 94.5 3.12001C91.643 1.99401 87.068 1.12001 84.028 1.12001C81.059 1.12001 77.363 1.59601 75.815 2.17801C74.267 2.76001 71.541 4.22301 69.757 5.42801C67.973 6.63401 66.511 8.38101 66.507 9.31101C66.503 10.241 66.978 11.298 67.563 11.659C68.148 12.02 69.385 11.651 70.313 10.839C71.241 10.026 73.44 8.63201 75.2 7.74101C76.961 6.84901 80.786 6.12001 83.7 6.12101C86.615 6.12101 91.367 7.02101 94.261 8.12101C97.154 9.22001 101.525 10.12 103.973 10.12C106.422 10.12 110.804 9.25601 113.712 8.20001C116.621 7.14501 120.425 5.99201 122.166 5.63901C123.908 5.28701 127.11 5.47601 129.282 6.06101C131.454 6.64601 134.979 8.53202 137.115 10.253C139.252 11.973 142.8 14.212 145 15.229C147.786 16.515 151.362 17.083 156.782 17.098C161.5 17.111 166.028 17.731 168.282 18.671C170.327 19.524 173.481 21.654 175.291 23.406C177.421 25.468 179.132 28.535 180.143 32.105C181.002 35.138 182.819 39.561 184.182 41.933C185.693 44.565 188.673 47.539 191.829 49.563C194.673 51.388 197.77 53.738 198.712 54.787C199.653 55.835 201.116 58.35 201.962 60.374C202.808 62.399 203.5 65.854 203.5 68.051C203.5 70.248 202.6 74.329 201.5 77.12C200.4 79.911 199.5 84.411 199.5 87.12C199.5 89.829 200.4 94.329 201.5 97.12C202.6 99.911 203.5 104.217 203.5 106.689C203.5 109.161 202.877 112.676 202.115 114.499C201.353 116.322 198.834 119.345 196.517 121.217C194.2 123.089 190.746 125.927 188.843 127.525C186.94 129.123 184.482 132.195 183.382 134.351C182.282 136.508 181.521 139.441 181.691 140.869C181.861 142.297 182.553 143.647 183.229 143.869C183.938 144.102 185.457 142.014 186.818 138.935C188.161 135.899 190.76 132.309 192.846 130.609C194.862 128.965 198.156 126.273 200.165 124.627C202.173 122.981 204.866 119.381 206.149 116.627C207.55 113.619 208.484 109.728 208.49 106.881C208.496 104.274 207.6 99.774 206.501 96.881C205.401 93.987 204.501 89.579 204.501 87.085C204.5 84.591 205.448 79.866 206.606 76.585C208.173 72.145 208.572 69.243 208.164 65.231C207.814 61.796 206.582 58.17 204.765 55.231C203.051 52.457 199.678 49.139 196.299 46.903C193.211 44.859 189.789 41.93 188.695 40.394C187.602 38.858 186.163 35.583 185.499 33.116C184.835 30.65 183.479 27.054 182.487 25.126C181.495 23.198 179.404 20.434 177.842 18.984C176.279 17.534 173.425 15.53 171.5 14.529C168.997 13.229 165.58 12.676 159.5 12.59C154.825 12.523 149.875 12.113 148.5 11.678C147.125 11.244 143.749 9.17201 140.998 7.07301C138.246 4.97501 134.871 2.84001 133.498 2.32901C132.124 1.81801 129.425 1.16201 127.5 0.872013C125.575 0.582013 122.2 0.710013 120 1.15701ZM36.929 15.477C34.14 16.789 30.416 19.608 28.652 21.741C26.79 23.994 24.571 28.553 23.357 32.618C21.689 38.205 20.403 40.422 16.978 43.618C14.618 45.819 11.001 48.962 8.94003 50.603C6.87903 52.244 4.14102 55.844 2.85602 58.603C1.45102 61.62 0.51604 65.509 0.51004 68.359C0.50404 70.966 1.40002 75.466 2.49902 78.359C3.59902 81.253 4.49902 85.661 4.49902 88.155C4.50002 90.649 3.55204 95.374 2.39404 98.655C0.840042 103.057 0.429026 106.008 0.827026 109.917C1.14203 113.021 2.46204 117.087 4.01504 119.735C5.47204 122.221 8.50802 125.463 10.762 126.938C13.017 128.413 16.513 131.257 18.533 133.258C20.95 135.652 22.615 138.518 23.401 141.642C24.059 144.253 25.434 148.016 26.457 150.004C27.48 151.993 29.596 154.806 31.158 156.256C32.721 157.706 35.513 159.656 37.363 160.59C39.212 161.524 43.051 162.528 45.893 162.821C49.851 163.23 51.366 162.986 52.366 161.781C53.085 160.916 53.382 159.738 53.027 159.164C52.672 158.59 50.594 158.12 48.409 158.12C46.224 158.12 42.763 157.422 40.718 156.569C38.673 155.716 35.519 153.586 33.709 151.834C31.579 149.772 29.868 146.705 28.857 143.135C27.998 140.102 26.181 135.679 24.818 133.307C23.307 130.675 20.327 127.701 17.171 125.677C14.327 123.852 11.23 121.502 10.288 120.453C9.34702 119.405 7.88402 116.89 7.03802 114.866C6.19202 112.841 5.50003 109.386 5.50003 107.189C5.50003 104.992 6.40003 100.911 7.50003 98.12C8.60003 95.329 9.50003 90.829 9.50003 88.12C9.50003 85.411 8.60003 80.911 7.50003 78.12C6.40003 75.329 5.50003 71.023 5.50003 68.551C5.50003 66.079 6.12304 62.564 6.88504 60.741C7.64704 58.918 10.173 55.895 12.498 54.023C14.824 52.151 18.4 49.173 20.445 47.405C22.491 45.637 24.898 42.487 25.795 40.405C26.691 38.323 27.911 34.702 28.505 32.357C29.098 30.012 30.977 26.507 32.679 24.569C34.382 22.63 36.725 20.533 37.887 19.909C39.049 19.286 42.7 18.515 46 18.198C51.141 17.703 52 17.334 52 15.62C52 13.922 51.245 13.58 47 13.356C43.397 13.166 40.583 13.758 36.929 15.477ZM103.188 21.766C102.809 22.144 102.5 27.778 102.5 34.287C102.5 44.787 102.275 46.345 100.5 48.12C98.803 49.817 97.167 50.12 89.691 50.12C83.668 50.12 80.268 49.672 78.941 48.702C77.273 47.484 76.952 45.787 76.657 36.647C76.359 27.389 76.1 26.05 74.657 26.325C73.282 26.587 72.915 28.394 72.5 36.964C72.078 45.681 71.698 47.508 70.059 48.704C68.751 49.658 65.386 50.12 59.743 50.12C55.137 50.12 50.498 49.654 49.434 49.085C47.985 48.309 47.5 46.978 47.5 43.776C47.5 41.425 46.893 38.673 46.152 37.658C45.41 36.644 44.285 36.135 43.652 36.526C43.018 36.918 42.5 39.236 42.5 41.679C42.5 44.787 41.9 46.72 40.5 48.12C39.389 49.231 37.167 50.12 35.5 50.12C33.167 50.12 32.5 50.564 32.5 52.12C32.5 53.676 33.167 54.12 35.5 54.12C37.167 54.12 39.389 55.009 40.5 56.12C42.275 57.895 42.498 59.441 42.485 69.87C42.476 76.333 42.044 82.295 41.524 83.12C40.829 84.224 37.994 84.752 30.79 85.12C21.833 85.577 21 85.79 21 87.62C21 89.45 21.833 89.663 30.79 90.12C37.994 90.488 40.829 91.016 41.524 92.12C42.044 92.945 42.476 98.907 42.485 105.37C42.498 115.799 42.275 117.345 40.5 119.12C39.389 120.231 37.167 121.12 35.5 121.12C33.167 121.12 32.5 121.564 32.5 123.12C32.5 124.676 33.167 125.12 35.5 125.12C37.167 125.12 39.389 126.009 40.5 127.12C41.9 128.52 42.5 130.453 42.5 133.561C42.5 136.004 42.97 138.292 43.544 138.647C44.118 139.002 45.243 138.748 46.044 138.084C46.952 137.33 47.5 135.052 47.5 132.033C47.5 128.269 47.931 126.96 49.434 126.155C50.498 125.586 55.223 125.12 59.934 125.12C67.167 125.12 68.811 125.431 70.5 127.12C72.233 128.853 72.5 130.453 72.5 139.12C72.5 148.294 72.658 149.12 74.409 149.12C76.146 149.12 76.349 148.166 76.659 138.538C76.952 129.451 77.274 127.755 78.941 126.538C80.261 125.574 83.641 125.12 89.5 125.12C95.353 125.12 98.74 125.574 100.059 126.536C101.755 127.773 102.063 129.575 102.5 140.786C102.91 151.305 103.271 153.62 104.5 153.62C105.727 153.62 106.045 151.622 106.247 142.62C106.382 136.57 106.736 130.578 107.032 129.304C107.366 127.872 108.893 126.436 111.036 125.541C112.941 124.745 114.5 123.655 114.5 123.12C114.5 122.585 112.941 121.495 111.036 120.699C108.815 119.771 107.346 118.356 106.945 116.758C106.601 115.386 106.472 109.264 106.66 103.154C106.921 94.639 107.35 91.823 108.5 91.097C109.325 90.577 114.362 90.144 119.693 90.135C128.586 90.121 129.515 90.304 130.943 92.343C132.106 94.002 132.5 97.153 132.5 104.777C132.5 110.394 132.057 116.154 131.517 117.577C130.859 119.306 129.533 120.363 127.517 120.767C125.54 121.162 124.5 121.973 124.5 123.12C124.5 124.267 125.54 125.078 127.517 125.473C129.533 125.877 130.859 126.934 131.517 128.663C132.057 130.086 132.5 135.271 132.5 140.185C132.5 148.453 132.649 149.12 134.5 149.12C136.367 149.12 136.5 148.453 136.5 139.12C136.5 130.453 136.767 128.853 138.5 127.12C140.189 125.431 141.833 125.12 149.066 125.12C153.777 125.12 158.502 125.586 159.566 126.155C161.015 126.931 161.5 128.262 161.5 131.464C161.5 133.815 162.107 136.567 162.848 137.582C163.59 138.596 164.715 139.105 165.348 138.714C165.982 138.322 166.5 136.004 166.5 133.561C166.5 130.453 167.1 128.52 168.5 127.12C169.611 126.009 171.833 125.12 173.5 125.12C175.833 125.12 176.5 124.676 176.5 123.12C176.5 121.564 175.833 121.12 173.5 121.12C171.833 121.12 169.611 120.231 168.5 119.12C167.262 117.882 166.5 115.787 166.5 113.62C166.5 110.853 166.104 110.12 164.607 110.12C163.566 110.12 162.441 110.832 162.107 111.702C161.773 112.572 161.5 114.581 161.5 116.167C161.5 117.994 160.791 119.429 159.566 120.085C158.502 120.654 153.777 121.12 149.066 121.12C141.833 121.12 140.189 120.809 138.5 119.12C136.724 117.344 136.5 115.787 136.5 105.191C136.5 95.574 136.811 92.952 138.105 91.658C139.408 90.355 141.601 90.106 149.749 90.336C157.44 90.554 159.974 90.971 160.584 92.12C161.022 92.945 161.649 94.887 161.976 96.436C162.385 98.369 163.097 99.152 164.246 98.93C165.222 98.742 166.202 97.234 166.594 95.313C166.965 93.501 167.581 91.704 167.963 91.319C168.345 90.935 173.009 90.395 178.329 90.12C187.167 89.663 188 89.448 188 87.62C188 85.79 187.167 85.577 178.21 85.12C171.006 84.752 168.171 84.224 167.476 83.12C166.956 82.295 166.524 76.333 166.515 69.87C166.502 59.441 166.725 57.895 168.5 56.12C169.611 55.009 171.833 54.12 173.5 54.12C175.833 54.12 176.5 53.676 176.5 52.12C176.5 50.564 175.833 50.12 173.5 50.12C171.833 50.12 169.611 49.231 168.5 48.12C167.1 46.72 166.5 44.787 166.5 41.679C166.5 39.236 166.03 36.948 165.456 36.593C164.882 36.238 163.757 36.492 162.956 37.156C162.048 37.91 161.5 40.188 161.5 43.207C161.5 46.971 161.069 48.28 159.566 49.085C158.502 49.654 153.863 50.12 149.257 50.12C143.614 50.12 140.249 49.658 138.941 48.704C137.302 47.508 136.922 45.681 136.5 36.964C136.085 28.394 135.718 26.587 134.343 26.325C132.9 26.05 132.641 27.389 132.343 36.647C132.048 45.787 131.727 47.484 130.059 48.702C128.739 49.666 125.359 50.12 119.5 50.12C113.647 50.12 110.26 49.666 108.941 48.704C107.247 47.468 106.936 45.666 106.5 34.534C106.199 26.853 105.577 21.641 104.938 21.429C104.353 21.236 103.566 21.388 103.188 21.766ZM71.081 56.561C72.115 57.975 72.496 61.64 72.485 70.061C72.476 76.419 72.1 82.202 71.649 82.912C71.198 83.623 69.518 84.556 67.915 84.984C66.022 85.491 65 86.415 65 87.62C65 88.825 66.022 89.749 67.915 90.256C69.518 90.684 71.198 91.617 71.649 92.328C72.1 93.038 72.476 98.907 72.485 105.37C72.498 115.799 72.275 117.345 70.5 119.12C68.811 120.809 67.167 121.12 59.934 121.12C55.223 121.12 50.498 120.654 49.434 120.085C47.67 119.141 47.5 117.875 47.5 105.707C47.5 96.248 47.864 92.066 48.75 91.338C49.438 90.774 51.125 90.156 52.5 89.966C54.218 89.728 55 88.994 55 87.62C55 86.246 54.218 85.512 52.5 85.274C51.125 85.084 49.438 84.466 48.75 83.902C47.863 83.173 47.5 78.979 47.5 69.465C47.5 56.508 47.576 56.023 49.75 55.103C50.988 54.58 55.974 54.257 60.831 54.385C68.254 54.583 69.889 54.93 71.081 56.561ZM98.957 55.103C100.686 55.761 101.743 57.087 102.147 59.103C102.542 61.08 103.353 62.12 104.5 62.12C105.647 62.12 106.458 61.08 106.853 59.103C107.269 57.025 108.318 55.756 110.228 55.021C111.753 54.435 116.69 54.105 121.2 54.288C126.185 54.49 129.911 55.13 130.7 55.92C131.633 56.853 132 60.887 132 70.206C132 80.662 131.708 83.378 130.5 84.141C129.675 84.663 124.725 85.089 119.5 85.089C114.275 85.089 109.41 84.715 108.689 84.258C107.968 83.801 107.062 81.22 106.677 78.523C106.199 75.185 105.504 73.62 104.5 73.62C103.496 73.62 102.801 75.185 102.323 78.523C101.938 81.22 101.032 83.801 100.311 84.258C99.59 84.715 94.725 85.089 89.5 85.089C84.275 85.089 79.325 84.663 78.5 84.142C77.369 83.429 76.915 80.703 76.654 73.077C76.463 67.512 76.601 61.397 76.959 59.487C77.384 57.224 78.375 55.707 79.805 55.131C81.012 54.645 85.233 54.218 89.185 54.183C93.137 54.149 97.534 54.563 98.957 55.103ZM158.935 55.095L161.5 56.07V69.395C161.5 78.426 161.113 83.107 160.3 83.92C159.531 84.689 155.605 85.12 149.371 85.12C141.861 85.12 139.285 84.762 138.071 83.549C136.821 82.299 136.5 79.577 136.5 70.24C136.5 62.357 136.911 57.985 137.75 56.926C138.438 56.059 139.675 55.109 140.5 54.814C141.325 54.519 145.233 54.242 149.185 54.199C153.137 54.156 157.524 54.559 158.935 55.095ZM100.5 91.097C101.671 91.836 102.072 94.776 102.33 104.502C102.635 116.027 102.504 117.116 100.58 119.04C98.788 120.832 97.279 121.12 89.691 121.12C83.669 121.12 80.268 120.672 78.941 119.703C77.251 118.468 76.956 116.784 76.663 106.66C76.39 97.248 76.632 94.567 77.936 92.577C79.465 90.244 80.038 90.121 89.273 90.135C94.623 90.144 99.675 90.576 100.5 91.097ZM146 159.471C143.25 160.753 140.355 162.581 139.567 163.534C138.779 164.487 136.383 166.16 134.242 167.251C132.102 168.343 128.247 169.285 125.675 169.343C123.104 169.401 118.186 168.475 114.746 167.285C111.306 166.094 106.976 165.12 105.124 165.12C103.271 165.12 98.21 166.278 93.878 167.694C88.06 169.595 84.905 170.104 81.813 169.642C79.511 169.298 75.97 167.892 73.944 166.518C71.919 165.143 69.566 164.154 68.714 164.32C67.863 164.485 66.986 165.158 66.767 165.816C66.548 166.474 68.221 168.354 70.485 169.994C72.749 171.634 76.813 173.45 79.516 174.03C82.219 174.61 85.908 174.821 87.715 174.5C89.522 174.179 93.379 173.062 96.288 172.018C99.196 170.974 103.341 170.12 105.5 170.12C107.659 170.12 111.709 171.02 114.5 172.12C117.397 173.262 121.932 174.12 125.069 174.12C128.091 174.12 132.203 173.435 134.205 172.599C136.207 171.762 139.75 169.517 142.077 167.611C144.404 165.704 147.505 163.688 148.969 163.132C150.433 162.575 153.599 162.12 156.006 162.12C158.413 162.12 160.635 161.711 160.944 161.21C161.253 160.71 161.232 159.585 160.896 158.71C160.459 157.57 158.971 157.123 155.643 157.13C152.895 157.136 148.959 158.091 146 159.471ZM788 38.408C782.661 38.926 777.963 33.141 777.667 35.237C777.343 37.524 777.489 37.574 782.667 36.953C785.6 36.601 790.137 36.061 792.75 35.754C796.56 35.305 801.5 40.925 801.5 39.396C801.5 37.83 800.831 37.52 797.75 37.658C795.688 37.751 791.3 38.088 788 38.408ZM284.5 88.382V130.382H297.5H310.5V127.382V124.382H301H291.5V85.382V46.382H288H284.5V88.382ZM335 47.794C333.35 48.527 330.875 50.345 329.5 51.834L327 54.541L326.716 92.462L326.431 130.382H329.466H332.5V117.882V105.382H340.5H348.5V117.882V130.382H351.534H354.569L354.284 92.462L354 54.541L351.5 51.833C350.125 50.343 347.552 48.507 345.782 47.753C344.012 46.999 341.537 46.4 340.282 46.421C339.027 46.443 336.65 47.06 335 47.794ZM431.5 88.382V130.382H441.374C447.716 130.382 452.813 129.83 455.621 128.839C458.025 127.991 461.496 125.854 463.334 124.089C465.172 122.325 467.536 119.212 468.588 117.172C469.816 114.789 470.5 111.414 470.5 107.738C470.5 103.975 469.784 100.534 468.41 97.697C467.261 95.322 464.673 92.015 462.66 90.347C460.647 88.679 457.988 87.056 456.75 86.74C455.512 86.424 454.5 86.009 454.5 85.818C454.5 85.627 455.624 83.814 456.998 81.789C458.373 79.764 459.99 76.276 460.593 74.037C461.196 71.798 461.41 68.218 461.068 66.082C460.726 63.946 459.603 60.552 458.571 58.54C457.539 56.528 455.638 53.897 454.347 52.694C453.056 51.491 449.975 49.588 447.5 48.466C444.675 47.186 440.859 46.418 437.25 46.404L431.5 46.382V88.382ZM486.5 88.382V130.382H499.5H512.5V127.382V124.382H503H493.5V100.882V77.382H503H512.5V74.382V71.382H503H493.5V61.882V52.382H503H512.5V49.382V46.382H499.5H486.5V88.382ZM527.5 88.382V130.382H540.5H553.5V127.382V124.382H544H534.5V85.382V46.382H531H527.5V88.382ZM569.5 88.382V130.382H582H594.5V127.382V124.382H585H575.5V85.382V46.382H572.5H569.5V88.382ZM610.5 88.382V130.382H623H635.5V127.42V124.457L626.25 124.17L617 123.882L616.732 100.632L616.463 77.382H625.982H635.5V74.382V71.382H626H616.5V61.882V52.382H626H635.5V49.382V46.382H623H610.5V88.382ZM711.5 88.382V130.382H724H736.5V127.42V124.457L727.25 124.17L718 123.882L717.738 85.132L717.477 46.382H714.488H711.5V88.382ZM752.5 88.382V130.382H756H759.5V88.382V46.382H756H752.5V88.382ZM774.5 88.382V130.382H787.5H800.5V127.382V124.382H791H781.5V100.882V77.382H791H800.5V74.382V71.382H791H781.5V61.882V52.382H791H800.5V49.382V46.382H787.5H774.5V88.382ZM847.392 47.831C844.858 48.53 840.431 50.383 837.553 51.95C834.676 53.516 830.144 57.18 827.482 60.092C824.821 63.004 821.4 67.973 819.882 71.134C817.617 75.847 817.047 78.592 816.716 86.382C816.378 94.337 816.664 96.815 818.473 101.62C819.662 104.775 822.067 109.483 823.817 112.081C825.568 114.679 829.32 118.686 832.156 120.986C834.992 123.286 839.735 126.075 842.696 127.182C845.656 128.29 850.198 129.514 852.789 129.903L857.5 130.609V118.496V106.382H854.5H851.5V114.949C851.5 123.367 851.461 123.505 849.25 122.842C848.013 122.472 845.102 121.348 842.783 120.346C840.463 119.343 836.307 116.411 833.547 113.829C830.787 111.247 827.286 106.603 825.768 103.508C823.331 98.54 823.013 96.77 823.045 88.382C823.074 80.8 823.521 77.921 825.259 74.123C826.457 71.506 829.588 67.052 832.218 64.227C835.111 61.119 839.37 57.962 843 56.237C846.3 54.667 849.9 53.377 851 53.369C852.1 53.361 854.013 53.083 855.25 52.752C856.924 52.303 857.5 51.41 857.5 49.265C857.5 46.765 857.135 46.394 854.75 46.471C853.237 46.521 849.927 47.133 847.392 47.831ZM873.5 88.382V130.382H886H898.5V127.42V124.457L889.25 124.17L880 123.882L879.732 100.632L879.463 77.382H888.982H898.5V74.382V71.382H889H879.5V61.882V52.382H889H898.5V49.382V46.382H886H873.5V88.382ZM945.524 47.921C942.513 48.765 938.107 50.594 935.735 51.985C933.362 53.375 929.902 55.846 928.047 57.475C926.191 59.104 923.237 62.676 921.481 65.411C919.725 68.147 917.437 73.125 916.395 76.473C915.353 79.821 914.5 85.173 914.5 88.366C914.5 91.559 915.405 97.101 916.511 100.681C917.659 104.4 920.384 109.722 922.867 113.094C925.298 116.396 929.588 120.55 932.606 122.523C935.573 124.463 939.883 126.785 942.184 127.682C944.485 128.579 949.221 129.605 952.71 129.963C957.17 130.419 960.943 130.128 965.421 128.981C968.924 128.083 974.015 126.138 976.734 124.658C979.454 123.178 983.856 119.584 986.518 116.672C989.179 113.76 992.627 108.791 994.178 105.63C996.778 100.334 997 98.975 997 88.361C997 77.396 996.844 76.523 993.766 70.272C991.743 66.161 988.472 61.754 985.025 58.494C981.996 55.629 976.588 51.914 973.008 50.239C967.993 47.892 964.72 47.1 958.749 46.789C953.671 46.524 949.112 46.914 945.524 47.921ZM1013.5 88.382V130.382H1017H1020.5V88.382V46.382H1017H1013.5V88.382ZM1045 47.794C1043.35 48.527 1040.88 50.338 1039.52 51.818C1037.44 54.072 1036.97 55.717 1036.66 61.954C1036.45 66.048 1036.58 70.986 1036.94 72.925C1037.37 75.178 1040.96 80.863 1046.89 88.667C1051.99 95.385 1056.7 101.865 1057.34 103.066C1057.98 104.268 1058.5 108.352 1058.5 112.142C1058.5 118.053 1058.17 119.343 1056.19 121.208C1054.72 122.588 1052.59 123.382 1050.36 123.382C1047.98 123.382 1046.15 122.635 1044.67 121.068C1042.93 119.206 1042.5 117.542 1042.5 112.568V106.382H1039.5H1036.5V113.234C1036.5 118.693 1036.96 120.777 1038.77 123.484C1040.02 125.353 1042.61 127.693 1044.52 128.684C1046.79 129.861 1049.31 130.326 1051.79 130.024C1053.87 129.77 1056.71 128.822 1058.09 127.918C1059.47 127.013 1061.47 124.835 1062.54 123.078C1064.07 120.572 1064.49 118.047 1064.49 111.382C1064.49 104.472 1064.09 102.227 1062.36 99.382C1061.19 97.457 1056.76 91.382 1052.52 85.882C1048.27 80.382 1044.28 74.899 1043.65 73.698C1043.02 72.496 1042.5 68.412 1042.5 64.622C1042.5 58.57 1042.8 57.445 1044.99 55.39C1046.47 54.003 1048.71 53.049 1050.5 53.049C1052.29 53.049 1054.53 54.003 1056.01 55.39C1058.16 57.406 1058.5 58.607 1058.5 64.056V70.382H1061.61H1064.71L1064.35 62.458C1064.04 55.682 1063.63 54.143 1061.5 51.829C1060.12 50.342 1057.55 48.507 1055.78 47.753C1054.01 46.999 1051.54 46.4 1050.28 46.421C1049.03 46.443 1046.65 47.06 1045 47.794ZM1080.5 88.382V130.382H1093.5H1106.5V127.382V124.382H1097H1087.5V100.882V77.382H1097H1106.5V74.382V71.382H1097H1087.5V61.882V52.382H1097H1106.5V49.382V46.382H1093.5H1080.5V88.382ZM346.25 55.671C348.445 57.681 348.5 58.236 348.5 78.556V99.382H340.5H332.5V78.556C332.5 58.233 332.554 57.681 334.75 55.684C335.987 54.558 337.675 53.394 338.5 53.098C339.325 52.802 340.9 52.797 342 53.086C343.1 53.375 345.013 54.539 346.25 55.671ZM446.997 55.285C448.645 56.223 451.007 58.495 452.247 60.334C453.867 62.739 454.5 65.139 454.5 68.882C454.5 72.633 453.872 75.01 452.25 77.392C451.012 79.21 448.875 81.504 447.5 82.488C446.125 83.473 443.313 84.577 441.25 84.941L437.5 85.605V68.914V52.223L440.75 52.902C442.537 53.275 445.348 54.347 446.997 55.285ZM971.159 56.353C974.546 57.914 979.145 61.075 981.379 63.377C983.613 65.679 986.692 70.11 988.221 73.222C990.668 78.205 991 80.018 991 88.382C991 96.725 990.665 98.565 988.245 103.491C986.73 106.577 983.119 111.344 980.22 114.086C976.804 117.316 972.847 119.859 968.975 121.311C964.102 123.139 961.432 123.49 954.5 123.212C948.003 122.952 944.822 122.296 941 120.426C938.25 119.081 933.707 115.695 930.904 112.9C927.534 109.541 925.109 105.954 923.747 102.312C922.613 99.282 921.376 94.737 920.997 92.212C920.604 89.591 920.829 85.102 921.52 81.751C922.186 78.523 923.611 74.15 924.687 72.033C925.762 69.915 928.459 66.212 930.68 63.803C932.9 61.394 937.051 58.281 939.904 56.885C942.757 55.49 947.095 53.936 949.545 53.433C951.995 52.93 956.475 52.743 959.5 53.017C962.525 53.291 967.771 54.792 971.159 56.353ZM457.116 93.944C458.634 95.078 460.755 97.182 461.828 98.619C462.901 100.057 463.993 103.453 464.253 106.167C464.586 109.625 464.198 112.216 462.957 114.83C461.984 116.882 459.536 119.653 457.517 120.989C454.703 122.852 451.942 123.565 445.674 124.048L437.5 124.678V107.928V91.177L445.927 91.529C452.505 91.805 454.961 92.335 457.116 93.944Z" fill="#664228"/>
</svg>
