<svg id="Calque_1" xmlns="http://www.w3.org/2000/svg" viewBox="0 0 216.53 216.26"><style>.st0{fill:#fffbea}</style><path class="st0" d="M135.03 127.33c-.05 0-.11 0-.16-.01a.966.966 0 0 1-.79-1.12 8.366 8.366 0 0 1 4.31-6 6.441 6.441 0 0 0 2.73-8.57 8.357 8.357 0 0 1-.04-7.38c1.52-3.16.28-6.91-2.83-8.54a8.342 8.342 0 0 1-4.37-5.95c-.62-3.45-3.84-5.75-7.31-5.25-2.58.38-5.15-.44-7.04-2.24a6.407 6.407 0 0 0-5.54-1.7c-.73.11-1.41.32-2.04.63a8.633 8.633 0 0 1-7.63.04c-.72-.35-1.49-.56-2.3-.63-1.97-.23-3.9.42-5.29 1.79-.38.37-1 .37-1.37-.02-.37-.38-.37-1 .02-1.37a8.34 8.34 0 0 1 6.85-2.33c1.02.09 2.02.37 2.94.82 1.89.91 4.05.9 5.93-.03.81-.4 1.69-.67 2.6-.81 2.63-.44 5.25.37 7.18 2.21a6.435 6.435 0 0 0 5.41 1.73 8.368 8.368 0 0 1 9.49 6.82 6.421 6.421 0 0 0 3.36 4.58 8.374 8.374 0 0 1 3.67 11.1 6.44 6.44 0 0 0 .03 5.68c2.02 4.09.46 8.98-3.55 11.14a6.396 6.396 0 0 0-3.31 4.61c-.08.47-.49.8-.95.8zm-33.41 10.39c-.3 0-.6-.02-.9-.05-.15-.02-.28-.03-.41-.05a8.35 8.35 0 0 1-4.66-2.25.966.966 0 0 1-.03-1.37c.37-.39.98-.4 1.37-.03.99.94 2.23 1.54 3.59 1.73.12.02.22.03.32.04 1.29.13 2.56-.1 3.7-.66 2.42-1.2 5.2-1.21 7.63-.04 1.32.64 2.79.82 4.24.53l.06-.01c.13-.03.25-.06.37-.09.11-.03.22-.06.32-.09l.17-.06c.15-.05.29-.11.44-.17l.12-.05c.15-.07.29-.14.43-.21.04-.02.08-.05.12-.07l.07-.04c.1-.06.21-.12.31-.19.14-.09.26-.18.38-.28l.05-.04c.28-.22.5-.42.69-.62l.05-.05a8.356 8.356 0 0 1 6.76-2.08.97.97 0 0 1-.26 1.92c-1.88-.26-3.76.32-5.17 1.58-.25.26-.52.5-.84.75l-.07.06c-.18.14-.35.26-.51.37-.13.09-.26.17-.4.25l-.06.03c-.06.04-.12.07-.18.11-.18.1-.37.19-.56.28l-.15.07c-.18.08-.37.15-.56.22l-.05.02-.18.06c-.14.04-.27.08-.41.11-.15.04-.31.08-.47.11l-.07.01c-1.88.37-3.77.14-5.48-.69-1.89-.91-4.05-.9-5.93.03-1.19.61-2.5.91-3.84.91zM89 133.74c-4.01 0-7.51-2.84-8.25-6.91a6.421 6.421 0 0 0-3.36-4.58 8.374 8.374 0 0 1-3.67-11.1 6.44 6.44 0 0 0-.03-5.68 8.384 8.384 0 0 1 3.55-11.14 6.396 6.396 0 0 0 3.31-4.61 8.36 8.36 0 0 1 9.42-6.92.97.97 0 0 1-.26 1.92 6.445 6.445 0 0 0-7.25 5.33 8.366 8.366 0 0 1-4.31 6 6.441 6.441 0 0 0-2.73 8.57 8.357 8.357 0 0 1 .04 7.38 6.447 6.447 0 0 0 2.83 8.54 8.342 8.342 0 0 1 4.37 5.95 6.454 6.454 0 0 0 7.31 5.25.97.97 0 1 1 .28 1.92c-.42.05-.84.08-1.25.08z"/><path class="st0" d="M135.81 107.16h-4.9c-.76 0-1.37-.62-1.37-1.37v-7.31c0-.76.62-1.37 1.37-1.37h.97c.48 0 .93-.33 1.01-.81a.968.968 0 0 0-.96-1.13h-1.02c-.76 0-1.37-.62-1.37-1.37v-2.18c0-.48-.33-.93-.81-1.01a.968.968 0 0 0-1.13.96v2.23c0 .76-.62 1.37-1.37 1.37h-5.47c-.76 0-1.37-.62-1.37-1.37v-5.62c0-.48-.33-.93-.81-1.01a.968.968 0 0 0-1.13.96v5.68c0 .76-.62 1.37-1.37 1.37h-5.47c-.76 0-1.37-.62-1.37-1.37v-7.16c0-.48-.33-.93-.81-1.01a.968.968 0 0 0-1.13.96v7.21c0 .76-.62 1.37-1.37 1.37h-5.47c-.76 0-1.37-.62-1.37-1.37v-5.62c0-.48-.33-.93-.81-1.01a.968.968 0 0 0-1.13.96v5.68c0 .76-.62 1.37-1.37 1.37H90.3c-.76 0-1.37-.62-1.37-1.37v-2.18c0-.48-.33-.93-.81-1.01a.968.968 0 0 0-1.13.96v2.23c0 .76-.62 1.37-1.37 1.37h-.97c-.48 0-.93.33-1.01.81-.1.61.37 1.13.96 1.13h1.02c.76 0 1.37.62 1.37 1.37v7.31c0 .76-.62 1.37-1.37 1.37h-4.9c-.48 0-.93.33-1.01.81-.1.61.37 1.13.96 1.13h4.95c.76 0 1.37.62 1.37 1.37v7.31c0 .76-.62 1.37-1.37 1.37h-.97c-.48 0-.93.33-1.01.81-.1.61.37 1.13.96 1.13h1.02c.76 0 1.37.62 1.37 1.37v2.18c0 .48.33.93.81 1.01.61.1 1.13-.37 1.13-.96v-2.23c0-.76.62-1.37 1.37-1.37h5.47c.76 0 1.37.62 1.37 1.37v5.62c0 .48.33.93.81 1.01.61.1 1.13-.37 1.13-.96v-5.68c0-.76.62-1.37 1.37-1.37h5.47c.76 0 1.37.62 1.37 1.37v7.16c0 .48.33.93.81 1.01.61.1 1.13-.37 1.13-.96v-7.21c0-.76.62-1.37 1.37-1.37h.2c.48 0 .93-.33 1.01-.81a.968.968 0 0 0-.96-1.13h-.25c-.76 0-1.37-.62-1.37-1.37v-7.31c0-.76.62-1.37 1.37-1.37h5.47c.76 0 1.37.62 1.37 1.37v7.31c0 .76-.62 1.37-1.37 1.37h-.3c-.48 0-.93.33-1.01.81-.1.61.37 1.13.96 1.13h.35c.76 0 1.37.62 1.37 1.37v5.62c0 .48.33.93.81 1.01.61.1 1.13-.37 1.13-.96v-5.68c0-.76.62-1.37 1.37-1.37h5.47c.76 0 1.37.62 1.37 1.37v2.18c0 .48.33.93.81 1.01.61.1 1.13-.37 1.13-.96v-2.23c0-.76.62-1.37 1.37-1.37h.97c.48 0 .93-.33 1.01-.81a.968.968 0 0 0-.96-1.13h-1.02c-.76 0-1.37-.62-1.37-1.37v-1.35c0-.48-.33-.93-.81-1.01a.968.968 0 0 0-1.13.96v1.4c0 .76-.62 1.37-1.37 1.37h-5.47c-.76 0-1.37-.62-1.37-1.37v-7.31c0-.76.62-1.37 1.37-1.37h5.47c.76 0 1.37.62 1.37 1.37v.69c0 .48.33.93.81 1.01.61.1 1.13-.37 1.13-.96v-.74c0-.76.62-1.37 1.37-1.37h4.95c.59 0 1.05-.52.96-1.13-.07-.48-.51-.81-1-.81zm-46.88 10.63v-7.31c0-.76.62-1.37 1.37-1.37h.57c.48 0 .93-.33 1.01-.81a.968.968 0 0 0-.96-1.13h-.62c-.76 0-1.37-.62-1.37-1.37v-7.31c0-.76.62-1.37 1.37-1.37h5.47c.76 0 1.37.62 1.37 1.37v7.31c0 .76-.62 1.37-1.37 1.37h-.13c-.48 0-.93.33-1.01.81-.1.61.37 1.13.96 1.13h.18c.76 0 1.37.62 1.37 1.37v7.31c0 .76-.62 1.37-1.37 1.37H90.3c-.75 0-1.37-.61-1.37-1.37zm16.99 1.37h-5.47c-.76 0-1.37-.62-1.37-1.37v-7.31c0-.76.62-1.37 1.37-1.37h5.47c.76 0 1.37.62 1.37 1.37v7.31c.01.76-.61 1.37-1.37 1.37zm3.32-13.37v-1.64c0-.48-.33-.93-.81-1.01a.968.968 0 0 0-1.13.96v1.69c0 .76-.62 1.37-1.37 1.37h-5.47c-.76 0-1.37-.62-1.37-1.37v-7.31c0-.76.62-1.37 1.37-1.37h5.47c.76 0 1.37.62 1.37 1.37v.33c0 .48.33.93.81 1.01.61.1 1.13-.37 1.13-.96v-.39c0-.76.62-1.37 1.37-1.37h5.47c.76 0 1.37.62 1.37 1.37v7.31c0 .76-.62 1.37-1.37 1.37h-5.47c-.76.01-1.37-.6-1.37-1.36zm10.15 0v-7.31c0-.76.62-1.37 1.37-1.37h5.47c.76 0 1.37.62 1.37 1.37v7.31c0 .76-.62 1.37-1.37 1.37h-5.47c-.76 0-1.37-.61-1.37-1.37zM26.83 49.9l1.2.78-4.38 6.74-7.86-5.11.91-1.4 6.66 4.33 3.47-5.34zm6.41-9.18l-3.07 3.58 1.05 2.23-1.14 1.33-4.32-9.37 1.1-1.29 9.93 2.83-1.18 1.38-2.37-.69zm-3.74 2.19l2.26-2.64-4.17-1.28 1.91 3.92zm20.86-17.94c1.03 1.33.67 2.73-1.06 4.07l-4.55 3.52L39 25.14l4.4-3.4c1.67-1.29 3.07-1.29 4.06 0 .64.83.66 1.69.1 2.56 1.14-.48 2.08-.26 2.8.67zm-7.63 2.26l3.05-2.36c.84-.65 1.01-1.31.51-1.96-.51-.65-1.19-.66-2.02-.02l-3.06 2.37 1.52 1.97zm6.18-1.35c-.52-.68-1.23-.67-2.13.02l-3.18 2.46 1.58 2.04 3.19-2.47c.89-.68 1.08-1.36.54-2.05zm4.24-9.04L54.4 19l4.98-2.88.72 1.24-4.98 2.88 1.29 2.23 5.76-3.33.72 1.24-7.2 4.17-4.7-8.12 7.2-4.17.72 1.24-5.76 3.34zm20.59-2.81l.55 1.32-7.42 3.11-3.63-8.65 1.54-.65 3.07 7.33 5.89-2.46zm11.97-3.55l.38 1.38-7.75 2.15-2.51-9.04 1.61-.45 2.12 7.66 6.15-1.7zm5.07-7.58l.36 2.47 5.69-.83.21 1.42-5.69.83.37 2.55 6.58-.96.21 1.42-8.23 1.19-1.35-9.28L97.16.52l.21 1.42-6.59.96zm27 5.44l-.07 1.43-8.03-.41.47-9.36 1.67.09-.4 7.93 6.36.32zm5.59-7.24l1.65.25-1.37 9.27-1.65-.24 1.37-9.28zm8.79 3.05l-.61 2.42 5.58 1.4-.35 1.39-5.58-1.4-.63 2.5 6.45 1.62-.35 1.39-8.07-2.02 2.28-9.1 8.07 2.02-.35 1.39-6.44-1.61zm3.29-1.81l-1.22-.3 1.76-1.48 1.63.41-2.17 1.37zm14.04 14.85c-1.2.34-2.63.22-4.11-.38-3.11-1.24-4.33-3.73-3.24-6.49 1.1-2.77 3.73-3.77 6.75-2.57 1.23.49 2.2 1.22 2.89 2.21l-1 1.07c-.68-.91-1.45-1.5-2.37-1.87-2.11-.84-3.93-.13-4.68 1.76-.77 1.92.11 3.67 2.29 4.54.74.29 1.48.43 2.23.4l.75-1.88-2.63-1.05.53-1.33 4.15 1.65-1.56 3.94zm9.09-3.15l-1.22 2.18 5.01 2.82-.7 1.25-5.01-2.82-1.26 2.25 5.79 3.26-.7 1.25-7.25-4.08 4.6-8.18 7.25 4.08-.7 1.25-5.81-3.26zm8.02 8.56c1.76-2.32 4.57-2.62 7.02-.76 2.46 1.87 2.92 4.66 1.16 6.98-1.76 2.32-4.57 2.62-7.03.75-2.46-1.86-2.91-4.65-1.15-6.97zm6.81 5.19c1.22-1.6.94-3.51-.7-4.76-1.62-1.24-3.55-1-4.77.6-1.22 1.6-.93 3.52.7 4.76 1.64 1.24 3.56 1 4.77-.6zm8.28 1.06L182.9 30l-6.44 6.82-1.21-1.15 6.44-6.82zm-1.17 10.22l1.47-.33c.13 1.35.7 2.65 1.65 3.74 1.14 1.31 2.1 1.7 2.8 1.09.58-.51.37-1.22-.89-2.89-1.8-2.42-1.98-3.73-.63-4.9 1.36-1.19 3.18-.74 4.88 1.21 1.02 1.16 1.59 2.41 1.72 3.7l-1.41.35c-.11-1.11-.61-2.16-1.42-3.1-.99-1.13-1.96-1.49-2.61-.93-.58.51-.38 1.21.88 2.88 1.81 2.43 1.98 3.74.64 4.91-1.43 1.25-3.21.77-5.06-1.35-1.19-1.38-1.87-2.88-2.02-4.38zm15.19 8.05l-2.08 1.39 3.19 4.78-1.19.79-3.19-4.78-2.15 1.43 3.69 5.53-1.19.8-4.61-6.92 7.8-5.2 4.61 6.92-1.19.79-3.69-5.53zM2.25 91.66c-.55-1.12-.69-2.54-.38-4.11.65-3.29 2.88-4.95 5.79-4.37 2.92.58 4.39 2.98 3.76 6.17-.26 1.3-.8 2.39-1.64 3.25l-1.24-.79c.77-.83 1.21-1.7 1.4-2.68.44-2.23-.6-3.89-2.59-4.28-2.03-.4-3.59.78-4.04 3.08-.16.79-.15 1.53.02 2.27l1.99.39.55-2.78 1.41.28-.87 4.39-4.16-.82zm.16 12.33l.28-4.71L.5 98.14l.1-1.75 9.11 4.85-.1 1.69L0 106.68l.11-1.82 2.3-.87zm1.65-4.01l-.2 3.47 4.1-1.5-3.9-1.97zm-.56 11.18l5.93-.43.12 1.66-5.65.41c-1.6.12-2.31 1.09-2.18 2.94.13 1.83.98 2.69 2.58 2.58l5.65-.41.12 1.6-5.93.43c-2.3.17-3.7-1.32-3.91-4.13-.2-2.81.97-4.48 3.27-4.65zm6.17 14.88l-2.57.53 1.16 5.64-1.41.29-1.15-5.64-3.81.78-.34-1.64 9.2-1.88 1.67 8.15-1.41.29-1.34-6.52zm-2.64 20.11l2.63-3.63-.99-2.87-3.47 1.2-.55-1.58 8.86-3.07 1.83 5.29c.68 1.96.1 3.35-1.65 3.96-1.43.5-2.59.08-3.32-1.17l-2.69 3.73-.65-1.86zm2.98-6.96l1.21 3.49c.38 1.11 1.01 1.49 1.91 1.18.9-.31 1.16-1 .77-2.11l-1.21-3.49-2.68.93zm7.66 11.66l-2.23 1.12 2.58 5.14-1.28.64-2.58-5.14-2.3 1.16 2.99 5.94-1.28.64-3.73-7.43 8.38-4.21 3.74 7.43-1.28.65-3.01-5.94zm-.72 12.97l1.5-.15c-.04 1.35.36 2.72 1.17 3.92.97 1.44 1.88 1.95 2.64 1.43.64-.43.51-1.16-.52-2.98-1.49-2.63-1.5-3.95-.02-4.94 1.5-1.01 3.25-.34 4.7 1.81.86 1.28 1.28 2.58 1.25 3.88l-1.45.18c.03-1.12-.33-2.22-1.03-3.25-.84-1.25-1.76-1.73-2.47-1.25-.64.43-.52 1.15.52 2.96 1.49 2.64 1.5 3.96.03 4.96-1.58 1.06-3.28.36-4.85-1.97-1.02-1.51-1.52-3.09-1.47-4.6zM40.5 181.9l-2.56-2.57-5.63 5.6-1.18-1.18 5.63-5.6-2.56-2.57 1.02-1.01 6.29 6.32-1.01 1.01zm4.12 13.56l.21-4.47-2.4-1.86-2.24 2.9-1.32-1.02 5.74-7.43 4.43 3.43c1.64 1.27 1.92 2.76.79 4.22-.93 1.2-2.12 1.48-3.42.84l-.21 4.6-1.58-1.21zm-1.31-7.47l2.93 2.26c.93.72 1.66.69 2.25-.06.58-.75.42-1.47-.51-2.19l-2.93-2.26-1.74 2.25zm14.29 13l-4.09-2.35-1.99 1.45-1.52-.86 8.4-6 1.47.84-.93 10.28-1.58-.91.24-2.45zm-2.85-3.26l3.01 1.73.48-4.33-3.49 2.6zm19.21 7.95c-1.08 2.67-3.48 3.65-6.25 2.54l-3.97-1.6 3.51-8.7 3.97 1.6c2.77 1.11 3.82 3.48 2.74 6.16zm-1.57-.64c.76-1.89.07-3.49-1.87-4.26l-2.25-.91-2.44 6.04 2.25.91c1.94.78 3.55.12 4.31-1.78zm7.57-2.46l1.6.46-2.61 9.01-1.6-.46 2.61-9.01zm14.16 4.67l-3.57-.67-1.47 7.81-1.64-.31 1.47-7.81-3.57-.67.27-1.41 8.77 1.65-.26 1.41zm4.46-1.01l1.66.15-.84 9.35-1.66-.15.84-9.35zm6.13 5.24c-.04-2.91 1.99-4.89 5.06-4.93 3.09-.04 5.17 1.87 5.21 4.78.04 2.91-1.99 4.88-5.08 4.93-3.06.04-5.15-1.87-5.19-4.78zm8.57-.12c-.03-2.01-1.43-3.35-3.48-3.32-2.04.03-3.42 1.4-3.39 3.41.03 2.01 1.44 3.35 3.48 3.32 2.06-.03 3.42-1.4 3.39-3.41zm14.72-6.5l1.44 9.27-1.54.24-6.85-6.54 1.15 7.42-1.58.25-1.44-9.28 2.07-.32 6.21 5.92-1.04-6.72 1.58-.24zm13.2-3.64l2.71 8.98-1.49.45-7.69-5.52 2.17 7.19-1.53.46-2.71-8.98 2.01-.61 6.97 5-1.97-6.51 1.53-.46zm6.58-1.1l1.04 2.27 5.23-2.39.59 1.31-5.23 2.38 1.07 2.35 6.05-2.76.59 1.3-7.57 3.45-3.89-8.53 7.57-3.45.59 1.31-6.04 2.76zm20.21-3.57l.75 1.22-6.85 4.22-4.92-7.98 1.42-.88 4.17 6.76 5.43-3.34zm10.4-8.06l.91 1.11-6.21 5.11-5.96-7.24 1.29-1.06 5.05 6.13 4.92-4.05zm.29-9.13l1.79 1.74 4.01-4.12 1.03 1-4.01 4.12 1.85 1.8 4.64-4.76 1.03 1-5.8 5.96-6.72-6.55 5.8-5.96 1.03 1-4.65 4.77zm12.5-3.56l-.63-1.37c1.29-.41 2.45-1.23 3.32-2.39 1.04-1.39 1.23-2.41.49-2.97-.62-.46-1.27-.11-2.64 1.47-1.99 2.26-3.24 2.71-4.67 1.64-1.44-1.09-1.38-2.96.17-5.03.93-1.24 2.03-2.05 3.26-2.45l.64 1.31c-1.07.34-1.99 1.04-2.74 2.03-.9 1.2-1.05 2.23-.37 2.74.62.46 1.26.12 2.63-1.46 2-2.27 3.25-2.72 4.67-1.65 1.52 1.14 1.42 2.98-.27 5.23-1.09 1.47-2.42 2.45-3.86 2.9zm14.53-26.69c1.52.72 1.82 2.14.89 4.1l-2.47 5.19-8.47-4.03 2.39-5.02c.91-1.91 2.15-2.53 3.62-1.83.95.45 1.35 1.21 1.24 2.24.8-.93 1.74-1.15 2.8-.65zm-5.79 5.45l1.65-3.47c.46-.96.31-1.62-.43-1.98-.75-.36-1.36-.05-1.82.89l-1.66 3.49 2.26 1.07zm4.91-3.99c-.77-.37-1.4-.04-1.89.98l-1.73 3.62 2.33 1.11 1.73-3.64c.49-1 .35-1.69-.44-2.07zm-1.85-9.57l2.38.77 1.78-5.47 1.37.44-1.78 5.47 2.45.8 2.05-6.33 1.36.44-2.57 7.91-8.93-2.9 2.57-7.91 1.36.44-2.04 6.34zM214 123.66l1.41.27-1.51 7.9-9.22-1.76.31-1.64 7.81 1.49 1.2-6.26zm1.58-13.59c.69 1.04 1.02 2.43.92 4.03-.21 3.35-2.2 5.28-5.16 5.09-2.97-.19-4.74-2.38-4.53-5.62.08-1.32.48-2.47 1.2-3.43l1.33.62c-.65.93-.97 1.85-1.04 2.84-.14 2.27 1.1 3.77 3.12 3.9 2.06.13 3.45-1.24 3.6-3.59.05-.8-.05-1.54-.31-2.24l-2.02-.13-.18 2.82-1.43-.09.28-4.46 4.22.26zm-7.09-6.73l2.49-.17-.38-5.74 1.43-.1.38 5.74 2.58-.17-.44-6.64 1.43-.1.55 8.3-9.36.62-.55-8.3 1.43-.1.44 6.66zm5.71-11.68l-1.44-.45c.56-1.24.72-2.64.44-4.07-.33-1.71-.97-2.52-1.88-2.35-.76.15-.93.87-.67 2.94.35 3-.16 4.22-1.9 4.56-1.77.35-3.12-.95-3.62-3.49-.3-1.52-.17-2.88.36-4.06l1.4.4c-.46 1.02-.56 2.18-.32 3.4.29 1.48.95 2.27 1.79 2.11.76-.15.93-.86.68-2.93-.35-3.01.15-4.24 1.9-4.58 1.87-.37 3.17.94 3.71 3.7.34 1.79.18 3.44-.45 4.82z"/><circle class="st0" cx="12.31" cy="68.93" r="1.9"/><circle class="st0" cx="204.08" cy="68.93" r="1.9"/></svg>