<svg width="217" height="217" viewBox="0 0 217 217" fill="none" xmlns="http://www.w3.org/2000/svg">
<g clip-path="url(#clip0_31_2)">
<path d="M135.03 127.33C134.98 127.33 134.92 127.33 134.87 127.32C134.744 127.299 134.624 127.253 134.516 127.185C134.409 127.117 134.315 127.029 134.242 126.924C134.168 126.82 134.116 126.703 134.089 126.578C134.061 126.454 134.058 126.326 134.08 126.2C134.291 124.937 134.79 123.739 135.537 122.699C136.284 121.658 137.26 120.804 138.39 120.2C139.873 119.41 140.989 118.072 141.499 116.471C142.009 114.869 141.873 113.132 141.12 111.63C140.549 110.485 140.248 109.224 140.241 107.945C140.234 106.665 140.521 105.401 141.08 104.25C142.6 101.09 141.36 97.3401 138.25 95.7101C137.114 95.1201 136.129 94.2766 135.371 93.2448C134.613 92.213 134.103 91.0207 133.88 89.7601C133.26 86.3101 130.04 84.0101 126.57 84.5101C123.99 84.8901 121.42 84.0701 119.53 82.2701C118.805 81.5714 117.926 81.0533 116.963 80.758C116.001 80.4626 114.982 80.3982 113.99 80.5701C113.26 80.6801 112.58 80.8901 111.95 81.2001C110.766 81.791 109.463 82.1019 108.14 82.1088C106.817 82.1157 105.51 81.8185 104.32 81.2401C103.6 80.8901 102.83 80.6801 102.02 80.6101C100.05 80.3801 98.12 81.0301 96.73 82.4001C96.35 82.7701 95.7299 82.7701 95.3599 82.3801C94.9899 82.0001 94.9899 81.3801 95.3799 81.0101C96.2735 80.1323 97.3532 79.467 98.5391 79.0636C99.725 78.6602 100.986 78.5291 102.23 78.6801C103.25 78.7701 104.25 79.0501 105.17 79.5001C107.06 80.4101 109.22 80.4001 111.1 79.4701C111.91 79.0701 112.79 78.8001 113.7 78.6601C116.33 78.2201 118.95 79.0301 120.88 80.8701C121.589 81.5532 122.446 82.0644 123.384 82.3643C124.322 82.6642 125.316 82.7449 126.29 82.6001C128.449 82.2741 130.65 82.8049 132.423 84.0791C134.196 85.3532 135.401 87.2699 135.78 89.4201C135.951 90.3901 136.343 91.3077 136.926 92.1019C137.509 92.896 138.266 93.5456 139.14 94.0001C141.078 95.0063 142.547 96.73 143.233 98.8037C143.918 100.877 143.767 103.137 142.81 105.1C142.38 105.986 142.16 106.959 142.165 107.944C142.17 108.928 142.401 109.899 142.84 110.78C144.86 114.87 143.3 119.76 139.29 121.92C138.421 122.382 137.67 123.038 137.096 123.838C136.522 124.637 136.14 125.559 135.98 126.53C135.9 127 135.49 127.33 135.03 127.33ZM101.62 137.72C101.32 137.72 101.02 137.7 100.72 137.67C100.57 137.65 100.44 137.64 100.31 137.62C98.5575 137.382 96.9258 136.595 95.65 135.37C95.5577 135.282 95.4837 135.177 95.4322 135.061C95.3807 134.944 95.3528 134.819 95.35 134.691C95.3472 134.564 95.3696 134.437 95.4159 134.319C95.4623 134.2 95.5316 134.092 95.62 134C95.99 133.61 96.5999 133.6 96.9899 133.97C97.9799 134.91 99.22 135.51 100.58 135.7C100.7 135.72 100.8 135.73 100.9 135.74C102.19 135.87 103.46 135.64 104.6 135.08C107.02 133.88 109.8 133.87 112.23 135.04C113.55 135.68 115.02 135.86 116.47 135.57L116.53 135.56C116.66 135.53 116.78 135.5 116.9 135.47C117.01 135.44 117.12 135.41 117.22 135.38L117.39 135.32C117.54 135.27 117.68 135.21 117.83 135.15L117.95 135.1C118.1 135.03 118.24 134.96 118.38 134.89C118.42 134.87 118.46 134.84 118.5 134.82L118.57 134.78C118.67 134.72 118.78 134.66 118.88 134.59C119.02 134.5 119.14 134.41 119.26 134.31L119.31 134.27C119.59 134.05 119.81 133.85 120 133.65L120.05 133.6C120.956 132.78 122.031 132.169 123.199 131.81C124.367 131.45 125.6 131.351 126.81 131.52C127.054 131.566 127.272 131.704 127.418 131.906C127.563 132.107 127.626 132.357 127.593 132.604C127.559 132.85 127.432 133.075 127.238 133.23C127.044 133.386 126.798 133.461 126.55 133.44C124.67 133.18 122.79 133.76 121.38 135.02C121.13 135.28 120.86 135.52 120.54 135.77L120.47 135.83C120.29 135.97 120.12 136.09 119.96 136.2C119.83 136.29 119.7 136.37 119.56 136.45L119.5 136.48C119.44 136.52 119.38 136.55 119.32 136.59C119.14 136.69 118.95 136.78 118.76 136.87L118.61 136.94C118.43 137.02 118.24 137.09 118.05 137.16L118 137.18L117.82 137.24C117.68 137.28 117.55 137.32 117.41 137.35C117.26 137.39 117.1 137.43 116.94 137.46L116.87 137.47C114.99 137.84 113.1 137.61 111.39 136.78C109.5 135.87 107.34 135.88 105.46 136.81C104.27 137.42 102.96 137.72 101.62 137.72ZM88.9999 133.74C84.9899 133.74 81.4899 130.9 80.7499 126.83C80.5787 125.86 80.1866 124.943 79.6039 124.148C79.0213 123.354 78.2638 122.705 77.3899 122.25C75.4515 121.244 73.9829 119.52 73.2973 117.447C72.6117 115.373 72.7634 113.114 73.72 111.15C74.1495 110.264 74.3702 109.291 74.365 108.307C74.3598 107.322 74.1289 106.352 73.69 105.47C72.7145 103.517 72.5397 101.26 73.2027 99.1792C73.8657 97.0988 75.3141 95.3591 77.2399 94.3301C78.1092 93.8682 78.8601 93.2119 79.4343 92.4123C80.0084 91.6127 80.3902 90.6914 80.55 89.7201C80.9047 87.5646 82.0891 85.6335 83.8496 84.3402C85.6101 83.0469 87.807 82.4941 89.9699 82.8001C90.2145 82.8459 90.4321 82.9839 90.5777 83.1856C90.7234 83.3872 90.786 83.6372 90.7526 83.8837C90.7192 84.1302 90.5924 84.3545 90.3984 84.5102C90.2043 84.6658 89.9578 84.741 89.7099 84.7201C88.0451 84.4876 86.3552 84.9147 85.0008 85.9104C83.6464 86.9061 82.7346 88.3917 82.4599 90.0501C82.2488 91.3134 81.7504 92.5114 81.0031 93.5516C80.2558 94.5919 79.2797 95.4467 78.15 96.0501C76.6669 96.8402 75.5514 98.1786 75.0414 99.7797C74.5313 101.381 74.6672 103.118 75.4199 104.62C75.9911 105.765 76.2918 107.026 76.2987 108.305C76.3057 109.585 76.0187 110.849 75.4599 112C74.7256 113.512 74.6105 115.25 75.1391 116.845C75.6677 118.441 76.7983 119.766 78.29 120.54C79.4261 121.13 80.4112 121.974 81.169 123.005C81.9268 124.037 82.4369 125.23 82.66 126.49C82.9549 128.145 83.8838 129.619 85.2489 130.599C86.614 131.58 88.3078 131.989 89.9699 131.74C90.2246 131.703 90.4835 131.769 90.6898 131.922C90.8961 132.076 91.0328 132.306 91.0699 132.56C91.1071 132.815 91.0415 133.074 90.8878 133.28C90.734 133.486 90.5046 133.623 90.2499 133.66C89.8299 133.71 89.4099 133.74 88.9999 133.74Z" fill="#562714"/>
<path d="M135.81 107.16H130.91C130.15 107.16 129.54 106.54 129.54 105.79V98.48C129.54 97.72 130.16 97.11 130.91 97.11H131.88C132.36 97.11 132.81 96.78 132.89 96.3C132.914 96.1607 132.907 96.0179 132.869 95.8816C132.832 95.7454 132.765 95.6189 132.673 95.5112C132.582 95.4036 132.468 95.3172 132.34 95.2582C132.211 95.1993 132.071 95.1692 131.93 95.17H130.91C130.15 95.17 129.54 94.55 129.54 93.8V91.62C129.54 91.14 129.21 90.69 128.73 90.61C128.591 90.5863 128.448 90.5935 128.312 90.6309C128.175 90.6683 128.049 90.7351 127.941 90.8266C127.834 90.9181 127.747 91.0321 127.688 91.1605C127.629 91.2889 127.599 91.4287 127.6 91.57V93.8C127.6 94.56 126.98 95.17 126.23 95.17H120.76C120 95.17 119.39 94.55 119.39 93.8V88.18C119.39 87.7 119.06 87.25 118.58 87.17C118.441 87.1463 118.298 87.1535 118.162 87.1909C118.025 87.2283 117.899 87.2951 117.791 87.3866C117.684 87.4781 117.597 87.5921 117.538 87.7205C117.479 87.8489 117.449 87.9887 117.45 88.13V93.81C117.45 94.57 116.83 95.18 116.08 95.18H110.61C109.85 95.18 109.24 94.56 109.24 93.81V86.65C109.24 86.17 108.91 85.72 108.43 85.64C108.291 85.6163 108.148 85.6235 108.012 85.6609C107.875 85.6983 107.749 85.7651 107.641 85.8566C107.534 85.9481 107.447 86.0621 107.388 86.1905C107.329 86.3189 107.299 86.4587 107.3 86.6V93.81C107.3 94.57 106.68 95.18 105.93 95.18H100.46C99.7 95.18 99.09 94.56 99.09 93.81V88.19C99.09 87.71 98.76 87.26 98.28 87.18C98.1407 87.1563 97.9979 87.1635 97.8616 87.2009C97.7254 87.2383 97.5989 87.3051 97.4912 87.3966C97.3836 87.4881 97.2972 87.6021 97.2383 87.7305C97.1793 87.8589 97.1492 87.9987 97.15 88.14V93.82C97.15 94.58 96.53 95.19 95.78 95.19H90.3C89.54 95.19 88.93 94.57 88.93 93.82V91.64C88.93 91.16 88.6 90.71 88.12 90.63C87.9807 90.6063 87.8379 90.6135 87.7016 90.6509C87.5654 90.6883 87.4389 90.7551 87.3313 90.8466C87.2236 90.9381 87.1372 91.0521 87.0782 91.1805C87.0193 91.3089 86.9892 91.4487 86.99 91.59V93.82C86.99 94.58 86.37 95.19 85.62 95.19H84.65C84.17 95.19 83.72 95.52 83.64 96C83.54 96.61 84.01 97.13 84.6 97.13H85.62C86.38 97.13 86.99 97.75 86.99 98.5V105.81C86.99 106.57 86.37 107.18 85.62 107.18H80.72C80.24 107.18 79.79 107.51 79.71 107.99C79.61 108.6 80.08 109.12 80.67 109.12H85.62C86.38 109.12 86.99 109.74 86.99 110.49V117.8C86.99 118.56 86.37 119.17 85.62 119.17H84.65C84.17 119.17 83.72 119.5 83.64 119.98C83.54 120.59 84.01 121.11 84.6 121.11H85.62C86.38 121.11 86.99 121.73 86.99 122.48V124.66C86.99 125.14 87.32 125.59 87.8 125.67C88.41 125.77 88.93 125.3 88.93 124.71V122.48C88.93 121.72 89.55 121.11 90.3 121.11H95.77C96.53 121.11 97.14 121.73 97.14 122.48V128.1C97.14 128.58 97.47 129.03 97.95 129.11C98.56 129.21 99.08 128.74 99.08 128.15V122.47C99.08 121.71 99.7 121.1 100.45 121.1H105.92C106.68 121.1 107.29 121.72 107.29 122.47V129.63C107.29 130.11 107.62 130.56 108.1 130.64C108.71 130.74 109.23 130.27 109.23 129.68V122.47C109.23 121.71 109.85 121.1 110.6 121.1H110.8C111.28 121.1 111.73 120.77 111.81 120.29C111.834 120.151 111.827 120.008 111.789 119.872C111.752 119.735 111.685 119.609 111.593 119.501C111.502 119.394 111.388 119.307 111.259 119.248C111.131 119.189 110.991 119.159 110.85 119.16H110.6C109.84 119.16 109.23 118.54 109.23 117.79V110.48C109.23 109.72 109.85 109.11 110.6 109.11H116.07C116.83 109.11 117.44 109.73 117.44 110.48V117.79C117.44 118.55 116.82 119.16 116.07 119.16H115.77C115.29 119.16 114.84 119.49 114.76 119.97C114.66 120.58 115.13 121.1 115.72 121.1H116.07C116.83 121.1 117.44 121.72 117.44 122.47V128.09C117.44 128.57 117.77 129.02 118.25 129.1C118.86 129.2 119.38 128.73 119.38 128.14V122.46C119.38 121.7 120 121.09 120.75 121.09H126.22C126.98 121.09 127.59 121.71 127.59 122.46V124.64C127.59 125.12 127.92 125.57 128.4 125.65C129.01 125.75 129.53 125.28 129.53 124.69V122.46C129.53 121.7 130.15 121.09 130.9 121.09H131.87C132.35 121.09 132.8 120.76 132.88 120.28C132.904 120.141 132.897 119.998 132.859 119.862C132.822 119.725 132.755 119.599 132.663 119.491C132.572 119.384 132.458 119.297 132.329 119.238C132.201 119.179 132.061 119.149 131.92 119.15H130.9C130.14 119.15 129.53 118.53 129.53 117.78V116.43C129.53 115.95 129.2 115.5 128.72 115.42C128.581 115.396 128.438 115.403 128.302 115.441C128.165 115.478 128.039 115.545 127.931 115.637C127.824 115.728 127.737 115.842 127.678 115.97C127.619 116.099 127.589 116.239 127.59 116.38V117.78C127.59 118.54 126.97 119.15 126.22 119.15H120.75C119.99 119.15 119.38 118.53 119.38 117.78V110.47C119.38 109.71 120 109.1 120.75 109.1H126.22C126.98 109.1 127.59 109.72 127.59 110.47V111.16C127.59 111.64 127.92 112.09 128.4 112.17C129.01 112.27 129.53 111.8 129.53 111.21V110.47C129.53 109.71 130.15 109.1 130.9 109.1H135.85C136.44 109.1 136.9 108.58 136.81 107.97C136.74 107.49 136.3 107.16 135.81 107.16ZM88.93 117.79V110.48C88.93 109.72 89.55 109.11 90.3 109.11H90.87C91.35 109.11 91.8 108.78 91.88 108.3C91.9036 108.161 91.8965 108.018 91.8591 107.882C91.8217 107.745 91.7549 107.619 91.6634 107.511C91.5719 107.404 91.4579 107.317 91.3295 107.258C91.2011 107.199 91.0613 107.169 90.92 107.17H90.3C89.54 107.17 88.93 106.55 88.93 105.8V98.49C88.93 97.73 89.55 97.12 90.3 97.12H95.77C96.53 97.12 97.14 97.74 97.14 98.49V105.8C97.14 106.56 96.52 107.17 95.77 107.17H95.64C95.16 107.17 94.71 107.5 94.63 107.98C94.53 108.59 95 109.11 95.59 109.11H95.77C96.53 109.11 97.14 109.73 97.14 110.48V117.79C97.14 118.55 96.52 119.16 95.77 119.16H90.3C89.55 119.16 88.93 118.55 88.93 117.79ZM105.92 119.16H100.45C99.69 119.16 99.08 118.54 99.08 117.79V110.48C99.08 109.72 99.7 109.11 100.45 109.11H105.92C106.68 109.11 107.29 109.73 107.29 110.48V117.79C107.3 118.55 106.68 119.16 105.92 119.16ZM109.24 105.79V104.15C109.24 103.67 108.91 103.22 108.43 103.14C108.291 103.116 108.148 103.123 108.012 103.161C107.875 103.198 107.749 103.265 107.641 103.357C107.534 103.448 107.447 103.562 107.388 103.69C107.329 103.819 107.299 103.959 107.3 104.1V105.79C107.3 106.55 106.68 107.16 105.93 107.16H100.46C99.7 107.16 99.09 106.54 99.09 105.79V98.48C99.09 97.72 99.71 97.11 100.46 97.11H105.93C106.69 97.11 107.3 97.73 107.3 98.48V98.81C107.3 99.29 107.63 99.74 108.11 99.82C108.72 99.92 109.24 99.45 109.24 98.86V98.47C109.24 97.71 109.86 97.1 110.61 97.1H116.08C116.84 97.1 117.45 97.72 117.45 98.47V105.78C117.45 106.54 116.83 107.15 116.08 107.15H110.61C109.85 107.16 109.24 106.55 109.24 105.79ZM119.39 105.79V98.48C119.39 97.72 120.01 97.11 120.76 97.11H126.23C126.99 97.11 127.6 97.73 127.6 98.48V105.79C127.6 106.55 126.98 107.16 126.23 107.16H120.76C120 107.16 119.39 106.55 119.39 105.79ZM26.83 49.9L28.03 50.68L23.65 57.42L15.79 52.31L16.7 50.91L23.36 55.24L26.83 49.9ZM33.24 40.72L30.17 44.3L31.22 46.53L30.08 47.86L25.76 38.49L26.86 37.2L36.79 40.03L35.61 41.41L33.24 40.72ZM29.5 42.91L31.76 40.27L27.59 38.99L29.5 42.91ZM50.36 24.97C51.39 26.3 51.03 27.7 49.3 29.04L44.75 32.56L39 25.14L43.4 21.74C45.07 20.45 46.47 20.45 47.46 21.74C48.1 22.57 48.12 23.43 47.56 24.3C48.7 23.82 49.64 24.04 50.36 24.97ZM42.73 27.23L45.78 24.87C46.62 24.22 46.79 23.56 46.29 22.91C45.78 22.26 45.1 22.25 44.27 22.89L41.21 25.26L42.73 27.23ZM48.91 25.88C48.39 25.2 47.68 25.21 46.78 25.9L43.6 28.36L45.18 30.4L48.37 27.93C49.26 27.25 49.45 26.57 48.91 25.88ZM53.15 16.84L54.4 19L59.38 16.12L60.1 17.36L55.12 20.24L56.41 22.47L62.17 19.14L62.89 20.38L55.69 24.55L50.99 16.43L58.19 12.26L58.91 13.5L53.15 16.84ZM73.74 14.03L74.29 15.35L66.87 18.46L63.24 9.81L64.78 9.16L67.85 16.49L73.74 14.03ZM85.71 10.48L86.09 11.86L78.34 14.01L75.83 4.97L77.44 4.52L79.56 12.18L85.71 10.48ZM90.78 2.9L91.14 5.37L96.83 4.54L97.04 5.96L91.35 6.79L91.72 9.34L98.3 8.38L98.51 9.8L90.28 10.99L88.93 1.71L97.16 0.52L97.37 1.94L90.78 2.9ZM117.78 8.34L117.71 9.77L109.68 9.36L110.15 0L111.82 0.09L111.42 8.02L117.78 8.34ZM123.37 1.1L125.02 1.35L123.65 10.62L122 10.38L123.37 1.1ZM132.16 4.15L131.55 6.57L137.13 7.97L136.78 9.36L131.2 7.96L130.57 10.46L137.02 12.08L136.67 13.47L128.6 11.45L130.88 2.35L138.95 4.37L138.6 5.76L132.16 4.15ZM135.45 2.34L134.23 2.04L135.99 0.56L137.62 0.97L135.45 2.34ZM149.49 17.19C148.29 17.53 146.86 17.41 145.38 16.81C142.27 15.57 141.05 13.08 142.14 10.32C143.24 7.55 145.87 6.55 148.89 7.75C150.12 8.24 151.09 8.97 151.78 9.96L150.78 11.03C150.1 10.12 149.33 9.53 148.41 9.16C146.3 8.32 144.48 9.03 143.73 10.92C142.96 12.84 143.84 14.59 146.02 15.46C146.76 15.75 147.5 15.89 148.25 15.86L149 13.98L146.37 12.93L146.9 11.6L151.05 13.25L149.49 17.19ZM158.58 14.04L157.36 16.22L162.37 19.04L161.67 20.29L156.66 17.47L155.4 19.72L161.19 22.98L160.49 24.23L153.24 20.15L157.84 11.97L165.09 16.05L164.39 17.3L158.58 14.04ZM166.6 22.6C168.36 20.28 171.17 19.98 173.62 21.84C176.08 23.71 176.54 26.5 174.78 28.82C173.02 31.14 170.21 31.44 167.75 29.57C165.29 27.71 164.84 24.92 166.6 22.6ZM173.41 27.79C174.63 26.19 174.35 24.28 172.71 23.03C171.09 21.79 169.16 22.03 167.94 23.63C166.72 25.23 167.01 27.15 168.64 28.39C170.28 29.63 172.2 29.39 173.41 27.79ZM181.69 28.85L182.9 30L176.46 36.82L175.25 35.67L181.69 28.85ZM180.52 39.07L181.99 38.74C182.12 40.09 182.69 41.39 183.64 42.48C184.78 43.79 185.74 44.18 186.44 43.57C187.02 43.06 186.81 42.35 185.55 40.68C183.75 38.26 183.57 36.95 184.92 35.78C186.28 34.59 188.1 35.04 189.8 36.99C190.82 38.15 191.39 39.4 191.52 40.69L190.11 41.04C190 39.93 189.5 38.88 188.69 37.94C187.7 36.81 186.73 36.45 186.08 37.01C185.5 37.52 185.7 38.22 186.96 39.89C188.77 42.32 188.94 43.63 187.6 44.8C186.17 46.05 184.39 45.57 182.54 43.45C181.35 42.07 180.67 40.57 180.52 39.07ZM195.71 47.12L193.63 48.51L196.82 53.29L195.63 54.08L192.44 49.3L190.29 50.73L193.98 56.26L192.79 57.06L188.18 50.14L195.98 44.94L200.59 51.86L199.4 52.65L195.71 47.12ZM2.25 91.66C1.7 90.54 1.56 89.12 1.87 87.55C2.52 84.26 4.75 82.6 7.66 83.18C10.58 83.76 12.05 86.16 11.42 89.35C11.16 90.65 10.62 91.74 9.78 92.6L8.54 91.81C9.31 90.98 9.75 90.11 9.94 89.13C10.38 86.9 9.34 85.24 7.35 84.85C5.32 84.45 3.76 85.63 3.31 87.93C3.15 88.72 3.16 89.46 3.33 90.2L5.32 90.59L5.87 87.81L7.28 88.09L6.41 92.48L2.25 91.66ZM2.41 103.99L2.69 99.28L0.5 98.14L0.6 96.39L9.71 101.24L9.61 102.93L0 106.68L0.11 104.86L2.41 103.99ZM4.06 99.98L3.86 103.45L7.96 101.95L4.06 99.98ZM3.5 111.16L9.43 110.73L9.55 112.39L3.9 112.8C2.3 112.92 1.59 113.89 1.72 115.74C1.85 117.57 2.7 118.43 4.3 118.32L9.95 117.91L10.07 119.51L4.14 119.94C1.84 120.11 0.44 118.62 0.23 115.81C0.03 113 1.2 111.33 3.5 111.16ZM9.67 126.04L7.1 126.57L8.26 132.21L6.85 132.5L5.7 126.86L1.89 127.64L1.55 126L10.75 124.12L12.42 132.27L11.01 132.56L9.67 126.04ZM7.03 146.15L9.66 142.52L8.67 139.65L5.2 140.85L4.65 139.27L13.51 136.2L15.34 141.49C16.02 143.45 15.44 144.84 13.69 145.45C12.26 145.95 11.1 145.53 10.37 144.28L7.68 148.01L7.03 146.15ZM10.01 139.19L11.22 142.68C11.6 143.79 12.23 144.17 13.13 143.86C14.03 143.55 14.29 142.86 13.9 141.75L12.69 138.26L10.01 139.19ZM17.67 150.85L15.44 151.97L18.02 157.11L16.74 157.75L14.16 152.61L11.86 153.77L14.85 159.71L13.57 160.35L9.84 152.92L18.22 148.71L21.96 156.14L20.68 156.79L17.67 150.85ZM16.95 163.82L18.45 163.67C18.41 165.02 18.81 166.39 19.62 167.59C20.59 169.03 21.5 169.54 22.26 169.02C22.9 168.59 22.77 167.86 21.74 166.04C20.25 163.41 20.24 162.09 21.72 161.1C23.22 160.09 24.97 160.76 26.42 162.91C27.28 164.19 27.7 165.49 27.67 166.79L26.22 166.97C26.25 165.85 25.89 164.75 25.19 163.72C24.35 162.47 23.43 161.99 22.72 162.47C22.08 162.9 22.2 163.62 23.24 165.43C24.73 168.07 24.74 169.39 23.27 170.39C21.69 171.45 19.99 170.75 18.42 168.42C17.4 166.91 16.9 165.33 16.95 163.82ZM40.5 181.9L37.94 179.33L32.31 184.93L31.13 183.75L36.76 178.15L34.2 175.58L35.22 174.57L41.51 180.89L40.5 181.9ZM44.62 195.46L44.83 190.99L42.43 189.13L40.19 192.03L38.87 191.01L44.61 183.58L49.04 187.01C50.68 188.28 50.96 189.77 49.83 191.23C48.9 192.43 47.71 192.71 46.41 192.07L46.2 196.67L44.62 195.46ZM43.31 187.99L46.24 190.25C47.17 190.97 47.9 190.94 48.49 190.19C49.07 189.44 48.91 188.72 47.98 188L45.05 185.74L43.31 187.99ZM57.6 200.99L53.51 198.64L51.52 200.09L50 199.23L58.4 193.23L59.87 194.07L58.94 204.35L57.36 203.44L57.6 200.99ZM54.75 197.73L57.76 199.46L58.24 195.13L54.75 197.73ZM73.96 205.68C72.88 208.35 70.48 209.33 67.71 208.22L63.74 206.62L67.25 197.92L71.22 199.52C73.99 200.63 75.04 203 73.96 205.68ZM72.39 205.04C73.15 203.15 72.46 201.55 70.52 200.78L68.27 199.87L65.83 205.91L68.08 206.82C70.02 207.6 71.63 206.94 72.39 205.04ZM79.96 202.58L81.56 203.04L78.95 212.05L77.35 211.59L79.96 202.58ZM94.12 207.25L90.55 206.58L89.08 214.39L87.44 214.08L88.91 206.27L85.34 205.6L85.61 204.19L94.38 205.84L94.12 207.25ZM98.58 206.24L100.24 206.39L99.4 215.74L97.74 215.59L98.58 206.24ZM104.71 211.48C104.67 208.57 106.7 206.59 109.77 206.55C112.86 206.51 114.94 208.42 114.98 211.33C115.02 214.24 112.99 216.21 109.9 216.26C106.84 216.3 104.75 214.39 104.71 211.48ZM113.28 211.36C113.25 209.35 111.85 208.01 109.8 208.04C107.76 208.07 106.38 209.44 106.41 211.45C106.44 213.46 107.85 214.8 109.89 214.77C111.95 214.74 113.31 213.37 113.28 211.36ZM128 204.86L129.44 214.13L127.9 214.37L121.05 207.83L122.2 215.25L120.62 215.5L119.18 206.22L121.25 205.9L127.46 211.82L126.42 205.1L128 204.86ZM141.2 201.22L143.91 210.2L142.42 210.65L134.73 205.13L136.9 212.32L135.37 212.78L132.66 203.8L134.67 203.19L141.64 208.19L139.67 201.68L141.2 201.22ZM147.78 200.12L148.82 202.39L154.05 200L154.64 201.31L149.41 203.69L150.48 206.04L156.53 203.28L157.12 204.58L149.55 208.03L145.66 199.5L153.23 196.05L153.82 197.36L147.78 200.12ZM167.99 196.55L168.74 197.77L161.89 201.99L156.97 194.01L158.39 193.13L162.56 199.89L167.99 196.55ZM178.39 188.49L179.3 189.6L173.09 194.71L167.13 187.47L168.42 186.41L173.47 192.54L178.39 188.49ZM178.68 179.36L180.47 181.1L184.48 176.98L185.51 177.98L181.5 182.1L183.35 183.9L187.99 179.14L189.02 180.14L183.22 186.1L176.5 179.55L182.3 173.59L183.33 174.59L178.68 179.36ZM191.18 175.8L190.55 174.43C191.84 174.02 193 173.2 193.87 172.04C194.91 170.65 195.1 169.63 194.36 169.07C193.74 168.61 193.09 168.96 191.72 170.54C189.73 172.8 188.48 173.25 187.05 172.18C185.61 171.09 185.67 169.22 187.22 167.15C188.15 165.91 189.25 165.1 190.48 164.7L191.12 166.01C190.05 166.35 189.13 167.05 188.38 168.04C187.48 169.24 187.33 170.27 188.01 170.78C188.63 171.24 189.27 170.9 190.64 169.32C192.64 167.05 193.89 166.6 195.31 167.67C196.83 168.81 196.73 170.65 195.04 172.9C193.95 174.37 192.62 175.35 191.18 175.8ZM205.71 149.11C207.23 149.83 207.53 151.25 206.6 153.21L204.13 158.4L195.66 154.37L198.05 149.35C198.96 147.44 200.2 146.82 201.67 147.52C202.62 147.97 203.02 148.73 202.91 149.76C203.71 148.83 204.65 148.61 205.71 149.11ZM199.92 154.56L201.57 151.09C202.03 150.13 201.88 149.47 201.14 149.11C200.39 148.75 199.78 149.06 199.32 150L197.66 153.49L199.92 154.56ZM204.83 150.57C204.06 150.2 203.43 150.53 202.94 151.55L201.21 155.17L203.54 156.28L205.27 152.64C205.76 151.64 205.62 150.95 204.83 150.57ZM202.98 141L205.36 141.77L207.14 136.3L208.51 136.74L206.73 142.21L209.18 143.01L211.23 136.68L212.59 137.12L210.02 145.03L201.09 142.13L203.66 134.22L205.02 134.66L202.98 141ZM214 123.66L215.41 123.93L213.9 131.83L204.68 130.07L204.99 128.43L212.8 129.92L214 123.66ZM215.58 110.07C216.27 111.11 216.6 112.5 216.5 114.1C216.29 117.45 214.3 119.38 211.34 119.19C208.37 119 206.6 116.81 206.81 113.57C206.89 112.25 207.29 111.1 208.01 110.14L209.34 110.76C208.69 111.69 208.37 112.61 208.3 113.6C208.16 115.87 209.4 117.37 211.42 117.5C213.48 117.63 214.87 116.26 215.02 113.91C215.07 113.11 214.97 112.37 214.71 111.67L212.69 111.54L212.51 114.36L211.08 114.27L211.36 109.81L215.58 110.07ZM208.49 103.34L210.98 103.17L210.6 97.43L212.03 97.33L212.41 103.07L214.99 102.9L214.55 96.26L215.98 96.16L216.53 104.46L207.17 105.08L206.62 96.78L208.05 96.68L208.49 103.34ZM214.2 91.66L212.76 91.21C213.32 89.97 213.48 88.57 213.2 87.14C212.87 85.43 212.23 84.62 211.32 84.79C210.56 84.94 210.39 85.66 210.65 87.73C211 90.73 210.49 91.95 208.75 92.29C206.98 92.64 205.63 91.34 205.13 88.8C204.83 87.28 204.96 85.92 205.49 84.74L206.89 85.14C206.43 86.16 206.33 87.32 206.57 88.54C206.86 90.02 207.52 90.81 208.36 90.65C209.12 90.5 209.29 89.79 209.04 87.72C208.69 84.71 209.19 83.48 210.94 83.14C212.81 82.77 214.11 84.08 214.65 86.84C214.99 88.63 214.83 90.28 214.2 91.66Z" fill="#562714"/>
<path d="M12.3099 70.83C13.3593 70.83 14.2099 69.9794 14.2099 68.93C14.2099 67.8807 13.3593 67.03 12.3099 67.03C11.2606 67.03 10.4099 67.8807 10.4099 68.93C10.4099 69.9794 11.2606 70.83 12.3099 70.83Z" fill="#562714"/>
<path d="M204.08 70.83C205.129 70.83 205.98 69.9794 205.98 68.93C205.98 67.8807 205.129 67.03 204.08 67.03C203.031 67.03 202.18 67.8807 202.18 68.93C202.18 69.9794 203.031 70.83 204.08 70.83Z" fill="#562714"/>
</g>
<defs>
<clipPath id="clip0_31_2">
<rect width="216.53" height="216.26" fill="white"/>
</clipPath>
</defs>
</svg>
