<svg width="512" height="512" viewBox="0 0 512 512" fill="none" xmlns="http://www.w3.org/2000/svg">
<path d="M512 256C512 397.385 397.385 512 256 512C114.615 512 0 397.385 0 256C0 114.615 114.615 0 256 0C397.385 0 512 114.615 512 256Z" fill="#F6C68D"/>
<path d="M378 329.5C352.4 359.9 305 380.5 284.5 387C273.834 377.167 253.6 350.6 258 323C263.5 288.5 292.5 283.5 319 279C340.2 275.4 367.167 311.167 378 329.5Z" fill="#F4C4B0"/>
<path fill-rule="evenodd" clip-rule="evenodd" d="M149.907 152.033C126.187 156.794 112.895 172.151 111.691 196.186C110.871 212.564 115.601 220.011 126.825 220.011C138.132 220.011 143.389 212.855 143.401 197.448C143.41 187.051 148.198 183.011 160.512 183.011C172.742 183.011 177.407 187.541 177.407 199.418C177.407 222.753 203.611 229.333 208.555 207.239C215.886 174.48 184.635 145.062 149.907 152.033ZM340.782 152.435C314.97 158.331 298.758 182.659 304.259 207.239C309.203 229.333 335.407 222.753 335.407 199.418C335.407 187.541 340.072 183.011 352.302 183.011C364.616 183.011 369.404 187.051 369.413 197.448C369.43 220.052 390.53 229.848 399.461 211.399C414.232 180.887 377.556 144.035 340.782 152.435ZM297.645 261.054C249.154 269.754 223.474 321.751 246.023 365.573L250.365 374.011H245.517C208.63 374.011 163.204 348.661 137.999 314.011C128.601 301.092 118.917 298.655 110.484 307.088C100.769 316.803 106.382 329.275 131.827 354.511C210.15 432.19 341.089 419.933 402.764 329.149C413.059 313.994 397.641 295.253 382.907 305.011C378.481 307.942 378.081 307.706 373.171 299.261C356.616 270.784 326.979 255.791 297.645 261.054ZM325.897 295.86C334.885 300.065 340.605 306.301 349.365 321.442L356.824 334.333L351.865 338.74C336.144 352.712 307.599 367.216 289.31 370.525L285.713 371.176L280.106 361.344C271.891 346.938 270.143 342.45 269.624 334.432C267.686 304.492 298.787 283.173 325.897 295.86Z" fill="#562714"/>
</svg>
