<svg width="455" height="512" viewBox="0 0 455 512" fill="none" xmlns="http://www.w3.org/2000/svg">
<path d="M20 42.5L58 11H375L397 71.5L444 470.5L435 504H94L7.5 497L58 100L30.5 82L20 42.5Z" fill="#F6C68D"/>
<path fill-rule="evenodd" clip-rule="evenodd" d="M64.5294 1.00812C11.6734 9.81612 -4.19065 80.5821 41.2613 104.807C48.6023 108.72 51.2944 79.5431 23.6564 295.655C10.6624 397.264 0.0173504 483.099 0.000350402 486.399C-0.0486496 496.427 5.04335 504.632 14.0764 509.081L18.7824 511.399H227.782H436.782L442.282 508.295C448.579 504.742 452.676 499.486 454.448 492.689C455.554 488.445 454.561 478.454 444.414 391.689C438.221 338.73 427.351 245.224 420.259 183.899C406.065 61.1591 405.173 54.4431 401.837 45.2541C393.259 21.6231 372.232 4.36312 347.898 0.978119C338.383 -0.344881 72.4824 -0.316881 64.5294 1.00812ZM295.282 17.4281C295.282 17.7201 293.414 20.3071 291.131 23.1781C277.015 40.9301 275.194 64.8291 286.365 85.7261C288.519 89.7561 290.282 93.2431 290.282 93.4761C290.282 94.9641 57.3574 93.8031 52.9254 92.2931C20.6824 81.3071 25.6514 30.9711 60.1384 19.2151L66.7823 16.9511L181.032 16.9251C243.869 16.9111 295.282 17.1371 295.282 17.4281ZM350.74 18.4301C376.582 25.1611 387.54 41.9761 391.773 81.3991C392.659 89.6491 403.492 182.981 415.846 288.803C428.2 394.625 438.069 481.445 437.778 481.736C437.036 482.478 435.029 480.812 410.861 459.399L389.417 440.399L389.35 321.104L389.282 201.808L386.827 199.354C383.039 195.565 375.777 196.263 373.65 200.621C373.172 201.599 372.557 255.929 372.282 321.354L371.782 440.31L344.963 461.203C312.369 486.595 312.635 515.952 343.285 275.719C361.065 136.361 369.287 68.9791 368.877 65.9801C365.64 42.2721 340.306 29.9651 322.577 43.4881C315.723 48.7151 312.451 61.5121 316.844 65.9051C321.869 70.9301 331.282 67.4381 331.282 60.5491C331.282 51.3891 346.105 52.6841 350.639 62.2391C362.582 87.4071 323.497 105.493 304.678 83.5061C278.782 53.2521 310.794 8.02612 350.74 18.4301ZM348.282 106.413C348.282 121.352 299.062 490.21 296.761 492.511L294.373 494.899H157.782H21.1913L18.7374 492.444C15.2884 488.996 13.9264 501.475 40.0894 296.899L63.8134 111.399L199.797 110.899L335.782 110.399L340.782 108.251C345.847 106.076 348.282 105.479 348.282 106.413ZM46.4833 403.927C43.7563 406.467 44.0354 405.024 39.8194 438.407C35.5544 472.18 35.5624 471.874 38.8614 474.975L41.4413 477.399L77.6114 477.699C97.5054 477.865 115.27 477.727 117.088 477.394C124.214 476.087 126.825 468.351 121.827 463.354L119.373 460.899H86.8273H54.2824V458.083C54.2824 456.534 55.6413 444.829 57.3023 432.072C60.0383 411.057 60.1834 408.608 58.8394 406.009C56.4454 401.38 50.3233 400.348 46.4833 403.927ZM403.269 474.529C414.826 484.816 424.282 493.607 424.282 494.065C424.282 494.524 403.095 494.899 377.199 494.899C349.513 494.899 330.253 494.526 330.449 493.994C331.133 492.135 379.832 454.949 381.019 455.378C381.699 455.625 391.712 464.242 403.269 474.529Z" fill="#562714"/>
</svg>
