<svg width="360" height="512" viewBox="0 0 360 512" fill="none" xmlns="http://www.w3.org/2000/svg">
<path fill-rule="evenodd" clip-rule="evenodd" d="M166.35 0.223775C120.477 4.84877 83.6064 21.8728 52.8504 52.6288C-1.34456 106.824 -15.3316 188.297 17.7424 257.129C24.6564 271.518 167.453 502.518 172.401 507.319C178.642 513.373 188.449 512.603 193.905 505.629C197.954 500.454 335.403 270.572 340.413 260.597C348.635 244.224 354.017 227.869 357.514 208.629C359.617 197.057 359.872 166.178 357.964 154.129C351.66 114.325 334.53 80.3088 306.85 52.6288C279.308 25.0868 244.408 7.46777 205.918 1.67277C197.957 0.474775 172.947 -0.441225 166.35 0.223775ZM200.818 31.1678C231.995 35.5168 263.32 51.2058 285.742 73.7028C306.831 94.8628 320.533 120.424 326.979 150.629C330.233 165.878 330.244 193.584 327.001 208.629C324.008 222.52 319.669 235.015 313.807 246.629C311.17 251.854 280.459 303.751 245.561 361.955L182.11 467.782L116.046 361.316C79.7114 302.76 47.9794 250.864 45.5324 245.99C35.7184 226.448 31.0664 208.145 30.1884 185.629C27.4944 116.518 71.5154 55.2208 137.872 35.6828C157.784 29.8198 179.819 28.2398 200.818 31.1678ZM163.584 91.1438C129.733 97.5628 101.891 123.486 92.7134 157.129C89.6044 168.528 89.5884 190.619 92.6804 202.129C99.4184 227.204 117.045 248.746 140.114 260.102C154.327 267.099 162.549 268.932 179.85 268.964C197.102 268.995 205.176 267.196 219.571 260.11C242.722 248.714 260.26 227.282 267.02 202.129C270.112 190.619 270.096 168.528 266.987 157.129C258.476 125.931 233.129 100.621 202.35 92.5858C191.762 89.8218 174.033 89.1628 163.584 91.1438ZM192.051 120.734C201.614 122.729 212.872 128.74 220.426 135.885C228.113 143.156 232.826 150.27 236.657 160.387C238.856 166.193 239.22 168.795 239.28 179.129C239.354 191.887 238.311 196.609 233.094 207.129C225.824 221.787 209.956 234.271 193.736 238.094C156.451 246.883 119.943 218.137 119.865 179.928C119.845 170.143 121.351 163.657 125.94 153.773C133.152 138.239 149.248 125.162 166.229 121.042C172.758 119.457 185.218 119.309 192.051 120.734Z" fill="#562714"/>
</svg>
