<svg width="419" height="513" viewBox="0 0 419 513" fill="none" xmlns="http://www.w3.org/2000/svg">
<path d="M15.5577 17.3369L15.5577 17.3369C16.099 17.8904 16.6211 18.4267 17.1251 18.9444C19.6916 21.5808 21.7895 23.7358 23.5836 25.2385C25.7199 27.0277 27.9871 28.3931 30.6846 28.15C33.2404 27.9197 35.5012 26.2837 37.7991 24.1828C39.7729 22.3783 42.139 19.8689 45.0949 16.7341C45.6778 16.1158 46.2837 15.4732 46.9141 14.8069C50.151 11.3854 52.6836 8.77499 54.7245 6.83299C56.7892 4.86835 58.2333 3.70295 59.3001 3.07357C60.3415 2.45923 60.7088 2.54064 60.7773 2.55583L60.7774 2.55585C60.9458 2.59317 61.3419 2.76478 62.1856 3.65575C73.4959 15.6007 80.183 22.4199 84.5612 25.675C86.7214 27.2811 88.7583 28.3684 90.81 28.3976C93.0766 28.4298 94.6543 27.1867 95.8161 25.9599L95.8163 25.9597C97.575 24.1023 99.2027 22.374 100.714 20.7688C105.108 16.103 108.522 12.4779 111.326 9.74796C115.185 5.99044 117.461 4.38233 119.106 3.92898C120.31 3.5974 121.469 3.80899 123.611 5.58039C125.282 6.96257 127.161 8.96132 129.699 11.6619C130.602 12.6228 131.589 13.6726 132.68 14.8151C133.513 15.6885 134.305 16.5232 135.057 17.317C137.822 20.2329 140.063 22.5962 141.952 24.2953C144.302 26.409 146.681 28.0524 149.456 28.0524C152.228 28.0524 154.614 26.4129 156.979 24.3013C158.881 22.6031 161.139 20.2412 163.927 17.3255C164.686 16.5316 165.485 15.6965 166.326 14.8227L166.326 14.8226C167.223 13.8908 168.057 13.019 168.836 12.2046C171.579 9.33584 173.641 7.18025 175.373 5.6314C177.656 3.59059 178.791 3.16061 179.524 3.16061C180.247 3.16061 181.358 3.57969 183.589 5.61487C185.285 7.16132 187.296 9.31358 189.976 12.1816C190.737 12.9964 191.553 13.8689 192.43 14.8017C193.204 15.6246 193.942 16.4135 194.646 17.1666C197.484 20.2013 199.778 22.6546 201.712 24.4109C204.069 26.5518 206.461 28.2174 209.251 28.2174C212.041 28.2174 214.433 26.5518 216.79 24.4109C218.724 22.6546 221.018 20.2013 223.856 17.1666C224.56 16.4135 225.298 15.6246 226.072 14.8017C226.949 13.8689 227.765 12.9963 228.526 12.1816C231.206 9.31358 233.217 7.16132 234.913 5.61487C237.144 3.57969 238.255 3.16061 238.977 3.16061C239.711 3.16061 240.846 3.5906 243.129 5.6314C244.861 7.18026 246.923 9.33584 249.666 12.2046C250.445 13.019 251.279 13.8908 252.176 14.8226L252.176 14.8227C253.017 15.6965 253.815 16.5315 254.575 17.3254C257.363 20.2411 259.621 22.6031 261.523 24.3013C263.888 26.4129 266.274 28.0524 269.046 28.0524C271.821 28.0524 274.2 26.409 276.55 24.2953C278.439 22.5962 280.68 20.2331 283.444 17.3173C284.197 16.5234 284.988 15.6886 285.822 14.8151C286.913 13.6725 287.9 12.6227 288.803 11.6618C291.341 8.96127 293.22 6.96256 294.891 5.58039C297.033 3.80899 298.192 3.5974 299.395 3.92898C301.041 4.38233 303.317 5.99044 307.176 9.74796C309.98 12.4777 313.393 16.1027 317.787 20.7682C319.299 22.3735 320.927 24.1021 322.686 25.9596C324.23 27.5914 326.252 28.2909 328.558 27.9317C330.654 27.605 332.855 26.4277 335.166 24.7269C339.82 21.3029 345.943 14.9733 354.125 5.46991L352.23 3.83886L354.125 5.46981C355.529 3.83883 356.375 3.03805 357.04 2.68371C357.432 2.47446 357.77 2.38744 358.56 2.73203C359.559 3.16788 360.985 4.19644 363.186 6.24419C365.345 8.2523 368.052 11.0492 371.613 14.8041L373.427 13.0839L371.613 14.8042C372.22 15.4442 372.804 16.0623 373.368 16.658C376.375 19.8389 378.779 22.3808 380.779 24.2052C383.083 26.3077 385.348 27.9485 387.893 28.1803C390.596 28.4266 392.843 27.041 394.935 25.2405C396.704 23.7174 398.765 21.5292 401.283 18.8547C401.754 18.3553 402.24 17.8389 402.743 17.3067L400.932 15.5936L402.743 17.3066C405.283 14.6213 407.297 12.5642 408.943 11.0286C410.609 9.47407 411.788 8.55801 412.66 8.06394C413.5 7.58787 413.805 7.64462 413.849 7.65279L413.85 7.65297C413.924 7.66677 414.136 7.7294 414.561 8.09807C414.593 8.27551 414.631 8.53054 414.671 8.88651C414.8 10.0204 414.92 11.8777 415.026 14.8558C415.238 20.7915 415.39 30.9376 415.498 48.1088C415.713 82.4362 415.751 144.715 415.751 257.237V505.207L413.56 507.398L411.369 509.589H210.262C203.555 509.589 197.069 509.589 190.794 509.589C98.0521 509.591 51.7281 509.592 28.205 509.099C15.576 508.834 9.73114 508.427 6.82471 507.856C5.40754 507.577 4.97836 507.309 4.84077 507.206C4.70069 507.101 4.66692 507.056 4.52331 506.864C4.47836 506.804 4.42265 506.729 4.34954 506.634C4.32752 506.432 4.3033 506.164 4.27784 505.823C4.20436 504.838 4.13121 503.394 4.05951 501.502C3.9164 497.726 3.78252 492.265 3.65826 485.348C3.40982 471.521 3.20079 451.931 3.03171 428.496C2.69358 381.628 2.51546 319.406 2.50096 257.191C2.48646 194.977 2.63558 132.776 2.95184 85.9508C3.10998 62.5367 3.30987 42.9741 3.55182 29.1783C3.67284 22.2779 3.80416 16.8343 3.94547 13.0772C4.01628 11.1944 4.08871 9.76021 4.16164 8.78646C4.18116 8.52575 4.19992 8.30927 4.21744 8.1334C4.29857 8.06112 4.36935 8.00445 4.4311 7.96006C4.50563 7.9065 4.55703 7.87821 4.58718 7.8638C4.60213 7.85665 4.61233 7.85269 4.61816 7.85063C4.6239 7.8486 4.62671 7.84795 4.62718 7.84784L4.62844 7.84763C4.62915 7.84756 4.6326 7.8472 4.63963 7.84726C4.65279 7.84736 4.68955 7.84899 4.75604 7.8638C4.89694 7.89518 5.15221 7.98147 5.55463 8.20748C6.38805 8.67556 7.5459 9.56436 9.22674 11.1017C10.8846 12.6179 12.9388 14.6591 15.5577 17.3369ZM414.912 8.427C414.91 8.42584 414.909 8.42468 414.908 8.42352C414.909 8.42468 414.91 8.42584 414.912 8.427ZM414.502 7.82579C414.489 7.79203 414.483 7.77235 414.484 7.77108C414.484 7.76982 414.491 7.78667 414.502 7.82579Z" fill="#FCE8C2" stroke="#562714" stroke-width="5"/>
<path fill-rule="evenodd" clip-rule="evenodd" d="M224.49 169.44C222.29 169.887 218.817 170.961 216.772 171.828C214.727 172.694 211.031 173.403 208.559 173.403C206.087 173.403 201.781 172.503 198.99 171.403C196.133 170.277 191.558 169.403 188.518 169.403C185.549 169.403 181.853 169.879 180.305 170.461C178.757 171.043 176.031 172.506 174.247 173.711C172.463 174.917 171.001 176.664 170.997 177.594C170.993 178.524 171.468 179.581 172.053 179.942C172.638 180.303 173.875 179.934 174.803 179.122C175.731 178.309 177.93 176.915 179.69 176.024C181.451 175.132 185.276 174.403 188.19 174.404C191.105 174.404 195.857 175.304 198.751 176.404C201.644 177.503 206.015 178.403 208.463 178.403C210.912 178.403 215.294 177.539 218.202 176.483C221.111 175.428 224.915 174.275 226.656 173.922C228.398 173.57 231.6 173.759 233.772 174.344C235.944 174.929 239.469 176.815 241.605 178.536C243.742 180.256 247.29 182.495 249.49 183.512C252.276 184.798 255.852 185.366 261.272 185.381C265.99 185.394 270.518 186.014 272.772 186.954C274.817 187.807 277.971 189.937 279.781 191.689C281.911 193.751 283.622 196.818 284.633 200.388C285.492 203.421 287.309 207.844 288.672 210.216C290.183 212.848 293.163 215.822 296.319 217.846C299.163 219.671 302.26 222.021 303.202 223.07C304.143 224.118 305.606 226.633 306.452 228.657C307.298 230.682 307.99 234.137 307.99 236.334C307.99 238.531 307.09 242.612 305.99 245.403C304.89 248.194 303.99 252.694 303.99 255.403C303.99 258.112 304.89 262.612 305.99 265.403C307.09 268.194 307.99 272.5 307.99 274.972C307.99 277.444 307.367 280.959 306.605 282.782C305.843 284.605 303.324 287.628 301.007 289.5C298.69 291.372 295.236 294.21 293.333 295.808C291.43 297.406 288.972 300.478 287.872 302.634C286.772 304.791 286.011 307.724 286.181 309.152C286.351 310.58 287.043 311.93 287.719 312.152C288.428 312.385 289.947 310.297 291.308 307.218C292.651 304.182 295.25 300.592 297.336 298.892C299.352 297.248 302.646 294.556 304.655 292.91C306.663 291.264 309.356 287.664 310.639 284.91C312.04 281.902 312.974 278.011 312.98 275.164C312.986 272.557 312.09 268.057 310.991 265.164C309.891 262.27 308.991 257.862 308.991 255.368C308.99 252.874 309.938 248.149 311.096 244.868C312.663 240.428 313.062 237.526 312.654 233.514C312.304 230.079 311.072 226.453 309.255 223.514C307.541 220.74 304.168 217.422 300.789 215.186C297.701 213.142 294.279 210.213 293.185 208.677C292.092 207.141 290.653 203.866 289.989 201.399C289.325 198.933 287.969 195.337 286.977 193.409C285.985 191.481 283.894 188.717 282.332 187.267C280.769 185.817 277.915 183.813 275.99 182.812C273.487 181.512 270.07 180.959 263.99 180.873C259.315 180.806 254.365 180.396 252.99 179.961C251.615 179.527 248.239 177.455 245.488 175.356C242.736 173.258 239.361 171.123 237.988 170.612C236.614 170.101 233.915 169.445 231.99 169.155C230.065 168.865 226.69 168.993 224.49 169.44ZM141.419 183.76C138.63 185.072 134.906 187.891 133.142 190.024C131.28 192.277 129.061 196.836 127.847 200.901C126.179 206.488 124.893 208.705 121.468 211.901C119.108 214.102 115.491 217.245 113.43 218.886C111.369 220.527 108.631 224.127 107.346 226.886C105.941 229.903 105.006 233.792 105 236.642C104.994 239.249 105.89 243.749 106.989 246.642C108.089 249.536 108.989 253.944 108.989 256.438C108.99 258.932 108.042 263.657 106.884 266.938C105.33 271.34 104.919 274.291 105.317 278.2C105.632 281.304 106.952 285.37 108.505 288.018C109.962 290.504 112.998 293.746 115.252 295.221C117.507 296.696 121.003 299.54 123.023 301.541C125.44 303.935 127.105 306.801 127.891 309.925C128.549 312.536 129.924 316.299 130.947 318.287C131.97 320.276 134.086 323.089 135.648 324.539C137.211 325.989 140.003 327.939 141.853 328.873C143.702 329.807 147.541 330.811 150.383 331.104C154.341 331.513 155.856 331.269 156.856 330.064C157.575 329.199 157.872 328.021 157.517 327.447C157.162 326.873 155.084 326.403 152.899 326.403C150.714 326.403 147.253 325.705 145.208 324.852C143.163 323.999 140.009 321.869 138.199 320.117C136.069 318.055 134.358 314.988 133.347 311.418C132.488 308.385 130.671 303.962 129.308 301.59C127.797 298.958 124.817 295.984 121.661 293.96C118.817 292.135 115.72 289.785 114.778 288.736C113.837 287.688 112.374 285.173 111.528 283.149C110.682 281.124 109.99 277.669 109.99 275.472C109.99 273.275 110.89 269.194 111.99 266.403C113.09 263.612 113.99 259.112 113.99 256.403C113.99 253.694 113.09 249.194 111.99 246.403C110.89 243.612 109.99 239.306 109.99 236.834C109.99 234.362 110.613 230.847 111.375 229.024C112.137 227.201 114.663 224.178 116.988 222.306C119.314 220.434 122.89 217.456 124.935 215.688C126.981 213.92 129.388 210.77 130.285 208.688C131.181 206.606 132.401 202.985 132.995 200.64C133.588 198.295 135.467 194.79 137.169 192.852C138.872 190.913 141.215 188.816 142.377 188.192C143.539 187.569 147.19 186.798 150.49 186.481C155.631 185.986 156.49 185.617 156.49 183.903C156.49 182.205 155.735 181.863 151.49 181.639C147.887 181.449 145.073 182.041 141.419 183.76ZM207.678 190.049C207.299 190.427 206.99 196.061 206.99 202.57C206.99 213.07 206.765 214.628 204.99 216.403C203.293 218.1 201.657 218.403 194.181 218.403C188.158 218.403 184.758 217.955 183.431 216.985C181.763 215.767 181.442 214.07 181.147 204.93C180.849 195.672 180.59 194.333 179.147 194.608C177.772 194.87 177.405 196.677 176.99 205.247C176.568 213.964 176.188 215.791 174.549 216.987C173.241 217.941 169.876 218.403 164.233 218.403C159.627 218.403 154.988 217.937 153.924 217.368C152.475 216.592 151.99 215.261 151.99 212.059C151.99 209.708 151.383 206.956 150.642 205.941C149.9 204.927 148.775 204.418 148.142 204.809C147.508 205.201 146.99 207.519 146.99 209.962C146.99 213.07 146.39 215.003 144.99 216.403C143.879 217.514 141.657 218.403 139.99 218.403C137.657 218.403 136.99 218.847 136.99 220.403C136.99 221.959 137.657 222.403 139.99 222.403C141.657 222.403 143.879 223.292 144.99 224.403C146.765 226.178 146.988 227.724 146.975 238.153C146.966 244.616 146.534 250.578 146.014 251.403C145.319 252.507 142.484 253.035 135.28 253.403C126.323 253.86 125.49 254.073 125.49 255.903C125.49 257.733 126.323 257.946 135.28 258.403C142.484 258.771 145.319 259.299 146.014 260.403C146.534 261.228 146.966 267.19 146.975 273.653C146.988 284.082 146.765 285.628 144.99 287.403C143.879 288.514 141.657 289.403 139.99 289.403C137.657 289.403 136.99 289.847 136.99 291.403C136.99 292.959 137.657 293.403 139.99 293.403C141.657 293.403 143.879 294.292 144.99 295.403C146.39 296.803 146.99 298.736 146.99 301.844C146.99 304.287 147.46 306.575 148.034 306.93C148.608 307.285 149.733 307.031 150.534 306.367C151.442 305.613 151.99 303.335 151.99 300.316C151.99 296.552 152.421 295.243 153.924 294.438C154.988 293.869 159.713 293.403 164.424 293.403C171.657 293.403 173.301 293.714 174.99 295.403C176.723 297.136 176.99 298.736 176.99 307.403C176.99 316.577 177.148 317.403 178.899 317.403C180.636 317.403 180.839 316.449 181.149 306.821C181.442 297.734 181.764 296.038 183.431 294.821C184.751 293.857 188.131 293.403 193.99 293.403C199.843 293.403 203.23 293.857 204.549 294.819C206.245 296.056 206.553 297.858 206.99 309.069C207.4 319.588 207.761 321.903 208.99 321.903C210.217 321.903 210.535 319.905 210.737 310.903C210.872 304.853 211.226 298.861 211.522 297.587C211.856 296.155 213.383 294.719 215.526 293.824C217.431 293.028 218.99 291.938 218.99 291.403C218.99 290.868 217.431 289.778 215.526 288.982C213.305 288.054 211.836 286.639 211.435 285.041C211.091 283.669 210.962 277.547 211.15 271.437C211.411 262.922 211.84 260.106 212.99 259.38C213.815 258.86 218.852 258.427 224.183 258.418C233.076 258.404 234.005 258.587 235.433 260.626C236.596 262.285 236.99 265.436 236.99 273.06C236.99 278.677 236.547 284.437 236.007 285.86C235.349 287.589 234.023 288.646 232.007 289.05C230.03 289.445 228.99 290.256 228.99 291.403C228.99 292.55 230.03 293.361 232.007 293.756C234.023 294.16 235.349 295.217 236.007 296.946C236.547 298.369 236.99 303.554 236.99 308.468C236.99 316.736 237.139 317.403 238.99 317.403C240.857 317.403 240.99 316.736 240.99 307.403C240.99 298.736 241.257 297.136 242.99 295.403C244.679 293.714 246.323 293.403 253.556 293.403C258.267 293.403 262.992 293.869 264.056 294.438C265.505 295.214 265.99 296.545 265.99 299.747C265.99 302.098 266.597 304.85 267.338 305.865C268.08 306.879 269.205 307.388 269.838 306.997C270.472 306.605 270.99 304.287 270.99 301.844C270.99 298.736 271.59 296.803 272.99 295.403C274.101 294.292 276.323 293.403 277.99 293.403C280.323 293.403 280.99 292.959 280.99 291.403C280.99 289.847 280.323 289.403 277.99 289.403C276.323 289.403 274.101 288.514 272.99 287.403C271.752 286.165 270.99 284.07 270.99 281.903C270.99 279.136 270.594 278.403 269.097 278.403C268.056 278.403 266.931 279.115 266.597 279.985C266.263 280.855 265.99 282.864 265.99 284.45C265.99 286.277 265.281 287.712 264.056 288.368C262.992 288.937 258.267 289.403 253.556 289.403C246.323 289.403 244.679 289.092 242.99 287.403C241.214 285.627 240.99 284.07 240.99 273.474C240.99 263.857 241.301 261.235 242.595 259.941C243.898 258.638 246.091 258.389 254.239 258.619C261.93 258.837 264.464 259.254 265.074 260.403C265.512 261.228 266.139 263.17 266.466 264.719C266.875 266.652 267.587 267.435 268.736 267.213C269.712 267.025 270.692 265.517 271.084 263.596C271.455 261.784 272.071 259.987 272.453 259.602C272.835 259.218 277.499 258.678 282.819 258.403C291.657 257.946 292.49 257.731 292.49 255.903C292.49 254.073 291.657 253.86 282.7 253.403C275.496 253.035 272.661 252.507 271.966 251.403C271.446 250.578 271.014 244.616 271.005 238.153C270.992 227.724 271.215 226.178 272.99 224.403C274.101 223.292 276.323 222.403 277.99 222.403C280.323 222.403 280.99 221.959 280.99 220.403C280.99 218.847 280.323 218.403 277.99 218.403C276.323 218.403 274.101 217.514 272.99 216.403C271.59 215.003 270.99 213.07 270.99 209.962C270.99 207.519 270.52 205.231 269.946 204.876C269.372 204.521 268.247 204.775 267.446 205.439C266.538 206.193 265.99 208.471 265.99 211.49C265.99 215.254 265.559 216.563 264.056 217.368C262.992 217.937 258.353 218.403 253.747 218.403C248.104 218.403 244.739 217.941 243.431 216.987C241.792 215.791 241.412 213.964 240.99 205.247C240.575 196.677 240.208 194.87 238.833 194.608C237.39 194.333 237.131 195.672 236.833 204.93C236.538 214.07 236.217 215.767 234.549 216.985C233.229 217.949 229.849 218.403 223.99 218.403C218.137 218.403 214.75 217.949 213.431 216.987C211.737 215.751 211.426 213.949 210.99 202.817C210.689 195.136 210.067 189.924 209.428 189.712C208.843 189.519 208.056 189.671 207.678 190.049ZM175.571 224.844C176.605 226.258 176.986 229.923 176.975 238.344C176.966 244.702 176.59 250.485 176.139 251.195C175.688 251.906 174.008 252.839 172.405 253.267C170.512 253.774 169.49 254.698 169.49 255.903C169.49 257.108 170.512 258.032 172.405 258.539C174.008 258.967 175.688 259.9 176.139 260.611C176.59 261.321 176.966 267.19 176.975 273.653C176.988 284.082 176.765 285.628 174.99 287.403C173.301 289.092 171.657 289.403 164.424 289.403C159.713 289.403 154.988 288.937 153.924 288.368C152.16 287.424 151.99 286.158 151.99 273.99C151.99 264.531 152.354 260.349 153.24 259.621C153.928 259.057 155.615 258.439 156.99 258.249C158.708 258.011 159.49 257.277 159.49 255.903C159.49 254.529 158.708 253.795 156.99 253.557C155.615 253.367 153.928 252.749 153.24 252.185C152.353 251.456 151.99 247.262 151.99 237.748C151.99 224.791 152.066 224.306 154.24 223.386C155.478 222.863 160.464 222.54 165.321 222.668C172.744 222.866 174.379 223.213 175.571 224.844ZM203.447 223.386C205.176 224.044 206.233 225.37 206.637 227.386C207.032 229.363 207.843 230.403 208.99 230.403C210.137 230.403 210.948 229.363 211.343 227.386C211.759 225.308 212.808 224.039 214.718 223.304C216.243 222.718 221.18 222.388 225.69 222.571C230.675 222.773 234.401 223.413 235.19 224.203C236.123 225.136 236.49 229.17 236.49 238.489C236.49 248.945 236.198 251.661 234.99 252.424C234.165 252.946 229.215 253.372 223.99 253.372C218.765 253.372 213.9 252.998 213.179 252.541C212.458 252.084 211.552 249.503 211.167 246.806C210.689 243.468 209.994 241.903 208.99 241.903C207.986 241.903 207.291 243.468 206.813 246.806C206.428 249.503 205.522 252.084 204.801 252.541C204.08 252.998 199.215 253.372 193.99 253.372C188.765 253.372 183.815 252.946 182.99 252.425C181.859 251.712 181.405 248.986 181.144 241.36C180.953 235.795 181.091 229.68 181.449 227.77C181.874 225.507 182.865 223.99 184.295 223.414C185.502 222.928 189.723 222.501 193.675 222.466C197.627 222.432 202.024 222.846 203.447 223.386ZM263.425 223.378L265.99 224.353V237.678C265.99 246.709 265.603 251.39 264.79 252.203C264.021 252.972 260.095 253.403 253.861 253.403C246.351 253.403 243.775 253.045 242.561 251.832C241.311 250.582 240.99 247.86 240.99 238.523C240.99 230.64 241.401 226.268 242.24 225.209C242.928 224.342 244.165 223.392 244.99 223.097C245.815 222.802 249.723 222.525 253.675 222.482C257.627 222.439 262.014 222.842 263.425 223.378ZM204.99 259.38C206.161 260.119 206.562 263.059 206.82 272.785C207.125 284.31 206.994 285.399 205.07 287.323C203.278 289.115 201.769 289.403 194.181 289.403C188.159 289.403 184.758 288.955 183.431 287.986C181.741 286.751 181.446 285.067 181.153 274.943C180.88 265.531 181.122 262.85 182.426 260.86C183.955 258.527 184.528 258.404 193.763 258.418C199.113 258.427 204.165 258.859 204.99 259.38ZM250.49 327.754C247.74 329.036 244.845 330.864 244.057 331.817C243.269 332.77 240.873 334.443 238.732 335.534C236.592 336.626 232.737 337.568 230.165 337.626C227.594 337.684 222.676 336.758 219.236 335.568C215.796 334.377 211.466 333.403 209.614 333.403C207.761 333.403 202.7 334.561 198.368 335.977C192.55 337.878 189.395 338.387 186.303 337.925C184.001 337.581 180.46 336.175 178.434 334.801C176.409 333.426 174.056 332.437 173.204 332.603C172.353 332.768 171.476 333.441 171.257 334.099C171.038 334.757 172.711 336.637 174.975 338.277C177.239 339.917 181.303 341.733 184.006 342.313C186.709 342.893 190.398 343.104 192.205 342.783C194.012 342.462 197.869 341.345 200.778 340.301C203.686 339.257 207.831 338.403 209.99 338.403C212.149 338.403 216.199 339.303 218.99 340.403C221.887 341.545 226.422 342.403 229.559 342.403C232.581 342.403 236.693 341.718 238.695 340.882C240.697 340.045 244.24 337.8 246.567 335.894C248.894 333.987 251.995 331.971 253.459 331.415C254.923 330.858 258.089 330.403 260.496 330.403C262.903 330.403 265.125 329.994 265.434 329.493C265.743 328.993 265.722 327.868 265.386 326.993C264.949 325.853 263.461 325.406 260.133 325.413C257.385 325.419 253.449 326.374 250.49 327.754Z" fill="#562714"/>
<path fill-rule="evenodd" clip-rule="evenodd" d="M246.135 372.477C243.992 372.688 242.106 370.334 241.987 371.187C241.857 372.118 241.915 372.138 243.994 371.885C245.172 371.742 246.993 371.522 248.042 371.397C249.572 371.215 251.555 373.502 251.555 372.88C251.555 372.242 251.286 372.116 250.049 372.172C249.221 372.21 247.46 372.347 246.135 372.477ZM44 392.815V409.908H49.219H54.438V408.687V407.466H50.6241H46.8102V391.594V375.723H45.4051H44V392.815ZM64.2737 376.297C63.6113 376.596 62.6177 377.335 62.0657 377.941L61.062 379.043L60.948 394.476L60.8336 409.908H62.052H63.2701V404.821V399.734H66.4818H69.6934V404.821V409.908H70.9115H72.1299L72.0155 394.476L71.9015 379.043L70.8978 377.941C70.3458 377.335 69.3129 376.587 68.6023 376.281C67.8917 375.974 66.8981 375.73 66.3942 375.738C65.8904 375.747 64.9361 375.999 64.2737 376.297ZM103.015 392.815V409.908H106.979C109.525 409.908 111.571 409.683 112.698 409.28C113.663 408.935 115.057 408.065 115.795 407.347C116.533 406.629 117.482 405.362 117.904 404.532C118.397 403.562 118.672 402.188 118.672 400.692C118.672 399.161 118.384 397.761 117.832 396.606C117.371 395.639 116.332 394.294 115.524 393.615C114.716 392.936 113.648 392.275 113.151 392.147C112.654 392.018 112.248 391.849 112.248 391.772C112.248 391.694 112.699 390.956 113.251 390.132C113.803 389.308 114.452 387.888 114.694 386.977C114.936 386.066 115.022 384.609 114.885 383.74C114.748 382.871 114.297 381.489 113.883 380.67C113.468 379.852 112.705 378.781 112.187 378.291C111.668 377.802 110.432 377.027 109.438 376.571C108.304 376.05 106.772 375.737 105.323 375.732L103.015 375.723V392.815ZM125.095 392.815V409.908H130.314H135.533V408.687V407.466H131.719H127.905V397.902V388.339H131.719H135.533V387.118V385.897H131.719H127.905V382.031V378.164H131.719H135.533V376.943V375.723H130.314H125.095V392.815ZM141.555 392.815V409.908H146.774H151.993V408.687V407.466H148.179H144.365V391.594V375.723H142.96H141.555V392.815ZM158.416 392.815V409.908H163.434H168.453V408.687V407.466H164.639H160.825V391.594V375.723H159.62H158.416V392.815ZM174.876 392.815V409.908H179.894H184.912V408.702V407.496L181.199 407.38L177.485 407.262L177.378 397.8L177.27 388.339H181.091H184.912V387.118V385.897H181.099H177.285V382.031V378.164H181.099H184.912V376.943V375.723H179.894H174.876V392.815ZM215.423 392.815V409.908H220.442H225.46V408.702V407.496L221.746 407.38L218.033 407.262L217.928 391.492L217.823 375.723H216.623H215.423V392.815ZM231.883 392.815V409.908H233.288H234.693V392.815V375.723H233.288H231.883V392.815ZM240.715 392.815V409.908H245.934H251.153V408.687V407.466H247.339H243.526V397.902V388.339H247.339H251.153V387.118V385.897H247.339H243.526V382.031V378.164H247.339H251.153V376.943V375.723H245.934H240.715V392.815ZM269.979 376.312C268.961 376.597 267.184 377.351 266.029 377.989C264.874 378.626 263.054 380.117 261.985 381.302C260.917 382.487 259.544 384.509 258.934 385.796C258.025 387.714 257.796 388.831 257.663 392.001C257.528 395.239 257.642 396.247 258.369 398.203C258.846 399.486 259.812 401.402 260.514 402.46C261.217 403.517 262.723 405.148 263.862 406.084C265 407.02 266.905 408.155 268.093 408.605C269.282 409.056 271.105 409.554 272.145 409.713L274.036 410V405.07V400.14H272.832H271.628V403.627C271.628 407.053 271.612 407.109 270.724 406.839C270.228 406.689 269.059 406.231 268.128 405.823C267.197 405.415 265.528 404.222 264.42 403.171C263.312 402.12 261.907 400.23 261.297 398.971C260.319 396.949 260.191 396.229 260.204 392.815C260.216 389.73 260.395 388.558 261.093 387.012C261.574 385.947 262.831 384.135 263.887 382.985C265.048 381.72 266.758 380.435 268.215 379.733C269.54 379.094 270.985 378.569 271.427 378.566C271.869 378.563 272.637 378.45 273.133 378.315C273.805 378.132 274.036 377.769 274.036 376.896C274.036 375.878 273.89 375.727 272.932 375.759C272.325 375.779 270.996 376.028 269.979 376.312ZM280.46 392.815V409.908H285.478H290.496V408.702V407.496L286.783 407.38L283.069 407.262L282.962 397.8L282.854 388.339H286.675H290.496V387.118V385.897H286.682H282.869V382.031V378.164H286.682H290.496V376.943V375.723H285.478H280.46V392.815ZM309.375 376.349C308.166 376.692 306.397 377.437 305.445 378.003C304.492 378.569 303.103 379.574 302.358 380.237C301.613 380.9 300.427 382.354 299.722 383.467C299.017 384.58 298.099 386.606 297.68 387.969C297.262 389.331 296.92 391.509 296.92 392.809C296.92 394.108 297.283 396.363 297.727 397.82C298.188 399.334 299.282 401.5 300.279 402.872C301.255 404.216 302.977 405.906 304.189 406.709C305.38 407.499 307.11 408.444 308.034 408.809C308.957 409.174 310.859 409.591 312.259 409.737C314.05 409.923 315.565 409.804 317.362 409.337C318.769 408.972 320.813 408.18 321.904 407.578C322.996 406.976 324.763 405.513 325.832 404.328C326.9 403.143 328.285 401.121 328.907 399.834C329.951 397.679 330.04 397.126 330.04 392.807C330.04 388.344 329.978 387.989 328.742 385.445C327.93 383.772 326.616 381.978 325.233 380.652C324.017 379.486 321.846 377.974 320.408 377.292C318.395 376.337 317.081 376.015 314.684 375.888C312.645 375.78 310.815 375.939 309.375 376.349ZM336.664 392.815V409.908H338.069H339.474V392.815V375.723H338.069H336.664V392.815ZM349.31 376.297C348.648 376.596 347.657 377.333 347.109 377.935C346.274 378.852 346.087 379.522 345.961 382.06C345.878 383.726 345.929 385.736 346.075 386.525C346.245 387.442 347.687 389.755 350.068 392.931C352.118 395.665 354.006 398.302 354.263 398.791C354.52 399.28 354.73 400.942 354.73 402.485C354.73 404.89 354.598 405.415 353.801 406.174C353.211 406.736 352.357 407.059 351.462 407.059C350.508 407.059 349.77 406.755 349.179 406.117C348.478 405.359 348.307 404.682 348.307 402.658V400.14H347.102H345.898V402.929C345.898 405.151 346.083 405.999 346.809 407.1C347.31 407.861 348.349 408.813 349.118 409.217C350.03 409.696 351.042 409.885 352.035 409.762C352.872 409.659 354.01 409.273 354.564 408.905C355.118 408.537 355.923 407.65 356.353 406.935C356.967 405.915 357.136 404.888 357.136 402.175C357.136 399.363 356.976 398.45 356.281 397.292C355.811 396.508 354.032 394.036 352.328 391.798C350.625 389.559 349.023 387.328 348.769 386.839C348.515 386.35 348.307 384.688 348.307 383.146C348.307 380.683 348.429 380.225 349.307 379.389C349.9 378.824 350.801 378.436 351.518 378.436C352.235 378.436 353.137 378.824 353.729 379.389C354.591 380.209 354.73 380.698 354.73 382.915V385.49H355.977H357.224L357.079 382.265C356.956 379.507 356.79 378.881 355.933 377.939C355.381 377.334 354.349 376.587 353.639 376.281C352.928 375.974 351.935 375.73 351.431 375.738C350.927 375.747 349.973 375.999 349.31 376.297ZM363.562 392.815V409.908H368.781H374V408.687V407.466H370.186H366.372V397.902V388.339H370.186H374V387.118V385.897H370.186H366.372V382.031V378.164H370.186H374V376.943V375.723H368.781H363.562V392.815ZM68.7901 379.503C69.6714 380.321 69.6934 380.547 69.6934 388.816V397.292H66.4818H63.2701V388.816C63.2701 380.546 63.2918 380.321 64.1734 379.508C64.67 379.05 65.3476 378.576 65.6788 378.456C66.01 378.335 66.6423 378.333 67.0839 378.451C67.5255 378.569 68.2935 379.042 68.7901 379.503ZM109.236 379.346C109.898 379.728 110.846 380.652 111.344 381.401C111.994 382.379 112.248 383.356 112.248 384.879C112.248 386.406 111.996 387.373 111.345 388.343C110.848 389.082 109.99 390.016 109.438 390.416C108.886 390.817 107.757 391.267 106.929 391.415L105.423 391.685V384.892V378.1L106.728 378.376C107.446 378.528 108.574 378.964 109.236 379.346ZM319.666 379.78C321.026 380.416 322.872 381.702 323.769 382.639C324.666 383.576 325.902 385.379 326.516 386.646C327.498 388.673 327.631 389.411 327.631 392.815C327.631 396.21 327.497 396.959 326.525 398.964C325.917 400.22 324.467 402.16 323.304 403.276C321.932 404.59 320.344 405.625 318.789 406.216C316.833 406.96 315.761 407.103 312.978 406.99C310.37 406.884 309.093 406.617 307.558 405.856C306.454 405.309 304.631 403.931 303.505 402.793C302.152 401.426 301.179 399.966 300.632 398.484C300.177 397.251 299.68 395.401 299.528 394.374C299.37 393.307 299.461 391.48 299.738 390.117C300.005 388.803 300.577 387.023 301.009 386.162C301.441 385.3 302.524 383.793 303.415 382.812C304.307 381.832 305.973 380.565 307.118 379.997C308.264 379.429 310.005 378.797 310.989 378.592C311.972 378.387 313.771 378.311 314.985 378.423C316.2 378.534 318.306 379.145 319.666 379.78ZM113.298 395.079C113.908 395.54 114.759 396.396 115.19 396.981C115.621 397.566 116.059 398.948 116.164 400.053C116.297 401.46 116.142 402.515 115.643 403.579C115.253 404.414 114.27 405.541 113.459 406.085C112.33 406.843 111.221 407.133 108.705 407.33L105.423 407.586V400.77V393.953L108.806 394.096C111.447 394.208 112.433 394.424 113.298 395.079Z" fill="#562714"/>
</svg>
