<svg width="516" height="514" viewBox="0 0 516 514" fill="none" xmlns="http://www.w3.org/2000/svg">
<path fill-rule="evenodd" clip-rule="evenodd" d="M54.9175 21.6578C54.9734 11.6728 57.8675 6.31188 65.4615 2.12181C77.8746 -4.72609 89.5865 5.59691 90.8775 24.5239C92.2034 43.9719 94.2654 44.9598 133.527 44.9519C173.088 44.9448 176.148 43.6399 178.458 25.7809C181.291 3.87389 210.81 4.66088 213.929 26.7268C216.324 43.6719 219.431 44.9579 257.961 44.9579C297.886 44.9579 301.883 42.9329 301.939 22.6759C301.98 8.5869 308.346 0.957874 320.066 0.957874C331.503 0.957874 337.833 9.21984 337.918 24.2578C338.023 43.0239 342.193 44.9579 382.547 44.9579C419.899 44.9579 423.517 43.4359 425.384 26.9448C428.014 3.6848 458.75 4.29284 461.29 27.6538C462.731 40.9059 467.854 44.2289 487.935 44.9388C507.488 45.6299 513.961 49.9438 513.961 62.2788C513.961 75.9879 507.848 80.1838 486.783 80.9348C461.922 81.8208 461.02 83.3618 460.991 124.958C460.964 162.908 463.33 167.95 481.161 167.964C512.295 167.987 515.544 201.934 484.614 204.034C462.464 205.538 460.95 208.366 460.985 248.151C461.023 289.174 462.714 291.958 487.608 291.958C524.931 291.958 525.449 326.611 488.146 327.936C461.905 328.869 461.02 330.303 460.991 371.958C460.964 410.604 462.672 414.016 482.668 415.253C515.417 417.279 513.512 451.819 480.646 451.934C465.787 451.986 461.826 457.453 461.012 479.037C460.2 500.547 449.783 510.156 435.39 502.671C427.38 498.505 425.651 494.195 425.005 476.78C424.624 466.49 424.419 460.466 421.347 456.939C416.989 451.936 406.862 451.958 382.282 451.958C342.373 451.958 340.106 452.805 337.877 468.551C334.45 492.753 305.274 493.358 301.867 469.298C299.541 452.866 297.241 451.958 257.961 451.958C233.583 451.958 222.961 451.829 218.196 457.048C214.4 461.204 214.319 468.753 213.961 482.46C213.263 509.184 205.756 518.135 189.276 511.891C180.189 508.448 178.558 504.051 177.962 481.377C177.617 468.233 177.604 460.959 173.981 456.935C169.321 451.759 158.692 451.958 133.709 451.958C93.2415 451.958 92.1956 452.453 90.9324 472.196C88.9456 503.24 56.8904 505.369 54.9256 474.588C53.7435 456.078 49.3494 451.962 30.7615 451.952C-8.05562 451.933 -11.2175 417.408 27.4615 415.919C43.7176 415.294 47.6016 413.97 51.8006 407.625L54.4615 403.604V372.031C54.4615 330.84 53.6404 329.107 33.5845 327.935C2.53251 326.12 1.76762 292.025 32.7764 291.936C53.1126 291.878 55.2044 287.476 54.7664 245.646C54.3645 207.208 53.2955 205.205 32.5555 204.03C2.30253 202.316 2.37456 169.714 32.6346 168.194C53.3804 167.151 54.9505 164.074 54.9505 124.458C54.9505 88.6518 52.0945 80.9849 38.7435 80.9519C30.5115 80.9319 22.0464 74.7029 20.0196 67.1719C17.1165 56.3928 25.8245 45.0078 37.0274 44.9359C48.5186 44.8629 54.8335 36.6459 54.9175 21.6578ZM91.0286 132.781C91.0286 96.1089 91.5506 93.8819 101.03 90.1019C102.488 89.521 116.38 89.079 134.377 89.042C168.825 88.9719 169.751 89.126 174.835 95.792L177.529 99.323V132.578C177.529 155.897 178.304 166.743 173.269 171.761C168.262 176.753 157.508 175.979 134.529 175.979C111.399 175.979 100.527 176.643 95.4358 171.539C90.3655 166.457 91.0286 155.655 91.0286 132.781ZM217 96.725C218.359 94.7419 221.06 92.198 223 91.0719C226.348 89.1289 228.127 89.0239 257.893 89.0019C293.18 88.9759 293.83 89.0979 299.045 96.7079L301.529 100.331V132.477V164.623L298.867 168.645C294.115 175.829 293.279 175.979 258.029 175.979C222.779 175.979 221.942 175.829 217.189 168.645L214.529 164.623V132.477V100.331L217 96.725ZM341.209 95.8099C342.681 93.8779 345.382 91.5509 347.209 90.6399C350.127 89.183 354.422 89.012 382.707 89.2309C405.185 89.4045 415.777 88.7256 420.743 93.6827C425.793 98.722 425.029 109.586 425.029 133.092V165.909L421.88 169.495C420.534 171.029 419.521 172.199 418.305 173.093C414.338 176.01 408.204 175.979 381.227 175.979C358.47 175.979 347.789 176.742 342.8 171.781C337.763 166.772 338.529 155.93 338.529 132.578V99.323L341.209 95.8099ZM91.2386 257.129C90.8965 218.863 91.2024 217.671 102.492 213.305C104.54 212.513 114.648 212.108 133.529 212.061C156.442 212.003 167.57 211.625 172.966 217.001C178.381 222.395 178.024 233.581 178.012 256.697C178 279.314 178.486 290.138 173.317 295.303C168.143 300.473 157.302 299.973 134.622 299.957C111.768 299.94 101.026 300.592 95.9454 295.545C90.8787 290.512 91.4417 279.811 91.2386 257.129ZM214.073 255.979C214.073 220.089 214.834 217.308 225.712 213.428C228.592 212.401 236.524 212.067 258.029 212.067C280.683 212.067 291.672 211.732 296.997 217.06C302.319 222.383 301.984 233.362 301.984 255.979C301.984 278.725 302.354 289.725 297.038 295.038C291.727 300.348 280.737 299.979 258.029 299.979C235.32 299.979 224.33 300.348 219.019 295.038C213.703 289.725 214.073 278.725 214.073 255.979ZM338.029 256.479C338.029 219.27 338.532 217.414 349.684 213.438C366.05 207.602 417.554 212.283 422.712 220.075L425.529 224.328L425.834 253.592C426.084 277.61 426.564 289.281 420.968 294.888C415.357 300.51 403.636 300.033 379.449 299.791L348.37 299.479L344.698 296.677C343.162 295.505 341.98 294.603 341.07 293.481C338.028 289.729 338.029 283.51 338.029 256.479ZM91.2376 378.424C91.5655 342.405 91.5706 342.384 99.8584 338.006C103.252 336.213 105.831 336.064 134.066 336.023C157.074 335.99 168.018 335.423 173.243 340.613C178.465 345.801 177.974 356.739 178.1 379.708L178.272 410.889L175.664 415.338C170.835 423.579 168.99 423.98 135.962 423.973C112.69 423.968 101.4 424.352 95.9817 418.899C90.5335 413.417 91.023 402.034 91.2376 378.424ZM214.029 380.657C214.029 345.27 214.896 341.696 224.529 337.396C226.819 336.374 234.844 336.048 258.44 336.018L289.353 335.979L293.595 338.465C301.844 343.299 302.156 344.919 301.82 381.209L301.529 412.638L298.645 416.417C293.161 423.603 291.367 423.935 258.029 423.935C235.215 423.935 224.219 424.281 218.925 418.956C213.684 413.687 214.029 402.864 214.029 380.657ZM337.529 380.479C337.529 344.479 338.237 341.411 347.479 337.386C349.794 336.377 358.073 336.048 381.829 336.018C404.515 335.99 415.649 335.598 421.047 340.971C426.589 346.485 426.087 358.074 425.834 382.366L425.529 411.63L422.845 415.683C414.111 428.873 348.083 428.433 340.264 415.133L337.529 410.479V380.479Z" fill="#F6C68D"/>
</svg>
