<svg width="514" height="481" viewBox="0 0 514 481" fill="none" xmlns="http://www.w3.org/2000/svg">
<path fill-rule="evenodd" clip-rule="evenodd" d="M14.7084 5.09902C-20.7686 90.008 9.94337 213.574 85.1974 288.696C152.576 355.956 230.462 385.81 370.99 398.239C380.098 399.044 380.788 397.53 363.288 415.161C335.448 443.211 335.311 469.328 362.948 479.669C376 481.5 382.728 487.427 449.916 420.402C534.437 336.086 534.39 350.251 450.426 266.449C386.272 202.421 378.49 205.456 374.74 205.177C345.5 203 331.458 238.971 364.924 272.804C374.093 282.073 381.247 289.999 380.823 290.417C377.928 293.274 319.593 290.106 292.612 285.626C144.476 261.028 32.2904 148.453 25.6074 17.696C24.7594 1.10702 19.1064 -5.42698 14.7084 5.09902Z" fill="#584030"/>
</svg>
