<svg width="321" height="326" viewBox="0 0 321 326" fill="none" xmlns="http://www.w3.org/2000/svg">
<path fill-rule="evenodd" clip-rule="evenodd" d="M145.118 0.662816C142.156 1.19182 135.631 2.99182 130.618 4.66182C101.794 14.2698 80.5878 36.6198 71.3748 67.1018C68.9188 75.2288 68.6538 77.6058 68.6538 91.6018C68.6538 105.503 68.9268 107.993 71.2928 115.741C76.6668 133.334 83.3208 144.711 95.1628 156.553C131.025 192.415 189.01 192.39 224.902 156.499C260.793 120.607 260.818 62.6218 224.956 26.7598C207.768 9.57182 187.359 0.777815 163.005 0.0668152C156.13 -0.134185 148.081 0.133816 145.118 0.662816ZM173.797 25.1678C194.542 29.3828 212.509 43.6508 221.567 63.1018C232.203 85.9398 229.155 112.787 213.597 133.318C201.668 149.06 180.173 159.602 160.005 159.602C139.837 159.602 118.342 149.06 106.413 133.318C94.1448 117.128 89.5708 97.3248 93.5938 77.8098C101.144 41.1828 136.951 17.6808 173.797 25.1678ZM140.005 216.71C84.8708 222.95 34.8428 254.417 5.3358 301.416C-0.385201 310.528 -1.2072 314.358 1.4538 319.503C3.5138 323.486 7.25779 325.602 12.2468 325.602C17.8358 325.602 20.0568 323.94 24.6198 316.342C35.0428 298.986 51.4588 281.225 68.0598 269.341C79.1158 261.426 100.028 250.823 111.732 247.198C129.982 241.544 139.048 240.237 160.005 240.237C176.342 240.237 181.172 240.595 189.778 242.443C217.157 248.323 240.274 259.276 261.168 276.268C273.541 286.33 287.917 302.936 295.421 315.834C299.512 322.865 303.227 325.602 308.682 325.602C312.493 325.602 313.741 325.066 316.605 322.202C319.452 319.355 320.005 318.079 320.005 314.355C320.005 310.703 319.04 308.37 314.614 301.32C288.751 260.125 247.157 230.721 199.926 220.246C179.901 215.804 158.938 214.568 140.005 216.71Z" fill="#F6C68D"/>
</svg>
